<?xml version="1.0" encoding="UTF-8"?>
<svg id="Layer_3" data-name="Layer 3" xmlns="http://www.w3.org/2000/svg" viewBox="0 0 288 224.47">
  <defs>
    <style>
      .cls-1 {
        fill: #fff;
      }

      .cls-2 {
        fill: none;
        stroke: #d17c41;
        stroke-miterlimit: 10;
      }

      .cls-3 {
        fill: #848484;
      }

      .cls-4 {
        fill: #a6b1a1;
      }

      .cls-5 {
        fill: #6c8480;
      }

      .cls-6 {
        fill: #c4ceb6;
      }
    </style>
  </defs>
  <g>
    <rect class="cls-5" x="7.8" y="109.17" width="57.67" height="14.51" rx="3.55" ry="3.55"/>
    <g>
      <path class="cls-1" d="M24.06,116.24c0-1.3.86-2.05,1.91-2.05.57,0,.97.24,1.23.51l-.47.57c-.19-.18-.4-.31-.74-.31-.6,0-1.03.47-1.03,1.26s.36,1.27,1.1,1.27c.16,0,.32-.04.41-.12v-.67h-.65v-.72h1.43v1.8c-.27.26-.74.47-1.29.47-1.08,0-1.91-.69-1.91-2Z"/>
      <path class="cls-1" d="M28.07,114.26h.88v3.91h-.88v-3.91Z"/>
      <path class="cls-1" d="M29.63,117.67l.51-.61c.28.24.64.41.96.41.37,0,.55-.14.55-.38,0-.25-.22-.33-.56-.46l-.51-.22c-.41-.17-.79-.5-.79-1.07,0-.65.58-1.17,1.39-1.17.45,0,.92.18,1.26.51l-.45.56c-.26-.2-.5-.31-.81-.31s-.5.13-.5.35c0,.24.26.33.6.46l.5.2c.48.19.78.51.78,1.06,0,.65-.54,1.21-1.47,1.21-.51,0-1.05-.19-1.45-.57Z"/>
      <path class="cls-1" d="M32.97,116.68c0-.99.73-1.56,1.55-1.56.37,0,.65.13.87.32l-.42.57c-.14-.12-.26-.18-.4-.18-.42,0-.7.33-.7.85s.28.85.67.85c.2,0,.38-.1.54-.22l.35.58c-.29.26-.66.35-.98.35-.83,0-1.47-.57-1.47-1.56Z"/>
      <path class="cls-1" d="M35.88,114.3c0-.27.21-.46.51-.46s.51.19.51.46-.21.46-.51.46-.51-.19-.51-.46ZM35.94,115.19h.88v2.98h-.88v-2.98Z"/>
      <path class="cls-1" d="M37.43,116.68c0-.96.69-1.56,1.4-1.56.85,0,1.27.62,1.27,1.43,0,.16-.02.32-.04.39h-1.78c.08.43.37.63.77.63.23,0,.43-.07.64-.2l.29.53c-.3.21-.7.33-1.06.33-.85,0-1.5-.57-1.5-1.56ZM39.34,116.36c0-.33-.14-.56-.49-.56-.28,0-.52.19-.58.56h1.07Z"/>
      <path class="cls-1" d="M40.71,115.19h.72l.06.38h.02c.25-.24.55-.45.96-.45.65,0,.92.46.92,1.2v1.85h-.88v-1.73c0-.43-.12-.56-.37-.56-.22,0-.36.1-.55.29v2.01h-.88v-2.98Z"/>
      <path class="cls-1" d="M43.97,116.68c0-.99.73-1.56,1.55-1.56.37,0,.65.13.87.32l-.42.57c-.14-.12-.26-.18-.4-.18-.42,0-.7.33-.7.85s.28.85.67.85c.2,0,.38-.1.54-.22l.35.58c-.29.26-.66.35-.98.35-.83,0-1.47-.57-1.47-1.56Z"/>
      <path class="cls-1" d="M46.6,116.68c0-.96.69-1.56,1.4-1.56.85,0,1.27.62,1.27,1.43,0,.16-.02.32-.04.39h-1.78c.08.43.37.63.77.63.23,0,.43-.07.64-.2l.29.53c-.3.21-.7.33-1.06.33-.85,0-1.5-.57-1.5-1.56ZM48.52,116.36c0-.33-.14-.56-.49-.56-.28,0-.52.19-.58.56h1.07Z"/>
    </g>
  </g>
  <g>
    <rect class="cls-4" x="92.92" y="17.03" width="78.06" height="14.51" rx="3.55" ry="3.55"/>
    <g>
      <path class="cls-1" d="M97.45,24.01c0-1.27.71-2.02,1.73-2.02s1.73.75,1.73,2.02-.71,2.05-1.73,2.05-1.73-.78-1.73-2.05ZM100.19,24.01c0-.88-.4-1.41-1.01-1.41s-1.01.53-1.01,1.41.4,1.44,1.01,1.44,1.01-.56,1.01-1.44Z"/>
      <path class="cls-1" d="M101.64,23.05h.57l.05.4h.02c.26-.26.56-.47.97-.47.63,0,.91.43.91,1.17v1.85h-.69v-1.76c0-.49-.14-.67-.46-.67-.26,0-.43.13-.67.37v2.06h-.69v-2.95Z"/>
      <path class="cls-1" d="M105.1,25v-1.4h-.42v-.52l.46-.03.08-.8h.57v.8h.75v.55h-.75v1.4c0,.35.13.52.42.52.1,0,.22-.03.31-.07l.12.51c-.16.05-.37.11-.6.11-.68,0-.93-.43-.93-1.07Z"/>
      <path class="cls-1" d="M106.87,24.52c0-.98.67-1.55,1.4-1.55s1.4.57,1.4,1.55-.67,1.54-1.4,1.54-1.4-.57-1.4-1.54ZM108.96,24.52c0-.59-.26-.98-.69-.98s-.69.39-.69.98.26.98.69.98.69-.39.69-.98Z"/>
      <path class="cls-1" d="M110.32,25.23v-3.48h.69v3.51c0,.17.08.23.15.23.03,0,.06,0,.11-.01l.09.52c-.08.03-.2.06-.36.06-.49,0-.67-.32-.67-.83Z"/>
      <path class="cls-1" d="M111.76,24.52c0-.98.67-1.55,1.4-1.55s1.4.57,1.4,1.55-.67,1.54-1.4,1.54-1.4-.57-1.4-1.54ZM113.85,24.52c0-.59-.26-.98-.69-.98s-.69.39-.69.98.26.98.69.98.69-.39.69-.98Z"/>
      <path class="cls-1" d="M115.04,26.53c0-.25.15-.47.42-.63v-.02c-.15-.1-.27-.25-.27-.49s.16-.43.33-.55v-.02c-.2-.15-.39-.43-.39-.78,0-.68.55-1.06,1.16-1.06.16,0,.32.03.44.07h1.05v.51h-.54c.1.11.17.29.17.49,0,.66-.5,1.01-1.12,1.01-.12,0-.27-.03-.4-.08-.09.08-.14.15-.14.28,0,.17.12.27.48.27h.52c.7,0,1.08.22,1.08.73,0,.58-.61,1.04-1.57,1.04-.7,0-1.23-.25-1.23-.77ZM117.17,26.37c0-.23-.18-.29-.52-.29h-.4c-.16,0-.29-.01-.4-.04-.16.12-.23.25-.23.39,0,.27.29.42.75.42s.8-.22.8-.48ZM116.81,24.03c0-.37-.22-.58-.51-.58s-.51.21-.51.58.23.59.51.59.51-.22.51-.59Z"/>
      <path class="cls-1" d="M118.23,27.14l.13-.54c.06.02.14.04.21.04.31,0,.49-.21.59-.51l.06-.18-1.16-2.91h.7l.51,1.44c.09.26.17.55.26.83h.02c.07-.27.15-.56.23-.83l.44-1.44h.67l-1.06,3.08c-.24.66-.55,1.07-1.2,1.07-.16,0-.28-.02-.38-.06Z"/>
      <path class="cls-1" d="M122.33,24.96c0-1.22,1.81-1.32,1.81-2.12,0-.21-.09-.37-.32-.37-.25,0-.42.2-.42.5,0,.68.83,1.59,1.6,2.11.32.21.63.37.88.42l-.17.56c-.35-.08-.74-.27-1.12-.54-.92-.66-1.77-1.74-1.77-2.55,0-.54.39-.98.99-.98.54,0,.87.34.87.83,0,1.03-1.69,1.3-1.69,2.09,0,.36.29.61.68.61.3,0,.6-.17.86-.43.31-.33.56-.75.7-1.27h.63c-.17.59-.45,1.13-.85,1.59-.35.39-.81.65-1.42.65-.78,0-1.25-.49-1.25-1.1Z"/>
      <path class="cls-1" d="M127.69,22.07h1.32c.82,0,1.44.29,1.44,1.16s-.63,1.23-1.44,1.23h-.63v1.53h-.7v-3.92ZM128.94,23.9c.54,0,.83-.22.83-.67s-.29-.61-.83-.61h-.55v1.28h.55ZM128.88,24.27l.5-.42,1.22,2.13h-.78l-.95-1.72Z"/>
      <path class="cls-1" d="M130.93,24.52c0-.96.66-1.55,1.36-1.55.8,0,1.22.58,1.22,1.4,0,.13-.01.26-.03.34h-1.87c.06.52.39.82.87.82.25,0,.47-.08.68-.21l.23.43c-.28.19-.64.32-1.01.32-.81,0-1.45-.57-1.45-1.54ZM132.9,24.24c0-.45-.2-.73-.6-.73-.34,0-.65.26-.71.73h1.31Z"/>
      <path class="cls-1" d="M134.16,23.05h.57l.05.31h.02c.25-.21.56-.39.89-.39.74,0,1.16.59,1.16,1.5,0,1.01-.6,1.59-1.26,1.59-.26,0-.52-.12-.76-.32l.02.49v.93h-.69v-4.11ZM136.14,24.48c0-.59-.19-.94-.64-.94-.21,0-.42.11-.64.33v1.37c.21.18.42.24.59.24.39,0,.69-.35.69-1.01Z"/>
      <path class="cls-1" d="M137.55,23.05h.57l.05.53h.02c.21-.38.52-.6.84-.6.15,0,.24.02.33.06l-.12.6c-.1-.03-.18-.05-.3-.05-.23,0-.52.16-.7.61v1.8h-.69v-2.95Z"/>
      <path class="cls-1" d="M139.53,24.52c0-.96.66-1.55,1.36-1.55.8,0,1.22.58,1.22,1.4,0,.13-.01.26-.03.34h-1.87c.06.52.39.82.87.82.25,0,.47-.08.68-.21l.23.43c-.28.19-.64.32-1.01.32-.81,0-1.45-.57-1.45-1.54ZM141.51,24.24c0-.45-.2-.73-.6-.73-.34,0-.65.26-.71.73h1.31Z"/>
      <path class="cls-1" d="M142.47,25.65l.32-.44c.26.2.51.33.81.33.32,0,.47-.15.47-.35,0-.25-.32-.36-.63-.48-.39-.15-.83-.37-.83-.86s.41-.88,1.07-.88c.41,0,.74.17.98.35l-.32.42c-.21-.15-.41-.26-.65-.26-.3,0-.44.14-.44.33,0,.23.3.32.62.44.4.15.84.34.84.89,0,.51-.4.91-1.14.91-.4,0-.83-.17-1.12-.41Z"/>
      <path class="cls-1" d="M145.16,24.52c0-.96.66-1.55,1.36-1.55.8,0,1.22.58,1.22,1.4,0,.13-.01.26-.03.34h-1.87c.06.52.39.82.87.82.25,0,.47-.08.68-.21l.23.43c-.28.19-.64.32-1.01.32-.81,0-1.45-.57-1.45-1.54ZM147.13,24.24c0-.45-.2-.73-.6-.73-.34,0-.65.26-.71.73h1.31Z"/>
      <path class="cls-1" d="M148.39,23.05h.57l.05.4h.02c.26-.26.56-.47.97-.47.63,0,.91.43.91,1.17v1.85h-.69v-1.76c0-.49-.14-.67-.46-.67-.26,0-.43.13-.67.37v2.06h-.69v-2.95Z"/>
      <path class="cls-1" d="M151.86,25v-1.4h-.42v-.52l.46-.03.08-.8h.57v.8h.75v.55h-.75v1.4c0,.35.13.52.42.52.1,0,.22-.03.31-.07l.12.51c-.16.05-.37.11-.6.11-.68,0-.93-.43-.93-1.07Z"/>
      <path class="cls-1" d="M153.63,25.2c0-.63.52-.96,1.73-1.09,0-.32-.14-.58-.54-.58-.29,0-.57.13-.83.29l-.25-.46c.32-.2.74-.39,1.21-.39.74,0,1.1.45,1.1,1.27v1.74h-.57l-.05-.33h-.02c-.26.23-.57.4-.91.4-.52,0-.87-.35-.87-.86ZM155.37,25.2v-.66c-.8.1-1.07.31-1.07.61,0,.26.18.38.42.38s.42-.12.64-.32Z"/>
      <path class="cls-1" d="M156.9,25v-1.4h-.42v-.52l.46-.03.08-.8h.57v.8h.75v.55h-.75v1.4c0,.35.13.52.42.52.1,0,.22-.03.31-.07l.12.51c-.16.05-.37.11-.6.11-.68,0-.93-.43-.93-1.07Z"/>
      <path class="cls-1" d="M158.88,22.14c0-.23.18-.39.43-.39s.43.16.43.39-.18.39-.43.39-.43-.16-.43-.39ZM158.96,23.05h.69v2.95h-.69v-2.95Z"/>
      <path class="cls-1" d="M160.34,24.52c0-.98.67-1.55,1.4-1.55s1.4.57,1.4,1.55-.67,1.54-1.4,1.54-1.4-.57-1.4-1.54ZM162.43,24.52c0-.59-.26-.98-.69-.98s-.69.39-.69.98.26.98.69.98.69-.39.69-.98Z"/>
      <path class="cls-1" d="M163.83,23.05h.57l.05.4h.02c.26-.26.56-.47.97-.47.63,0,.91.43.91,1.17v1.85h-.69v-1.76c0-.49-.14-.67-.46-.67-.26,0-.43.13-.67.37v2.06h-.69v-2.95Z"/>
    </g>
  </g>
  <g>
    <rect class="cls-4" x="93.43" y="62.6" width="77.55" height="14.51" rx="3.55" ry="3.55"/>
    <g>
      <path class="cls-1" d="M115.52,69.62c0-1.28.8-2.05,1.8-2.05.49,0,.88.24,1.13.5l-.37.45c-.2-.2-.44-.34-.74-.34-.64,0-1.1.54-1.1,1.42s.42,1.44,1.08,1.44c.35,0,.62-.16.84-.4l.37.44c-.32.37-.73.57-1.24.57-.99,0-1.77-.72-1.77-2.02Z"/>
      <path class="cls-1" d="M118.93,70.1c0-.98.67-1.55,1.4-1.55s1.4.57,1.4,1.55-.67,1.54-1.4,1.54-1.4-.57-1.4-1.54ZM121.02,70.1c0-.59-.26-.98-.69-.98s-.69.39-.69.98.26.98.69.98.69-.39.69-.98Z"/>
      <path class="cls-1" d="M122.41,68.62h.57l.05.4h.02c.25-.26.53-.47.9-.47.43,0,.68.2.81.53.28-.3.57-.53.95-.53.62,0,.91.43.91,1.17v1.85h-.69v-1.76c0-.49-.14-.67-.45-.67-.19,0-.39.12-.62.37v2.06h-.69v-1.76c0-.49-.14-.67-.45-.67-.18,0-.39.12-.62.37v2.06h-.69v-2.95Z"/>
      <path class="cls-1" d="M127.47,68.62h.57l.05.31h.02c.25-.21.56-.39.89-.39.74,0,1.16.59,1.16,1.5,0,1.01-.6,1.59-1.26,1.59-.26,0-.52-.12-.76-.32l.02.49v.93h-.69v-4.11ZM129.45,70.06c0-.59-.19-.94-.64-.94-.21,0-.42.11-.64.33v1.37c.21.18.42.24.59.24.39,0,.69-.35.69-1.01Z"/>
      <path class="cls-1" d="M130.82,70.47v-1.85h.69v1.76c0,.48.14.67.46.67.26,0,.43-.12.65-.41v-2.02h.69v2.95h-.57l-.05-.43h-.02c-.26.31-.54.51-.95.51-.63,0-.91-.43-.91-1.17Z"/>
      <path class="cls-1" d="M134.3,70.58v-1.4h-.42v-.52l.46-.03.08-.8h.57v.8h.75v.55h-.75v1.4c0,.35.13.52.42.52.1,0,.22-.03.31-.07l.12.51c-.16.05-.37.11-.6.11-.68,0-.93-.43-.93-1.07Z"/>
      <path class="cls-1" d="M136.07,70.78c0-.63.52-.96,1.73-1.09,0-.32-.14-.58-.54-.58-.29,0-.57.13-.83.29l-.25-.46c.32-.2.74-.39,1.21-.39.74,0,1.1.45,1.1,1.27v1.74h-.57l-.05-.33h-.02c-.26.23-.57.4-.91.4-.52,0-.87-.35-.87-.86ZM137.81,70.78v-.66c-.8.1-1.07.31-1.07.61,0,.26.18.38.42.38s.42-.12.64-.32Z"/>
      <path class="cls-1" d="M139.34,70.58v-1.4h-.42v-.52l.46-.03.08-.8h.57v.8h.75v.55h-.75v1.4c0,.35.13.52.42.52.1,0,.22-.03.31-.07l.12.51c-.16.05-.37.11-.6.11-.68,0-.93-.43-.93-1.07Z"/>
      <path class="cls-1" d="M141.32,67.72c0-.23.18-.39.43-.39s.43.16.43.39-.18.39-.43.39-.43-.16-.43-.39ZM141.4,68.62h.69v2.95h-.69v-2.95Z"/>
      <path class="cls-1" d="M142.78,70.1c0-.98.67-1.55,1.4-1.55s1.4.57,1.4,1.55-.67,1.54-1.4,1.54-1.4-.57-1.4-1.54ZM144.87,70.1c0-.59-.26-.98-.69-.98s-.69.39-.69.98.26.98.69.98.69-.39.69-.98Z"/>
      <path class="cls-1" d="M146.26,68.62h.57l.05.4h.02c.26-.26.56-.47.97-.47.63,0,.91.43.91,1.17v1.85h-.69v-1.76c0-.49-.14-.67-.46-.67-.26,0-.43.13-.67.37v2.06h-.69v-2.95Z"/>
    </g>
  </g>
  <g>
    <rect class="cls-4" x="93.44" y="109.06" width="77.53" height="14.51" rx="3.55" ry="3.55"/>
    <g>
      <path class="cls-1" d="M119.9,116.08c0-1.28.8-2.05,1.8-2.05.49,0,.88.24,1.13.5l-.37.45c-.2-.2-.44-.34-.74-.34-.64,0-1.1.54-1.1,1.42s.42,1.44,1.08,1.44c.35,0,.62-.16.84-.4l.37.44c-.32.37-.73.57-1.24.57-.99,0-1.77-.72-1.77-2.02Z"/>
      <path class="cls-1" d="M123.3,116.56c0-.98.67-1.55,1.4-1.55s1.4.57,1.4,1.55-.67,1.54-1.4,1.54-1.4-.57-1.4-1.54ZM125.4,116.56c0-.59-.26-.98-.69-.98s-.69.39-.69.98.26.98.69.98.69-.39.69-.98Z"/>
      <path class="cls-1" d="M126.59,118.57c0-.25.15-.47.42-.63v-.02c-.15-.1-.27-.25-.27-.49s.16-.43.33-.55v-.02c-.2-.15-.39-.43-.39-.78,0-.68.55-1.06,1.16-1.06.16,0,.32.03.44.07h1.05v.51h-.54c.1.11.17.29.17.49,0,.66-.5,1.01-1.12,1.01-.12,0-.27-.03-.4-.08-.09.08-.14.15-.14.28,0,.17.12.27.48.27h.52c.7,0,1.08.22,1.08.73,0,.58-.61,1.04-1.57,1.04-.7,0-1.23-.25-1.23-.77ZM128.72,118.41c0-.23-.18-.29-.52-.29h-.4c-.16,0-.29-.01-.4-.04-.16.12-.23.25-.23.39,0,.27.29.42.75.42s.8-.22.8-.48ZM128.36,116.07c0-.37-.22-.58-.51-.58s-.51.21-.51.58.23.59.51.59.51-.22.51-.59Z"/>
      <path class="cls-1" d="M129.91,115.08h.57l.05.4h.02c.26-.26.56-.47.97-.47.63,0,.91.43.91,1.17v1.85h-.69v-1.76c0-.49-.14-.67-.46-.67-.26,0-.43.13-.67.37v2.06h-.69v-2.95Z"/>
      <path class="cls-1" d="M133.19,114.18c0-.23.18-.39.43-.39s.43.16.43.39-.18.39-.43.39-.43-.16-.43-.39ZM133.27,115.08h.69v2.95h-.69v-2.95Z"/>
      <path class="cls-1" d="M134.95,117.04v-1.4h-.42v-.52l.46-.03.08-.8h.57v.8h.75v.55h-.75v1.4c0,.35.13.52.42.52.1,0,.22-.03.31-.07l.12.51c-.16.05-.37.11-.6.11-.68,0-.93-.43-.93-1.07Z"/>
      <path class="cls-1" d="M136.93,114.18c0-.23.18-.39.43-.39s.43.16.43.39-.18.39-.43.39-.43-.16-.43-.39ZM137.01,115.08h.69v2.95h-.69v-2.95Z"/>
      <path class="cls-1" d="M138.39,116.56c0-.98.67-1.55,1.4-1.55s1.4.57,1.4,1.55-.67,1.54-1.4,1.54-1.4-.57-1.4-1.54ZM140.48,116.56c0-.59-.26-.98-.69-.98s-.69.39-.69.98.26.98.69.98.69-.39.69-.98Z"/>
      <path class="cls-1" d="M141.88,115.08h.57l.05.4h.02c.26-.26.56-.47.97-.47.63,0,.91.43.91,1.17v1.85h-.69v-1.76c0-.49-.14-.67-.46-.67-.26,0-.43.13-.67.37v2.06h-.69v-2.95Z"/>
    </g>
  </g>
  <g>
    <rect class="cls-4" x="93.43" y="194.6" width="77.53" height="14.51" rx="3.55" ry="3.55"/>
    <g>
      <path class="cls-1" d="M104.49,201.62c0-1.28.8-2.05,1.8-2.05.49,0,.88.24,1.13.5l-.37.45c-.2-.2-.44-.34-.74-.34-.64,0-1.1.54-1.1,1.42s.42,1.44,1.08,1.44c.35,0,.62-.16.84-.4l.37.44c-.32.37-.73.57-1.24.57-.99,0-1.77-.72-1.77-2.02Z"/>
      <path class="cls-1" d="M108.09,200.62h.57l.05.53h.02c.21-.38.52-.6.84-.6.15,0,.24.02.33.06l-.12.6c-.1-.03-.18-.05-.3-.05-.23,0-.52.16-.7.61v1.8h-.69v-2.95Z"/>
      <path class="cls-1" d="M110.08,202.09c0-.98.67-1.55,1.4-1.55s1.4.57,1.4,1.55-.67,1.54-1.4,1.54-1.4-.57-1.4-1.54ZM112.17,202.09c0-.59-.26-.98-.69-.98s-.69.39-.69.98.26.98.69.98.69-.39.69-.98Z"/>
      <path class="cls-1" d="M113.25,203.23l.32-.44c.26.2.51.33.81.33.32,0,.47-.15.47-.35,0-.25-.32-.36-.63-.48-.39-.15-.83-.37-.83-.86s.41-.88,1.07-.88c.41,0,.74.17.98.35l-.32.42c-.21-.15-.41-.26-.65-.26-.3,0-.44.14-.44.33,0,.23.3.32.62.44.4.15.84.34.84.89,0,.51-.4.91-1.14.91-.4,0-.83-.17-1.12-.41Z"/>
      <path class="cls-1" d="M115.84,203.23l.32-.44c.26.2.51.33.81.33.32,0,.47-.15.47-.35,0-.25-.32-.36-.63-.48-.39-.15-.83-.37-.83-.86s.41-.88,1.07-.88c.41,0,.74.17.98.35l-.32.42c-.21-.15-.41-.26-.65-.26-.3,0-.44.14-.44.33,0,.23.3.32.62.44.4.15.84.34.84.89,0,.51-.4.91-1.14.91-.4,0-.83-.17-1.12-.41Z"/>
      <path class="cls-1" d="M118.59,201.8h1.42v.5h-1.42v-.5Z"/>
      <path class="cls-1" d="M120.51,202.09c0-.98.69-1.55,1.48-1.55.37,0,.65.14.86.33l-.34.45c-.16-.14-.3-.22-.49-.22-.48,0-.8.39-.8.98s.32.98.78.98c.23,0,.44-.11.61-.25l.28.46c-.28.24-.63.36-.96.36-.8,0-1.42-.57-1.42-1.54Z"/>
      <path class="cls-1" d="M123.44,202.47v-1.85h.69v1.76c0,.48.14.67.46.67.26,0,.43-.12.65-.41v-2.02h.69v2.95h-.57l-.05-.43h-.02c-.26.31-.54.51-.95.51-.63,0-.91-.43-.91-1.17Z"/>
      <path class="cls-1" d="M126.92,202.57v-1.4h-.42v-.52l.46-.03.08-.8h.57v.8h.75v.55h-.75v1.4c0,.35.13.52.42.52.1,0,.22-.03.31-.07l.12.51c-.16.05-.37.11-.6.11-.68,0-.93-.43-.93-1.07Z"/>
      <path class="cls-1" d="M128.96,202.57v-1.4h-.42v-.52l.46-.03.08-.8h.57v.8h.75v.55h-.75v1.4c0,.35.13.52.42.52.1,0,.22-.03.31-.07l.12.51c-.16.05-.37.11-.6.11-.68,0-.93-.43-.93-1.07Z"/>
      <path class="cls-1" d="M130.95,199.71c0-.23.18-.39.43-.39s.43.16.43.39-.18.39-.43.39-.43-.16-.43-.39ZM131.03,200.62h.69v2.95h-.69v-2.95Z"/>
      <path class="cls-1" d="M132.6,200.62h.57l.05.4h.02c.26-.26.56-.47.97-.47.63,0,.91.43.91,1.17v1.85h-.69v-1.76c0-.49-.14-.67-.46-.67-.26,0-.43.13-.67.37v2.06h-.69v-2.95Z"/>
      <path class="cls-1" d="M135.76,204.1c0-.25.15-.47.42-.63v-.02c-.15-.1-.27-.25-.27-.49s.16-.43.33-.55v-.02c-.2-.15-.39-.43-.39-.78,0-.68.55-1.06,1.16-1.06.16,0,.32.03.44.07h1.05v.51h-.54c.1.11.17.29.17.49,0,.66-.5,1.01-1.12,1.01-.12,0-.27-.03-.4-.08-.09.08-.14.15-.14.28,0,.17.12.27.48.27h.52c.7,0,1.08.22,1.08.73,0,.58-.61,1.04-1.57,1.04-.7,0-1.23-.25-1.23-.77ZM137.89,203.94c0-.23-.18-.29-.52-.29h-.4c-.16,0-.29-.01-.4-.04-.16.12-.23.25-.23.39,0,.27.29.42.75.42s.8-.22.8-.48ZM137.53,201.61c0-.37-.22-.58-.51-.58s-.51.21-.51.58.23.59.51.59.51-.22.51-.59Z"/>
      <path class="cls-1" d="M141.13,200.23h-1.13v-.58h2.96v.58h-1.13v3.34h-.7v-3.34Z"/>
      <path class="cls-1" d="M143.55,199.33h.69v1.1l-.03.57c.25-.23.54-.45.94-.45.63,0,.91.43.91,1.17v1.85h-.69v-1.76c0-.49-.14-.67-.46-.67-.26,0-.43.13-.67.37v2.06h-.69v-4.24Z"/>
      <path class="cls-1" d="M146.71,202.09c0-.96.66-1.55,1.36-1.55.8,0,1.22.58,1.22,1.4,0,.13-.01.26-.03.34h-1.87c.06.52.39.82.87.82.25,0,.47-.08.68-.21l.23.43c-.28.19-.64.32-1.01.32-.81,0-1.45-.57-1.45-1.54ZM148.68,201.81c0-.45-.2-.73-.6-.73-.34,0-.65.26-.71.73h1.31Z"/>
      <path class="cls-1" d="M149.94,200.62h.57l.05.4h.02c.25-.26.53-.47.9-.47.43,0,.68.2.81.53.28-.3.57-.53.95-.53.62,0,.91.43.91,1.17v1.85h-.69v-1.76c0-.49-.14-.67-.45-.67-.19,0-.39.12-.62.37v2.06h-.69v-1.76c0-.49-.14-.67-.45-.67-.18,0-.39.12-.62.37v2.06h-.69v-2.95Z"/>
      <path class="cls-1" d="M154.81,202.09c0-.96.66-1.55,1.36-1.55.8,0,1.22.58,1.22,1.4,0,.13-.01.26-.03.34h-1.87c.06.52.39.82.87.82.25,0,.47-.08.68-.21l.23.43c-.28.19-.64.32-1.01.32-.81,0-1.45-.57-1.45-1.54ZM156.78,201.81c0-.45-.2-.73-.6-.73-.34,0-.65.26-.71.73h1.31Z"/>
      <path class="cls-1" d="M157.75,203.23l.32-.44c.26.2.51.33.81.33.32,0,.47-.15.47-.35,0-.25-.32-.36-.63-.48-.39-.15-.83-.37-.83-.86s.41-.88,1.07-.88c.41,0,.74.17.98.35l-.32.42c-.21-.15-.41-.26-.65-.26-.3,0-.44.14-.44.33,0,.23.3.32.62.44.4.15.84.34.84.89,0,.51-.4.91-1.14.91-.4,0-.83-.17-1.12-.41Z"/>
    </g>
  </g>
  <g>
    <rect class="cls-4" x="93.48" y="153.79" width="77.53" height="14.51" rx="3.55" ry="3.55"/>
    <g>
      <path class="cls-1" d="M105.25,158.83h.7v3.92h-.7v-3.92Z"/>
      <path class="cls-1" d="M106.88,159.81h.57l.05.4h.02c.26-.26.56-.47.97-.47.63,0,.91.43.91,1.17v1.85h-.69v-1.76c0-.49-.14-.67-.46-.67-.26,0-.43.13-.67.37v2.06h-.69v-2.95Z"/>
      <path class="cls-1" d="M109.94,162.42l.32-.44c.26.2.51.33.81.33.32,0,.47-.15.47-.35,0-.25-.32-.36-.63-.48-.39-.15-.83-.37-.83-.86s.41-.88,1.07-.88c.41,0,.74.17.98.35l-.32.42c-.21-.15-.41-.26-.65-.26-.3,0-.44.14-.44.33,0,.23.3.32.62.44.4.15.84.34.84.89,0,.51-.4.91-1.14.91-.4,0-.83-.17-1.12-.41Z"/>
      <path class="cls-1" d="M112.81,161.76v-1.4h-.42v-.52l.46-.03.08-.8h.57v.8h.75v.55h-.75v1.4c0,.35.13.52.42.52.1,0,.22-.03.31-.07l.12.51c-.16.05-.37.11-.6.11-.68,0-.93-.43-.93-1.07Z"/>
      <path class="cls-1" d="M114.79,158.9c0-.23.18-.39.43-.39s.43.16.43.39-.18.39-.43.39-.43-.16-.43-.39ZM114.87,159.81h.69v2.95h-.69v-2.95Z"/>
      <path class="cls-1" d="M116.54,161.76v-1.4h-.42v-.52l.46-.03.08-.8h.57v.8h.75v.55h-.75v1.4c0,.35.13.52.42.52.1,0,.22-.03.31-.07l.12.51c-.16.05-.37.11-.6.11-.68,0-.93-.43-.93-1.07Z"/>
      <path class="cls-1" d="M118.57,161.66v-1.85h.69v1.76c0,.48.14.67.46.67.26,0,.43-.12.65-.41v-2.02h.69v2.95h-.57l-.05-.43h-.02c-.26.31-.54.51-.95.51-.63,0-.91-.43-.91-1.17Z"/>
      <path class="cls-1" d="M122.05,161.76v-1.4h-.42v-.52l.46-.03.08-.8h.57v.8h.75v.55h-.75v1.4c0,.35.13.52.42.52.1,0,.22-.03.31-.07l.12.51c-.16.05-.37.11-.6.11-.68,0-.93-.43-.93-1.07Z"/>
      <path class="cls-1" d="M124.03,158.9c0-.23.18-.39.43-.39s.43.16.43.39-.18.39-.43.39-.43-.16-.43-.39ZM124.11,159.81h.69v2.95h-.69v-2.95Z"/>
      <path class="cls-1" d="M125.49,161.28c0-.98.67-1.55,1.4-1.55s1.4.57,1.4,1.55-.67,1.54-1.4,1.54-1.4-.57-1.4-1.54ZM127.58,161.28c0-.59-.26-.98-.69-.98s-.69.39-.69.98.26.98.69.98.69-.39.69-.98Z"/>
      <path class="cls-1" d="M128.98,159.81h.57l.05.4h.02c.26-.26.56-.47.97-.47.63,0,.91.43.91,1.17v1.85h-.69v-1.76c0-.49-.14-.67-.46-.67-.26,0-.43.13-.67.37v2.06h-.69v-2.95Z"/>
      <path class="cls-1" d="M132.04,162.42l.32-.44c.26.2.51.33.81.33.32,0,.47-.15.47-.35,0-.25-.32-.36-.63-.48-.39-.15-.83-.37-.83-.86s.41-.88,1.07-.88c.41,0,.74.17.98.35l-.32.42c-.21-.15-.41-.26-.65-.26-.3,0-.44.14-.44.33,0,.23.3.32.62.44.4.15.84.34.84.89,0,.51-.4.91-1.14.91-.4,0-.83-.17-1.12-.41Z"/>
      <path class="cls-1" d="M135.85,161.72c0-1.22,1.81-1.32,1.81-2.12,0-.21-.09-.37-.32-.37-.25,0-.42.2-.42.5,0,.68.83,1.59,1.6,2.11.32.21.63.37.88.42l-.17.56c-.35-.08-.74-.27-1.12-.54-.92-.66-1.77-1.74-1.77-2.55,0-.54.39-.98.99-.98.54,0,.87.34.87.83,0,1.03-1.69,1.3-1.69,2.09,0,.36.29.61.68.61.3,0,.6-.17.86-.43.31-.33.56-.75.7-1.27h.63c-.17.59-.45,1.13-.85,1.59-.35.39-.81.65-1.42.65-.78,0-1.25-.49-1.25-1.1Z"/>
      <path class="cls-1" d="M140.95,162.25l.41-.48c.28.27.66.45,1.02.45.44,0,.68-.2.68-.51,0-.32-.25-.43-.61-.58l-.54-.23c-.39-.16-.79-.47-.79-1.04,0-.62.55-1.11,1.32-1.11.46,0,.9.19,1.21.5l-.36.44c-.25-.21-.52-.34-.85-.34-.37,0-.61.17-.61.46,0,.31.3.42.62.56l.53.22c.47.19.79.49.79,1.06,0,.64-.53,1.17-1.41,1.17-.53,0-1.04-.21-1.41-.58Z"/>
      <path class="cls-1" d="M144.23,161.28c0-.98.67-1.55,1.4-1.55s1.4.57,1.4,1.55-.67,1.54-1.4,1.54-1.4-.57-1.4-1.54ZM146.32,161.28c0-.59-.26-.98-.69-.98s-.69.39-.69.98.26.98.69.98.69-.39.69-.98Z"/>
      <path class="cls-1" d="M147.52,161.28c0-.98.69-1.55,1.48-1.55.37,0,.65.14.86.33l-.34.45c-.16-.14-.3-.22-.49-.22-.48,0-.8.39-.8.98s.32.98.78.98c.23,0,.44-.11.61-.25l.28.46c-.28.24-.63.36-.96.36-.8,0-1.42-.57-1.42-1.54Z"/>
      <path class="cls-1" d="M150.41,158.9c0-.23.18-.39.43-.39s.43.16.43.39-.18.39-.43.39-.43-.16-.43-.39ZM150.49,159.81h.69v2.95h-.69v-2.95Z"/>
      <path class="cls-1" d="M151.87,161.28c0-.96.66-1.55,1.36-1.55.8,0,1.22.58,1.22,1.4,0,.13-.01.26-.03.34h-1.87c.06.52.39.82.87.82.25,0,.47-.08.68-.21l.23.43c-.28.19-.64.32-1.01.32-.81,0-1.45-.57-1.45-1.54ZM153.85,161c0-.45-.2-.73-.6-.73-.34,0-.65.26-.71.73h1.31Z"/>
      <path class="cls-1" d="M155.15,161.76v-1.4h-.42v-.52l.46-.03.08-.8h.57v.8h.75v.55h-.75v1.4c0,.35.13.52.42.52.1,0,.22-.03.31-.07l.12.51c-.16.05-.37.11-.6.11-.68,0-.93-.43-.93-1.07Z"/>
      <path class="cls-1" d="M157.02,163.9l.13-.54c.06.02.14.04.21.04.31,0,.49-.21.59-.51l.06-.18-1.16-2.91h.7l.51,1.44c.09.26.17.55.26.83h.02c.07-.27.15-.56.23-.83l.44-1.44h.67l-1.06,3.08c-.24.66-.55,1.07-1.2,1.07-.16,0-.28-.02-.38-.06Z"/>
    </g>
  </g>
  <line class="cls-2" x1="171" y1="24.36" x2="177.13" y2="24.36"/>
  <path class="cls-2" d="M182.73,10.62h-3.55c-1.14,0-2.06.92-2.06,2.05v23.37c0,1.14.92,2.06,2.05,2.06h3.55"/>
  <line class="cls-2" x1="177.13" y1="24.36" x2="182.73" y2="24.36"/>
  <line class="cls-2" x1="170.94" y1="70.38" x2="176.99" y2="70.38"/>
  <path class="cls-2" d="M182.63,56.64h-3.57c-1.14,0-2.07.92-2.07,2.06v23.41c0,1.14.92,2.06,2.07,2.06h3.57"/>
  <line class="cls-2" x1="176.99" y1="70.38" x2="183.01" y2="70.38"/>
  <rect class="cls-6" x="182.65" y="65.75" width="69.07" height="9.19" rx="2.14" ry="2.14"/>
  <rect class="cls-6" x="182.62" y="79.51" width="69.07" height="9.19" rx="2.14" ry="2.14"/>
  <line class="cls-2" x1="171.02" y1="116.26" x2="177.07" y2="116.26"/>
  <path class="cls-2" d="M183.08,102.52h-3.81c-1.22,0-2.21.92-2.21,2.06v23.41c0,1.14.99,2.06,2.2,2.06h3.81"/>
  <line class="cls-2" x1="177.07" y1="116.26" x2="183.08" y2="116.26"/>
  <line class="cls-2" x1="170.99" y1="161.63" x2="177.04" y2="161.64"/>
  <path class="cls-2" d="M183.06,147.9h-3.81c-1.22,0-2.21.92-2.21,2.06v23.41c0,1.14.99,2.06,2.2,2.06h3.81"/>
  <line class="cls-2" x1="177.04" y1="161.63" x2="183.06" y2="161.64"/>
  <line class="cls-2" x1="171" y1="202.13" x2="176.91" y2="202.13"/>
  <path class="cls-2" d="M183.08,192.4h-3.81c-1.22,0-2.21.62-2.21,1.39v15.78c0,.77.99,1.39,2.2,1.39h3.81"/>
  <g>
    <rect class="cls-6" x="182.62" y="5.75" width="69.07" height="9.19" rx="2.14" ry="2.14"/>
    <g>
      <path class="cls-1" d="M195.27,10.1c0-1.06.64-1.71,1.51-1.71.46,0,.75.21.95.41l-.23.27c-.17-.17-.38-.31-.71-.31-.66,0-1.09.51-1.09,1.33s.39,1.34,1.09,1.34c.24,0,.46-.07.59-.19v-.86h-.7v-.35h1.08v1.38c-.21.22-.57.38-1.01.38-.87,0-1.48-.63-1.48-1.7Z"/>
      <path class="cls-1" d="M198.32,10.53c0-.79.53-1.28,1.09-1.28.62,0,.97.45.97,1.14,0,.09,0,.17-.02.23h-1.64c.03.51.34.85.81.85.23,0,.43-.08.61-.19l.15.27c-.21.14-.47.25-.8.25-.65,0-1.16-.47-1.16-1.27ZM200.02,10.33c0-.49-.22-.75-.6-.75-.34,0-.65.27-.7.75h1.3Z"/>
      <path class="cls-1" d="M200.8,10.53c0-.81.53-1.28,1.13-1.28s1.13.47,1.13,1.28-.53,1.27-1.13,1.27-1.13-.47-1.13-1.27ZM202.63,10.53c0-.56-.28-.94-.7-.94s-.7.38-.7.94.28.93.7.93.7-.37.7-.93Z"/>
      <path class="cls-1" d="M203.51,12.21c0-.21.13-.41.36-.55v-.02c-.12-.08-.22-.21-.22-.4,0-.2.14-.36.27-.45v-.02c-.16-.13-.31-.36-.31-.65,0-.53.42-.87.91-.87.13,0,.26.03.34.06h.85v.32h-.5c.11.11.2.29.2.5,0,.52-.39.84-.89.84-.12,0-.25-.03-.36-.08-.09.07-.15.15-.15.29,0,.15.1.26.43.26h.47c.57,0,.85.18.85.58,0,.45-.48.84-1.23.84-.6,0-1.01-.23-1.01-.65ZM205.34,12.08c0-.22-.17-.3-.49-.3h-.42c-.09,0-.21,0-.32-.04-.17.12-.25.27-.25.41,0,.26.26.43.71.43.46,0,.77-.24.77-.5ZM205.03,10.12c0-.35-.23-.57-.52-.57s-.52.21-.52.57.24.58.52.58.52-.22.52-.58Z"/>
      <path class="cls-1" d="M206.21,9.31h.34l.03.44h.01c.17-.31.42-.5.69-.5.11,0,.18.01.26.05l-.08.36c-.08-.03-.14-.04-.24-.04-.21,0-.45.15-.62.56v1.56h-.41v-2.43Z"/>
      <path class="cls-1" d="M207.68,11.11c0-.53.46-.79,1.49-.91,0-.31-.1-.62-.5-.62-.28,0-.54.13-.73.26l-.16-.28c.22-.15.56-.32.96-.32.59,0,.84.39.84,1v1.49h-.34l-.03-.29h-.01c-.23.19-.5.35-.8.35-.41,0-.71-.25-.71-.69ZM209.17,11.15v-.68c-.82.1-1.09.3-1.09.61,0,.28.19.39.43.39s.43-.11.66-.32Z"/>
      <path class="cls-1" d="M210.35,9.31h.34l.03.28h.01c.22-.18.49-.34.78-.34.63,0,.96.49.96,1.24,0,.83-.5,1.31-1.05,1.31-.22,0-.45-.1-.67-.28v.42s.01.82.01.82h-.41v-3.46ZM212.05,10.49c0-.54-.18-.9-.64-.9-.21,0-.41.11-.65.33v1.28c.22.18.43.25.59.25.4,0,.7-.36.7-.96Z"/>
      <path class="cls-1" d="M213.1,8.18h.41v1.47c.21-.22.46-.4.79-.4.51,0,.74.33.74.95v1.54h-.41v-1.49c0-.45-.14-.65-.46-.65-.25,0-.42.13-.67.37v1.76h-.41v-3.57Z"/>
      <path class="cls-1" d="M215.75,8.54c0-.16.12-.27.28-.27s.28.1.28.27-.12.27-.28.27-.28-.11-.28-.27ZM215.82,9.31h.41v2.43h-.41v-2.43Z"/>
      <path class="cls-1" d="M216.87,10.53c0-.81.55-1.28,1.17-1.28.32,0,.54.13.71.29l-.21.27c-.14-.13-.29-.21-.48-.21-.44,0-.76.38-.76.94s.31.93.75.93c.22,0,.42-.11.57-.24l.18.28c-.22.19-.49.31-.79.31-.65,0-1.14-.47-1.14-1.27Z"/>
      <path class="cls-1" d="M220.18,10.1c0-1.06.62-1.71,1.46-1.71.4,0,.71.19.9.41l-.23.27c-.17-.18-.39-.31-.67-.31-.62,0-1.03.51-1.03,1.33s.39,1.34,1.02,1.34c.31,0,.55-.14.76-.37l.23.26c-.26.3-.58.47-1.01.47-.82,0-1.43-.63-1.43-1.7Z"/>
      <path class="cls-1" d="M223.01,10.53c0-.81.53-1.28,1.13-1.28s1.13.47,1.13,1.28-.53,1.27-1.13,1.27-1.13-.47-1.13-1.27ZM224.84,10.53c0-.56-.28-.94-.7-.94s-.7.38-.7.94.28.93.7.93.7-.37.7-.93Z"/>
      <path class="cls-1" d="M225.9,9.31h.34l.03.35h.01c.23-.23.48-.41.82-.41.51,0,.74.33.74.95v1.54h-.41v-1.49c0-.45-.14-.65-.46-.65-.25,0-.42.13-.67.37v1.76h-.41v-2.43Z"/>
      <path class="cls-1" d="M228.45,10.53c0-.81.55-1.28,1.17-1.28.32,0,.54.13.71.29l-.21.27c-.14-.13-.29-.21-.48-.21-.44,0-.76.38-.76.94s.31.93.75.93c.22,0,.42-.11.57-.24l.18.28c-.22.19-.49.31-.79.31-.65,0-1.14-.47-1.14-1.27Z"/>
      <path class="cls-1" d="M230.63,10.53c0-.79.53-1.28,1.09-1.28.62,0,.97.45.97,1.14,0,.09,0,.17-.02.23h-1.64c.03.51.34.85.81.85.23,0,.43-.08.61-.19l.15.27c-.21.14-.47.25-.8.25-.65,0-1.16-.47-1.16-1.27ZM232.33,10.33c0-.49-.22-.75-.6-.75-.34,0-.65.27-.7.75h1.3Z"/>
      <path class="cls-1" d="M233.29,9.31h.34l.03.28h.01c.22-.18.49-.34.78-.34.63,0,.96.49.96,1.24,0,.83-.5,1.31-1.05,1.31-.22,0-.45-.1-.67-.28v.42s.01.82.01.82h-.41v-3.46ZM234.99,10.49c0-.54-.18-.9-.64-.9-.21,0-.41.11-.65.33v1.28c.22.18.43.25.59.25.4,0,.7-.36.7-.96Z"/>
      <path class="cls-1" d="M236.05,10.99v-1.35h-.36v-.31l.38-.02.05-.68h.34v.68h.66v.33h-.66v1.35c0,.3.1.47.38.47.09,0,.2-.03.28-.07l.08.31c-.14.05-.3.09-.45.09-.52,0-.69-.33-.69-.81Z"/>
      <path class="cls-1" d="M237.35,11.46l.2-.27c.21.17.43.29.72.29.32,0,.48-.17.48-.38,0-.25-.29-.36-.56-.46-.34-.12-.73-.29-.73-.7,0-.39.31-.69.84-.69.3,0,.57.12.76.27l-.2.26c-.17-.12-.34-.22-.55-.22-.31,0-.45.16-.45.35,0,.23.26.32.54.42.35.13.74.28.74.74,0,.39-.31.72-.89.72-.35,0-.68-.15-.91-.34Z"/>
    </g>
  </g>
  <g>
    <rect class="cls-6" x="182.6" y="19.15" width="69.07" height="9.19" rx="2.14" ry="2.14"/>
    <g>
      <path class="cls-1" d="M193.79,21.85h.82c1.01,0,1.55.59,1.55,1.63s-.54,1.65-1.53,1.65h-.84v-3.29ZM194.58,24.8c.77,0,1.15-.48,1.15-1.31s-.38-1.29-1.15-1.29h-.37v2.6h.37Z"/>
      <path class="cls-1" d="M196.67,24.51c0-.53.46-.79,1.49-.91,0-.31-.1-.62-.5-.62-.28,0-.54.13-.73.26l-.16-.28c.22-.15.56-.32.96-.32.59,0,.84.39.84,1v1.49h-.34l-.03-.29h-.01c-.23.19-.5.35-.8.35-.41,0-.71-.25-.71-.69ZM198.17,24.54v-.68c-.82.1-1.09.3-1.09.61,0,.28.19.39.43.39s.43-.11.66-.32Z"/>
      <path class="cls-1" d="M199.34,24.39v-1.35h-.36v-.31l.38-.02.05-.68h.34v.68h.66v.33h-.66v1.35c0,.3.1.47.38.47.09,0,.2-.03.28-.07l.08.31c-.14.05-.3.09-.45.09-.52,0-.69-.33-.69-.81Z"/>
      <path class="cls-1" d="M200.71,24.51c0-.53.46-.79,1.49-.91,0-.31-.1-.62-.5-.62-.28,0-.54.13-.73.26l-.16-.28c.22-.15.56-.32.96-.32.59,0,.84.39.84,1v1.49h-.34l-.03-.29h-.01c-.23.19-.5.35-.8.35-.41,0-.71-.25-.71-.69ZM202.2,24.54v-.68c-.82.1-1.09.3-1.09.61,0,.28.19.39.43.39s.43-.11.66-.32Z"/>
      <path class="cls-1" d="M204.42,21.85h.5l.63,1.76c.08.22.15.46.23.68h.02c.08-.23.15-.46.23-.68l.62-1.76h.5v3.29h-.39v-1.81c0-.29.03-.68.05-.97h-.02l-.26.75-.62,1.7h-.28l-.62-1.7-.26-.75h-.02c.02.29.05.69.05.97v1.81h-.38v-3.29Z"/>
      <path class="cls-1" d="M207.83,23.93c0-.81.53-1.28,1.13-1.28s1.13.47,1.13,1.28-.53,1.27-1.13,1.27-1.13-.47-1.13-1.27ZM209.66,23.93c0-.56-.28-.94-.7-.94s-.7.38-.7.94.28.93.7.93.7-.37.7-.93Z"/>
      <path class="cls-1" d="M210.55,23.93c0-.79.5-1.28,1.05-1.28.28,0,.47.11.68.28l-.02-.42v-.94h.41v3.57h-.34l-.03-.29h-.01c-.19.19-.45.35-.74.35-.61,0-1-.46-1-1.27ZM212.27,24.52v-1.28c-.21-.18-.39-.25-.59-.25-.39,0-.7.38-.7.93,0,.58.24.93.67.93.23,0,.42-.11.62-.33Z"/>
      <path class="cls-1" d="M213.32,23.93c0-.79.53-1.28,1.09-1.28.62,0,.97.45.97,1.14,0,.09,0,.17-.02.23h-1.64c.03.51.34.85.81.85.23,0,.43-.08.61-.19l.15.27c-.21.14-.47.25-.8.25-.65,0-1.16-.47-1.16-1.27ZM215.02,23.73c0-.49-.22-.75-.6-.75-.34,0-.65.27-.7.75h1.3Z"/>
      <path class="cls-1" d="M215.98,24.65v-3.08h.41v3.11c0,.13.05.18.11.18.02,0,.04,0,.09-.01l.06.31c-.06.02-.13.04-.24.04-.31,0-.44-.2-.44-.55Z"/>
      <path class="cls-1" d="M217.08,25.75c.28-.12.45-.34.45-.62l-.04-.37.2.3c-.05.07-.13.08-.21.08-.16,0-.3-.1-.3-.29s.14-.29.31-.29c.22,0,.35.18.35.48,0,.43-.25.77-.66.94l-.1-.24Z"/>
      <path class="cls-1" d="M219.3,24.71l.25-.29c.24.25.56.41.91.41.43,0,.69-.21.69-.53,0-.34-.24-.44-.55-.58l-.47-.21c-.31-.13-.67-.36-.67-.85s.44-.87,1.03-.87c.39,0,.74.17.97.41l-.22.27c-.2-.19-.44-.31-.75-.31-.37,0-.61.19-.61.48,0,.32.29.43.54.54l.47.2c.38.16.68.39.68.88,0,.52-.43.93-1.12.93-.46,0-.86-.19-1.15-.49Z"/>
      <path class="cls-1" d="M221.99,23.93c0-.79.53-1.28,1.09-1.28.62,0,.97.45.97,1.14,0,.09,0,.17-.02.23h-1.64c.03.51.34.85.81.85.23,0,.43-.08.61-.19l.15.27c-.21.14-.47.25-.8.25-.65,0-1.16-.47-1.16-1.27ZM223.69,23.73c0-.49-.22-.75-.6-.75-.34,0-.65.27-.7.75h1.3Z"/>
      <path class="cls-1" d="M224.65,22.71h.34l.03.35h.01c.21-.23.47-.41.76-.41.37,0,.57.18.67.46.25-.27.51-.46.8-.46.5,0,.74.33.74.95v1.54h-.41v-1.49c0-.45-.14-.65-.45-.65-.19,0-.38.12-.61.37v1.76h-.41v-1.49c0-.45-.14-.65-.45-.65-.18,0-.38.12-.61.37v1.76h-.41v-2.43Z"/>
      <path class="cls-1" d="M228.64,24.51c0-.53.46-.79,1.49-.91,0-.31-.1-.62-.5-.62-.28,0-.54.13-.73.26l-.16-.28c.22-.15.56-.32.96-.32.59,0,.84.39.84,1v1.49h-.34l-.03-.29h-.01c-.23.19-.5.35-.8.35-.41,0-.71-.25-.71-.69ZM230.14,24.54v-.68c-.82.1-1.09.3-1.09.61,0,.28.19.39.43.39s.43-.11.66-.32Z"/>
      <path class="cls-1" d="M231.31,22.71h.34l.03.35h.01c.23-.23.48-.41.82-.41.51,0,.74.33.74.95v1.54h-.41v-1.49c0-.45-.14-.65-.46-.65-.25,0-.42.13-.67.37v1.76h-.41v-2.43Z"/>
      <path class="cls-1" d="M234.12,24.39v-1.35h-.36v-.31l.38-.02.05-.68h.34v.68h.66v.33h-.66v1.35c0,.3.1.47.38.47.09,0,.2-.03.28-.07l.08.31c-.14.05-.3.09-.45.09-.52,0-.69-.33-.69-.81Z"/>
      <path class="cls-1" d="M235.66,21.94c0-.16.12-.27.28-.27s.28.1.28.27-.12.27-.28.27-.28-.11-.28-.27ZM235.74,22.71h.41v2.43h-.41v-2.43Z"/>
      <path class="cls-1" d="M236.79,23.93c0-.81.55-1.28,1.17-1.28.32,0,.54.13.71.29l-.21.27c-.14-.13-.29-.21-.48-.21-.44,0-.76.38-.76.94s.31.93.75.93c.22,0,.42-.11.57-.24l.18.28c-.22.19-.49.31-.79.31-.65,0-1.14-.47-1.14-1.27Z"/>
      <path class="cls-1" d="M238.98,24.86l.2-.27c.21.17.43.29.72.29.32,0,.48-.17.48-.38,0-.25-.29-.36-.56-.46-.34-.12-.73-.29-.73-.7,0-.39.31-.69.84-.69.3,0,.57.12.76.27l-.2.26c-.17-.12-.34-.22-.55-.22-.31,0-.45.16-.45.35,0,.23.26.32.54.42.35.13.74.28.74.74,0,.39-.31.72-.89.72-.35,0-.68-.15-.91-.34Z"/>
    </g>
  </g>
  <g>
    <rect class="cls-6" x="182.48" y="33.31" width="69.07" height="9.19" rx="2.14" ry="2.14"/>
    <g>
      <path class="cls-1" d="M190.48,37.65c0-1.05.58-1.69,1.4-1.69s1.4.64,1.4,1.69-.58,1.71-1.4,1.71-1.4-.66-1.4-1.71ZM192.86,37.65c0-.82-.39-1.32-.97-1.32s-.97.5-.97,1.32.39,1.35.97,1.35.97-.53.97-1.35Z"/>
      <path class="cls-1" d="M194.34,39.05h-.01l-.04.25h-.33v-3.57h.41v1.41c.21-.19.48-.34.75-.34.63,0,.97.49.97,1.24,0,.83-.5,1.31-1.05,1.31-.23,0-.48-.12-.69-.31ZM195.66,38.05c0-.54-.18-.9-.64-.9-.21,0-.42.11-.65.33v1.28c.21.18.43.25.59.25.4,0,.7-.36.7-.96Z"/>
      <path class="cls-1" d="M196.11,40.33l.08-.31c.06.02.15.04.23.04.24,0,.3-.18.3-.48v-2.71h.41v2.71c0,.5-.18.81-.67.81-.15,0-.27-.03-.36-.06ZM196.65,36.11c0-.16.12-.27.28-.27s.28.1.28.27-.12.27-.28.27-.28-.11-.28-.27Z"/>
      <path class="cls-1" d="M197.77,38.09c0-.79.53-1.28,1.09-1.28.62,0,.97.45.97,1.14,0,.09,0,.17-.02.23h-1.64c.03.51.34.85.81.85.23,0,.43-.08.61-.19l.15.27c-.21.14-.47.25-.8.25-.65,0-1.16-.47-1.16-1.27ZM199.48,37.89c0-.49-.22-.75-.6-.75-.34,0-.65.27-.7.75h1.3Z"/>
      <path class="cls-1" d="M200.25,38.09c0-.81.55-1.28,1.17-1.28.32,0,.54.13.71.29l-.21.27c-.14-.13-.29-.21-.48-.21-.44,0-.76.38-.76.94s.31.93.75.93c.22,0,.42-.11.57-.24l.18.28c-.22.19-.49.31-.79.31-.65,0-1.14-.47-1.14-1.27Z"/>
      <path class="cls-1" d="M202.74,38.55v-1.35h-.36v-.31l.38-.02.05-.68h.34v.68h.66v.33h-.66v1.35c0,.3.1.47.38.47.09,0,.2-.03.28-.07l.08.31c-.14.05-.3.09-.45.09-.52,0-.69-.33-.69-.81Z"/>
      <path class="cls-1" d="M204.22,39.91c.28-.12.45-.34.45-.62l-.04-.37.2.3c-.05.07-.13.08-.21.08-.16,0-.3-.1-.3-.29s.14-.29.31-.29c.22,0,.35.18.35.48,0,.43-.25.77-.66.94l-.1-.24Z"/>
      <path class="cls-1" d="M206.67,36.02h1.89v.35h-1.48v1.11h1.25v.35h-1.25v1.47h-.42v-3.29Z"/>
      <path class="cls-1" d="M209.03,36.11c0-.16.12-.27.28-.27s.28.1.28.27-.12.27-.28.27-.28-.11-.28-.27ZM209.11,36.87h.41v2.43h-.41v-2.43Z"/>
      <path class="cls-1" d="M210.15,38.09c0-.79.53-1.28,1.09-1.28.62,0,.97.45.97,1.14,0,.09,0,.17-.02.23h-1.64c.03.51.34.85.81.85.23,0,.43-.08.61-.19l.15.27c-.21.14-.47.25-.8.25-.65,0-1.16-.47-1.16-1.27ZM211.86,37.89c0-.49-.22-.75-.6-.75-.34,0-.65.27-.7.75h1.3Z"/>
      <path class="cls-1" d="M212.82,38.82v-3.08h.41v3.11c0,.13.05.18.11.18.02,0,.04,0,.09-.01l.06.31c-.06.02-.13.04-.24.04-.31,0-.44-.2-.44-.55Z"/>
      <path class="cls-1" d="M213.92,38.09c0-.79.5-1.28,1.05-1.28.28,0,.47.11.68.28l-.02-.42v-.94h.41v3.57h-.34l-.03-.29h-.01c-.19.19-.45.35-.74.35-.61,0-1-.46-1-1.27ZM215.63,38.69v-1.28c-.21-.18-.39-.25-.59-.25-.39,0-.7.38-.7.93,0,.58.24.93.67.93.23,0,.42-.11.62-.33Z"/>
      <path class="cls-1" d="M216.69,39.91c.28-.12.45-.34.45-.62l-.04-.37.2.3c-.05.07-.13.08-.21.08-.16,0-.3-.1-.3-.29s.14-.29.31-.29c.22,0,.35.18.35.48,0,.43-.25.77-.66.94l-.1-.24Z"/>
      <path class="cls-1" d="M218.96,38.67c0-.53.46-.79,1.49-.91,0-.31-.1-.62-.5-.62-.28,0-.54.13-.73.26l-.16-.28c.22-.15.56-.32.96-.32.59,0,.84.39.84,1v1.49h-.34l-.03-.29h-.01c-.23.19-.5.35-.8.35-.41,0-.71-.25-.71-.69ZM220.45,38.71v-.68c-.82.1-1.09.3-1.09.61,0,.28.19.39.43.39s.43-.11.66-.32Z"/>
      <path class="cls-1" d="M221.63,36.87h.34l.03.35h.01c.23-.23.48-.41.82-.41.51,0,.74.33.74.95v1.54h-.41v-1.49c0-.45-.14-.65-.46-.65-.25,0-.42.13-.67.37v1.76h-.41v-2.43Z"/>
      <path class="cls-1" d="M224.19,38.09c0-.79.5-1.28,1.05-1.28.28,0,.47.11.68.28l-.02-.42v-.94h.41v3.57h-.34l-.03-.29h-.01c-.19.19-.45.35-.74.35-.61,0-1-.46-1-1.27ZM225.91,38.69v-1.28c-.21-.18-.39-.25-.59-.25-.39,0-.7.38-.7.93,0,.58.24.93.67.93.23,0,.42-.11.62-.33Z"/>
      <path class="cls-1" d="M228.18,36.02h.94c.74,0,1.23.25,1.23.97s-.49,1.01-1.21,1.01h-.54v1.3h-.42v-3.29ZM229.08,37.66c.57,0,.85-.21.85-.68s-.29-.63-.87-.63h-.47v1.3h.49Z"/>
      <path class="cls-1" d="M230.97,36.87h.34l.03.44h.01c.17-.31.42-.5.69-.5.11,0,.18.01.26.05l-.08.36c-.08-.03-.14-.04-.24-.04-.21,0-.45.15-.62.56v1.56h-.41v-2.43Z"/>
      <path class="cls-1" d="M232.47,38.09c0-.81.53-1.28,1.13-1.28s1.13.47,1.13,1.28-.53,1.27-1.13,1.27-1.13-.47-1.13-1.27ZM234.3,38.09c0-.56-.28-.94-.7-.94s-.7.38-.7.94.28.93.7.93.7-.37.7-.93Z"/>
      <path class="cls-1" d="M235.18,38.09c0-.81.55-1.28,1.17-1.28.32,0,.54.13.71.29l-.21.27c-.14-.13-.29-.21-.48-.21-.44,0-.76.38-.76.94s.31.93.75.93c.22,0,.42-.11.57-.24l.18.28c-.22.19-.49.31-.79.31-.65,0-1.14-.47-1.14-1.27Z"/>
      <path class="cls-1" d="M237.36,38.09c0-.79.53-1.28,1.09-1.28.62,0,.97.45.97,1.14,0,.09,0,.17-.02.23h-1.64c.03.51.34.85.81.85.23,0,.43-.08.61-.19l.15.27c-.21.14-.47.25-.8.25-.65,0-1.16-.47-1.16-1.27ZM239.06,37.89c0-.49-.22-.75-.6-.75-.34,0-.65.27-.7.75h1.3Z"/>
      <path class="cls-1" d="M239.75,39.03l.2-.27c.21.17.43.29.72.29.32,0,.48-.17.48-.38,0-.25-.29-.36-.56-.46-.34-.12-.73-.29-.73-.7,0-.39.31-.69.84-.69.3,0,.57.12.76.27l-.2.26c-.17-.12-.34-.22-.55-.22-.31,0-.45.16-.45.35,0,.23.26.32.54.42.35.13.74.28.74.74,0,.39-.31.72-.89.72-.35,0-.68-.15-.91-.34Z"/>
      <path class="cls-1" d="M241.84,39.03l.2-.27c.21.17.43.29.72.29.32,0,.48-.17.48-.38,0-.25-.29-.36-.56-.46-.34-.12-.73-.29-.73-.7,0-.39.31-.69.84-.69.3,0,.57.12.76.27l-.2.26c-.17-.12-.34-.22-.55-.22-.31,0-.45.16-.45.35,0,.23.26.32.54.42.35.13.74.28.74.74,0,.39-.31.72-.89.72-.35,0-.68-.15-.91-.34Z"/>
    </g>
  </g>
  <g>
    <rect class="cls-6" x="182.56" y="51.87" width="69.07" height="9.19" rx="2.14" ry="2.14"/>
    <g>
      <path class="cls-1" d="M193.43,57.43l.25-.29c.24.25.56.41.91.41.43,0,.69-.21.69-.53,0-.34-.24-.44-.55-.58l-.47-.21c-.31-.13-.67-.36-.67-.85s.44-.87,1.03-.87c.39,0,.74.17.97.41l-.22.27c-.2-.19-.44-.31-.75-.31-.37,0-.61.19-.61.48,0,.32.29.43.54.54l.47.2c.38.16.68.39.68.88,0,.52-.43.93-1.12.93-.46,0-.86-.19-1.15-.49Z"/>
      <path class="cls-1" d="M196.3,55.43h.34l.03.28h.01c.22-.18.49-.34.78-.34.63,0,.96.49.96,1.24,0,.83-.5,1.31-1.05,1.31-.22,0-.45-.1-.67-.28v.42s.01.82.01.82h-.41v-3.46ZM198,56.61c0-.54-.18-.9-.64-.9-.21,0-.41.11-.65.33v1.28c.22.18.43.25.59.25.4,0,.7-.36.7-.96Z"/>
      <path class="cls-1" d="M198.85,57.23c0-.53.46-.79,1.49-.91,0-.31-.1-.62-.5-.62-.28,0-.54.13-.73.26l-.16-.28c.22-.15.56-.32.96-.32.59,0,.84.39.84,1v1.49h-.34l-.03-.29h-.01c-.23.19-.5.35-.8.35-.41,0-.71-.25-.71-.69ZM200.34,57.27v-.68c-.82.1-1.09.3-1.09.61,0,.28.19.39.43.39s.43-.11.66-.32Z"/>
      <path class="cls-1" d="M201.52,57.11v-1.35h-.36v-.31l.38-.02.05-.68h.34v.68h.66v.33h-.66v1.35c0,.3.1.47.38.47.09,0,.2-.03.28-.07l.08.31c-.14.05-.3.09-.45.09-.52,0-.69-.33-.69-.81Z"/>
      <path class="cls-1" d="M203.07,54.66c0-.16.12-.27.28-.27s.28.1.28.27-.12.27-.28.27-.28-.11-.28-.27ZM203.14,55.43h.41v2.43h-.41v-2.43Z"/>
      <path class="cls-1" d="M204.22,57.23c0-.53.46-.79,1.49-.91,0-.31-.1-.62-.5-.62-.28,0-.54.13-.73.26l-.16-.28c.22-.15.56-.32.96-.32.59,0,.84.39.84,1v1.49h-.34l-.03-.29h-.01c-.23.19-.5.35-.8.35-.41,0-.71-.25-.71-.69ZM205.71,57.27v-.68c-.82.1-1.09.3-1.09.61,0,.28.19.39.43.39s.43-.11.66-.32Z"/>
      <path class="cls-1" d="M206.89,57.37v-3.08h.41v3.11c0,.13.05.18.11.18.02,0,.04,0,.09-.01l.06.31c-.06.02-.13.04-.24.04-.31,0-.44-.2-.44-.55Z"/>
      <path class="cls-1" d="M209.2,54.58h.82c1.01,0,1.55.59,1.55,1.63s-.54,1.65-1.53,1.65h-.84v-3.29ZM210,57.52c.77,0,1.15-.48,1.15-1.31s-.38-1.29-1.15-1.29h-.37v2.6h.37Z"/>
      <path class="cls-1" d="M212.09,57.23c0-.53.46-.79,1.49-.91,0-.31-.1-.62-.5-.62-.28,0-.54.13-.73.26l-.16-.28c.22-.15.56-.32.96-.32.59,0,.84.39.84,1v1.49h-.34l-.03-.29h-.01c-.23.19-.5.35-.8.35-.41,0-.71-.25-.71-.69ZM213.58,57.27v-.68c-.82.1-1.09.3-1.09.61,0,.28.19.39.43.39s.43-.11.66-.32Z"/>
      <path class="cls-1" d="M214.76,57.11v-1.35h-.36v-.31l.38-.02.05-.68h.34v.68h.66v.33h-.66v1.35c0,.3.1.47.38.47.09,0,.2-.03.28-.07l.08.31c-.14.05-.3.09-.45.09-.52,0-.69-.33-.69-.81Z"/>
      <path class="cls-1" d="M216.13,57.23c0-.53.46-.79,1.49-.91,0-.31-.1-.62-.5-.62-.28,0-.54.13-.73.26l-.16-.28c.22-.15.56-.32.96-.32.59,0,.84.39.84,1v1.49h-.34l-.03-.29h-.01c-.23.19-.5.35-.8.35-.41,0-.71-.25-.71-.69ZM217.62,57.27v-.68c-.82.1-1.09.3-1.09.61,0,.28.19.39.43.39s.43-.11.66-.32Z"/>
      <path class="cls-1" d="M219.6,57.43l.25-.29c.24.25.56.41.91.41.43,0,.69-.21.69-.53,0-.34-.24-.44-.55-.58l-.47-.21c-.31-.13-.67-.36-.67-.85s.44-.87,1.03-.87c.39,0,.74.17.97.41l-.22.27c-.2-.19-.44-.31-.75-.31-.37,0-.61.19-.61.48,0,.32.29.43.54.54l.47.2c.38.16.68.39.68.88,0,.52-.43.93-1.12.93-.46,0-.86-.19-1.15-.49Z"/>
      <path class="cls-1" d="M222.42,57.11v-1.35h-.36v-.31l.38-.02.05-.68h.34v.68h.66v.33h-.66v1.35c0,.3.1.47.38.47.09,0,.2-.03.28-.07l.08.31c-.14.05-.3.09-.45.09-.52,0-.69-.33-.69-.81Z"/>
      <path class="cls-1" d="M224.04,55.43h.34l.03.44h.01c.17-.31.42-.5.69-.5.11,0,.18.01.26.05l-.08.36c-.08-.03-.14-.04-.24-.04-.21,0-.45.15-.62.56v1.56h-.41v-2.43Z"/>
      <path class="cls-1" d="M225.74,56.97v-1.54h.41v1.49c0,.45.14.65.46.65.25,0,.42-.12.65-.41v-1.73h.41v2.43h-.34l-.04-.38h-.01c-.23.27-.47.44-.8.44-.51,0-.74-.33-.74-.95Z"/>
      <path class="cls-1" d="M228.31,56.65c0-.81.55-1.28,1.17-1.28.32,0,.54.13.71.29l-.21.27c-.14-.13-.29-.21-.48-.21-.44,0-.76.38-.76.94s.31.93.75.93c.22,0,.42-.11.57-.24l.18.28c-.22.19-.49.31-.79.31-.65,0-1.14-.47-1.14-1.27Z"/>
      <path class="cls-1" d="M230.79,57.11v-1.35h-.36v-.31l.38-.02.05-.68h.34v.68h.66v.33h-.66v1.35c0,.3.1.47.38.47.09,0,.2-.03.28-.07l.08.31c-.14.05-.3.09-.45.09-.52,0-.69-.33-.69-.81Z"/>
      <path class="cls-1" d="M232.38,56.97v-1.54h.41v1.49c0,.45.14.65.46.65.25,0,.42-.12.65-.41v-1.73h.41v2.43h-.34l-.04-.38h-.01c-.23.27-.47.44-.8.44-.51,0-.74-.33-.74-.95Z"/>
      <path class="cls-1" d="M235.13,55.43h.34l.03.44h.01c.17-.31.42-.5.69-.5.11,0,.18.01.26.05l-.08.36c-.08-.03-.14-.04-.24-.04-.21,0-.45.15-.62.56v1.56h-.41v-2.43Z"/>
      <path class="cls-1" d="M236.64,56.65c0-.79.53-1.28,1.09-1.28.62,0,.97.45.97,1.14,0,.09,0,.17-.02.23h-1.64c.03.51.34.85.81.85.23,0,.43-.08.61-.19l.15.27c-.21.14-.47.25-.8.25-.65,0-1.16-.47-1.16-1.27ZM238.34,56.45c0-.49-.22-.75-.6-.75-.34,0-.65.27-.7.75h1.3Z"/>
      <path class="cls-1" d="M239.03,57.58l.2-.27c.21.17.43.29.72.29.32,0,.48-.17.48-.38,0-.25-.29-.36-.56-.46-.34-.12-.73-.29-.73-.7,0-.39.31-.69.84-.69.3,0,.57.12.76.27l-.2.26c-.17-.12-.34-.22-.55-.22-.31,0-.45.16-.45.35,0,.23.26.32.54.42.35.13.74.28.74.74,0,.39-.31.72-.89.72-.35,0-.68-.15-.91-.34Z"/>
    </g>
  </g>
  <g>
    <path class="cls-1" d="M187.23,71.32l.25-.29c.24.25.56.41.91.41.43,0,.69-.21.69-.53,0-.34-.24-.44-.55-.58l-.47-.21c-.31-.13-.67-.36-.67-.85s.44-.87,1.03-.87c.39,0,.74.17.97.41l-.22.27c-.2-.19-.44-.31-.75-.31-.37,0-.61.19-.61.48,0,.32.29.43.54.54l.47.2c.38.16.68.39.68.88,0,.52-.43.93-1.12.93-.46,0-.86-.19-1.15-.49Z"/>
    <path class="cls-1" d="M190.09,69.31h.34l.03.28h.01c.22-.18.49-.34.78-.34.63,0,.96.49.96,1.24,0,.83-.5,1.31-1.05,1.31-.22,0-.45-.1-.67-.28v.42s.01.82.01.82h-.41v-3.46ZM191.8,70.5c0-.54-.18-.9-.64-.9-.21,0-.41.11-.65.33v1.28c.22.18.43.25.59.25.4,0,.7-.36.7-.96Z"/>
    <path class="cls-1" d="M192.65,71.11c0-.53.46-.79,1.49-.91,0-.31-.1-.62-.5-.62-.28,0-.54.13-.73.26l-.16-.28c.22-.15.56-.32.96-.32.59,0,.84.39.84,1v1.49h-.34l-.03-.29h-.01c-.23.19-.5.35-.8.35-.41,0-.71-.25-.71-.69ZM194.14,71.15v-.68c-.82.1-1.09.3-1.09.61,0,.28.19.39.43.39s.43-.11.66-.32Z"/>
    <path class="cls-1" d="M195.32,70.99v-1.35h-.36v-.31l.38-.02.05-.68h.34v.68h.66v.33h-.66v1.35c0,.3.1.47.38.47.09,0,.2-.03.28-.07l.08.31c-.14.05-.3.09-.45.09-.52,0-.69-.33-.69-.81Z"/>
    <path class="cls-1" d="M196.86,68.55c0-.16.12-.27.28-.27s.28.1.28.27-.12.27-.28.27-.28-.11-.28-.27ZM196.94,69.31h.41v2.43h-.41v-2.43Z"/>
    <path class="cls-1" d="M198.02,71.11c0-.53.46-.79,1.49-.91,0-.31-.1-.62-.5-.62-.28,0-.54.13-.73.26l-.16-.28c.22-.15.56-.32.96-.32.59,0,.84.39.84,1v1.49h-.34l-.03-.29h-.01c-.23.19-.5.35-.8.35-.41,0-.71-.25-.71-.69ZM199.51,71.15v-.68c-.82.1-1.09.3-1.09.61,0,.28.19.39.43.39s.43-.11.66-.32Z"/>
    <path class="cls-1" d="M200.69,71.26v-3.08h.41v3.11c0,.13.05.18.11.18.02,0,.04,0,.09-.01l.06.31c-.06.02-.13.04-.24.04-.31,0-.44-.2-.44-.55Z"/>
    <path class="cls-1" d="M203.68,68.46h.47l1.11,3.29h-.44l-.57-1.83c-.12-.37-.22-.73-.33-1.11h-.02c-.1.38-.21.74-.33,1.11l-.58,1.83h-.43l1.11-3.29ZM203.15,70.41h1.51v.33h-1.51v-.33Z"/>
    <path class="cls-1" d="M205.68,69.31h.34l.03.35h.01c.23-.23.48-.41.82-.41.51,0,.74.33.74.95v1.54h-.41v-1.49c0-.45-.14-.65-.46-.65-.25,0-.42.13-.67.37v1.76h-.41v-2.43Z"/>
    <path class="cls-1" d="M208.27,71.11c0-.53.46-.79,1.49-.91,0-.31-.1-.62-.5-.62-.28,0-.54.13-.73.26l-.16-.28c.22-.15.56-.32.96-.32.59,0,.84.39.84,1v1.49h-.34l-.03-.29h-.01c-.23.19-.5.35-.8.35-.41,0-.71-.25-.71-.69ZM209.76,71.15v-.68c-.82.1-1.09.3-1.09.61,0,.28.19.39.43.39s.43-.11.66-.32Z"/>
    <path class="cls-1" d="M210.94,71.26v-3.08h.41v3.11c0,.13.05.18.11.18.02,0,.04,0,.09-.01l.06.31c-.06.02-.13.04-.24.04-.31,0-.44-.2-.44-.55Z"/>
    <path class="cls-1" d="M211.97,72.74l.08-.33s.12.04.19.04c.27,0,.45-.22.55-.52l.06-.18-.98-2.44h.42l.5,1.35c.08.21.16.46.24.69h.02c.07-.22.14-.47.2-.69l.43-1.35h.4l-.92,2.63c-.17.48-.42.85-.91.85-.11,0-.21-.02-.29-.05Z"/>
    <path class="cls-1" d="M214.28,71.47l.2-.27c.21.17.43.29.72.29.32,0,.48-.17.48-.38,0-.25-.29-.36-.56-.46-.34-.12-.73-.29-.73-.7,0-.39.31-.69.84-.69.3,0,.57.12.76.27l-.2.26c-.17-.12-.34-.22-.55-.22-.31,0-.45.16-.45.35,0,.23.26.32.54.42.35.13.74.28.74.74,0,.39-.31.72-.89.72-.35,0-.68-.15-.91-.34Z"/>
    <path class="cls-1" d="M216.57,68.55c0-.16.12-.27.28-.27s.28.1.28.27-.12.27-.28.27-.28-.11-.28-.27ZM216.64,69.31h.41v2.43h-.41v-2.43Z"/>
    <path class="cls-1" d="M217.6,71.47l.2-.27c.21.17.43.29.72.29.32,0,.48-.17.48-.38,0-.25-.29-.36-.56-.46-.34-.12-.73-.29-.73-.7,0-.39.31-.69.84-.69.3,0,.57.12.76.27l-.2.26c-.17-.12-.34-.22-.55-.22-.31,0-.45.16-.45.35,0,.23.26.32.54.42.35.13.74.28.74.74,0,.39-.31.72-.89.72-.35,0-.68-.15-.91-.34Z"/>
    <path class="cls-1" d="M220.72,70.9c0-.97,1.5-1.13,1.5-1.84,0-.19-.09-.36-.31-.36-.25,0-.4.21-.4.48,0,.61.67,1.43,1.3,1.9.26.19.51.33.72.39l-.11.34c-.26-.07-.56-.22-.86-.46-.72-.56-1.41-1.47-1.41-2.17,0-.44.3-.78.76-.78.41,0,.65.27.65.65,0,.84-1.44,1.1-1.44,1.82,0,.36.29.61.65.61.27,0,.54-.16.75-.39.27-.29.47-.67.59-1.12h.38c-.14.49-.37.94-.69,1.31-.28.31-.62.52-1.09.52-.59,0-1-.38-1-.91Z"/>
    <path class="cls-1" d="M225.73,68.46h.47l1.11,3.29h-.44l-.57-1.83c-.12-.37-.22-.73-.33-1.11h-.02c-.1.38-.21.74-.33,1.11l-.58,1.83h-.43l1.11-3.29ZM225.2,70.41h1.51v.33h-1.51v-.33Z"/>
    <path class="cls-1" d="M227.71,71.26v-3.08h.41v3.11c0,.13.05.18.11.18.02,0,.04,0,.09-.01l.06.31c-.06.02-.13.04-.24.04-.31,0-.44-.2-.44-.55Z"/>
    <path class="cls-1" d="M228.8,72.21c0-.21.13-.41.36-.55v-.02c-.12-.08-.22-.21-.22-.4,0-.2.14-.36.27-.45v-.02c-.16-.13-.31-.36-.31-.65,0-.53.42-.87.91-.87.13,0,.26.03.34.06h.85v.32h-.5c.11.11.2.29.2.5,0,.52-.39.84-.89.84-.12,0-.25-.03-.36-.08-.09.07-.15.15-.15.29,0,.15.1.26.43.26h.47c.57,0,.85.18.85.58,0,.45-.48.84-1.23.84-.6,0-1.01-.23-1.01-.65ZM230.64,72.09c0-.22-.17-.3-.49-.3h-.42c-.09,0-.21,0-.32-.04-.17.12-.25.27-.25.41,0,.26.26.43.71.43.46,0,.77-.24.77-.5ZM230.33,70.12c0-.35-.23-.57-.52-.57s-.52.21-.52.57.24.58.52.58.52-.22.52-.58Z"/>
    <path class="cls-1" d="M231.26,70.53c0-.81.53-1.28,1.13-1.28s1.13.47,1.13,1.28-.53,1.27-1.13,1.27-1.13-.47-1.13-1.27ZM233.09,70.53c0-.56-.28-.94-.7-.94s-.7.38-.7.94.28.93.7.93.7-.37.7-.93Z"/>
    <path class="cls-1" d="M234.15,69.31h.34l.03.44h.01c.17-.31.42-.5.69-.5.11,0,.18.01.26.05l-.08.36c-.08-.03-.14-.04-.24-.04-.21,0-.45.15-.62.56v1.56h-.41v-2.43Z"/>
    <path class="cls-1" d="M235.81,68.55c0-.16.12-.27.28-.27s.28.1.28.27-.12.27-.28.27-.28-.11-.28-.27ZM235.88,69.31h.41v2.43h-.41v-2.43Z"/>
    <path class="cls-1" d="M237.19,70.99v-1.35h-.36v-.31l.38-.02.05-.68h.34v.68h.66v.33h-.66v1.35c0,.3.1.47.38.47.09,0,.2-.03.28-.07l.08.31c-.14.05-.3.09-.45.09-.52,0-.69-.33-.69-.81Z"/>
    <path class="cls-1" d="M238.8,68.18h.41v1.47c.21-.22.46-.4.79-.4.51,0,.74.33.74.95v1.54h-.41v-1.49c0-.45-.14-.65-.46-.65-.25,0-.42.13-.67.37v1.76h-.41v-3.57Z"/>
    <path class="cls-1" d="M241.52,69.31h.34l.03.35h.01c.21-.23.47-.41.76-.41.37,0,.57.18.67.46.25-.27.51-.46.8-.46.5,0,.74.33.74.95v1.54h-.41v-1.49c0-.45-.14-.65-.45-.65-.19,0-.38.12-.61.37v1.76h-.41v-1.49c0-.45-.14-.65-.45-.65-.18,0-.38.12-.61.37v1.76h-.41v-2.43Z"/>
    <path class="cls-1" d="M245.4,71.47l.2-.27c.21.17.43.29.72.29.32,0,.48-.17.48-.38,0-.25-.29-.36-.56-.46-.34-.12-.73-.29-.73-.7,0-.39.31-.69.84-.69.3,0,.57.12.76.27l-.2.26c-.17-.12-.34-.22-.55-.22-.31,0-.45.16-.45.35,0,.23.26.32.54.42.35.13.74.28.74.74,0,.39-.31.72-.89.72-.35,0-.68-.15-.91-.34Z"/>
  </g>
  <g>
    <path class="cls-1" d="M199.81,83.87c0-1.06.64-1.71,1.51-1.71.46,0,.75.21.95.41l-.23.27c-.17-.17-.38-.31-.71-.31-.66,0-1.09.51-1.09,1.33s.39,1.34,1.09,1.34c.24,0,.46-.07.59-.19v-.86h-.7v-.35h1.08v1.38c-.21.22-.57.38-1.01.38-.87,0-1.48-.63-1.48-1.7Z"/>
    <path class="cls-1" d="M202.86,84.29c0-.79.53-1.28,1.09-1.28.62,0,.97.45.97,1.14,0,.09,0,.17-.02.23h-1.64c.03.51.34.85.81.85.23,0,.43-.08.61-.19l.15.27c-.21.14-.47.25-.8.25-.65,0-1.16-.47-1.16-1.27ZM204.56,84.09c0-.49-.22-.75-.6-.75-.34,0-.65.27-.7.75h1.3Z"/>
    <path class="cls-1" d="M205.34,84.29c0-.81.53-1.28,1.13-1.28s1.13.47,1.13,1.28-.53,1.27-1.13,1.27-1.13-.47-1.13-1.27ZM207.17,84.29c0-.56-.28-.94-.7-.94s-.7.38-.7.94.28.93.7.93.7-.37.7-.93Z"/>
    <path class="cls-1" d="M208.05,84.29c0-.81.55-1.28,1.17-1.28.32,0,.54.13.71.29l-.21.27c-.14-.13-.29-.21-.48-.21-.44,0-.76.38-.76.94s.31.93.75.93c.22,0,.42-.11.57-.24l.18.28c-.22.19-.49.31-.79.31-.65,0-1.14-.47-1.14-1.27Z"/>
    <path class="cls-1" d="M210.23,84.29c0-.81.53-1.28,1.13-1.28s1.13.47,1.13,1.28-.53,1.27-1.13,1.27-1.13-.47-1.13-1.27ZM212.06,84.29c0-.56-.28-.94-.7-.94s-.7.38-.7.94.28.93.7.93.7-.37.7-.93Z"/>
    <path class="cls-1" d="M213.12,83.07h.34l.03.35h.01c.21-.23.47-.41.76-.41.37,0,.57.18.67.46.25-.27.51-.46.8-.46.5,0,.74.33.74.95v1.54h-.41v-1.49c0-.45-.14-.65-.45-.65-.19,0-.38.12-.61.37v1.76h-.41v-1.49c0-.45-.14-.65-.45-.65-.18,0-.38.12-.61.37v1.76h-.41v-2.43Z"/>
    <path class="cls-1" d="M217.26,83.07h.34l.03.28h.01c.22-.18.49-.34.78-.34.63,0,.96.49.96,1.24,0,.83-.5,1.31-1.05,1.31-.22,0-.45-.1-.67-.28v.42s.01.82.01.82h-.41v-3.46ZM218.97,84.26c0-.54-.18-.9-.64-.9-.21,0-.41.11-.65.33v1.28c.22.18.43.25.59.25.4,0,.7-.36.7-.96Z"/>
    <path class="cls-1" d="M220.01,84.62v-1.54h.41v1.49c0,.45.14.65.46.65.25,0,.42-.12.65-.41v-1.73h.41v2.43h-.34l-.04-.38h-.01c-.23.27-.47.44-.8.44-.51,0-.74-.33-.74-.95Z"/>
    <path class="cls-1" d="M222.83,84.75v-1.35h-.36v-.31l.38-.02.05-.68h.34v.68h.66v.33h-.66v1.35c0,.3.1.47.38.47.09,0,.2-.03.28-.07l.08.31c-.14.05-.3.09-.45.09-.52,0-.69-.33-.69-.81Z"/>
    <path class="cls-1" d="M224.19,84.88c0-.53.46-.79,1.49-.91,0-.31-.1-.62-.5-.62-.28,0-.54.13-.73.26l-.16-.28c.22-.15.56-.32.96-.32.59,0,.84.39.84,1v1.49h-.34l-.03-.29h-.01c-.23.19-.5.35-.8.35-.41,0-.71-.25-.71-.69ZM225.69,84.91v-.68c-.82.1-1.09.3-1.09.61,0,.28.19.39.43.39s.43-.11.66-.32Z"/>
    <path class="cls-1" d="M226.87,84.75v-1.35h-.36v-.31l.38-.02.05-.68h.34v.68h.66v.33h-.66v1.35c0,.3.1.47.38.47.09,0,.2-.03.28-.07l.08.31c-.14.05-.3.09-.45.09-.52,0-.69-.33-.69-.81Z"/>
    <path class="cls-1" d="M228.41,82.31c0-.16.12-.27.28-.27s.28.1.28.27-.12.27-.28.27-.28-.11-.28-.27ZM228.48,83.07h.41v2.43h-.41v-2.43Z"/>
    <path class="cls-1" d="M229.53,84.29c0-.81.53-1.28,1.13-1.28s1.13.47,1.13,1.28-.53,1.27-1.13,1.27-1.13-.47-1.13-1.27ZM231.36,84.29c0-.56-.28-.94-.7-.94s-.7.38-.7.94.28.93.7.93.7-.37.7-.93Z"/>
    <path class="cls-1" d="M232.42,83.07h.34l.03.35h.01c.23-.23.48-.41.82-.41.51,0,.74.33.74.95v1.54h-.41v-1.49c0-.45-.14-.65-.46-.65-.25,0-.42.13-.67.37v1.76h-.41v-2.43Z"/>
  </g>
  <g>
    <rect class="cls-6" x="182.61" y="97.82" width="69.07" height="9.19" rx="2.14" ry="2.14"/>
    <g>
      <path class="cls-1" d="M199.83,100.52h.43l1.19,2.07.35.68h.02c-.02-.33-.05-.7-.05-1.04v-1.7h.4v3.29h-.43l-1.19-2.07-.35-.68h-.02c.02.33.05.68.05,1.03v1.72h-.4v-3.29Z"/>
      <path class="cls-1" d="M202.88,103.18c0-.53.46-.79,1.49-.91,0-.31-.1-.62-.5-.62-.28,0-.54.13-.73.26l-.16-.28c.22-.15.56-.32.96-.32.59,0,.84.39.84,1v1.49h-.34l-.03-.29h-.01c-.23.19-.5.35-.8.35-.41,0-.71-.25-.71-.69ZM204.37,103.21v-.68c-.82.1-1.09.3-1.09.61,0,.28.19.39.43.39s.43-.11.66-.32Z"/>
      <path class="cls-1" d="M205.47,100.61c0-.16.12-.27.28-.27s.28.1.28.27-.12.27-.28.27-.28-.11-.28-.27ZM205.55,101.38h.41v2.43h-.41v-2.43Z"/>
      <path class="cls-1" d="M206.43,101.38h.42l.46,1.38c.07.24.15.49.22.72h.02c.07-.23.15-.48.22-.72l.46-1.38h.4l-.86,2.43h-.48l-.88-2.43Z"/>
      <path class="cls-1" d="M208.91,102.6c0-.79.53-1.28,1.09-1.28.62,0,.97.45.97,1.14,0,.09,0,.17-.02.23h-1.64c.03.51.34.85.81.85.23,0,.43-.08.61-.19l.15.27c-.21.14-.47.25-.8.25-.65,0-1.16-.47-1.16-1.27ZM210.61,102.4c0-.49-.22-.75-.6-.75-.34,0-.65.27-.7.75h1.3Z"/>
      <path class="cls-1" d="M212.42,102.17c0-1.06.64-1.71,1.51-1.71.46,0,.75.21.95.41l-.23.27c-.17-.17-.38-.31-.71-.31-.66,0-1.09.51-1.09,1.33s.39,1.34,1.09,1.34c.24,0,.46-.07.59-.19v-.86h-.7v-.35h1.08v1.38c-.21.22-.57.38-1.01.38-.87,0-1.48-.63-1.48-1.7Z"/>
      <path class="cls-1" d="M215.48,102.6c0-.79.53-1.28,1.09-1.28.62,0,.97.45.97,1.14,0,.09,0,.17-.02.23h-1.64c.03.51.34.85.81.85.23,0,.43-.08.61-.19l.15.27c-.21.14-.47.25-.8.25-.65,0-1.16-.47-1.16-1.27ZM217.18,102.4c0-.49-.22-.75-.6-.75-.34,0-.65.27-.7.75h1.3Z"/>
      <path class="cls-1" d="M217.96,102.6c0-.81.53-1.28,1.13-1.28s1.13.47,1.13,1.28-.53,1.27-1.13,1.27-1.13-.47-1.13-1.27ZM219.78,102.6c0-.56-.28-.94-.7-.94s-.7.38-.7.94.28.93.7.93.7-.37.7-.93Z"/>
      <path class="cls-1" d="M220.66,104.28c0-.21.13-.41.36-.55v-.02c-.12-.08-.22-.21-.22-.4,0-.2.14-.36.27-.45v-.02c-.16-.13-.31-.36-.31-.65,0-.53.42-.87.91-.87.13,0,.26.03.34.06h.85v.32h-.5c.11.11.2.29.2.5,0,.52-.39.84-.89.84-.12,0-.25-.03-.36-.08-.09.07-.15.15-.15.29,0,.15.1.26.43.26h.47c.57,0,.85.18.85.58,0,.45-.48.84-1.23.84-.6,0-1.01-.23-1.01-.65ZM222.5,104.15c0-.22-.17-.3-.49-.3h-.42c-.09,0-.21,0-.32-.04-.17.12-.25.27-.25.41,0,.26.26.43.71.43.46,0,.77-.24.77-.5ZM222.18,102.18c0-.35-.23-.57-.52-.57s-.52.21-.52.57.24.58.52.58.52-.22.52-.58Z"/>
      <path class="cls-1" d="M223.37,101.38h.34l.03.44h.01c.17-.31.42-.5.69-.5.11,0,.18.01.26.05l-.08.36c-.08-.03-.14-.04-.24-.04-.21,0-.45.15-.62.56v1.56h-.41v-2.43Z"/>
      <path class="cls-1" d="M224.83,103.18c0-.53.46-.79,1.49-.91,0-.31-.1-.62-.5-.62-.28,0-.54.13-.73.26l-.16-.28c.22-.15.56-.32.96-.32.59,0,.84.39.84,1v1.49h-.34l-.03-.29h-.01c-.23.19-.5.35-.8.35-.41,0-.71-.25-.71-.69ZM226.32,103.21v-.68c-.82.1-1.09.3-1.09.61,0,.28.19.39.43.39s.43-.11.66-.32Z"/>
      <path class="cls-1" d="M227.5,101.38h.34l.03.28h.01c.22-.18.49-.34.78-.34.63,0,.96.49.96,1.24,0,.83-.5,1.31-1.05,1.31-.22,0-.45-.1-.67-.28v.42s.01.82.01.82h-.41v-3.46ZM229.2,102.56c0-.54-.18-.9-.64-.9-.21,0-.41.11-.65.33v1.28c.22.18.43.25.59.25.4,0,.7-.36.7-.96Z"/>
      <path class="cls-1" d="M230.26,100.24h.41v1.47c.21-.22.46-.4.79-.4.51,0,.74.33.74.95v1.54h-.41v-1.49c0-.45-.14-.65-.46-.65-.25,0-.42.13-.67.37v1.76h-.41v-3.57Z"/>
      <path class="cls-1" d="M232.73,104.81l.08-.33s.12.04.19.04c.27,0,.45-.22.55-.52l.06-.18-.98-2.44h.42l.5,1.35c.08.21.16.46.24.69h.02c.07-.22.14-.47.2-.69l.43-1.35h.4l-.92,2.63c-.17.48-.42.85-.91.85-.11,0-.21-.02-.29-.05Z"/>
    </g>
  </g>
  <g>
    <rect class="cls-6" x="182.67" y="111.67" width="69.07" height="9.19" rx="2.14" ry="2.14"/>
    <g>
      <path class="cls-1" d="M198.77,117.24l.25-.29c.24.25.56.41.91.41.43,0,.69-.21.69-.53,0-.34-.24-.44-.55-.58l-.47-.21c-.31-.13-.67-.36-.67-.85s.44-.87,1.03-.87c.39,0,.74.17.97.41l-.22.27c-.2-.19-.44-.31-.75-.31-.37,0-.61.19-.61.48,0,.32.29.43.54.54l.47.2c.38.16.68.39.68.88,0,.52-.43.93-1.12.93-.46,0-.86-.19-1.15-.49Z"/>
      <path class="cls-1" d="M201.64,115.23h.34l.03.28h.01c.22-.18.49-.34.78-.34.63,0,.96.49.96,1.24,0,.83-.5,1.31-1.05,1.31-.22,0-.45-.1-.67-.28v.42s.01.82.01.82h-.41v-3.46ZM203.35,116.41c0-.54-.18-.9-.64-.9-.21,0-.41.11-.65.33v1.28c.22.18.43.25.59.25.4,0,.7-.36.7-.96Z"/>
      <path class="cls-1" d="M204.2,117.03c0-.53.46-.79,1.49-.91,0-.31-.1-.62-.5-.62-.28,0-.54.13-.73.26l-.16-.28c.22-.15.56-.32.96-.32.59,0,.84.39.84,1v1.49h-.34l-.03-.29h-.01c-.23.19-.5.35-.8.35-.41,0-.71-.25-.71-.69ZM205.69,117.07v-.68c-.82.1-1.09.3-1.09.61,0,.28.19.39.43.39s.43-.11.66-.32Z"/>
      <path class="cls-1" d="M206.87,116.91v-1.35h-.36v-.31l.38-.02.05-.68h.34v.68h.66v.33h-.66v1.35c0,.3.1.47.38.47.09,0,.2-.03.28-.07l.08.31c-.14.05-.3.09-.45.09-.52,0-.69-.33-.69-.81Z"/>
      <path class="cls-1" d="M208.41,114.46c0-.16.12-.27.28-.27s.28.1.28.27-.12.27-.28.27-.28-.11-.28-.27ZM208.49,115.23h.41v2.43h-.41v-2.43Z"/>
      <path class="cls-1" d="M209.57,117.03c0-.53.46-.79,1.49-.91,0-.31-.1-.62-.5-.62-.28,0-.54.13-.73.26l-.16-.28c.22-.15.56-.32.96-.32.59,0,.84.39.84,1v1.49h-.34l-.03-.29h-.01c-.23.19-.5.35-.8.35-.41,0-.71-.25-.71-.69ZM211.06,117.07v-.68c-.82.1-1.09.3-1.09.61,0,.28.19.39.43.39s.43-.11.66-.32Z"/>
      <path class="cls-1" d="M212.24,117.18v-3.08h.41v3.11c0,.13.05.18.11.18.02,0,.04,0,.09-.01l.06.31c-.06.02-.13.04-.24.04-.31,0-.44-.2-.44-.55Z"/>
      <path class="cls-1" d="M214.55,114.38h1.03c.67,0,1.15.24,1.15.92s-.48.97-1.15.97h-.61v1.39h-.42v-3.29ZM215.52,115.94c.51,0,.79-.21.79-.63s-.28-.58-.79-.58h-.55v1.22h.55ZM215.5,116.16l.33-.22,1,1.72h-.47l-.86-1.5Z"/>
      <path class="cls-1" d="M217.13,116.45c0-.79.53-1.28,1.09-1.28.62,0,.97.45.97,1.14,0,.09,0,.17-.02.23h-1.64c.03.51.34.85.81.85.23,0,.43-.08.61-.19l.15.27c-.21.14-.47.25-.8.25-.65,0-1.16-.47-1.16-1.27ZM218.83,116.25c0-.49-.22-.75-.6-.75-.34,0-.65.27-.7.75h1.3Z"/>
      <path class="cls-1" d="M219.57,117.03c0-.53.46-.79,1.49-.91,0-.31-.1-.62-.5-.62-.28,0-.54.13-.73.26l-.16-.28c.22-.15.56-.32.96-.32.59,0,.84.39.84,1v1.49h-.34l-.03-.29h-.01c-.23.19-.5.35-.8.35-.41,0-.71-.25-.71-.69ZM221.06,117.07v-.68c-.82.1-1.09.3-1.09.61,0,.28.19.39.43.39s.43-.11.66-.32Z"/>
      <path class="cls-1" d="M221.97,117.39l.2-.27c.21.17.43.29.72.29.32,0,.48-.17.48-.38,0-.25-.29-.36-.56-.46-.34-.12-.73-.29-.73-.7,0-.39.31-.69.84-.69.3,0,.57.12.76.27l-.2.26c-.17-.12-.34-.22-.55-.22-.31,0-.45.16-.45.35,0,.23.26.32.54.42.35.13.74.28.74.74,0,.39-.31.72-.89.72-.35,0-.68-.15-.91-.34Z"/>
      <path class="cls-1" d="M224.15,116.45c0-.81.53-1.28,1.13-1.28s1.13.47,1.13,1.28-.53,1.27-1.13,1.27-1.13-.47-1.13-1.27ZM225.98,116.45c0-.56-.28-.94-.7-.94s-.7.38-.7.94.28.93.7.93.7-.37.7-.93Z"/>
      <path class="cls-1" d="M227.04,115.23h.34l.03.35h.01c.23-.23.48-.41.82-.41.51,0,.74.33.74.95v1.54h-.41v-1.49c0-.45-.14-.65-.46-.65-.25,0-.42.13-.67.37v1.76h-.41v-2.43Z"/>
      <path class="cls-1" d="M229.7,114.46c0-.16.12-.27.28-.27s.28.1.28.27-.12.27-.28.27-.28-.11-.28-.27ZM229.78,115.23h.41v2.43h-.41v-2.43Z"/>
      <path class="cls-1" d="M231.01,115.23h.34l.03.35h.01c.23-.23.48-.41.82-.41.51,0,.74.33.74.95v1.54h-.41v-1.49c0-.45-.14-.65-.46-.65-.25,0-.42.13-.67.37v1.76h-.41v-2.43Z"/>
      <path class="cls-1" d="M233.56,118.13c0-.21.13-.41.36-.55v-.02c-.12-.08-.22-.21-.22-.4,0-.2.14-.36.27-.45v-.02c-.16-.13-.31-.36-.31-.65,0-.53.42-.87.91-.87.13,0,.26.03.34.06h.85v.32h-.5c.11.11.2.29.2.5,0,.52-.39.84-.89.84-.12,0-.25-.03-.36-.08-.09.07-.15.15-.15.29,0,.15.1.26.43.26h.47c.57,0,.85.18.85.58,0,.45-.48.84-1.23.84-.6,0-1.01-.23-1.01-.65ZM235.39,118c0-.22-.17-.3-.49-.3h-.42c-.09,0-.21,0-.32-.04-.17.12-.25.27-.25.41,0,.26.26.43.71.43.46,0,.77-.24.77-.5ZM235.08,116.04c0-.35-.23-.57-.52-.57s-.52.21-.52.57.24.58.52.58.52-.22.52-.58Z"/>
    </g>
  </g>
  <g>
    <rect class="cls-6" x="182.56" y="125.16" width="69.07" height="9.19" rx="2.14" ry="2.14"/>
    <g>
      <path class="cls-1" d="M202.13,127.87h.42v1.38h1.53v-1.38h.42v3.29h-.42v-1.54h-1.53v1.54h-.42v-3.29Z"/>
      <path class="cls-1" d="M205.2,129.51c0-1.06.62-1.71,1.46-1.71.4,0,.71.19.9.41l-.23.27c-.17-.18-.39-.31-.67-.31-.62,0-1.03.51-1.03,1.33s.39,1.34,1.02,1.34c.31,0,.55-.14.76-.37l.23.26c-.26.3-.58.47-1.01.47-.82,0-1.43-.63-1.43-1.7Z"/>
      <path class="cls-1" d="M208.25,127.87h.42v3.29h-.42v-3.29Z"/>
      <path class="cls-1" d="M210.27,130.3c0-.97,1.5-1.13,1.5-1.84,0-.19-.09-.36-.31-.36-.25,0-.4.21-.4.48,0,.61.67,1.43,1.3,1.9.26.19.51.33.72.39l-.11.34c-.26-.07-.56-.22-.86-.46-.72-.56-1.41-1.47-1.41-2.17,0-.44.3-.78.76-.78.41,0,.65.27.65.65,0,.84-1.43,1.1-1.43,1.82,0,.36.29.61.65.61.27,0,.54-.16.75-.39.27-.29.47-.67.59-1.12h.38c-.14.49-.37.94-.69,1.31-.28.31-.62.52-1.09.52-.59,0-1-.38-1-.91Z"/>
      <path class="cls-1" d="M214.59,129.79v-1.93h.42v1.94c0,.79.33,1.04.76,1.04s.78-.25.78-1.04v-1.94h.4v1.93c0,1.05-.51,1.42-1.18,1.42s-1.18-.36-1.18-1.42Z"/>
      <path class="cls-1" d="M217.5,130.87l.2-.27c.21.17.43.29.72.29.32,0,.48-.17.48-.38,0-.25-.29-.36-.56-.46-.34-.12-.73-.29-.73-.7,0-.39.31-.69.84-.69.3,0,.57.12.76.27l-.2.26c-.17-.12-.34-.22-.55-.22-.31,0-.45.16-.45.35,0,.23.26.32.54.42.35.13.74.28.74.74,0,.39-.31.72-.89.72-.35,0-.68-.15-.91-.34Z"/>
      <path class="cls-1" d="M219.72,130.52c0-.53.46-.79,1.49-.91,0-.31-.1-.62-.5-.62-.28,0-.54.13-.73.26l-.16-.28c.22-.15.56-.32.96-.32.59,0,.84.39.84,1v1.49h-.34l-.03-.29h-.01c-.23.19-.5.35-.8.35-.41,0-.71-.25-.71-.69ZM221.21,130.56v-.68c-.82.1-1.09.3-1.09.61,0,.28.19.39.43.39s.43-.11.66-.32Z"/>
      <path class="cls-1" d="M222.77,130.9h-.01l-.04.25h-.33v-3.57h.41v1.41c.21-.19.48-.34.75-.34.63,0,.97.49.97,1.24,0,.83-.5,1.31-1.05,1.31-.23,0-.48-.12-.69-.31ZM224.09,129.9c0-.54-.18-.9-.64-.9-.21,0-.42.11-.65.33v1.28c.21.18.43.25.59.25.4,0,.7-.36.7-.96Z"/>
      <path class="cls-1" d="M225.08,127.95c0-.16.12-.27.28-.27s.28.1.28.27-.12.27-.28.27-.28-.11-.28-.27ZM225.15,128.72h.41v2.43h-.41v-2.43Z"/>
      <path class="cls-1" d="M226.38,130.66v-3.08h.41v3.11c0,.13.05.18.11.18.02,0,.04,0,.09-.01l.06.31c-.06.02-.13.04-.24.04-.31,0-.44-.2-.44-.55Z"/>
      <path class="cls-1" d="M227.58,127.95c0-.16.12-.27.28-.27s.28.1.28.27-.12.27-.28.27-.28-.11-.28-.27ZM227.66,128.72h.41v2.43h-.41v-2.43Z"/>
      <path class="cls-1" d="M228.96,130.4v-1.35h-.36v-.31l.38-.02.05-.68h.34v.68h.66v.33h-.66v1.35c0,.3.1.47.38.47.09,0,.2-.03.28-.07l.08.31c-.14.05-.3.09-.45.09-.52,0-.69-.33-.69-.81Z"/>
      <path class="cls-1" d="M230.33,132.15l.08-.33s.12.04.19.04c.27,0,.45-.22.55-.52l.06-.18-.98-2.44h.42l.5,1.35c.08.21.16.46.24.69h.02c.07-.22.14-.47.2-.69l.43-1.35h.4l-.92,2.63c-.17.48-.42.85-.91.85-.11,0-.21-.02-.29-.05Z"/>
    </g>
  </g>
  <g>
    <rect class="cls-6" x="182.64" y="143.2" width="69.07" height="9.19" rx="2.14" ry="2.14"/>
    <g>
      <path class="cls-1" d="M190.02,145.91h.82c1.01,0,1.55.59,1.55,1.63s-.54,1.65-1.53,1.65h-.84v-3.29ZM190.81,148.85c.77,0,1.15-.48,1.15-1.31s-.38-1.29-1.15-1.29h-.37v2.6h.37Z"/>
      <path class="cls-1" d="M192.91,148.56c0-.53.46-.79,1.49-.91,0-.31-.1-.62-.5-.62-.28,0-.54.13-.73.26l-.16-.28c.22-.15.56-.32.96-.32.59,0,.84.39.84,1v1.49h-.34l-.03-.29h-.01c-.23.19-.5.35-.8.35-.41,0-.71-.25-.71-.69ZM194.4,148.6v-.68c-.82.1-1.09.3-1.09.61,0,.28.19.39.43.39s.43-.11.66-.32Z"/>
      <path class="cls-1" d="M195.58,148.44v-1.35h-.36v-.31l.38-.02.05-.68h.34v.68h.66v.33h-.66v1.35c0,.3.1.47.38.47.09,0,.2-.03.28-.07l.08.31c-.14.05-.3.09-.45.09-.52,0-.69-.33-.69-.81Z"/>
      <path class="cls-1" d="M196.94,148.56c0-.53.46-.79,1.49-.91,0-.31-.1-.62-.5-.62-.28,0-.54.13-.73.26l-.16-.28c.22-.15.56-.32.96-.32.59,0,.84.39.84,1v1.49h-.34l-.03-.29h-.01c-.23.19-.5.35-.8.35-.41,0-.71-.25-.71-.69ZM198.44,148.6v-.68c-.82.1-1.09.3-1.09.61,0,.28.19.39.43.39s.43-.11.66-.32Z"/>
      <path class="cls-1" d="M200.46,147.54c0-1.05.58-1.69,1.4-1.69s1.4.64,1.4,1.69-.58,1.71-1.4,1.71-1.4-.66-1.4-1.71ZM202.84,147.54c0-.82-.39-1.32-.97-1.32s-.97.5-.97,1.32.39,1.37.97,1.37.97-.53.97-1.37ZM201.64,149.18l.43-.03c.13.35.45.52.84.52.15,0,.26-.02.35-.05l.08.32c-.1.04-.27.08-.47.08-.63,0-1.06-.36-1.23-.84Z"/>
      <path class="cls-1" d="M203.9,148.3v-1.54h.41v1.49c0,.45.14.65.46.65.25,0,.42-.12.65-.41v-1.73h.41v2.43h-.34l-.04-.38h-.01c-.23.27-.47.44-.8.44-.51,0-.74-.33-.74-.95Z"/>
      <path class="cls-1" d="M206.5,148.56c0-.53.46-.79,1.49-.91,0-.31-.1-.62-.5-.62-.28,0-.54.13-.73.26l-.16-.28c.22-.15.56-.32.96-.32.59,0,.84.39.84,1v1.49h-.34l-.03-.29h-.01c-.23.19-.5.35-.8.35-.41,0-.71-.25-.71-.69ZM208,148.6v-.68c-.82.1-1.09.3-1.09.61,0,.28.19.39.43.39s.43-.11.66-.32Z"/>
      <path class="cls-1" d="M209.17,148.71v-3.08h.41v3.11c0,.13.05.18.11.18.02,0,.04,0,.09-.01l.06.31c-.06.02-.13.04-.24.04-.31,0-.44-.2-.44-.55Z"/>
      <path class="cls-1" d="M210.37,146c0-.16.12-.27.28-.27s.28.1.28.27-.12.27-.28.27-.28-.11-.28-.27ZM210.45,146.76h.41v2.43h-.41v-2.43Z"/>
      <path class="cls-1" d="M211.75,148.44v-1.35h-.36v-.31l.38-.02.05-.68h.34v.68h.66v.33h-.66v1.35c0,.3.1.47.38.47.09,0,.2-.03.28-.07l.08.31c-.14.05-.3.09-.45.09-.52,0-.69-.33-.69-.81Z"/>
      <path class="cls-1" d="M213.12,150.19l.08-.33s.12.04.19.04c.27,0,.45-.22.55-.52l.06-.18-.98-2.44h.42l.5,1.35c.08.21.16.46.24.69h.02c.07-.22.14-.47.2-.69l.43-1.35h.4l-.92,2.63c-.17.48-.42.85-.91.85-.11,0-.21-.02-.29-.05Z"/>
      <path class="cls-1" d="M216.45,148.35c0-.97,1.5-1.13,1.5-1.84,0-.19-.09-.36-.31-.36-.25,0-.4.21-.4.48,0,.61.67,1.43,1.3,1.9.26.19.51.33.72.39l-.11.34c-.26-.07-.56-.22-.86-.46-.72-.56-1.41-1.47-1.41-2.17,0-.44.3-.78.76-.78.41,0,.65.27.65.65,0,.84-1.43,1.1-1.43,1.82,0,.36.29.61.65.61.27,0,.54-.16.75-.39.27-.29.47-.67.59-1.12h.38c-.14.49-.37.94-.69,1.31-.28.31-.62.52-1.09.52-.59,0-1-.38-1-.91Z"/>
      <path class="cls-1" d="M220.77,147.84v-1.93h.42v1.94c0,.79.33,1.04.76,1.04s.78-.25.78-1.04v-1.94h.4v1.93c0,1.05-.51,1.42-1.18,1.42s-1.18-.36-1.18-1.42Z"/>
      <path class="cls-1" d="M223.97,146.76h.34l.03.35h.01c.23-.23.48-.41.82-.41.51,0,.74.33.74.95v1.54h-.41v-1.49c0-.45-.14-.65-.46-.65-.25,0-.42.13-.67.37v1.76h-.41v-2.43Z"/>
      <path class="cls-1" d="M226.53,147.98c0-.81.55-1.28,1.17-1.28.32,0,.54.13.71.29l-.21.27c-.14-.13-.29-.21-.48-.21-.44,0-.76.38-.76.94s.31.93.75.93c.22,0,.42-.11.57-.24l.18.28c-.22.19-.49.31-.79.31-.65,0-1.14-.47-1.14-1.27Z"/>
      <path class="cls-1" d="M228.7,147.98c0-.79.53-1.28,1.09-1.28.62,0,.97.45.97,1.14,0,.09,0,.17-.02.23h-1.64c.03.51.34.85.81.85.23,0,.43-.08.61-.19l.15.27c-.21.14-.47.25-.8.25-.65,0-1.16-.47-1.16-1.27ZM230.4,147.78c0-.49-.22-.75-.6-.75-.34,0-.65.27-.7.75h1.3Z"/>
      <path class="cls-1" d="M231.36,146.76h.34l.03.44h.01c.17-.31.42-.5.69-.5.11,0,.18.01.26.05l-.08.36c-.08-.03-.14-.04-.24-.04-.21,0-.45.15-.62.56v1.56h-.41v-2.43Z"/>
      <path class="cls-1" d="M233.17,148.44v-1.35h-.36v-.31l.38-.02.05-.68h.34v.68h.66v.33h-.66v1.35c0,.3.1.47.38.47.09,0,.2-.03.28-.07l.08.31c-.14.05-.3.09-.45.09-.52,0-.69-.33-.69-.81Z"/>
      <path class="cls-1" d="M234.53,148.56c0-.53.46-.79,1.49-.91,0-.31-.1-.62-.5-.62-.28,0-.54.13-.73.26l-.16-.28c.22-.15.56-.32.96-.32.59,0,.84.39.84,1v1.49h-.34l-.03-.29h-.01c-.23.19-.5.35-.8.35-.41,0-.71-.25-.71-.69ZM236.02,148.6v-.68c-.82.1-1.09.3-1.09.61,0,.28.19.39.43.39s.43-.11.66-.32Z"/>
      <path class="cls-1" d="M237.13,146c0-.16.12-.27.28-.27s.28.1.28.27-.12.27-.28.27-.28-.11-.28-.27ZM237.2,146.76h.41v2.43h-.41v-2.43Z"/>
      <path class="cls-1" d="M238.43,146.76h.34l.03.35h.01c.23-.23.48-.41.82-.41.51,0,.74.33.74.95v1.54h-.41v-1.49c0-.45-.14-.65-.46-.65-.25,0-.42.13-.67.37v1.76h-.41v-2.43Z"/>
      <path class="cls-1" d="M241.24,148.44v-1.35h-.36v-.31l.38-.02.05-.68h.34v.68h.66v.33h-.66v1.35c0,.3.1.47.38.47.09,0,.2-.03.28-.07l.08.31c-.14.05-.3.09-.45.09-.52,0-.69-.33-.69-.81Z"/>
      <path class="cls-1" d="M242.61,150.19l.08-.33s.12.04.19.04c.27,0,.45-.22.55-.52l.06-.18-.98-2.44h.42l.5,1.35c.08.21.16.46.24.69h.02c.07-.22.14-.47.2-.69l.43-1.35h.4l-.92,2.63c-.17.48-.42.85-.91.85-.11,0-.21-.02-.29-.05Z"/>
    </g>
  </g>
  <g>
    <rect class="cls-6" x="182.6" y="157.04" width="69.07" height="9.19" rx="2.14" ry="2.14"/>
    <g>
      <path class="cls-1" d="M195.93,159.75h.42v3.29h-.42v-3.29Z"/>
      <path class="cls-1" d="M197.21,160.6h.34l.03.35h.01c.23-.23.48-.41.82-.41.51,0,.74.33.74.95v1.54h-.41v-1.49c0-.45-.14-.65-.46-.65-.25,0-.42.13-.67.37v1.76h-.41v-2.43Z"/>
      <path class="cls-1" d="M199.68,162.75l.2-.27c.21.17.43.29.72.29.32,0,.48-.17.48-.38,0-.25-.29-.36-.56-.46-.34-.12-.73-.29-.73-.7,0-.39.31-.69.84-.69.3,0,.57.12.76.27l-.2.26c-.17-.12-.34-.22-.55-.22-.31,0-.45.16-.45.35,0,.23.26.32.54.42.35.13.74.28.74.74,0,.39-.31.72-.89.72-.35,0-.68-.15-.91-.34Z"/>
      <path class="cls-1" d="M202.01,162.28v-1.35h-.36v-.31l.38-.02.05-.68h.34v.68h.66v.33h-.66v1.35c0,.3.1.47.38.47.09,0,.2-.03.28-.07l.08.31c-.14.05-.3.09-.45.09-.52,0-.69-.33-.69-.81Z"/>
      <path class="cls-1" d="M203.56,159.83c0-.16.12-.27.28-.27s.28.1.28.27-.12.27-.28.27-.28-.11-.28-.27ZM203.63,160.6h.41v2.43h-.41v-2.43Z"/>
      <path class="cls-1" d="M204.93,162.28v-1.35h-.36v-.31l.38-.02.05-.68h.34v.68h.66v.33h-.66v1.35c0,.3.1.47.38.47.09,0,.2-.03.28-.07l.08.31c-.14.05-.3.09-.45.09-.52,0-.69-.33-.69-.81Z"/>
      <path class="cls-1" d="M206.52,162.14v-1.54h.41v1.49c0,.45.14.65.46.65.25,0,.42-.12.65-.41v-1.73h.41v2.43h-.34l-.04-.38h-.01c-.23.27-.47.44-.8.44-.51,0-.74-.33-.74-.95Z"/>
      <path class="cls-1" d="M209.34,162.28v-1.35h-.36v-.31l.38-.02.05-.68h.34v.68h.66v.33h-.66v1.35c0,.3.1.47.38.47.09,0,.2-.03.28-.07l.08.31c-.14.05-.3.09-.45.09-.52,0-.69-.33-.69-.81Z"/>
      <path class="cls-1" d="M210.89,159.83c0-.16.12-.27.28-.27s.28.1.28.27-.12.27-.28.27-.28-.11-.28-.27ZM210.96,160.6h.41v2.43h-.41v-2.43Z"/>
      <path class="cls-1" d="M212.01,161.82c0-.81.53-1.28,1.13-1.28s1.13.47,1.13,1.28-.53,1.27-1.13,1.27-1.13-.47-1.13-1.27ZM213.84,161.82c0-.56-.28-.94-.7-.94s-.7.38-.7.94.28.93.7.93.7-.37.7-.93Z"/>
      <path class="cls-1" d="M214.9,160.6h.34l.03.35h.01c.23-.23.48-.41.82-.41.51,0,.74.33.74.95v1.54h-.41v-1.49c0-.45-.14-.65-.46-.65-.25,0-.42.13-.67.37v1.76h-.41v-2.43Z"/>
      <path class="cls-1" d="M217.48,162.4c0-.53.46-.79,1.49-.91,0-.31-.1-.62-.5-.62-.28,0-.54.13-.73.26l-.16-.28c.22-.15.56-.32.96-.32.59,0,.84.39.84,1v1.49h-.34l-.03-.29h-.01c-.23.19-.5.35-.8.35-.41,0-.71-.25-.71-.69ZM218.98,162.44v-.68c-.82.1-1.09.3-1.09.61,0,.28.19.39.43.39s.43-.11.66-.32Z"/>
      <path class="cls-1" d="M220.16,162.54v-3.08h.41v3.11c0,.13.05.18.11.18.02,0,.04,0,.09-.01l.06.31c-.06.02-.13.04-.24.04-.31,0-.44-.2-.44-.55Z"/>
      <path class="cls-1" d="M222.47,159.75h.94c.74,0,1.23.25,1.23.97s-.49,1.01-1.21,1.01h-.54v1.3h-.42v-3.29ZM223.37,161.39c.57,0,.85-.21.85-.68s-.29-.63-.87-.63h-.47v1.3h.49Z"/>
      <path class="cls-1" d="M225.26,160.6h.34l.03.44h.01c.17-.31.42-.5.69-.5.11,0,.18.01.26.05l-.08.36c-.08-.03-.14-.04-.24-.04-.21,0-.45.15-.62.56v1.56h-.41v-2.43Z"/>
      <path class="cls-1" d="M226.72,162.4c0-.53.46-.79,1.49-.91,0-.31-.1-.62-.5-.62-.28,0-.54.13-.73.26l-.16-.28c.22-.15.56-.32.96-.32.59,0,.84.39.84,1v1.49h-.34l-.03-.29h-.01c-.23.19-.5.35-.8.35-.41,0-.71-.25-.71-.69ZM228.22,162.44v-.68c-.82.1-1.09.3-1.09.61,0,.28.19.39.43.39s.43-.11.66-.32Z"/>
      <path class="cls-1" d="M229.21,161.82c0-.81.55-1.28,1.17-1.28.32,0,.54.13.71.29l-.21.27c-.14-.13-.29-.21-.48-.21-.44,0-.76.38-.76.94s.31.93.75.93c.22,0,.42-.11.57-.24l.18.28c-.22.19-.49.31-.79.31-.65,0-1.14-.47-1.14-1.27Z"/>
      <path class="cls-1" d="M231.7,162.28v-1.35h-.36v-.31l.38-.02.05-.68h.34v.68h.66v.33h-.66v1.35c0,.3.1.47.38.47.09,0,.2-.03.28-.07l.08.31c-.14.05-.3.09-.45.09-.52,0-.69-.33-.69-.81Z"/>
      <path class="cls-1" d="M233.24,159.83c0-.16.12-.27.28-.27s.28.1.28.27-.12.27-.28.27-.28-.11-.28-.27ZM233.32,160.6h.41v2.43h-.41v-2.43Z"/>
      <path class="cls-1" d="M234.36,161.82c0-.81.55-1.28,1.17-1.28.32,0,.54.13.71.29l-.21.27c-.14-.13-.29-.21-.48-.21-.44,0-.76.38-.76.94s.31.93.75.93c.22,0,.42-.11.57-.24l.18.28c-.22.19-.49.31-.79.31-.65,0-1.14-.47-1.14-1.27Z"/>
      <path class="cls-1" d="M236.54,161.82c0-.79.53-1.28,1.09-1.28.62,0,.97.45.97,1.14,0,.09,0,.17-.02.23h-1.64c.03.51.34.85.81.85.23,0,.43-.08.61-.19l.15.27c-.21.14-.47.25-.8.25-.65,0-1.16-.47-1.16-1.27ZM238.24,161.62c0-.49-.22-.75-.6-.75-.34,0-.65.27-.7.75h1.3Z"/>
    </g>
  </g>
  <g>
    <rect class="cls-6" x="182.66" y="170.89" width="69.07" height="9.19" rx="2.14" ry="2.14"/>
    <g>
      <path class="cls-1" d="M194.07,176.45l.25-.29c.24.25.56.41.91.41.43,0,.69-.21.69-.53,0-.34-.24-.44-.55-.58l-.47-.21c-.31-.13-.67-.36-.67-.85s.44-.87,1.03-.87c.39,0,.74.17.97.41l-.22.27c-.2-.19-.44-.31-.75-.31-.37,0-.61.19-.61.48,0,.32.29.43.54.54l.47.2c.38.16.68.39.68.88,0,.52-.43.93-1.12.93-.46,0-.86-.19-1.15-.49Z"/>
      <path class="cls-1" d="M196.76,175.66c0-.81.53-1.28,1.13-1.28s1.13.47,1.13,1.28-.53,1.27-1.13,1.27-1.13-.47-1.13-1.27ZM198.59,175.66c0-.56-.28-.94-.7-.94s-.7.38-.7.94.28.93.7.93.7-.37.7-.93Z"/>
      <path class="cls-1" d="M199.47,175.66c0-.81.55-1.28,1.17-1.28.32,0,.54.13.71.29l-.21.27c-.14-.13-.29-.21-.48-.21-.44,0-.76.38-.76.94s.31.93.75.93c.22,0,.42-.11.57-.24l.18.28c-.22.19-.49.31-.79.31-.65,0-1.14-.47-1.14-1.27Z"/>
      <path class="cls-1" d="M201.86,173.68c0-.16.12-.27.28-.27s.28.1.28.27-.12.27-.28.27-.28-.11-.28-.27ZM201.93,174.44h.41v2.43h-.41v-2.43Z"/>
      <path class="cls-1" d="M203.01,176.25c0-.53.46-.79,1.49-.91,0-.31-.1-.62-.5-.62-.28,0-.54.13-.73.26l-.16-.28c.22-.15.56-.32.96-.32.59,0,.84.39.84,1v1.49h-.34l-.03-.29h-.01c-.23.19-.5.35-.8.35-.41,0-.71-.25-.71-.69ZM204.51,176.28v-.68c-.82.1-1.09.3-1.09.61,0,.28.19.39.43.39s.43-.11.66-.32Z"/>
      <path class="cls-1" d="M205.68,176.39v-3.08h.41v3.11c0,.13.05.18.11.18.02,0,.04,0,.09-.01l.06.31c-.06.02-.13.04-.24.04-.31,0-.44-.2-.44-.55Z"/>
      <path class="cls-1" d="M208,173.59h.42v3.29h-.42v-3.29Z"/>
      <path class="cls-1" d="M209.27,174.44h.34l.03.35h.01c.21-.23.47-.41.76-.41.37,0,.57.18.67.46.25-.27.51-.46.8-.46.5,0,.74.33.74.95v1.54h-.41v-1.49c0-.45-.14-.65-.45-.65-.19,0-.38.12-.61.37v1.76h-.41v-1.49c0-.45-.14-.65-.45-.65-.18,0-.38.12-.61.37v1.76h-.41v-2.43Z"/>
      <path class="cls-1" d="M213.42,174.44h.34l.03.28h.01c.22-.18.49-.34.78-.34.63,0,.96.49.96,1.24,0,.83-.5,1.31-1.05,1.31-.22,0-.45-.1-.67-.28v.42s.01.82.01.82h-.41v-3.46ZM215.12,175.63c0-.54-.18-.9-.64-.9-.21,0-.41.11-.65.33v1.28c.22.18.43.25.59.25.4,0,.7-.36.7-.96Z"/>
      <path class="cls-1" d="M215.97,176.25c0-.53.46-.79,1.49-.91,0-.31-.1-.62-.5-.62-.28,0-.54.13-.73.26l-.16-.28c.22-.15.56-.32.96-.32.59,0,.84.39.84,1v1.49h-.34l-.03-.29h-.01c-.23.19-.5.35-.8.35-.41,0-.71-.25-.71-.69ZM217.47,176.28v-.68c-.82.1-1.09.3-1.09.61,0,.28.19.39.43.39s.43-.11.66-.32Z"/>
      <path class="cls-1" d="M218.46,175.66c0-.81.55-1.28,1.17-1.28.32,0,.54.13.71.29l-.21.27c-.14-.13-.29-.21-.48-.21-.44,0-.76.38-.76.94s.31.93.75.93c.22,0,.42-.11.57-.24l.18.28c-.22.19-.49.31-.79.31-.65,0-1.14-.47-1.14-1.27Z"/>
      <path class="cls-1" d="M220.94,176.13v-1.35h-.36v-.31l.38-.02.05-.68h.34v.68h.66v.33h-.66v1.35c0,.3.1.47.38.47.09,0,.2-.03.28-.07l.08.31c-.14.05-.3.09-.45.09-.52,0-.69-.33-.69-.81Z"/>
      <path class="cls-1" d="M223.31,176.03c0-.97,1.5-1.13,1.5-1.84,0-.19-.09-.36-.31-.36-.25,0-.4.21-.4.48,0,.61.67,1.43,1.3,1.9.26.19.51.33.72.39l-.11.34c-.26-.07-.56-.22-.86-.46-.72-.56-1.41-1.47-1.41-2.17,0-.44.3-.78.76-.78.41,0,.65.27.65.65,0,.84-1.44,1.1-1.44,1.82,0,.36.29.61.65.61.27,0,.54-.16.75-.39.27-.29.47-.67.59-1.12h.38c-.14.49-.37.94-.69,1.31-.28.31-.62.52-1.09.52-.59,0-1-.38-1-.91Z"/>
      <path class="cls-1" d="M227.65,173.59h1.89v.35h-1.48v1.03h1.24v.35h-1.24v1.19h1.53v.35h-1.94v-3.29Z"/>
      <path class="cls-1" d="M231.74,177.04l.02-.44c-.19.19-.45.34-.73.34-.61,0-1-.46-1-1.27s.5-1.28,1.05-1.28c.28,0,.48.1.7.29h.01l.04-.23h.33v3.46h-.41v-.86ZM231.74,176.26v-1.28c-.21-.18-.39-.25-.59-.25-.39,0-.7.38-.7.93,0,.58.24.93.67.93.23,0,.42-.11.62-.33Z"/>
      <path class="cls-1" d="M232.94,175.99v-1.54h.41v1.49c0,.45.14.65.46.65.25,0,.42-.12.65-.41v-1.73h.41v2.43h-.34l-.04-.38h-.01c-.23.27-.47.44-.8.44-.51,0-.74-.33-.74-.95Z"/>
      <path class="cls-1" d="M235.61,173.68c0-.16.12-.27.28-.27s.28.1.28.27-.12.27-.28.27-.28-.11-.28-.27ZM235.69,174.44h.41v2.43h-.41v-2.43Z"/>
      <path class="cls-1" d="M236.99,176.13v-1.35h-.36v-.31l.38-.02.05-.68h.34v.68h.66v.33h-.66v1.35c0,.3.1.47.38.47.09,0,.2-.03.28-.07l.08.31c-.14.05-.3.09-.45.09-.52,0-.69-.33-.69-.81Z"/>
      <path class="cls-1" d="M238.36,177.88l.08-.33s.12.04.19.04c.27,0,.45-.22.55-.52l.06-.18-.98-2.44h.42l.5,1.35c.08.21.16.46.24.69h.02c.07-.22.14-.47.2-.69l.43-1.35h.4l-.92,2.63c-.17.48-.42.85-.91.85-.11,0-.21-.02-.29-.05Z"/>
    </g>
  </g>
  <g>
    <rect class="cls-6" x="182.55" y="187.8" width="69.07" height="9.19" rx="2.14" ry="2.14"/>
    <g>
      <path class="cls-1" d="M211.71,193.37l.25-.29c.24.25.56.41.91.41.43,0,.69-.21.69-.53,0-.34-.24-.44-.55-.58l-.47-.21c-.31-.13-.67-.36-.67-.85s.44-.87,1.03-.87c.39,0,.74.17.97.41l-.22.27c-.2-.19-.44-.31-.75-.31-.37,0-.61.19-.61.48,0,.32.29.43.54.54l.47.2c.38.16.68.39.68.88,0,.52-.43.93-1.12.93-.46,0-.86-.19-1.15-.49Z"/>
      <path class="cls-1" d="M214.39,192.58c0-.81.55-1.28,1.17-1.28.32,0,.54.13.71.29l-.21.27c-.14-.13-.29-.21-.48-.21-.44,0-.76.38-.76.94s.31.93.75.93c.22,0,.42-.11.57-.24l.18.28c-.22.19-.49.31-.79.31-.65,0-1.14-.47-1.14-1.27Z"/>
      <path class="cls-1" d="M216.65,193.16c0-.53.46-.79,1.49-.91,0-.31-.1-.62-.5-.62-.28,0-.54.13-.73.26l-.16-.28c.22-.15.56-.32.96-.32.59,0,.84.39.84,1v1.49h-.34l-.03-.29h-.01c-.23.19-.5.35-.8.35-.41,0-.71-.25-.71-.69ZM218.15,193.2v-.68c-.82.1-1.09.3-1.09.61,0,.28.19.39.43.39s.43-.11.66-.32Z"/>
      <path class="cls-1" d="M219.33,193.31v-3.08h.41v3.11c0,.13.05.18.11.18.02,0,.04,0,.09-.01l.06.31c-.06.02-.13.04-.24.04-.31,0-.44-.2-.44-.55Z"/>
      <path class="cls-1" d="M220.42,192.58c0-.79.53-1.28,1.09-1.28.62,0,.97.45.97,1.14,0,.09,0,.17-.02.23h-1.64c.03.51.34.85.81.85.23,0,.43-.08.61-.19l.15.27c-.21.14-.47.25-.8.25-.65,0-1.16-.47-1.16-1.27ZM222.12,192.38c0-.49-.22-.75-.6-.75-.34,0-.65.27-.7.75h1.3Z"/>
    </g>
  </g>
  <g>
    <rect class="cls-6" x="182.65" y="206.27" width="69.07" height="9.19" rx="2.14" ry="2.14"/>
    <g>
      <path class="cls-1" d="M213.05,209.33h-.99v-.35h2.41v.35h-.99v2.93h-.42v-2.93Z"/>
      <path class="cls-1" d="M214.93,209.06c0-.16.12-.27.28-.27s.28.1.28.27-.12.27-.28.27-.28-.11-.28-.27ZM215,209.83h.41v2.43h-.41v-2.43Z"/>
      <path class="cls-1" d="M216.23,209.83h.34l.03.35h.01c.21-.23.47-.41.76-.41.37,0,.57.18.67.46.25-.27.51-.46.8-.46.5,0,.74.33.74.95v1.54h-.41v-1.49c0-.45-.14-.65-.45-.65-.19,0-.38.12-.61.37v1.76h-.41v-1.49c0-.45-.14-.65-.45-.65-.18,0-.38.12-.61.37v1.76h-.41v-2.43Z"/>
      <path class="cls-1" d="M220.2,211.05c0-.79.53-1.28,1.09-1.28.62,0,.97.45.97,1.14,0,.09,0,.17-.02.23h-1.64c.03.51.34.85.81.85.23,0,.43-.08.61-.19l.15.27c-.21.14-.47.25-.8.25-.65,0-1.16-.47-1.16-1.27ZM221.9,210.85c0-.49-.22-.75-.6-.75-.34,0-.65.27-.7.75h1.3Z"/>
    </g>
  </g>
  <path class="cls-2" d="M93.59,202.24h-19.29c-1.24,0-2.26-1.02-2.26-2.26V26.64c0-1.24,1.02-2.26,2.26-2.26h18.55"/>
  <line class="cls-2" x1="72.49" y1="70.56" x2="93.42" y2="70.56"/>
  <line class="cls-2" x1="65.31" y1="116.2" x2="93.41" y2="116.2"/>
  <line class="cls-2" x1="72.48" y1="161.9" x2="93.51" y2="161.9"/>
  <g>
    <path class="cls-3" d="M3.92,216.46h2.08v.39h-1.62v1.22h1.37v.39h-1.37v1.61h-.46v-3.61Z"/>
    <path class="cls-3" d="M6.51,216.55c0-.18.14-.29.31-.29s.31.11.31.29-.14.29-.31.29-.31-.12-.31-.29ZM6.6,217.39h.45v2.67h-.45v-2.67Z"/>
    <path class="cls-3" d="M7.75,220.58c0-.23.15-.44.39-.6v-.02c-.14-.08-.24-.23-.24-.44,0-.22.16-.4.29-.5v-.02c-.18-.14-.35-.4-.35-.72,0-.58.46-.95,1-.95.15,0,.28.03.38.07h.93v.35h-.55c.13.12.22.32.22.55,0,.57-.43.93-.98.93-.13,0-.28-.03-.4-.09-.1.08-.17.17-.17.32,0,.17.11.29.47.29h.52c.62,0,.93.19.93.64,0,.5-.52.92-1.35.92-.65,0-1.1-.26-1.1-.72ZM9.76,220.44c0-.25-.19-.33-.54-.33h-.46c-.1,0-.23-.01-.35-.04-.19.13-.27.29-.27.45,0,.29.29.47.77.47.51,0,.84-.27.84-.54ZM9.42,218.28c0-.39-.25-.62-.57-.62s-.57.23-.57.62.26.63.57.63.57-.25.57-.63Z"/>
    <path class="cls-3" d="M10.68,219.09v-1.69h.45v1.63c0,.5.15.71.5.71.27,0,.46-.14.71-.45v-1.89h.45v2.67h-.37l-.04-.42h-.01c-.25.29-.51.48-.88.48-.56,0-.82-.36-.82-1.04Z"/>
    <path class="cls-3" d="M13.71,217.39h.37l.04.49h.02c.19-.34.46-.55.76-.55.12,0,.2.02.29.05l-.08.4c-.09-.03-.15-.04-.26-.04-.23,0-.49.16-.68.61v1.71h-.45v-2.67Z"/>
    <path class="cls-3" d="M15.37,218.73c0-.87.59-1.4,1.2-1.4.68,0,1.07.49,1.07,1.25,0,.1,0,.19-.02.26h-1.8c.03.57.38.93.89.93.26,0,.47-.08.66-.21l.16.3c-.23.15-.52.28-.88.28-.71,0-1.28-.52-1.28-1.4ZM17.23,218.51c0-.54-.24-.83-.66-.83-.38,0-.71.3-.77.83h1.42Z"/>
    <path class="cls-3" d="M19.38,219.69h.8v-2.58h-.64v-.29c.32-.06.55-.14.75-.26h.35v3.13h.72v.38h-1.98v-.38Z"/>
    <path class="cls-3" d="M22.03,217.81c0-.21.15-.35.33-.35s.33.14.33.35-.15.34-.33.34-.33-.14-.33-.34ZM22.03,219.79c0-.21.15-.35.33-.35s.33.14.33.35-.15.34-.33.34-.33-.14-.33-.34Z"/>
    <path class="cls-3" d="M24.43,218.26c0-1.16.69-1.87,1.6-1.87.44,0,.78.21.99.44l-.25.3c-.19-.2-.43-.34-.73-.34-.68,0-1.13.56-1.13,1.46s.43,1.47,1.12,1.47c.34,0,.61-.15.84-.4l.25.29c-.28.33-.64.52-1.11.52-.9,0-1.57-.7-1.57-1.87Z"/>
    <path class="cls-3" d="M27.54,218.73c0-.89.58-1.4,1.24-1.4s1.24.51,1.24,1.4-.58,1.4-1.24,1.4-1.24-.51-1.24-1.4ZM29.55,218.73c0-.61-.31-1.03-.77-1.03s-.77.42-.77,1.03.31,1.02.77,1.02.77-.41.77-1.02Z"/>
    <path class="cls-3" d="M30.72,217.39h.37l.04.39h.02c.23-.25.51-.45.83-.45.41,0,.63.2.74.51.28-.3.56-.51.88-.51.55,0,.81.36.81,1.04v1.69h-.45v-1.63c0-.5-.16-.71-.5-.71-.21,0-.42.14-.67.41v1.93h-.45v-1.63c0-.5-.16-.71-.5-.71-.2,0-.42.14-.67.41v1.93h-.45v-2.67Z"/>
    <path class="cls-3" d="M35.28,217.39h.37l.04.31h.02c.24-.2.54-.37.85-.37.69,0,1.06.54,1.06,1.36,0,.91-.55,1.44-1.16,1.44-.24,0-.5-.11-.74-.31v.47s.01.9.01.9h-.45v-3.8ZM37.15,218.69c0-.59-.2-.98-.7-.98-.23,0-.45.12-.71.36v1.4c.24.2.47.28.65.28.44,0,.77-.4.77-1.06Z"/>
    <path class="cls-3" d="M38.13,218.73c0-.89.58-1.4,1.24-1.4s1.24.51,1.24,1.4-.58,1.4-1.24,1.4-1.24-.51-1.24-1.4ZM40.14,218.73c0-.61-.31-1.03-.77-1.03s-.77.42-.77,1.03.31,1.02.77,1.02.77-.41.77-1.02Z"/>
    <path class="cls-3" d="M41.31,217.39h.37l.04.38h.02c.25-.25.53-.45.9-.45.56,0,.82.36.82,1.04v1.69h-.45v-1.63c0-.5-.15-.71-.5-.71-.27,0-.46.14-.73.41v1.93h-.45v-2.67Z"/>
    <path class="cls-3" d="M44.12,218.73c0-.87.59-1.4,1.2-1.4.68,0,1.07.49,1.07,1.25,0,.1,0,.19-.02.26h-1.8c.03.57.38.93.89.93.26,0,.47-.08.66-.21l.16.3c-.23.15-.52.28-.88.28-.71,0-1.28-.52-1.28-1.4ZM45.99,218.51c0-.54-.24-.83-.66-.83-.38,0-.71.3-.77.83h1.42Z"/>
    <path class="cls-3" d="M47.05,217.39h.37l.04.38h.02c.25-.25.53-.45.9-.45.56,0,.82.36.82,1.04v1.69h-.45v-1.63c0-.5-.15-.71-.5-.71-.27,0-.46.14-.73.41v1.93h-.45v-2.67Z"/>
    <path class="cls-3" d="M50.14,219.24v-1.48h-.4v-.34l.42-.03.05-.75h.38v.75h.72v.37h-.72v1.48c0,.33.11.52.41.52.09,0,.22-.04.3-.07l.09.34c-.15.05-.33.1-.5.1-.57,0-.76-.36-.76-.89Z"/>
    <path class="cls-3" d="M51.56,219.76l.22-.3c.23.19.47.32.79.32.35,0,.52-.19.52-.42,0-.27-.32-.4-.61-.51-.37-.14-.8-.32-.8-.77,0-.43.34-.76.92-.76.33,0,.62.14.83.3l-.22.29c-.18-.14-.37-.24-.61-.24-.34,0-.49.18-.49.38,0,.25.29.35.59.46.39.15.81.3.81.81,0,.43-.34.79-.97.79-.38,0-.75-.16-1-.37Z"/>
    <path class="cls-3" d="M55.07,218.73c0-.89.58-1.4,1.24-1.4s1.24.51,1.24,1.4-.58,1.4-1.24,1.4-1.24-.51-1.24-1.4ZM57.07,218.73c0-.61-.31-1.03-.77-1.03s-.77.42-.77,1.03.31,1.02.77,1.02.77-.41.77-1.02Z"/>
    <path class="cls-3" d="M57.95,217.42l.38-.03h1v.37h-1.38v-.34ZM58.31,216.97c0-.54.25-.89.78-.89.16,0,.32.04.44.09l-.1.34c-.1-.05-.21-.07-.3-.07-.25,0-.38.18-.38.52v3.09h-.45v-3.09Z"/>
    <path class="cls-3" d="M60.77,218.26c0-1.16.7-1.87,1.65-1.87.5,0,.83.23,1.04.44l-.25.3c-.18-.19-.41-.34-.78-.34-.73,0-1.19.56-1.19,1.46s.43,1.47,1.2,1.47c.26,0,.51-.08.65-.21v-.94h-.76v-.38h1.18v1.52c-.23.24-.63.42-1.11.42-.95,0-1.63-.7-1.63-1.87Z"/>
    <path class="cls-3" d="M64.38,216.46h.46v3.61h-.46v-3.61Z"/>
    <path class="cls-3" d="M65.56,219.59l.27-.31c.26.27.62.45.99.45.47,0,.75-.24.75-.59,0-.37-.26-.49-.6-.63l-.52-.23c-.34-.14-.73-.4-.73-.93s.48-.96,1.13-.96c.43,0,.81.18,1.06.45l-.24.29c-.22-.21-.48-.34-.82-.34-.4,0-.67.2-.67.53,0,.35.31.48.6.6l.51.22c.42.18.74.43.74.96,0,.57-.47,1.03-1.23,1.03-.51,0-.95-.21-1.26-.54Z"/>
    <path class="cls-3" d="M68.52,218.73c0-.89.6-1.4,1.28-1.4.35,0,.59.14.78.31l-.23.3c-.16-.14-.32-.24-.53-.24-.48,0-.84.42-.84,1.03s.33,1.02.83,1.02c.24,0,.46-.12.63-.27l.2.3c-.24.21-.54.34-.86.34-.71,0-1.25-.51-1.25-1.4Z"/>
    <path class="cls-3" d="M71.14,216.55c0-.18.14-.29.31-.29s.31.11.31.29-.14.29-.31.29-.31-.12-.31-.29ZM71.23,217.39h.45v2.67h-.45v-2.67Z"/>
    <path class="cls-3" d="M72.38,218.73c0-.87.59-1.4,1.2-1.4.68,0,1.07.49,1.07,1.25,0,.1,0,.19-.02.26h-1.8c.03.57.38.93.89.93.26,0,.47-.08.66-.21l.16.3c-.23.15-.52.28-.88.28-.71,0-1.28-.52-1.28-1.4ZM74.25,218.51c0-.54-.24-.83-.66-.83-.38,0-.71.3-.77.83h1.42Z"/>
    <path class="cls-3" d="M75.31,217.39h.37l.04.38h.02c.25-.25.53-.45.9-.45.56,0,.82.36.82,1.04v1.69h-.45v-1.63c0-.5-.15-.71-.5-.71-.27,0-.46.14-.73.41v1.93h-.45v-2.67Z"/>
    <path class="cls-3" d="M78.12,218.73c0-.89.6-1.4,1.28-1.4.35,0,.59.14.78.31l-.23.3c-.16-.14-.32-.24-.53-.24-.48,0-.84.42-.84,1.03s.33,1.02.83,1.02c.24,0,.46-.12.63-.27l.2.3c-.24.21-.54.34-.86.34-.71,0-1.25-.51-1.25-1.4Z"/>
    <path class="cls-3" d="M80.51,218.73c0-.87.59-1.4,1.2-1.4.68,0,1.07.49,1.07,1.25,0,.1,0,.19-.02.26h-1.8c.03.57.38.93.89.93.26,0,.47-.08.66-.21l.16.3c-.23.15-.52.28-.88.28-.71,0-1.28-.52-1.28-1.4ZM82.38,218.51c0-.54-.24-.83-.66-.83-.38,0-.71.3-.77.83h1.42Z"/>
  </g>
</svg>