<?xml version="1.0" encoding="UTF-8"?>
<svg id="Layer_6" data-name="Layer 6" xmlns="http://www.w3.org/2000/svg" viewBox="0 0 288 182.39">
  <defs>
    <style>
      .cls-1 {
        fill: #fffafc;
      }

      .cls-2 {
        fill: #231f20;
      }

      .cls-3 {
        fill: none;
        stroke: #d17c41;
        stroke-miterlimit: 10;
      }

      .cls-4 {
        fill: #848484;
      }

      .cls-5 {
        fill: #d17c41;
      }

      .cls-6 {
        fill: #a6b1a1;
      }

      .cls-7 {
        fill: #6c8480;
      }

      .cls-8 {
        fill: #dcd1c1;
      }
    </style>
  </defs>
  <rect class="cls-8" x="38.99" y="80.07" width="204.3" height="85.97" rx="6.66" ry="6.66"/>
  <rect class="cls-8" x="38.83" y="12.2" width="204.46" height="54.86" rx="6.66" ry="6.66"/>
  <rect class="cls-6" x="109.54" y="94.5" width="62.77" height="20.72" rx="2.91" ry="2.91"/>
  <g>
    <rect class="cls-7" x="61.82" y="26.76" width="69.07" height="33.14" rx="2.91" ry="2.91"/>
    <g>
      <path class="cls-1" d="M69.37,34.96h1.89v.35h-1.48v1.03h1.24v.35h-1.24v1.19h1.53v.35h-1.94v-3.29Z"/>
      <path class="cls-1" d="M71.69,37.97l.2-.27c.21.17.43.29.72.29.32,0,.48-.17.48-.38,0-.25-.29-.36-.56-.46-.34-.12-.73-.29-.73-.7,0-.39.31-.69.84-.69.3,0,.57.12.76.27l-.2.26c-.17-.12-.34-.22-.55-.22-.31,0-.45.16-.45.35,0,.23.26.32.54.42.35.13.74.28.74.74,0,.39-.31.72-.89.72-.35,0-.68-.15-.91-.34Z"/>
      <path class="cls-1" d="M74.03,37.5v-1.35h-.36v-.31l.38-.02.05-.68h.34v.68h.66v.33h-.66v1.35c0,.3.1.47.38.47.09,0,.2-.03.28-.07l.08.31c-.14.05-.3.09-.45.09-.52,0-.69-.33-.69-.81Z"/>
      <path class="cls-1" d="M75.39,37.62c0-.53.46-.79,1.49-.91,0-.31-.1-.62-.5-.62-.28,0-.54.13-.73.26l-.16-.28c.22-.15.56-.32.96-.32.59,0,.84.39.84,1v1.49h-.34l-.03-.29h-.01c-.23.19-.5.35-.8.35-.41,0-.71-.25-.71-.69ZM76.89,37.66v-.68c-.82.1-1.09.3-1.09.61,0,.28.19.39.43.39s.43-.11.66-.32Z"/>
      <path class="cls-1" d="M78.45,38h-.01l-.04.25h-.33v-3.57h.41v1.41c.21-.19.48-.34.75-.34.63,0,.97.49.97,1.24,0,.83-.5,1.32-1.05,1.32-.23,0-.48-.12-.69-.31ZM79.77,37c0-.54-.18-.9-.64-.9-.21,0-.42.11-.65.33v1.28c.21.18.43.25.59.25.4,0,.7-.36.7-.96Z"/>
      <path class="cls-1" d="M80.81,37.76v-3.08h.41v3.11c0,.13.05.18.11.18.02,0,.04,0,.09-.01l.06.31c-.06.02-.13.04-.24.04-.31,0-.44-.2-.44-.55Z"/>
      <path class="cls-1" d="M82.01,35.05c0-.16.12-.27.28-.27s.28.1.28.27-.12.27-.28.27-.28-.11-.28-.27ZM82.08,35.82h.41v2.43h-.41v-2.43Z"/>
      <path class="cls-1" d="M83.04,37.97l.2-.27c.21.17.43.29.72.29.32,0,.48-.17.48-.38,0-.25-.29-.36-.56-.46-.34-.12-.73-.29-.73-.7,0-.39.31-.69.84-.69.3,0,.57.12.76.27l-.2.26c-.17-.12-.34-.22-.55-.22-.31,0-.45.16-.45.35,0,.23.26.32.54.42.35.13.74.28.74.74,0,.39-.31.72-.89.72-.35,0-.68-.15-.91-.34Z"/>
      <path class="cls-1" d="M85.41,34.68h.41v1.47c.21-.22.46-.4.79-.4.51,0,.74.33.74.95v1.54h-.41v-1.49c0-.45-.14-.65-.46-.65-.25,0-.42.13-.67.37v1.76h-.41v-3.57Z"/>
      <path class="cls-1" d="M87.95,37.04c0-.79.53-1.28,1.09-1.28.62,0,.97.45.97,1.14,0,.09,0,.17-.02.23h-1.64c.03.51.34.85.81.85.23,0,.43-.08.61-.19l.15.27c-.21.14-.47.25-.8.25-.65,0-1.16-.47-1.16-1.27ZM89.65,36.84c0-.49-.22-.75-.6-.75-.34,0-.65.27-.7.75h1.3Z"/>
      <path class="cls-1" d="M90.44,37.04c0-.79.5-1.28,1.05-1.28.28,0,.47.11.68.28l-.02-.42v-.94h.41v3.57h-.34l-.03-.29h-.01c-.19.19-.45.35-.74.35-.61,0-1-.46-1-1.27ZM92.15,37.63v-1.28c-.21-.18-.39-.25-.59-.25-.39,0-.7.38-.7.93,0,.58.24.93.67.93.23,0,.42-.11.62-.33Z"/>
      <path class="cls-1" d="M94.38,35.82h.34l.03.28h.01c.22-.18.49-.34.78-.34.63,0,.96.49.96,1.24,0,.83-.5,1.31-1.05,1.31-.22,0-.45-.1-.67-.28v.42s.01.82.01.82h-.41v-3.46ZM96.09,37c0-.54-.18-.9-.64-.9-.21,0-.41.11-.65.33v1.28c.22.18.43.25.59.25.4,0,.7-.36.7-.96Z"/>
      <path class="cls-1" d="M96.94,37.62c0-.53.46-.79,1.49-.91,0-.31-.1-.62-.5-.62-.28,0-.54.13-.73.26l-.16-.28c.22-.15.56-.32.96-.32.59,0,.84.39.84,1v1.49h-.34l-.03-.29h-.01c-.23.19-.5.35-.8.35-.41,0-.71-.25-.71-.69ZM98.43,37.66v-.68c-.82.1-1.09.3-1.09.61,0,.28.19.39.43.39s.43-.11.66-.32Z"/>
      <path class="cls-1" d="M99.61,35.82h.34l.03.44h.01c.17-.31.42-.5.69-.5.11,0,.18.01.26.05l-.08.36c-.08-.03-.14-.04-.24-.04-.21,0-.45.15-.62.56v1.56h-.41v-2.43Z"/>
      <path class="cls-1" d="M101.07,37.62c0-.53.46-.79,1.49-.91,0-.31-.1-.62-.5-.62-.28,0-.54.13-.73.26l-.16-.28c.22-.15.56-.32.96-.32.59,0,.84.39.84,1v1.49h-.34l-.03-.29h-.01c-.23.19-.5.35-.8.35-.41,0-.71-.25-.71-.69ZM102.57,37.66v-.68c-.82.1-1.09.3-1.09.61,0,.28.19.39.43.39s.43-.11.66-.32Z"/>
      <path class="cls-1" d="M103.57,37.04c0-.79.5-1.28,1.05-1.28.28,0,.47.11.68.28l-.02-.42v-.94h.41v3.57h-.34l-.03-.29h-.01c-.19.19-.45.35-.74.35-.61,0-1-.46-1-1.27ZM105.29,37.63v-1.28c-.21-.18-.39-.25-.59-.25-.39,0-.7.38-.7.93,0,.58.24.93.67.93.23,0,.42-.11.62-.33Z"/>
      <path class="cls-1" d="M106.44,35.05c0-.16.12-.27.28-.27s.28.1.28.27-.12.27-.28.27-.28-.11-.28-.27ZM106.52,35.82h.41v2.43h-.41v-2.43Z"/>
      <path class="cls-1" d="M107.56,38.72c0-.21.13-.41.36-.55v-.02c-.12-.08-.22-.21-.22-.4,0-.2.14-.36.27-.45v-.02c-.16-.13-.31-.36-.31-.65,0-.53.42-.87.91-.87.13,0,.26.03.34.06h.85v.32h-.5c.11.11.2.29.2.5,0,.52-.39.84-.89.84-.12,0-.25-.03-.36-.08-.09.07-.15.15-.15.29,0,.15.1.26.43.26h.47c.57,0,.85.18.85.58,0,.45-.48.84-1.23.84-.6,0-1.01-.23-1.01-.65ZM109.4,38.59c0-.22-.17-.3-.49-.3h-.42c-.09,0-.21,0-.32-.04-.17.12-.25.27-.25.41,0,.26.26.43.71.43.46,0,.77-.24.77-.5ZM109.09,36.62c0-.35-.23-.57-.52-.57s-.52.21-.52.57.24.58.52.58.52-.22.52-.58Z"/>
      <path class="cls-1" d="M110.27,35.82h.34l.03.35h.01c.21-.23.47-.41.76-.41.37,0,.57.18.67.46.25-.27.51-.46.8-.46.5,0,.74.33.74.95v1.54h-.41v-1.49c0-.45-.14-.65-.45-.65-.19,0-.38.12-.61.37v1.76h-.41v-1.49c0-.45-.14-.65-.45-.65-.18,0-.38.12-.61.37v1.76h-.41v-2.43Z"/>
      <path class="cls-1" d="M114.14,37.97l.2-.27c.21.17.43.29.72.29.32,0,.48-.17.48-.38,0-.25-.29-.36-.56-.46-.34-.12-.73-.29-.73-.7,0-.39.31-.69.84-.69.3,0,.57.12.76.27l-.2.26c-.17-.12-.34-.22-.55-.22-.31,0-.45.16-.45.35,0,.23.26.32.54.42.35.13.74.28.74.74,0,.39-.31.72-.89.72-.35,0-.68-.15-.91-.34Z"/>
      <path class="cls-1" d="M117.36,37.62c0-.53.46-.79,1.49-.91,0-.31-.1-.62-.5-.62-.28,0-.54.13-.73.26l-.16-.28c.22-.15.56-.32.96-.32.59,0,.84.39.84,1v1.49h-.34l-.03-.29h-.01c-.23.19-.5.35-.8.35-.41,0-.71-.25-.71-.69ZM118.85,37.66v-.68c-.82.1-1.09.3-1.09.61,0,.28.19.39.43.39s.43-.11.66-.32Z"/>
      <path class="cls-1" d="M120.03,35.82h.34l.03.44h.01c.17-.31.42-.5.69-.5.11,0,.18.01.26.05l-.08.36c-.08-.03-.14-.04-.24-.04-.21,0-.45.15-.62.56v1.56h-.41v-2.43Z"/>
      <path class="cls-1" d="M121.53,37.04c0-.79.53-1.28,1.09-1.28.62,0,.97.45.97,1.14,0,.09,0,.17-.02.23h-1.64c.03.51.34.85.81.85.23,0,.43-.08.61-.19l.15.27c-.21.14-.47.25-.8.25-.65,0-1.16-.47-1.16-1.27ZM123.23,36.84c0-.49-.22-.75-.6-.75-.34,0-.65.27-.7.75h1.3Z"/>
      <path class="cls-1" d="M66.9,41.05c0-.16.12-.27.28-.27s.28.1.28.27-.12.27-.28.27-.28-.11-.28-.27ZM66.98,41.82h.41v2.43h-.41v-2.43Z"/>
      <path class="cls-1" d="M68.21,41.82h.34l.03.35h.01c.21-.23.47-.41.76-.41.37,0,.57.18.67.46.25-.27.51-.46.8-.46.5,0,.74.33.74.95v1.54h-.41v-1.49c0-.45-.14-.65-.45-.65-.19,0-.38.12-.61.37v1.76h-.41v-1.49c0-.45-.14-.65-.45-.65-.18,0-.38.12-.61.37v1.76h-.41v-2.43Z"/>
      <path class="cls-1" d="M72.35,41.82h.34l.03.28h.01c.22-.18.49-.34.78-.34.63,0,.96.49.96,1.24,0,.83-.5,1.31-1.05,1.31-.22,0-.45-.1-.67-.28v.42s.01.82.01.82h-.41v-3.46ZM74.06,43c0-.54-.18-.9-.64-.9-.21,0-.41.11-.65.33v1.28c.22.18.43.25.59.25.4,0,.7-.36.7-.96Z"/>
      <path class="cls-1" d="M75.11,43.76v-3.08h.41v3.11c0,.13.05.18.11.18.02,0,.04,0,.09-.01l.06.31c-.06.02-.13.04-.24.04-.31,0-.44-.2-.44-.55Z"/>
      <path class="cls-1" d="M76.2,43.04c0-.79.53-1.28,1.09-1.28.62,0,.97.45.97,1.14,0,.09,0,.17-.02.23h-1.64c.03.51.34.85.81.85.23,0,.43-.08.61-.19l.15.27c-.21.14-.47.25-.8.25-.65,0-1.16-.47-1.16-1.27ZM77.9,42.84c0-.49-.22-.75-.6-.75-.34,0-.65.27-.7.75h1.3Z"/>
      <path class="cls-1" d="M78.86,41.82h.34l.03.35h.01c.21-.23.47-.41.76-.41.37,0,.57.18.67.46.25-.27.51-.46.8-.46.5,0,.74.33.74.95v1.54h-.41v-1.49c0-.45-.14-.65-.45-.65-.19,0-.38.12-.61.37v1.76h-.41v-1.49c0-.45-.14-.65-.45-.65-.18,0-.38.12-.61.37v1.76h-.41v-2.43Z"/>
      <path class="cls-1" d="M82.83,43.04c0-.79.53-1.28,1.09-1.28.62,0,.97.45.97,1.14,0,.09,0,.17-.02.23h-1.64c.03.51.34.85.81.85.23,0,.43-.08.61-.19l.15.27c-.21.14-.47.25-.8.25-.65,0-1.16-.47-1.16-1.27ZM84.53,42.84c0-.49-.22-.75-.6-.75-.34,0-.65.27-.7.75h1.3Z"/>
      <path class="cls-1" d="M85.49,41.82h.34l.03.35h.01c.23-.23.48-.41.82-.41.51,0,.74.33.74.95v1.54h-.41v-1.49c0-.45-.14-.65-.46-.65-.25,0-.42.13-.67.37v1.76h-.41v-2.43Z"/>
      <path class="cls-1" d="M88.3,43.5v-1.35h-.36v-.31l.38-.02.05-.68h.34v.68h.66v.33h-.66v1.35c0,.3.1.47.38.47.09,0,.2-.03.28-.07l.08.31c-.14.05-.3.09-.45.09-.52,0-.69-.33-.69-.81Z"/>
      <path class="cls-1" d="M89.66,43.04c0-.79.53-1.28,1.09-1.28.62,0,.97.45.97,1.14,0,.09,0,.17-.02.23h-1.64c.03.51.34.85.81.85.23,0,.43-.08.61-.19l.15.27c-.21.14-.47.25-.8.25-.65,0-1.16-.47-1.16-1.27ZM91.36,42.84c0-.49-.22-.75-.6-.75-.34,0-.65.27-.7.75h1.3Z"/>
      <path class="cls-1" d="M92.15,43.04c0-.79.5-1.28,1.05-1.28.28,0,.47.11.68.28l-.02-.42v-.94h.41v3.57h-.34l-.03-.29h-.01c-.19.19-.45.35-.74.35-.61,0-1-.46-1-1.27ZM93.87,43.63v-1.28c-.21-.18-.39-.25-.59-.25-.39,0-.7.38-.7.93,0,.58.24.93.67.93.23,0,.42-.11.62-.33Z"/>
      <path class="cls-1" d="M95.95,43.62c0-.53.46-.79,1.49-.91,0-.31-.1-.62-.5-.62-.28,0-.54.13-.73.26l-.16-.28c.22-.15.56-.32.96-.32.59,0,.84.39.84,1v1.49h-.34l-.03-.29h-.01c-.23.19-.5.35-.8.35-.41,0-.71-.25-.71-.69ZM97.44,43.66v-.68c-.82.1-1.09.3-1.09.61,0,.28.19.39.43.39s.43-.11.66-.32Z"/>
      <path class="cls-1" d="M98.62,41.82h.34l.03.35h.01c.23-.23.48-.41.82-.41.51,0,.74.33.74.95v1.54h-.41v-1.49c0-.45-.14-.65-.46-.65-.25,0-.42.13-.67.37v1.76h-.41v-2.43Z"/>
      <path class="cls-1" d="M101.18,43.04c0-.79.5-1.28,1.05-1.28.28,0,.47.11.68.28l-.02-.42v-.94h.41v3.57h-.34l-.03-.29h-.01c-.19.19-.45.35-.74.35-.61,0-1-.46-1-1.27ZM102.9,43.63v-1.28c-.21-.18-.39-.25-.59-.25-.39,0-.7.38-.7.93,0,.58.24.93.67.93.23,0,.42-.11.62-.33Z"/>
      <path class="cls-1" d="M105.13,41.82h.34l.03.44h.01c.17-.31.42-.5.69-.5.11,0,.18.01.26.05l-.08.36c-.08-.03-.14-.04-.24-.04-.21,0-.45.15-.62.56v1.56h-.41v-2.43Z"/>
      <path class="cls-1" d="M106.63,43.04c0-.79.53-1.28,1.09-1.28.62,0,.97.45.97,1.14,0,.09,0,.17-.02.23h-1.64c.03.51.34.85.81.85.23,0,.43-.08.61-.19l.15.27c-.21.14-.47.25-.8.25-.65,0-1.16-.47-1.16-1.27ZM108.33,42.84c0-.49-.22-.75-.6-.75-.34,0-.65.27-.7.75h1.3Z"/>
      <path class="cls-1" d="M109.07,43.62c0-.53.46-.79,1.49-.91,0-.31-.1-.62-.5-.62-.28,0-.54.13-.73.26l-.16-.28c.22-.15.56-.32.96-.32.59,0,.84.39.84,1v1.49h-.34l-.03-.29h-.01c-.23.19-.5.35-.8.35-.41,0-.71-.25-.71-.69ZM110.57,43.66v-.68c-.82.1-1.09.3-1.09.61,0,.28.19.39.43.39s.43-.11.66-.32Z"/>
      <path class="cls-1" d="M111.74,43.76v-3.08h.41v3.11c0,.13.05.18.11.18.02,0,.04,0,.09-.01l.06.31c-.06.02-.13.04-.24.04-.31,0-.44-.2-.44-.55Z"/>
      <path class="cls-1" d="M112.94,41.05c0-.16.12-.27.28-.27s.28.1.28.27-.12.27-.28.27-.28-.11-.28-.27ZM113.02,41.82h.41v2.43h-.41v-2.43Z"/>
      <path class="cls-1" d="M113.99,44.03l1.28-1.88h-1.14v-.33h1.66v.22l-1.28,1.88h1.32v.33h-1.84v-.22Z"/>
      <path class="cls-1" d="M116.14,43.04c0-.79.53-1.28,1.09-1.28.62,0,.97.45.97,1.14,0,.09,0,.17-.02.23h-1.64c.03.51.34.85.81.85.23,0,.43-.08.61-.19l.15.27c-.21.14-.47.25-.8.25-.65,0-1.16-.47-1.16-1.27ZM117.84,42.84c0-.49-.22-.75-.6-.75-.34,0-.65.27-.7.75h1.3Z"/>
      <path class="cls-1" d="M118.63,43.04c0-.79.5-1.28,1.05-1.28.28,0,.47.11.68.28l-.02-.42v-.94h.41v3.57h-.34l-.03-.29h-.01c-.19.19-.45.35-.74.35-.61,0-1-.46-1-1.27ZM120.35,43.63v-1.28c-.21-.18-.39-.25-.59-.25-.39,0-.7.38-.7.93,0,.58.24.93.67.93.23,0,.42-.11.62-.33Z"/>
      <path class="cls-1" d="M122.5,41.05c0-.16.12-.27.28-.27s.28.1.28.27-.12.27-.28.27-.28-.11-.28-.27ZM122.58,41.82h.41v2.43h-.41v-2.43Z"/>
      <path class="cls-1" d="M123.81,41.82h.34l.03.35h.01c.23-.23.48-.41.82-.41.51,0,.74.33.74.95v1.54h-.41v-1.49c0-.45-.14-.65-.46-.65-.25,0-.42.13-.67.37v1.76h-.41v-2.43Z"/>
      <path class="cls-1" d="M75.6,49.04c0-.81.53-1.28,1.13-1.28s1.13.47,1.13,1.28-.53,1.27-1.13,1.27-1.13-.47-1.13-1.27ZM77.43,49.04c0-.56-.28-.94-.7-.94s-.7.38-.7.94.28.93.7.93.7-.37.7-.93Z"/>
      <path class="cls-1" d="M78.5,47.82h.34l.03.28h.01c.22-.18.49-.34.78-.34.63,0,.96.49.96,1.24,0,.83-.5,1.31-1.05,1.31-.22,0-.45-.1-.67-.28v.42s.01.82.01.82h-.41v-3.46ZM80.2,49c0-.54-.18-.9-.64-.9-.21,0-.41.11-.65.33v1.28c.22.18.43.25.59.25.4,0,.7-.36.7-.96Z"/>
      <path class="cls-1" d="M81.09,49.04c0-.79.53-1.28,1.09-1.28.62,0,.97.45.97,1.14,0,.09,0,.17-.02.23h-1.64c.03.51.34.85.81.85.23,0,.43-.08.61-.19l.15.27c-.21.14-.47.25-.8.25-.65,0-1.16-.47-1.16-1.27ZM82.79,48.84c0-.49-.22-.75-.6-.75-.34,0-.65.27-.7.75h1.3Z"/>
      <path class="cls-1" d="M83.75,47.82h.34l.03.44h.01c.17-.31.42-.5.69-.5.11,0,.18.01.26.05l-.08.36c-.08-.03-.14-.04-.24-.04-.21,0-.45.15-.62.56v1.56h-.41v-2.43Z"/>
      <path class="cls-1" d="M85.21,49.62c0-.53.46-.79,1.49-.91,0-.31-.1-.62-.5-.62-.28,0-.54.13-.73.26l-.16-.28c.22-.15.56-.32.96-.32.59,0,.84.39.84,1v1.49h-.34l-.03-.29h-.01c-.23.19-.5.35-.8.35-.41,0-.71-.25-.71-.69ZM86.71,49.66v-.68c-.82.1-1.09.3-1.09.61,0,.28.19.39.43.39s.43-.11.66-.32Z"/>
      <path class="cls-1" d="M87.89,49.5v-1.35h-.36v-.31l.38-.02.05-.68h.34v.68h.66v.33h-.66v1.35c0,.3.1.47.38.47.09,0,.2-.03.28-.07l.08.31c-.14.05-.3.09-.45.09-.52,0-.69-.33-.69-.81Z"/>
      <path class="cls-1" d="M89.43,47.05c0-.16.12-.27.28-.27s.28.1.28.27-.12.27-.28.27-.28-.11-.28-.27ZM89.5,47.82h.41v2.43h-.41v-2.43Z"/>
      <path class="cls-1" d="M90.55,49.04c0-.81.53-1.28,1.13-1.28s1.13.47,1.13,1.28-.53,1.27-1.13,1.27-1.13-.47-1.13-1.27ZM92.38,49.04c0-.56-.28-.94-.7-.94s-.7.38-.7.94.28.93.7.93.7-.37.7-.93Z"/>
      <path class="cls-1" d="M93.44,47.82h.34l.03.35h.01c.23-.23.48-.41.82-.41.51,0,.74.33.74.95v1.54h-.41v-1.49c0-.45-.14-.65-.46-.65-.25,0-.42.13-.67.37v1.76h-.41v-2.43Z"/>
      <path class="cls-1" d="M96.03,49.62c0-.53.46-.79,1.49-.91,0-.31-.1-.62-.5-.62-.28,0-.54.13-.73.26l-.16-.28c.22-.15.56-.32.96-.32.59,0,.84.39.84,1v1.49h-.34l-.03-.29h-.01c-.23.19-.5.35-.8.35-.41,0-.71-.25-.71-.69ZM97.52,49.66v-.68c-.82.1-1.09.3-1.09.61,0,.28.19.39.43.39s.43-.11.66-.32Z"/>
      <path class="cls-1" d="M98.7,49.76v-3.08h.41v3.11c0,.13.05.18.11.18.02,0,.04,0,.09-.01l.06.31c-.06.02-.13.04-.24.04-.31,0-.44-.2-.44-.55Z"/>
      <path class="cls-1" d="M100.7,49.97l.2-.27c.21.17.43.29.72.29.32,0,.48-.17.48-.38,0-.25-.29-.36-.56-.46-.34-.12-.73-.29-.73-.7,0-.39.31-.69.84-.69.3,0,.57.12.76.27l-.2.26c-.17-.12-.34-.22-.55-.22-.31,0-.45.16-.45.35,0,.23.26.32.54.42.35.13.74.28.74.74,0,.39-.31.72-.89.72-.35,0-.68-.15-.91-.34Z"/>
      <path class="cls-1" d="M102.83,51.25l.08-.33s.12.04.19.04c.27,0,.45-.22.55-.52l.06-.18-.98-2.44h.42l.5,1.35c.08.21.16.46.24.69h.02c.07-.22.14-.47.2-.69l.43-1.35h.4l-.92,2.63c-.17.48-.42.85-.91.85-.11,0-.21-.02-.29-.05Z"/>
      <path class="cls-1" d="M105.13,49.97l.2-.27c.21.17.43.29.72.29.32,0,.48-.17.48-.38,0-.25-.29-.36-.56-.46-.34-.12-.73-.29-.73-.7,0-.39.31-.69.84-.69.3,0,.57.12.76.27l-.2.26c-.17-.12-.34-.22-.55-.22-.31,0-.45.16-.45.35,0,.23.26.32.54.42.35.13.74.28.74.74,0,.39-.31.72-.89.72-.35,0-.68-.15-.91-.34Z"/>
      <path class="cls-1" d="M107.47,49.5v-1.35h-.36v-.31l.38-.02.05-.68h.34v.68h.66v.33h-.66v1.35c0,.3.1.47.38.47.09,0,.2-.03.28-.07l.08.31c-.14.05-.3.09-.45.09-.52,0-.69-.33-.69-.81Z"/>
      <path class="cls-1" d="M108.84,49.04c0-.79.53-1.28,1.09-1.28.62,0,.97.45.97,1.14,0,.09,0,.17-.02.23h-1.64c.03.51.34.85.81.85.23,0,.43-.08.61-.19l.15.27c-.21.14-.47.25-.8.25-.65,0-1.16-.47-1.16-1.27ZM110.54,48.84c0-.49-.22-.75-.6-.75-.34,0-.65.27-.7.75h1.3Z"/>
      <path class="cls-1" d="M111.5,47.82h.34l.03.35h.01c.21-.23.47-.41.76-.41.37,0,.57.18.67.46.25-.27.51-.46.8-.46.5,0,.74.33.74.95v1.54h-.41v-1.49c0-.45-.14-.65-.45-.65-.19,0-.38.12-.61.37v1.76h-.41v-1.49c0-.45-.14-.65-.45-.65-.18,0-.38.12-.61.37v1.76h-.41v-2.43Z"/>
      <path class="cls-1" d="M115.37,49.97l.2-.27c.21.17.43.29.72.29.32,0,.48-.17.48-.38,0-.25-.29-.36-.56-.46-.34-.12-.73-.29-.73-.7,0-.39.31-.69.84-.69.3,0,.57.12.76.27l-.2.26c-.17-.12-.34-.22-.55-.22-.31,0-.45.16-.45.35,0,.23.26.32.54.42.35.13.74.28.74.74,0,.39-.31.72-.89.72-.35,0-.68-.15-.91-.34Z"/>
    </g>
  </g>
  <g>
    <rect class="cls-7" x="150.79" y="26.59" width="72.91" height="33.14" rx="2.91" ry="2.91"/>
    <g>
      <path class="cls-1" d="M157.05,34.86h.47l1.11,3.29h-.44l-.57-1.83c-.12-.37-.22-.73-.33-1.11h-.02c-.1.38-.21.74-.33,1.11l-.58,1.83h-.43l1.11-3.29ZM156.52,36.81h1.51v.33h-1.51v-.33Z"/>
      <path class="cls-1" d="M159.05,35.71h.34l.03.28h.01c.22-.18.49-.34.78-.34.63,0,.96.49.96,1.24,0,.83-.5,1.31-1.05,1.31-.22,0-.45-.1-.67-.28v.42s.01.82.01.82h-.41v-3.46ZM160.76,36.9c0-.54-.18-.9-.64-.9-.21,0-.41.11-.65.33v1.28c.22.18.43.25.59.25.4,0,.7-.36.7-.96Z"/>
      <path class="cls-1" d="M161.83,35.71h.34l.03.28h.01c.22-.18.49-.34.78-.34.63,0,.96.49.96,1.24,0,.83-.5,1.31-1.05,1.31-.22,0-.45-.1-.67-.28v.42s.01.82.01.82h-.41v-3.46ZM163.53,36.9c0-.54-.18-.9-.64-.9-.21,0-.41.11-.65.33v1.28c.22.18.43.25.59.25.4,0,.7-.36.7-.96Z"/>
      <path class="cls-1" d="M164.58,37.66v-3.08h.41v3.11c0,.13.05.18.11.18.02,0,.04,0,.09-.01l.06.31c-.06.02-.13.04-.24.04-.31,0-.44-.2-.44-.55Z"/>
      <path class="cls-1" d="M165.78,34.95c0-.16.12-.27.28-.27s.28.1.28.27-.12.27-.28.27-.28-.11-.28-.27ZM165.86,35.71h.41v2.43h-.41v-2.43Z"/>
      <path class="cls-1" d="M166.91,36.93c0-.81.55-1.28,1.17-1.28.32,0,.54.13.71.29l-.21.27c-.14-.13-.29-.21-.48-.21-.44,0-.76.38-.76.94s.31.93.75.93c.22,0,.42-.11.57-.24l.18.28c-.22.19-.49.31-.79.31-.65,0-1.14-.47-1.14-1.27Z"/>
      <path class="cls-1" d="M169.17,37.51c0-.53.46-.79,1.49-.91,0-.31-.1-.62-.5-.62-.28,0-.54.13-.73.26l-.16-.28c.22-.15.56-.32.96-.32.59,0,.84.39.84,1v1.49h-.34l-.03-.29h-.01c-.23.19-.5.35-.8.35-.41,0-.71-.25-.71-.69ZM170.66,37.55v-.68c-.82.1-1.09.3-1.09.61,0,.28.19.39.43.39s.43-.11.66-.32Z"/>
      <path class="cls-1" d="M171.84,37.39v-1.35h-.36v-.31l.38-.02.05-.68h.34v.68h.66v.33h-.66v1.35c0,.3.1.47.38.47.09,0,.2-.03.28-.07l.08.31c-.14.05-.3.09-.45.09-.52,0-.69-.33-.69-.81Z"/>
      <path class="cls-1" d="M173.38,34.95c0-.16.12-.27.28-.27s.28.1.28.27-.12.27-.28.27-.28-.11-.28-.27ZM173.46,35.71h.41v2.43h-.41v-2.43Z"/>
      <path class="cls-1" d="M174.51,36.93c0-.81.53-1.28,1.13-1.28s1.13.47,1.13,1.28-.53,1.27-1.13,1.27-1.13-.47-1.13-1.27ZM176.33,36.93c0-.56-.28-.94-.7-.94s-.7.38-.7.94.28.93.7.93.7-.37.7-.93Z"/>
      <path class="cls-1" d="M177.4,35.71h.34l.03.35h.01c.23-.23.48-.41.82-.41.51,0,.74.33.74.95v1.54h-.41v-1.49c0-.45-.14-.65-.46-.65-.25,0-.42.13-.67.37v1.76h-.41v-2.43Z"/>
      <path class="cls-1" d="M179.86,37.87l.2-.27c.21.17.43.29.72.29.32,0,.48-.17.48-.38,0-.25-.29-.36-.56-.46-.34-.12-.73-.29-.73-.7,0-.39.31-.69.84-.69.3,0,.57.12.76.27l-.2.26c-.17-.12-.34-.22-.55-.22-.31,0-.45.16-.45.35,0,.23.26.32.54.42.35.13.74.28.74.74,0,.39-.31.72-.89.72-.35,0-.68-.15-.91-.34Z"/>
      <path class="cls-1" d="M183.19,37.25v-1.54h.41v1.49c0,.45.14.65.46.65.25,0,.42-.12.65-.41v-1.73h.41v2.43h-.34l-.04-.38h-.01c-.23.27-.47.44-.8.44-.51,0-.74-.33-.74-.95Z"/>
      <path class="cls-1" d="M185.68,37.87l.2-.27c.21.17.43.29.72.29.32,0,.48-.17.48-.38,0-.25-.29-.36-.56-.46-.34-.12-.73-.29-.73-.7,0-.39.31-.69.84-.69.3,0,.57.12.76.27l-.2.26c-.17-.12-.34-.22-.55-.22-.31,0-.45.16-.45.35,0,.23.26.32.54.42.35.13.74.28.74.74,0,.39-.31.72-.89.72-.35,0-.68-.15-.91-.34Z"/>
      <path class="cls-1" d="M187.96,34.95c0-.16.12-.27.28-.27s.28.1.28.27-.12.27-.28.27-.28-.11-.28-.27ZM188.04,35.71h.41v2.43h-.41v-2.43Z"/>
      <path class="cls-1" d="M189.27,35.71h.34l.03.35h.01c.23-.23.48-.41.82-.41.51,0,.74.33.74.95v1.54h-.41v-1.49c0-.45-.14-.65-.46-.65-.25,0-.42.13-.67.37v1.76h-.41v-2.43Z"/>
      <path class="cls-1" d="M191.82,38.61c0-.21.13-.41.36-.55v-.02c-.12-.08-.22-.21-.22-.4,0-.2.14-.36.27-.45v-.02c-.16-.13-.31-.36-.31-.65,0-.53.42-.87.91-.87.13,0,.26.03.34.06h.85v.32h-.5c.11.11.2.29.2.5,0,.52-.39.84-.89.84-.12,0-.25-.03-.36-.08-.09.07-.15.15-.15.29,0,.15.1.26.43.26h.47c.57,0,.85.18.85.58,0,.45-.48.84-1.23.84-.6,0-1.01-.23-1.01-.65ZM193.65,38.49c0-.22-.17-.3-.49-.3h-.42c-.09,0-.21,0-.32-.04-.17.12-.25.27-.25.41,0,.26.26.43.71.43.46,0,.77-.24.77-.5ZM193.34,36.52c0-.35-.23-.57-.52-.57s-.52.21-.52.57.24.58.52.58.52-.22.52-.58Z"/>
      <path class="cls-1" d="M195.26,37.87l.2-.27c.21.17.43.29.72.29.32,0,.48-.17.48-.38,0-.25-.29-.36-.56-.46-.34-.12-.73-.29-.73-.7,0-.39.31-.69.84-.69.3,0,.57.12.76.27l-.2.26c-.17-.12-.34-.22-.55-.22-.31,0-.45.16-.45.35,0,.23.26.32.54.42.35.13.74.28.74.74,0,.39-.31.72-.89.72-.35,0-.68-.15-.91-.34Z"/>
      <path class="cls-1" d="M197.38,39.14l.08-.33s.12.04.19.04c.27,0,.45-.22.55-.52l.06-.18-.98-2.44h.42l.5,1.35c.08.21.16.46.24.69h.02c.07-.22.14-.47.2-.69l.43-1.35h.4l-.92,2.63c-.17.48-.42.85-.91.85-.11,0-.21-.02-.29-.05Z"/>
      <path class="cls-1" d="M199.69,37.87l.2-.27c.21.17.43.29.72.29.32,0,.48-.17.48-.38,0-.25-.29-.36-.56-.46-.34-.12-.73-.29-.73-.7,0-.39.31-.69.84-.69.3,0,.57.12.76.27l-.2.26c-.17-.12-.34-.22-.55-.22-.31,0-.45.16-.45.35,0,.23.26.32.54.42.35.13.74.28.74.74,0,.39-.31.72-.89.72-.35,0-.68-.15-.91-.34Z"/>
      <path class="cls-1" d="M202.02,37.39v-1.35h-.36v-.31l.38-.02.05-.68h.34v.68h.66v.33h-.66v1.35c0,.3.1.47.38.47.09,0,.2-.03.28-.07l.08.31c-.14.05-.3.09-.45.09-.52,0-.69-.33-.69-.81Z"/>
      <path class="cls-1" d="M203.39,36.93c0-.79.53-1.28,1.09-1.28.62,0,.97.45.97,1.14,0,.09,0,.17-.02.23h-1.64c.03.51.34.85.81.85.23,0,.43-.08.61-.19l.15.27c-.21.14-.47.25-.8.25-.65,0-1.16-.47-1.16-1.27ZM205.09,36.73c0-.49-.22-.75-.6-.75-.34,0-.65.27-.7.75h1.3Z"/>
      <path class="cls-1" d="M206.05,35.71h.34l.03.35h.01c.21-.23.47-.41.76-.41.37,0,.57.18.67.46.25-.27.51-.46.8-.46.5,0,.74.33.74.95v1.54h-.41v-1.49c0-.45-.14-.65-.45-.65-.19,0-.38.12-.61.37v1.76h-.41v-1.49c0-.45-.14-.65-.45-.65-.18,0-.38.12-.61.37v1.76h-.41v-2.43Z"/>
      <path class="cls-1" d="M211.27,37.39v-1.35h-.36v-.31l.38-.02.05-.68h.34v.68h.66v.33h-.66v1.35c0,.3.1.47.38.47.09,0,.2-.03.28-.07l.08.31c-.14.05-.3.09-.45.09-.52,0-.69-.33-.69-.81Z"/>
      <path class="cls-1" d="M212.63,36.93c0-.79.53-1.28,1.09-1.28.62,0,.97.45.97,1.14,0,.09,0,.17-.02.23h-1.64c.03.51.34.85.81.85.23,0,.43-.08.61-.19l.15.27c-.21.14-.47.25-.8.25-.65,0-1.16-.47-1.16-1.27ZM214.33,36.73c0-.49-.22-.75-.6-.75-.34,0-.65.27-.7.75h1.3Z"/>
      <path class="cls-1" d="M215.02,37.87l.2-.27c.21.17.43.29.72.29.32,0,.48-.17.48-.38,0-.25-.29-.36-.56-.46-.34-.12-.73-.29-.73-.7,0-.39.31-.69.84-.69.3,0,.57.12.76.27l-.2.26c-.17-.12-.34-.22-.55-.22-.31,0-.45.16-.45.35,0,.23.26.32.54.42.35.13.74.28.74.74,0,.39-.31.72-.89.72-.35,0-.68-.15-.91-.34Z"/>
      <path class="cls-1" d="M217.36,37.39v-1.35h-.36v-.31l.38-.02.05-.68h.34v.68h.66v.33h-.66v1.35c0,.3.1.47.38.47.09,0,.2-.03.28-.07l.08.31c-.14.05-.3.09-.45.09-.52,0-.69-.33-.69-.81Z"/>
      <path class="cls-1" d="M156.13,43.39v-1.35h-.36v-.31l.38-.02.05-.68h.34v.68h.66v.33h-.66v1.35c0,.3.1.47.38.47.09,0,.2-.03.28-.07l.08.31c-.14.05-.3.09-.45.09-.52,0-.69-.33-.69-.81Z"/>
      <path class="cls-1" d="M157.75,40.58h.41v1.47c.21-.22.46-.4.79-.4.51,0,.74.33.74.95v1.54h-.41v-1.49c0-.45-.14-.65-.46-.65-.25,0-.42.13-.67.37v1.76h-.41v-3.57Z"/>
      <path class="cls-1" d="M160.29,42.93c0-.79.53-1.28,1.09-1.28.62,0,.97.45.97,1.14,0,.09,0,.17-.02.23h-1.64c.03.51.34.85.81.85.23,0,.43-.08.61-.19l.15.27c-.21.14-.47.25-.8.25-.65,0-1.16-.47-1.16-1.27ZM161.99,42.73c0-.49-.22-.75-.6-.75-.34,0-.65.27-.7.75h1.3Z"/>
      <path class="cls-1" d="M163.77,42.93c0-.81.55-1.28,1.17-1.28.32,0,.54.13.71.29l-.21.27c-.14-.13-.29-.21-.48-.21-.44,0-.76.38-.76.94s.31.93.75.93c.22,0,.42-.11.57-.24l.18.28c-.22.19-.49.31-.79.31-.65,0-1.14-.47-1.14-1.27Z"/>
      <path class="cls-1" d="M165.95,42.93c0-.81.53-1.28,1.13-1.28s1.13.47,1.13,1.28-.53,1.27-1.13,1.27-1.13-.47-1.13-1.27ZM167.78,42.93c0-.56-.28-.94-.7-.94s-.7.38-.7.94.28.93.7.93.7-.37.7-.93Z"/>
      <path class="cls-1" d="M168.84,41.71h.34l.03.35h.01c.23-.23.48-.41.82-.41.51,0,.74.33.74.95v1.54h-.41v-1.49c0-.45-.14-.65-.46-.65-.25,0-.42.13-.67.37v1.76h-.41v-2.43Z"/>
      <path class="cls-1" d="M171.39,42.93c0-.81.55-1.28,1.17-1.28.32,0,.54.13.71.29l-.21.27c-.14-.13-.29-.21-.48-.21-.44,0-.76.38-.76.94s.31.93.75.93c.22,0,.42-.11.57-.24l.18.28c-.22.19-.49.31-.79.31-.65,0-1.14-.47-1.14-1.27Z"/>
      <path class="cls-1" d="M173.57,42.93c0-.79.53-1.28,1.09-1.28.62,0,.97.45.97,1.14,0,.09,0,.17-.02.23h-1.64c.03.51.34.85.81.85.23,0,.43-.08.61-.19l.15.27c-.21.14-.47.25-.8.25-.65,0-1.16-.47-1.16-1.27ZM175.27,42.73c0-.49-.22-.75-.6-.75-.34,0-.65.27-.7.75h1.3Z"/>
      <path class="cls-1" d="M176.23,41.71h.34l.03.28h.01c.22-.18.49-.34.78-.34.63,0,.96.49.96,1.24,0,.83-.5,1.31-1.05,1.31-.22,0-.45-.1-.67-.28v.42s.01.82.01.82h-.41v-3.46ZM177.93,42.9c0-.54-.18-.9-.64-.9-.21,0-.41.11-.65.33v1.28c.22.18.43.25.59.25.4,0,.7-.36.7-.96Z"/>
      <path class="cls-1" d="M178.99,43.39v-1.35h-.36v-.31l.38-.02.05-.68h.34v.68h.66v.33h-.66v1.35c0,.3.1.47.38.47.09,0,.2-.03.28-.07l.08.31c-.14.05-.3.09-.45.09-.52,0-.69-.33-.69-.81Z"/>
      <path class="cls-1" d="M180.29,43.87l.2-.27c.21.17.43.29.72.29.32,0,.48-.17.48-.38,0-.25-.29-.36-.56-.46-.34-.12-.73-.29-.73-.7,0-.39.31-.69.84-.69.3,0,.57.12.76.27l-.2.26c-.17-.12-.34-.22-.55-.22-.31,0-.45.16-.45.35,0,.23.26.32.54.42.35.13.74.28.74.74,0,.39-.31.72-.89.72-.35,0-.68-.15-.91-.34Z"/>
      <path class="cls-1" d="M183.47,42.93c0-.81.53-1.28,1.13-1.28s1.13.47,1.13,1.28-.53,1.27-1.13,1.27-1.13-.47-1.13-1.27ZM185.3,42.93c0-.56-.28-.94-.7-.94s-.7.38-.7.94.28.93.7.93.7-.37.7-.93Z"/>
      <path class="cls-1" d="M186.09,41.74l.35-.02h.91v.33h-1.26v-.31ZM186.42,41.33c0-.49.22-.81.71-.81.15,0,.29.04.4.08l-.09.31c-.09-.04-.19-.06-.28-.06-.23,0-.34.16-.34.47v2.82h-.41v-2.82Z"/>
      <path class="cls-1" d="M188.54,43.87l.2-.27c.21.17.43.29.72.29.32,0,.48-.17.48-.38,0-.25-.29-.36-.56-.46-.34-.12-.73-.29-.73-.7,0-.39.31-.69.84-.69.3,0,.57.12.76.27l-.2.26c-.17-.12-.34-.22-.55-.22-.31,0-.45.16-.45.35,0,.23.26.32.54.42.35.13.74.28.74.74,0,.39-.31.72-.89.72-.35,0-.68-.15-.91-.34Z"/>
      <path class="cls-1" d="M190.91,41.71h.34l.03.28h.01c.22-.18.49-.34.78-.34.63,0,.96.49.96,1.24,0,.83-.5,1.31-1.05,1.31-.22,0-.45-.1-.67-.28v.42s.01.82.01.82h-.41v-3.46ZM192.61,42.9c0-.54-.18-.9-.64-.9-.21,0-.41.11-.65.33v1.28c.22.18.43.25.59.25.4,0,.7-.36.7-.96Z"/>
      <path class="cls-1" d="M193.46,43.51c0-.53.46-.79,1.49-.91,0-.31-.1-.62-.5-.62-.28,0-.54.13-.73.26l-.16-.28c.22-.15.56-.32.96-.32.59,0,.84.39.84,1v1.49h-.34l-.03-.29h-.01c-.23.19-.5.35-.8.35-.41,0-.71-.25-.71-.69ZM194.95,43.55v-.68c-.82.1-1.09.3-1.09.61,0,.28.19.39.43.39s.43-.11.66-.32Z"/>
      <path class="cls-1" d="M196.13,43.39v-1.35h-.36v-.31l.38-.02.05-.68h.34v.68h.66v.33h-.66v1.35c0,.3.1.47.38.47.09,0,.2-.03.28-.07l.08.31c-.14.05-.3.09-.45.09-.52,0-.69-.33-.69-.81Z"/>
      <path class="cls-1" d="M197.68,40.95c0-.16.12-.27.28-.27s.28.1.28.27-.12.27-.28.27-.28-.11-.28-.27ZM197.75,41.71h.41v2.43h-.41v-2.43Z"/>
      <path class="cls-1" d="M198.83,43.51c0-.53.46-.79,1.49-.91,0-.31-.1-.62-.5-.62-.28,0-.54.13-.73.26l-.16-.28c.22-.15.56-.32.96-.32.59,0,.84.39.84,1v1.49h-.34l-.03-.29h-.01c-.23.19-.5.35-.8.35-.41,0-.71-.25-.71-.69ZM200.32,43.55v-.68c-.82.1-1.09.3-1.09.61,0,.28.19.39.43.39s.43-.11.66-.32Z"/>
      <path class="cls-1" d="M201.5,43.66v-3.08h.41v3.11c0,.13.05.18.11.18.02,0,.04,0,.09-.01l.06.31c-.06.02-.13.04-.24.04-.31,0-.44-.2-.44-.55Z"/>
      <path class="cls-1" d="M203.51,43.87l.2-.27c.21.17.43.29.72.29.32,0,.48-.17.48-.38,0-.25-.29-.36-.56-.46-.34-.12-.73-.29-.73-.7,0-.39.31-.69.84-.69.3,0,.57.12.76.27l-.2.26c-.17-.12-.34-.22-.55-.22-.31,0-.45.16-.45.35,0,.23.26.32.54.42.35.13.74.28.74.74,0,.39-.31.72-.89.72-.35,0-.68-.15-.91-.34Z"/>
      <path class="cls-1" d="M205.69,42.93c0-.81.55-1.28,1.17-1.28.32,0,.54.13.71.29l-.21.27c-.14-.13-.29-.21-.48-.21-.44,0-.76.38-.76.94s.31.93.75.93c.22,0,.42-.11.57-.24l.18.28c-.22.19-.49.31-.79.31-.65,0-1.14-.47-1.14-1.27Z"/>
      <path class="cls-1" d="M208.07,40.95c0-.16.12-.27.28-.27s.28.1.28.27-.12.27-.28.27-.28-.11-.28-.27ZM208.15,41.71h.41v2.43h-.41v-2.43Z"/>
      <path class="cls-1" d="M209.2,42.93c0-.79.53-1.28,1.09-1.28.62,0,.97.45.97,1.14,0,.09,0,.17-.02.23h-1.64c.03.51.34.85.81.85.23,0,.43-.08.61-.19l.15.27c-.21.14-.47.25-.8.25-.65,0-1.16-.47-1.16-1.27ZM210.9,42.73c0-.49-.22-.75-.6-.75-.34,0-.65.27-.7.75h1.3Z"/>
      <path class="cls-1" d="M211.86,41.71h.34l.03.35h.01c.23-.23.48-.41.82-.41.51,0,.74.33.74.95v1.54h-.41v-1.49c0-.45-.14-.65-.46-.65-.25,0-.42.13-.67.37v1.76h-.41v-2.43Z"/>
      <path class="cls-1" d="M214.41,42.93c0-.81.55-1.28,1.17-1.28.32,0,.54.13.71.29l-.21.27c-.14-.13-.29-.21-.48-.21-.44,0-.76.38-.76.94s.31.93.75.93c.22,0,.42-.11.57-.24l.18.28c-.22.19-.49.31-.79.31-.65,0-1.14-.47-1.14-1.27Z"/>
      <path class="cls-1" d="M216.59,42.93c0-.79.53-1.28,1.09-1.28.62,0,.97.45.97,1.14,0,.09,0,.17-.02.23h-1.64c.03.51.34.85.81.85.23,0,.43-.08.61-.19l.15.27c-.21.14-.47.25-.8.25-.65,0-1.16-.47-1.16-1.27ZM218.29,42.73c0-.49-.22-.75-.6-.75-.34,0-.65.27-.7.75h1.3Z"/>
      <path class="cls-1" d="M161.88,48.93c0-.79.53-1.28,1.09-1.28.62,0,.97.45.97,1.14,0,.09,0,.17-.02.23h-1.64c.03.51.34.85.81.85.23,0,.43-.08.61-.19l.15.27c-.21.14-.47.25-.8.25-.65,0-1.16-.47-1.16-1.27ZM163.58,48.73c0-.49-.22-.75-.6-.75-.34,0-.65.27-.7.75h1.3Z"/>
      <path class="cls-1" d="M164.54,47.71h.34l.03.35h.01c.21-.23.47-.41.76-.41.37,0,.57.18.67.46.25-.27.51-.46.8-.46.5,0,.74.33.74.95v1.54h-.41v-1.49c0-.45-.14-.65-.45-.65-.19,0-.38.12-.61.37v1.76h-.41v-1.49c0-.45-.14-.65-.45-.65-.18,0-.38.12-.61.37v1.76h-.41v-2.43Z"/>
      <path class="cls-1" d="M169.06,49.89h-.01l-.04.25h-.33v-3.57h.41v1.41c.21-.19.48-.34.75-.34.63,0,.97.49.97,1.24,0,.83-.5,1.32-1.05,1.32-.23,0-.48-.12-.69-.31ZM170.39,48.9c0-.54-.18-.9-.64-.9-.21,0-.42.11-.65.33v1.28c.21.18.43.25.59.25.4,0,.7-.36.7-.96Z"/>
      <path class="cls-1" d="M171.27,48.93c0-.79.53-1.28,1.09-1.28.62,0,.97.45.97,1.14,0,.09,0,.17-.02.23h-1.64c.03.51.34.85.81.85.23,0,.43-.08.61-.19l.15.27c-.21.14-.47.25-.8.25-.65,0-1.16-.47-1.16-1.27ZM172.97,48.73c0-.49-.22-.75-.6-.75-.34,0-.65.27-.7.75h1.3Z"/>
      <path class="cls-1" d="M173.75,48.93c0-.79.5-1.28,1.05-1.28.28,0,.47.11.68.28l-.02-.42v-.94h.41v3.57h-.34l-.03-.29h-.01c-.19.19-.45.35-.74.35-.61,0-1-.46-1-1.27ZM175.47,49.53v-1.28c-.21-.18-.39-.25-.59-.25-.39,0-.7.38-.7.93,0,.58.24.93.67.93.23,0,.42-.11.62-.33Z"/>
      <path class="cls-1" d="M176.53,48.93c0-.79.5-1.28,1.05-1.28.28,0,.47.11.68.28l-.02-.42v-.94h.41v3.57h-.34l-.03-.29h-.01c-.19.19-.45.35-.74.35-.61,0-1-.46-1-1.27ZM178.25,49.53v-1.28c-.21-.18-.39-.25-.59-.25-.39,0-.7.38-.7.93,0,.58.24.93.67.93.23,0,.42-.11.62-.33Z"/>
      <path class="cls-1" d="M179.3,48.93c0-.79.53-1.28,1.09-1.28.62,0,.97.45.97,1.14,0,.09,0,.17-.02.23h-1.64c.03.51.34.85.81.85.23,0,.43-.08.61-.19l.15.27c-.21.14-.47.25-.8.25-.65,0-1.16-.47-1.16-1.27ZM181,48.73c0-.49-.22-.75-.6-.75-.34,0-.65.27-.7.75h1.3Z"/>
      <path class="cls-1" d="M181.78,48.93c0-.79.5-1.28,1.05-1.28.28,0,.47.11.68.28l-.02-.42v-.94h.41v3.57h-.34l-.03-.29h-.01c-.19.19-.45.35-.74.35-.61,0-1-.46-1-1.27ZM183.5,49.53v-1.28c-.21-.18-.39-.25-.59-.25-.39,0-.7.38-.7.93,0,.58.24.93.67.93.23,0,.42-.11.62-.33Z"/>
      <path class="cls-1" d="M185.66,46.95c0-.16.12-.27.28-.27s.28.1.28.27-.12.27-.28.27-.28-.11-.28-.27ZM185.73,47.71h.41v2.43h-.41v-2.43Z"/>
      <path class="cls-1" d="M186.96,47.71h.34l.03.35h.01c.23-.23.48-.41.82-.41.51,0,.74.33.74.95v1.54h-.41v-1.49c0-.45-.14-.65-.46-.65-.25,0-.42.13-.67.37v1.76h-.41v-2.43Z"/>
      <path class="cls-1" d="M190.77,49.39v-1.35h-.36v-.31l.38-.02.05-.68h.34v.68h.66v.33h-.66v1.35c0,.3.1.47.38.47.09,0,.2-.03.28-.07l.08.31c-.14.05-.3.09-.45.09-.52,0-.69-.33-.69-.81Z"/>
      <path class="cls-1" d="M192.39,46.58h.41v1.47c.21-.22.46-.4.79-.4.51,0,.74.33.74.95v1.54h-.41v-1.49c0-.45-.14-.65-.46-.65-.25,0-.42.13-.67.37v1.76h-.41v-3.57Z"/>
      <path class="cls-1" d="M194.93,48.93c0-.79.53-1.28,1.09-1.28.62,0,.97.45.97,1.14,0,.09,0,.17-.02.23h-1.64c.03.51.34.85.81.85.23,0,.43-.08.61-.19l.15.27c-.21.14-.47.25-.8.25-.65,0-1.16-.47-1.16-1.27ZM196.63,48.73c0-.49-.22-.75-.6-.75-.34,0-.65.27-.7.75h1.3Z"/>
      <path class="cls-1" d="M198.32,49.87l.2-.27c.21.17.43.29.72.29.32,0,.48-.17.48-.38,0-.25-.29-.36-.56-.46-.34-.12-.73-.29-.73-.7,0-.39.31-.69.84-.69.3,0,.57.12.76.27l-.2.26c-.17-.12-.34-.22-.55-.22-.31,0-.45.16-.45.35,0,.23.26.32.54.42.35.13.74.28.74.74,0,.39-.31.72-.89.72-.35,0-.68-.15-.91-.34Z"/>
      <path class="cls-1" d="M200.44,51.14l.08-.33s.12.04.19.04c.27,0,.45-.22.55-.52l.06-.18-.98-2.44h.42l.5,1.35c.08.21.16.46.24.69h.02c.07-.22.14-.47.2-.69l.43-1.35h.4l-.92,2.63c-.17.48-.42.85-.91.85-.11,0-.21-.02-.29-.05Z"/>
      <path class="cls-1" d="M202.75,49.87l.2-.27c.21.17.43.29.72.29.32,0,.48-.17.48-.38,0-.25-.29-.36-.56-.46-.34-.12-.73-.29-.73-.7,0-.39.31-.69.84-.69.3,0,.57.12.76.27l-.2.26c-.17-.12-.34-.22-.55-.22-.31,0-.45.16-.45.35,0,.23.26.32.54.42.35.13.74.28.74.74,0,.39-.31.72-.89.72-.35,0-.68-.15-.91-.34Z"/>
      <path class="cls-1" d="M205.08,49.39v-1.35h-.36v-.31l.38-.02.05-.68h.34v.68h.66v.33h-.66v1.35c0,.3.1.47.38.47.09,0,.2-.03.28-.07l.08.31c-.14.05-.3.09-.45.09-.52,0-.69-.33-.69-.81Z"/>
      <path class="cls-1" d="M206.45,48.93c0-.79.53-1.28,1.09-1.28.62,0,.97.45.97,1.14,0,.09,0,.17-.02.23h-1.64c.03.51.34.85.81.85.23,0,.43-.08.61-.19l.15.27c-.21.14-.47.25-.8.25-.65,0-1.16-.47-1.16-1.27ZM208.15,48.73c0-.49-.22-.75-.6-.75-.34,0-.65.27-.7.75h1.3Z"/>
      <path class="cls-1" d="M209.11,47.71h.34l.03.35h.01c.21-.23.47-.41.76-.41.37,0,.57.18.67.46.25-.27.51-.46.8-.46.5,0,.74.33.74.95v1.54h-.41v-1.49c0-.45-.14-.65-.45-.65-.19,0-.38.12-.61.37v1.76h-.41v-1.49c0-.45-.14-.65-.45-.65-.18,0-.38.12-.61.37v1.76h-.41v-2.43Z"/>
    </g>
  </g>
  <g>
    <path class="cls-1" d="M119.23,101.61c0-1.06.62-1.71,1.46-1.71.4,0,.71.19.9.41l-.23.27c-.17-.18-.39-.31-.67-.31-.62,0-1.03.51-1.03,1.33s.39,1.34,1.02,1.34c.31,0,.55-.14.76-.37l.23.26c-.26.3-.58.47-1.01.47-.82,0-1.43-.63-1.43-1.7Z"/>
    <path class="cls-1" d="M122.24,100.82h.34l.03.44h.01c.17-.31.42-.5.69-.5.11,0,.18.01.26.05l-.08.36c-.08-.03-.14-.04-.24-.04-.21,0-.45.15-.62.56v1.56h-.41v-2.43Z"/>
    <path class="cls-1" d="M123.9,100.05c0-.16.12-.27.28-.27s.28.1.28.27-.12.27-.28.27-.28-.11-.28-.27ZM123.97,100.82h.41v2.43h-.41v-2.43Z"/>
    <path class="cls-1" d="M125.27,102.5v-1.35h-.36v-.31l.38-.02.05-.68h.34v.68h.66v.33h-.66v1.35c0,.3.1.47.38.47.09,0,.2-.03.28-.07l.08.31c-.14.05-.3.09-.45.09-.52,0-.69-.33-.69-.81Z"/>
    <path class="cls-1" d="M126.82,100.05c0-.16.12-.27.28-.27s.28.1.28.27-.12.27-.28.27-.28-.11-.28-.27ZM126.89,100.82h.41v2.43h-.41v-2.43Z"/>
    <path class="cls-1" d="M127.94,102.04c0-.81.55-1.28,1.17-1.28.32,0,.54.13.71.29l-.21.27c-.14-.13-.29-.21-.48-.21-.44,0-.76.38-.76.94s.31.93.75.93c.22,0,.42-.11.57-.24l.18.28c-.22.19-.49.31-.79.31-.65,0-1.14-.47-1.14-1.27Z"/>
    <path class="cls-1" d="M130.2,102.62c0-.53.46-.79,1.49-.91,0-.31-.1-.62-.5-.62-.28,0-.54.13-.73.26l-.16-.28c.22-.15.56-.32.96-.32.59,0,.84.39.84,1v1.49h-.34l-.03-.29h-.01c-.23.19-.5.35-.8.35-.41,0-.71-.25-.71-.69ZM131.7,102.65v-.68c-.82.1-1.09.3-1.09.61,0,.28.19.39.43.39s.43-.11.66-.32Z"/>
    <path class="cls-1" d="M132.87,102.76v-3.08h.41v3.11c0,.13.05.18.11.18.02,0,.04,0,.09-.01l.06.31c-.06.02-.13.04-.24.04-.31,0-.44-.2-.44-.55Z"/>
    <path class="cls-1" d="M134.97,102.04c0-.79.53-1.28,1.09-1.28.62,0,.97.45.97,1.14,0,.09,0,.17-.02.23h-1.64c.03.51.34.85.81.85.23,0,.43-.08.61-.19l.15.27c-.21.14-.47.25-.8.25-.65,0-1.16-.47-1.16-1.27ZM136.67,101.84c0-.49-.22-.75-.6-.75-.34,0-.65.27-.7.75h1.3Z"/>
    <path class="cls-1" d="M137.3,100.82h.42l.46,1.38c.07.24.15.49.22.72h.02c.07-.23.15-.48.22-.72l.46-1.38h.4l-.86,2.43h-.48l-.88-2.43Z"/>
    <path class="cls-1" d="M139.74,102.62c0-.53.46-.79,1.49-.91,0-.31-.1-.62-.5-.62-.28,0-.54.13-.73.26l-.16-.28c.22-.15.56-.32.96-.32.59,0,.84.39.84,1v1.49h-.34l-.03-.29h-.01c-.23.19-.5.35-.8.35-.41,0-.71-.25-.71-.69ZM141.23,102.65v-.68c-.82.1-1.09.3-1.09.61,0,.28.19.39.43.39s.43-.11.66-.32Z"/>
    <path class="cls-1" d="M142.41,102.76v-3.08h.41v3.11c0,.13.05.18.11.18.02,0,.04,0,.09-.01l.06.31c-.06.02-.13.04-.24.04-.31,0-.44-.2-.44-.55Z"/>
    <path class="cls-1" d="M143.65,102.36v-1.54h.41v1.49c0,.45.14.65.46.65.25,0,.42-.12.65-.41v-1.73h.41v2.43h-.34l-.04-.38h-.01c-.23.27-.47.44-.8.44-.51,0-.74-.33-.74-.95Z"/>
    <path class="cls-1" d="M146.25,102.62c0-.53.46-.79,1.49-.91,0-.31-.1-.62-.5-.62-.28,0-.54.13-.73.26l-.16-.28c.22-.15.56-.32.96-.32.59,0,.84.39.84,1v1.49h-.34l-.03-.29h-.01c-.23.19-.5.35-.8.35-.41,0-.71-.25-.71-.69ZM147.75,102.65v-.68c-.82.1-1.09.3-1.09.61,0,.28.19.39.43.39s.43-.11.66-.32Z"/>
    <path class="cls-1" d="M148.92,102.5v-1.35h-.36v-.31l.38-.02.05-.68h.34v.68h.66v.33h-.66v1.35c0,.3.1.47.38.47.09,0,.2-.03.28-.07l.08.31c-.14.05-.3.09-.45.09-.52,0-.69-.33-.69-.81Z"/>
    <path class="cls-1" d="M150.47,100.05c0-.16.12-.27.28-.27s.28.1.28.27-.12.27-.28.27-.28-.11-.28-.27ZM150.54,100.82h.41v2.43h-.41v-2.43Z"/>
    <path class="cls-1" d="M151.59,102.04c0-.81.53-1.28,1.13-1.28s1.13.47,1.13,1.28-.53,1.27-1.13,1.27-1.13-.47-1.13-1.27ZM153.42,102.04c0-.56-.28-.94-.7-.94s-.7.38-.7.94.28.93.7.93.7-.37.7-.93Z"/>
    <path class="cls-1" d="M154.48,100.82h.34l.03.35h.01c.23-.23.48-.41.82-.41.51,0,.74.33.74.95v1.54h-.41v-1.49c0-.45-.14-.65-.46-.65-.25,0-.42.13-.67.37v1.76h-.41v-2.43Z"/>
    <path class="cls-1" d="M158.6,103h-.01l-.04.25h-.33v-3.57h.41v1.41c.21-.19.48-.34.75-.34.63,0,.97.49.97,1.24,0,.83-.5,1.32-1.05,1.32-.23,0-.48-.12-.69-.31ZM159.92,102c0-.54-.18-.9-.64-.9-.21,0-.42.11-.65.33v1.28c.21.18.43.25.59.25.4,0,.7-.36.7-.96Z"/>
    <path class="cls-1" d="M160.72,104.25l.08-.33s.12.04.19.04c.27,0,.45-.22.55-.52l.06-.18-.98-2.44h.42l.5,1.35c.08.21.16.46.24.69h.02c.07-.22.14-.47.2-.69l.43-1.35h.4l-.92,2.63c-.17.48-.42.85-.91.85-.11,0-.21-.02-.29-.05Z"/>
    <path class="cls-1" d="M116.54,108.04c0-.81.55-1.28,1.17-1.28.32,0,.54.13.71.29l-.21.27c-.14-.13-.29-.21-.48-.21-.44,0-.76.38-.76.94s.31.93.75.93c.22,0,.42-.11.57-.24l.18.28c-.22.19-.49.31-.79.31-.65,0-1.14-.47-1.14-1.27Z"/>
    <path class="cls-1" d="M119,106.82h.34l.03.44h.01c.17-.31.42-.5.69-.5.11,0,.18.01.26.05l-.08.36c-.08-.03-.14-.04-.24-.04-.21,0-.45.15-.62.56v1.56h-.41v-2.43Z"/>
    <path class="cls-1" d="M120.66,106.05c0-.16.12-.27.28-.27s.28.1.28.27-.12.27-.28.27-.28-.11-.28-.27ZM120.74,106.82h.41v2.43h-.41v-2.43Z"/>
    <path class="cls-1" d="M122.04,108.5v-1.35h-.36v-.31l.38-.02.05-.68h.34v.68h.66v.33h-.66v1.35c0,.3.1.47.38.47.09,0,.2-.03.28-.07l.08.31c-.14.05-.3.09-.45.09-.52,0-.69-.33-.69-.81Z"/>
    <path class="cls-1" d="M123.58,106.05c0-.16.12-.27.28-.27s.28.1.28.27-.12.27-.28.27-.28-.11-.28-.27ZM123.66,106.82h.41v2.43h-.41v-2.43Z"/>
    <path class="cls-1" d="M126.43,109.41l.02-.44c-.19.19-.45.34-.73.34-.61,0-1-.46-1-1.27s.5-1.28,1.05-1.28c.28,0,.48.1.7.29h.01l.04-.23h.33v3.46h-.41v-.86ZM126.43,108.63v-1.28c-.21-.18-.39-.25-.59-.25-.39,0-.7.38-.7.93,0,.58.24.93.67.93.23,0,.42-.11.62-.33Z"/>
    <path class="cls-1" d="M127.63,108.36v-1.54h.41v1.49c0,.45.14.65.46.65.25,0,.42-.12.65-.41v-1.73h.41v2.43h-.34l-.04-.38h-.01c-.23.27-.47.44-.8.44-.51,0-.74-.33-.74-.95Z"/>
    <path class="cls-1" d="M130.2,108.04c0-.79.53-1.28,1.09-1.28.62,0,.97.45.97,1.14,0,.09,0,.17-.02.23h-1.64c.03.51.34.85.81.85.23,0,.43-.08.61-.19l.15.27c-.21.14-.47.25-.8.25-.65,0-1.16-.47-1.16-1.27ZM131.9,107.84c0-.49-.22-.75-.6-.75-.34,0-.65.27-.7.75h1.3Z"/>
    <path class="cls-1" d="M133.78,106.05c0-.16.12-.27.28-.27s.28.1.28.27-.12.27-.28.27-.28-.11-.28-.27ZM133.86,106.82h.41v2.43h-.41v-2.43Z"/>
    <path class="cls-1" d="M135.09,106.82h.34l.03.35h.01c.23-.23.48-.41.82-.41.51,0,.74.33.74.95v1.54h-.41v-1.49c0-.45-.14-.65-.46-.65-.25,0-.42.13-.67.37v1.76h-.41v-2.43Z"/>
    <path class="cls-1" d="M138.9,108.5v-1.35h-.36v-.31l.38-.02.05-.68h.34v.68h.66v.33h-.66v1.35c0,.3.1.47.38.47.09,0,.2-.03.28-.07l.08.31c-.14.05-.3.09-.45.09-.52,0-.69-.33-.69-.81Z"/>
    <path class="cls-1" d="M140.51,105.68h.41v1.47c.21-.22.46-.4.79-.4.51,0,.74.33.74.95v1.54h-.41v-1.49c0-.45-.14-.65-.46-.65-.25,0-.42.13-.67.37v1.76h-.41v-3.57Z"/>
    <path class="cls-1" d="M143.05,108.04c0-.79.53-1.28,1.09-1.28.62,0,.97.45.97,1.14,0,.09,0,.17-.02.23h-1.64c.03.51.34.85.81.85.23,0,.43-.08.61-.19l.15.27c-.21.14-.47.25-.8.25-.65,0-1.16-.47-1.16-1.27ZM144.75,107.84c0-.49-.22-.75-.6-.75-.34,0-.65.27-.7.75h1.3Z"/>
    <path class="cls-1" d="M146.71,108.76v-3.08h.41v3.11c0,.13.05.18.11.18.02,0,.04,0,.09-.01l.06.31c-.06.02-.13.04-.24.04-.31,0-.44-.2-.44-.55Z"/>
    <path class="cls-1" d="M147.91,106.05c0-.16.12-.27.28-.27s.28.1.28.27-.12.27-.28.27-.28-.11-.28-.27ZM147.99,106.82h.41v2.43h-.41v-2.43Z"/>
    <path class="cls-1" d="M149.29,108.5v-1.35h-.36v-.31l.38-.02.05-.68h.34v.68h.66v.33h-.66v1.35c0,.3.1.47.38.47.09,0,.2-.03.28-.07l.08.31c-.14.05-.3.09-.45.09-.52,0-.69-.33-.69-.81Z"/>
    <path class="cls-1" d="M150.66,108.04c0-.79.53-1.28,1.09-1.28.62,0,.97.45.97,1.14,0,.09,0,.17-.02.23h-1.64c.03.51.34.85.81.85.23,0,.43-.08.61-.19l.15.27c-.21.14-.47.25-.8.25-.65,0-1.16-.47-1.16-1.27ZM152.36,107.84c0-.49-.22-.75-.6-.75-.34,0-.65.27-.7.75h1.3Z"/>
    <path class="cls-1" d="M153.32,106.82h.34l.03.44h.01c.17-.31.42-.5.69-.5.11,0,.18.01.26.05l-.08.36c-.08-.03-.14-.04-.24-.04-.21,0-.45.15-.62.56v1.56h-.41v-2.43Z"/>
    <path class="cls-1" d="M154.78,108.62c0-.53.46-.79,1.49-.91,0-.31-.1-.62-.5-.62-.28,0-.54.13-.73.26l-.16-.28c.22-.15.56-.32.96-.32.59,0,.84.39.84,1v1.49h-.34l-.03-.29h-.01c-.23.19-.5.35-.8.35-.41,0-.71-.25-.71-.69ZM156.28,108.65v-.68c-.82.1-1.09.3-1.09.61,0,.28.19.39.43.39s.43-.11.66-.32Z"/>
    <path class="cls-1" d="M157.46,108.5v-1.35h-.36v-.31l.38-.02.05-.68h.34v.68h.66v.33h-.66v1.35c0,.3.1.47.38.47.09,0,.2-.03.28-.07l.08.31c-.14.05-.3.09-.45.09-.52,0-.69-.33-.69-.81Z"/>
    <path class="cls-1" d="M159.04,108.36v-1.54h.41v1.49c0,.45.14.65.46.65.25,0,.42-.12.65-.41v-1.73h.41v2.43h-.34l-.04-.38h-.01c-.23.27-.47.44-.8.44-.51,0-.74-.33-.74-.95Z"/>
    <path class="cls-1" d="M161.79,106.82h.34l.03.44h.01c.17-.31.42-.5.69-.5.11,0,.18.01.26.05l-.08.36c-.08-.03-.14-.04-.24-.04-.21,0-.45.15-.62.56v1.56h-.41v-2.43Z"/>
    <path class="cls-1" d="M163.3,108.04c0-.79.53-1.28,1.09-1.28.62,0,.97.45.97,1.14,0,.09,0,.17-.02.23h-1.64c.03.51.34.85.81.85.23,0,.43-.08.61-.19l.15.27c-.21.14-.47.25-.8.25-.65,0-1.16-.47-1.16-1.27ZM165,107.84c0-.49-.22-.75-.6-.75-.34,0-.65.27-.7.75h1.3Z"/>
  </g>
  <g>
    <rect class="cls-6" x="60.32" y="126.37" width="69.07" height="33.15" rx="2.91" ry="2.91"/>
    <g>
      <path class="cls-1" d="M71.91,134.97h.43l1.19,2.07.35.68h.02c-.02-.33-.05-.7-.05-1.04v-1.7h.4v3.29h-.43l-1.19-2.07-.35-.68h-.02c.02.33.05.68.05,1.03v1.72h-.4v-3.29Z"/>
      <path class="cls-1" d="M74.93,137.04c0-.79.53-1.28,1.09-1.28.62,0,.97.45.97,1.14,0,.09,0,.17-.02.23h-1.64c.03.51.34.85.81.85.23,0,.43-.08.61-.19l.15.27c-.21.14-.47.25-.8.25-.65,0-1.16-.47-1.16-1.27ZM76.63,136.84c0-.49-.22-.75-.6-.75-.34,0-.65.27-.7.75h1.3Z"/>
      <path class="cls-1" d="M77.32,135.82h.42l.36,1.41c.05.23.1.45.14.68h.02c.05-.23.11-.45.17-.68l.38-1.41h.4l.38,1.41c.06.23.11.45.17.68h.02c.05-.23.1-.45.15-.68l.35-1.41h.39l-.65,2.43h-.5l-.35-1.31c-.06-.23-.11-.45-.16-.7h-.02c-.05.25-.1.48-.17.71l-.34,1.3h-.48l-.68-2.43Z"/>
      <path class="cls-1" d="M82.02,137.04c0-.81.55-1.28,1.17-1.28.32,0,.54.13.71.29l-.21.27c-.14-.13-.29-.21-.48-.21-.44,0-.76.38-.76.94s.31.93.75.93c.22,0,.42-.11.57-.24l.18.28c-.22.19-.49.31-.79.31-.65,0-1.14-.47-1.14-1.27Z"/>
      <path class="cls-1" d="M84.2,137.04c0-.81.53-1.28,1.13-1.28s1.13.47,1.13,1.28-.53,1.27-1.13,1.27-1.13-.47-1.13-1.27ZM86.03,137.04c0-.56-.28-.94-.7-.94s-.7.38-.7.94.28.93.7.93.7-.37.7-.93Z"/>
      <path class="cls-1" d="M87.09,135.82h.34l.03.35h.01c.23-.23.48-.41.82-.41.51,0,.74.33.74.95v1.54h-.41v-1.49c0-.45-.14-.65-.46-.65-.25,0-.42.13-.67.37v1.76h-.41v-2.43Z"/>
      <path class="cls-1" d="M89.64,137.04c0-.81.55-1.28,1.17-1.28.32,0,.54.13.71.29l-.21.27c-.14-.13-.29-.21-.48-.21-.44,0-.76.38-.76.94s.31.93.75.93c.22,0,.42-.11.57-.24l.18.28c-.22.19-.49.31-.79.31-.65,0-1.14-.47-1.14-1.27Z"/>
      <path class="cls-1" d="M91.82,137.04c0-.79.53-1.28,1.09-1.28.62,0,.97.45.97,1.14,0,.09,0,.17-.02.23h-1.64c.03.51.34.85.81.85.23,0,.43-.08.61-.19l.15.27c-.21.14-.47.25-.8.25-.65,0-1.16-.47-1.16-1.27ZM93.52,136.84c0-.49-.22-.75-.6-.75-.34,0-.65.27-.7.75h1.3Z"/>
      <path class="cls-1" d="M94.48,135.82h.34l.03.28h.01c.22-.18.49-.34.78-.34.63,0,.96.49.96,1.24,0,.83-.5,1.31-1.05,1.31-.22,0-.45-.1-.67-.28v.42s.01.82.01.82h-.41v-3.46ZM96.18,137.01c0-.54-.18-.9-.64-.9-.21,0-.41.11-.65.33v1.28c.22.18.43.25.59.25.4,0,.7-.36.7-.96Z"/>
      <path class="cls-1" d="M97.24,137.5v-1.35h-.36v-.31l.38-.02.05-.68h.34v.68h.66v.33h-.66v1.35c0,.3.1.47.38.47.09,0,.2-.03.28-.07l.08.31c-.14.05-.3.09-.45.09-.52,0-.69-.33-.69-.81Z"/>
      <path class="cls-1" d="M98.54,137.98l.2-.27c.21.17.43.29.72.29.32,0,.48-.17.48-.38,0-.25-.29-.36-.56-.46-.34-.12-.73-.29-.73-.7,0-.39.31-.69.84-.69.3,0,.57.12.76.27l-.2.26c-.17-.12-.34-.22-.55-.22-.31,0-.45.16-.45.35,0,.23.26.32.54.42.35.13.74.28.74.74,0,.39-.31.72-.89.72-.35,0-.68-.15-.91-.34Z"/>
      <path class="cls-1" d="M102.29,138.01h-.01l-.04.25h-.33v-3.57h.41v1.41c.21-.19.48-.34.75-.34.63,0,.97.49.97,1.24,0,.83-.5,1.32-1.05,1.32-.23,0-.48-.12-.69-.31ZM103.61,137.01c0-.54-.18-.9-.64-.9-.21,0-.42.11-.65.33v1.28c.21.18.43.25.59.25.4,0,.7-.36.7-.96Z"/>
      <path class="cls-1" d="M104.49,137.04c0-.79.53-1.28,1.09-1.28.62,0,.97.45.97,1.14,0,.09,0,.17-.02.23h-1.64c.03.51.34.85.81.85.23,0,.43-.08.61-.19l.15.27c-.21.14-.47.25-.8.25-.65,0-1.16-.47-1.16-1.27ZM106.19,136.84c0-.49-.22-.75-.6-.75-.34,0-.65.27-.7.75h1.3Z"/>
      <path class="cls-1" d="M106.97,137.04c0-.81.55-1.28,1.17-1.28.32,0,.54.13.71.29l-.21.27c-.14-.13-.29-.21-.48-.21-.44,0-.76.38-.76.94s.31.93.75.93c.22,0,.42-.11.57-.24l.18.28c-.22.19-.49.31-.79.31-.65,0-1.14-.47-1.14-1.27Z"/>
      <path class="cls-1" d="M109.14,137.04c0-.81.53-1.28,1.13-1.28s1.13.47,1.13,1.28-.53,1.27-1.13,1.27-1.13-.47-1.13-1.27ZM110.97,137.04c0-.56-.28-.94-.7-.94s-.7.38-.7.94.28.93.7.93.7-.37.7-.93Z"/>
      <path class="cls-1" d="M112.03,135.82h.34l.03.35h.01c.21-.23.47-.41.76-.41.37,0,.57.18.67.46.25-.27.51-.46.8-.46.5,0,.74.33.74.95v1.54h-.41v-1.49c0-.45-.14-.65-.45-.65-.19,0-.38.12-.61.37v1.76h-.41v-1.49c0-.45-.14-.65-.45-.65-.18,0-.38.12-.61.37v1.76h-.41v-2.43Z"/>
      <path class="cls-1" d="M116,137.04c0-.79.53-1.28,1.09-1.28.62,0,.97.45.97,1.14,0,.09,0,.17-.02.23h-1.64c.03.51.34.85.81.85.23,0,.43-.08.61-.19l.15.27c-.21.14-.47.25-.8.25-.65,0-1.16-.47-1.16-1.27ZM117.7,136.84c0-.49-.22-.75-.6-.75-.34,0-.65.27-.7.75h1.3Z"/>
      <path class="cls-1" d="M72.92,143.04c0-.79.53-1.28,1.09-1.28.62,0,.97.45.97,1.14,0,.09,0,.17-.02.23h-1.64c.03.51.34.85.81.85.23,0,.43-.08.61-.19l.15.27c-.21.14-.47.25-.8.25-.65,0-1.16-.47-1.16-1.27ZM74.63,142.84c0-.49-.22-.75-.6-.75-.34,0-.65.27-.7.75h1.3Z"/>
      <path class="cls-1" d="M75.32,143.98l.2-.27c.21.17.43.29.72.29.32,0,.48-.17.48-.38,0-.25-.29-.36-.56-.46-.34-.12-.73-.29-.73-.7,0-.39.31-.69.84-.69.3,0,.57.12.76.27l-.2.26c-.17-.12-.34-.22-.55-.22-.31,0-.45.16-.45.35,0,.23.26.32.54.42.35.13.74.28.74.74,0,.39-.31.72-.89.72-.35,0-.68-.15-.91-.34Z"/>
      <path class="cls-1" d="M77.65,143.5v-1.35h-.36v-.31l.38-.02.05-.68h.34v.68h.66v.33h-.66v1.35c0,.3.1.47.38.47.09,0,.2-.03.28-.07l.08.31c-.14.05-.3.09-.45.09-.52,0-.69-.33-.69-.81Z"/>
      <path class="cls-1" d="M79.01,143.63c0-.53.46-.79,1.49-.91,0-.31-.1-.62-.5-.62-.28,0-.54.13-.73.26l-.16-.28c.22-.15.56-.32.96-.32.59,0,.84.39.84,1v1.49h-.34l-.03-.29h-.01c-.23.19-.5.35-.8.35-.41,0-.71-.25-.71-.69ZM80.51,143.66v-.68c-.82.1-1.09.3-1.09.61,0,.28.19.39.43.39s.43-.11.66-.32Z"/>
      <path class="cls-1" d="M82.07,144.01h-.01l-.04.25h-.33v-3.57h.41v1.41c.21-.19.48-.34.75-.34.63,0,.97.49.97,1.24,0,.83-.5,1.32-1.05,1.32-.23,0-.48-.12-.69-.31ZM83.39,143.01c0-.54-.18-.9-.64-.9-.21,0-.42.11-.65.33v1.28c.21.18.43.25.59.25.4,0,.7-.36.7-.96Z"/>
      <path class="cls-1" d="M84.43,143.77v-3.08h.41v3.11c0,.13.05.18.11.18.02,0,.04,0,.09-.01l.06.31c-.06.02-.13.04-.24.04-.31,0-.44-.2-.44-.55Z"/>
      <path class="cls-1" d="M85.63,141.06c0-.16.12-.27.28-.27s.28.1.28.27-.12.27-.28.27-.28-.11-.28-.27ZM85.71,141.82h.41v2.43h-.41v-2.43Z"/>
      <path class="cls-1" d="M86.67,143.98l.2-.27c.21.17.43.29.72.29.32,0,.48-.17.48-.38,0-.25-.29-.36-.56-.46-.34-.12-.73-.29-.73-.7,0-.39.31-.69.84-.69.3,0,.57.12.76.27l-.2.26c-.17-.12-.34-.22-.55-.22-.31,0-.45.16-.45.35,0,.23.26.32.54.42.35.13.74.28.74.74,0,.39-.31.72-.89.72-.35,0-.68-.15-.91-.34Z"/>
      <path class="cls-1" d="M89.03,140.69h.41v1.47c.21-.22.46-.4.79-.4.51,0,.74.33.74.95v1.54h-.41v-1.49c0-.45-.14-.65-.46-.65-.25,0-.42.13-.67.37v1.76h-.41v-3.57Z"/>
      <path class="cls-1" d="M91.57,143.04c0-.79.53-1.28,1.09-1.28.62,0,.97.45.97,1.14,0,.09,0,.17-.02.23h-1.64c.03.51.34.85.81.85.23,0,.43-.08.61-.19l.15.27c-.21.14-.47.25-.8.25-.65,0-1.16-.47-1.16-1.27ZM93.27,142.84c0-.49-.22-.75-.6-.75-.34,0-.65.27-.7.75h1.3Z"/>
      <path class="cls-1" d="M94.06,143.04c0-.79.5-1.28,1.05-1.28.28,0,.47.11.68.28l-.02-.42v-.94h.41v3.57h-.34l-.03-.29h-.01c-.19.19-.45.35-.74.35-.61,0-1-.46-1-1.27ZM95.77,143.64v-1.28c-.21-.18-.39-.25-.59-.25-.39,0-.7.38-.7.93,0,.58.24.93.67.93.23,0,.42-.11.62-.33Z"/>
      <path class="cls-1" d="M97.85,143.63c0-.53.46-.79,1.49-.91,0-.31-.1-.62-.5-.62-.28,0-.54.13-.73.26l-.16-.28c.22-.15.56-.32.96-.32.59,0,.84.39.84,1v1.49h-.34l-.03-.29h-.01c-.23.19-.5.35-.8.35-.41,0-.71-.25-.71-.69ZM99.35,143.66v-.68c-.82.1-1.09.3-1.09.61,0,.28.19.39.43.39s.43-.11.66-.32Z"/>
      <path class="cls-1" d="M100.25,143.98l.2-.27c.21.17.43.29.72.29.32,0,.48-.17.48-.38,0-.25-.29-.36-.56-.46-.34-.12-.73-.29-.73-.7,0-.39.31-.69.84-.69.3,0,.57.12.76.27l-.2.26c-.17-.12-.34-.22-.55-.22-.31,0-.45.16-.45.35,0,.23.26.32.54.42.35.13.74.28.74.74,0,.39-.31.72-.89.72-.35,0-.68-.15-.91-.34Z"/>
      <path class="cls-1" d="M103.62,141.82h.34l.03.28h.01c.22-.18.49-.34.78-.34.63,0,.96.49.96,1.24,0,.83-.5,1.31-1.05,1.31-.22,0-.45-.1-.67-.28v.42s.01.82.01.82h-.41v-3.46ZM105.32,143.01c0-.54-.18-.9-.64-.9-.21,0-.41.11-.65.33v1.28c.22.18.43.25.59.25.4,0,.7-.36.7-.96Z"/>
      <path class="cls-1" d="M106.17,143.63c0-.53.46-.79,1.49-.91,0-.31-.1-.62-.5-.62-.28,0-.54.13-.73.26l-.16-.28c.22-.15.56-.32.96-.32.59,0,.84.39.84,1v1.49h-.34l-.03-.29h-.01c-.23.19-.5.35-.8.35-.41,0-.71-.25-.71-.69ZM107.67,143.66v-.68c-.82.1-1.09.3-1.09.61,0,.28.19.39.43.39s.43-.11.66-.32Z"/>
      <path class="cls-1" d="M108.84,141.82h.34l.03.44h.01c.17-.31.42-.5.69-.5.11,0,.18.01.26.05l-.08.36c-.08-.03-.14-.04-.24-.04-.21,0-.45.15-.62.56v1.56h-.41v-2.43Z"/>
      <path class="cls-1" d="M110.65,143.5v-1.35h-.36v-.31l.38-.02.05-.68h.34v.68h.66v.33h-.66v1.35c0,.3.1.47.38.47.09,0,.2-.03.28-.07l.08.31c-.14.05-.3.09-.45.09-.52,0-.69-.33-.69-.81Z"/>
      <path class="cls-1" d="M113.09,143.04c0-.81.53-1.28,1.13-1.28s1.13.47,1.13,1.28-.53,1.27-1.13,1.27-1.13-.47-1.13-1.27ZM114.92,143.04c0-.56-.28-.94-.7-.94s-.7.38-.7.94.28.93.7.93.7-.37.7-.93Z"/>
      <path class="cls-1" d="M115.71,141.85l.35-.02h.91v.33h-1.26v-.31ZM116.04,141.44c0-.49.22-.81.71-.81.15,0,.29.04.4.08l-.09.31c-.09-.04-.19-.06-.28-.06-.23,0-.34.16-.34.47v2.82h-.41v-2.82Z"/>
      <path class="cls-1" d="M79.78,149.98l.2-.27c.21.17.43.29.72.29.32,0,.48-.17.48-.38,0-.25-.29-.36-.56-.46-.34-.12-.73-.29-.73-.7,0-.39.31-.69.84-.69.3,0,.57.12.76.27l-.2.26c-.17-.12-.34-.22-.55-.22-.31,0-.45.16-.45.35,0,.23.26.32.54.42.35.13.74.28.74.74,0,.39-.31.72-.89.72-.35,0-.68-.15-.91-.34Z"/>
      <path class="cls-1" d="M82.14,147.82h.34l.03.28h.01c.22-.18.49-.34.78-.34.63,0,.96.49.96,1.24,0,.83-.5,1.31-1.05,1.31-.22,0-.45-.1-.67-.28v.42s.01.82.01.82h-.41v-3.46ZM83.85,149.01c0-.54-.18-.9-.64-.9-.21,0-.41.11-.65.33v1.28c.22.18.43.25.59.25.4,0,.7-.36.7-.96Z"/>
      <path class="cls-1" d="M84.7,149.63c0-.53.46-.79,1.49-.91,0-.31-.1-.62-.5-.62-.28,0-.54.13-.73.26l-.16-.28c.22-.15.56-.32.96-.32.59,0,.84.39.84,1v1.49h-.34l-.03-.29h-.01c-.23.19-.5.35-.8.35-.41,0-.71-.25-.71-.69ZM86.19,149.66v-.68c-.82.1-1.09.3-1.09.61,0,.28.19.39.43.39s.43-.11.66-.32Z"/>
      <path class="cls-1" d="M87.37,149.5v-1.35h-.36v-.31l.38-.02.05-.68h.34v.68h.66v.33h-.66v1.35c0,.3.1.47.38.47.09,0,.2-.03.28-.07l.08.31c-.14.05-.3.09-.45.09-.52,0-.69-.33-.69-.81Z"/>
      <path class="cls-1" d="M88.91,147.06c0-.16.12-.27.28-.27s.28.1.28.27-.12.27-.28.27-.28-.11-.28-.27ZM88.99,147.82h.41v2.43h-.41v-2.43Z"/>
      <path class="cls-1" d="M90.07,149.63c0-.53.46-.79,1.49-.91,0-.31-.1-.62-.5-.62-.28,0-.54.13-.73.26l-.16-.28c.22-.15.56-.32.96-.32.59,0,.84.39.84,1v1.49h-.34l-.03-.29h-.01c-.23.19-.5.35-.8.35-.41,0-.71-.25-.71-.69ZM91.56,149.66v-.68c-.82.1-1.09.3-1.09.61,0,.28.19.39.43.39s.43-.11.66-.32Z"/>
      <path class="cls-1" d="M92.74,149.77v-3.08h.41v3.11c0,.13.05.18.11.18.02,0,.04,0,.09-.01l.06.31c-.06.02-.13.04-.24.04-.31,0-.44-.2-.44-.55Z"/>
      <path class="cls-1" d="M94.74,149.98l.2-.27c.21.17.43.29.72.29.32,0,.48-.17.48-.38,0-.25-.29-.36-.56-.46-.34-.12-.73-.29-.73-.7,0-.39.31-.69.84-.69.3,0,.57.12.76.27l-.2.26c-.17-.12-.34-.22-.55-.22-.31,0-.45.16-.45.35,0,.23.26.32.54.42.35.13.74.28.74.74,0,.39-.31.72-.89.72-.35,0-.68-.15-.91-.34Z"/>
      <path class="cls-1" d="M96.93,149.04c0-.81.55-1.28,1.17-1.28.32,0,.54.13.71.29l-.21.27c-.14-.13-.29-.21-.48-.21-.44,0-.76.38-.76.94s.31.93.75.93c.22,0,.42-.11.57-.24l.18.28c-.22.19-.49.31-.79.31-.65,0-1.14-.47-1.14-1.27Z"/>
      <path class="cls-1" d="M99.31,147.06c0-.16.12-.27.28-.27s.28.1.28.27-.12.27-.28.27-.28-.11-.28-.27ZM99.39,147.82h.41v2.43h-.41v-2.43Z"/>
      <path class="cls-1" d="M100.44,149.04c0-.79.53-1.28,1.09-1.28.62,0,.97.45.97,1.14,0,.09,0,.17-.02.23h-1.64c.03.51.34.85.81.85.23,0,.43-.08.61-.19l.15.27c-.21.14-.47.25-.8.25-.65,0-1.16-.47-1.16-1.27ZM102.14,148.84c0-.49-.22-.75-.6-.75-.34,0-.65.27-.7.75h1.3Z"/>
      <path class="cls-1" d="M103.1,147.82h.34l.03.35h.01c.23-.23.48-.41.82-.41.51,0,.74.33.74.95v1.54h-.41v-1.49c0-.45-.14-.65-.46-.65-.25,0-.42.13-.67.37v1.76h-.41v-2.43Z"/>
      <path class="cls-1" d="M105.65,149.04c0-.81.55-1.28,1.17-1.28.32,0,.54.13.71.29l-.21.27c-.14-.13-.29-.21-.48-.21-.44,0-.76.38-.76.94s.31.93.75.93c.22,0,.42-.11.57-.24l.18.28c-.22.19-.49.31-.79.31-.65,0-1.14-.47-1.14-1.27Z"/>
      <path class="cls-1" d="M107.83,149.04c0-.79.53-1.28,1.09-1.28.62,0,.97.45.97,1.14,0,.09,0,.17-.02.23h-1.64c.03.51.34.85.81.85.23,0,.43-.08.61-.19l.15.27c-.21.14-.47.25-.8.25-.65,0-1.16-.47-1.16-1.27ZM109.53,148.84c0-.49-.22-.75-.6-.75-.34,0-.65.27-.7.75h1.3Z"/>
    </g>
  </g>
  <g>
    <rect class="cls-6" x="150.83" y="126.21" width="71.27" height="33.15" rx="2.91" ry="2.91"/>
    <g>
      <path class="cls-1" d="M156.48,135.05h1.89v.35h-1.48v1.03h1.24v.35h-1.24v1.19h1.53v.35h-1.94v-3.29Z"/>
      <path class="cls-1" d="M159.38,137.07l-.74-1.16h.45l.33.53c.07.13.16.27.24.41h.02c.07-.13.15-.27.22-.41l.3-.53h.43l-.74,1.21.79,1.23h-.45l-.36-.57c-.08-.15-.17-.3-.26-.44h-.02c-.08.14-.16.29-.25.44l-.33.57h-.43l.8-1.27Z"/>
      <path class="cls-1" d="M161.15,135.9h.34l.03.28h.01c.22-.18.49-.34.78-.34.63,0,.96.49.96,1.24,0,.83-.5,1.31-1.05,1.31-.22,0-.45-.1-.67-.28v.42s.01.82.01.82h-.41v-3.46ZM162.86,137.09c0-.54-.18-.9-.64-.9-.21,0-.41.11-.65.33v1.28c.22.18.43.25.59.25.4,0,.7-.36.7-.96Z"/>
      <path class="cls-1" d="M163.75,137.12c0-.79.53-1.28,1.09-1.28.62,0,.97.45.97,1.14,0,.09,0,.17-.02.23h-1.64c.03.51.34.85.81.85.23,0,.43-.08.61-.19l.15.27c-.21.14-.47.25-.8.25-.65,0-1.16-.47-1.16-1.27ZM165.45,136.92c0-.49-.22-.75-.6-.75-.34,0-.65.27-.7.75h1.3Z"/>
      <path class="cls-1" d="M166.41,135.9h.34l.03.44h.01c.17-.31.42-.5.69-.5.11,0,.18.01.26.05l-.08.36c-.08-.03-.14-.04-.24-.04-.21,0-.45.15-.62.56v1.56h-.41v-2.43Z"/>
      <path class="cls-1" d="M168.07,135.14c0-.16.12-.27.28-.27s.28.1.28.27-.12.27-.28.27-.28-.11-.28-.27ZM168.14,135.9h.41v2.43h-.41v-2.43Z"/>
      <path class="cls-1" d="M169.37,135.9h.34l.03.35h.01c.21-.23.47-.41.76-.41.37,0,.57.18.67.46.25-.27.51-.46.8-.46.5,0,.74.33.74.95v1.54h-.41v-1.49c0-.45-.14-.65-.45-.65-.19,0-.38.12-.61.37v1.76h-.41v-1.49c0-.45-.14-.65-.45-.65-.18,0-.38.12-.61.37v1.76h-.41v-2.43Z"/>
      <path class="cls-1" d="M173.34,137.12c0-.79.53-1.28,1.09-1.28.62,0,.97.45.97,1.14,0,.09,0,.17-.02.23h-1.64c.03.51.34.85.81.85.23,0,.43-.08.61-.19l.15.27c-.21.14-.47.25-.8.25-.65,0-1.16-.47-1.16-1.27ZM175.04,136.92c0-.49-.22-.75-.6-.75-.34,0-.65.27-.7.75h1.3Z"/>
      <path class="cls-1" d="M176,135.9h.34l.03.35h.01c.23-.23.48-.41.82-.41.51,0,.74.33.74.95v1.54h-.41v-1.49c0-.45-.14-.65-.46-.65-.25,0-.42.13-.67.37v1.76h-.41v-2.43Z"/>
      <path class="cls-1" d="M178.8,137.58v-1.35h-.36v-.31l.38-.02.05-.68h.34v.68h.66v.33h-.66v1.35c0,.3.1.47.38.47.09,0,.2-.03.28-.07l.08.31c-.14.05-.3.09-.45.09-.52,0-.69-.33-.69-.81Z"/>
      <path class="cls-1" d="M180.17,137.7c0-.53.46-.79,1.49-.91,0-.31-.1-.62-.5-.62-.28,0-.54.13-.73.26l-.16-.28c.22-.15.56-.32.96-.32.59,0,.84.39.84,1v1.49h-.34l-.03-.29h-.01c-.23.19-.5.35-.8.35-.41,0-.71-.25-.71-.69ZM181.66,137.74v-.68c-.82.1-1.09.3-1.09.61,0,.28.19.39.43.39s.43-.11.66-.32Z"/>
      <path class="cls-1" d="M182.84,137.85v-3.08h.41v3.11c0,.13.05.18.11.18.02,0,.04,0,.09-.01l.06.31c-.06.02-.13.04-.24.04-.31,0-.44-.2-.44-.55Z"/>
      <path class="cls-1" d="M184.96,137.7c0-.53.46-.79,1.49-.91,0-.31-.1-.62-.5-.62-.28,0-.54.13-.73.26l-.16-.28c.22-.15.56-.32.96-.32.59,0,.84.39.84,1v1.49h-.34l-.03-.29h-.01c-.23.19-.5.35-.8.35-.41,0-.71-.25-.71-.69ZM186.46,137.74v-.68c-.82.1-1.09.3-1.09.61,0,.28.19.39.43.39s.43-.11.66-.32Z"/>
      <path class="cls-1" d="M187.63,135.9h.34l.03.35h.01c.23-.23.48-.41.82-.41.51,0,.74.33.74.95v1.54h-.41v-1.49c0-.45-.14-.65-.46-.65-.25,0-.42.13-.67.37v1.76h-.41v-2.43Z"/>
      <path class="cls-1" d="M190.19,137.12c0-.79.5-1.28,1.05-1.28.28,0,.47.11.68.28l-.02-.42v-.94h.41v3.57h-.34l-.03-.29h-.01c-.19.19-.45.35-.74.35-.61,0-1-.46-1-1.27ZM191.91,137.72v-1.28c-.21-.18-.39-.25-.59-.25-.39,0-.7.38-.7.93,0,.58.24.93.67.93.23,0,.42-.11.62-.33Z"/>
      <path class="cls-1" d="M193.96,137.12c0-.81.55-1.28,1.17-1.28.32,0,.54.13.71.29l-.21.27c-.14-.13-.29-.21-.48-.21-.44,0-.76.38-.76.94s.31.93.75.93c.22,0,.42-.11.57-.24l.18.28c-.22.19-.49.31-.79.31-.65,0-1.14-.47-1.14-1.27Z"/>
      <path class="cls-1" d="M196.14,137.12c0-.81.53-1.28,1.13-1.28s1.13.47,1.13,1.28-.53,1.27-1.13,1.27-1.13-.47-1.13-1.27ZM197.97,137.12c0-.56-.28-.94-.7-.94s-.7.38-.7.94.28.93.7.93.7-.37.7-.93Z"/>
      <path class="cls-1" d="M199.03,135.9h.34l.03.35h.01c.23-.23.48-.41.82-.41.51,0,.74.33.74.95v1.54h-.41v-1.49c0-.45-.14-.65-.46-.65-.25,0-.42.13-.67.37v1.76h-.41v-2.43Z"/>
      <path class="cls-1" d="M201.58,137.12c0-.81.55-1.28,1.17-1.28.32,0,.54.13.71.29l-.21.27c-.14-.13-.29-.21-.48-.21-.44,0-.76.38-.76.94s.31.93.75.93c.22,0,.42-.11.57-.24l.18.28c-.22.19-.49.31-.79.31-.65,0-1.14-.47-1.14-1.27Z"/>
      <path class="cls-1" d="M203.76,137.12c0-.79.53-1.28,1.09-1.28.62,0,.97.45.97,1.14,0,.09,0,.17-.02.23h-1.64c.03.51.34.85.81.85.23,0,.43-.08.61-.19l.15.27c-.21.14-.47.25-.8.25-.65,0-1.16-.47-1.16-1.27ZM205.46,136.92c0-.49-.22-.75-.6-.75-.34,0-.65.27-.7.75h1.3Z"/>
      <path class="cls-1" d="M206.42,135.9h.34l.03.28h.01c.22-.18.49-.34.78-.34.63,0,.96.49.96,1.24,0,.83-.5,1.31-1.05,1.31-.22,0-.45-.1-.67-.28v.42s.01.82.01.82h-.41v-3.46ZM208.12,137.09c0-.54-.18-.9-.64-.9-.21,0-.41.11-.65.33v1.28c.22.18.43.25.59.25.4,0,.7-.36.7-.96Z"/>
      <path class="cls-1" d="M209.18,137.58v-1.35h-.36v-.31l.38-.02.05-.68h.34v.68h.66v.33h-.66v1.35c0,.3.1.47.38.47.09,0,.2-.03.28-.07l.08.31c-.14.05-.3.09-.45.09-.52,0-.69-.33-.69-.81Z"/>
      <path class="cls-1" d="M210.76,137.44v-1.54h.41v1.49c0,.45.14.65.46.65.25,0,.42-.12.65-.41v-1.73h.41v2.43h-.34l-.04-.38h-.01c-.23.27-.47.44-.8.44-.51,0-.74-.33-.74-.95Z"/>
      <path class="cls-1" d="M213.37,137.7c0-.53.46-.79,1.49-.91,0-.31-.1-.62-.5-.62-.28,0-.54.13-.73.26l-.16-.28c.22-.15.56-.32.96-.32.59,0,.84.39.84,1v1.49h-.34l-.03-.29h-.01c-.23.19-.5.35-.8.35-.41,0-.71-.25-.71-.69ZM214.86,137.74v-.68c-.82.1-1.09.3-1.09.61,0,.28.19.39.43.39s.43-.11.66-.32Z"/>
      <path class="cls-1" d="M216.04,137.85v-3.08h.41v3.11c0,.13.05.18.11.18.02,0,.04,0,.09-.01l.06.31c-.06.02-.13.04-.24.04-.31,0-.44-.2-.44-.55Z"/>
      <path class="cls-1" d="M167.53,144.06l.2-.27c.21.17.43.29.72.29.32,0,.48-.17.48-.38,0-.25-.29-.36-.56-.46-.34-.12-.73-.29-.73-.7,0-.39.31-.69.84-.69.3,0,.57.12.76.27l-.2.26c-.17-.12-.34-.22-.55-.22-.31,0-.45.16-.45.35,0,.23.26.32.54.42.35.13.74.28.74.74,0,.39-.31.72-.89.72-.35,0-.68-.15-.91-.34Z"/>
      <path class="cls-1" d="M169.86,143.58v-1.35h-.36v-.31l.38-.02.05-.68h.34v.68h.66v.33h-.66v1.35c0,.3.1.47.38.47.09,0,.2-.03.28-.07l.08.31c-.14.05-.3.09-.45.09-.52,0-.69-.33-.69-.81Z"/>
      <path class="cls-1" d="M171.45,143.44v-1.54h.41v1.49c0,.45.14.65.46.65.25,0,.42-.12.65-.41v-1.73h.41v2.43h-.34l-.04-.38h-.01c-.23.27-.47.44-.8.44-.51,0-.74-.33-.74-.95Z"/>
      <path class="cls-1" d="M174.03,143.12c0-.79.5-1.28,1.05-1.28.28,0,.47.11.68.28l-.02-.42v-.94h.41v3.57h-.34l-.03-.29h-.01c-.19.19-.45.35-.74.35-.61,0-1-.46-1-1.27ZM175.74,143.72v-1.28c-.21-.18-.39-.25-.59-.25-.39,0-.7.38-.7.93,0,.58.24.93.67.93.23,0,.42-.11.62-.33Z"/>
      <path class="cls-1" d="M176.9,141.14c0-.16.12-.27.28-.27s.28.1.28.27-.12.27-.28.27-.28-.11-.28-.27ZM176.97,141.9h.41v2.43h-.41v-2.43Z"/>
      <path class="cls-1" d="M178.02,143.12c0-.79.53-1.28,1.09-1.28.62,0,.97.45.97,1.14,0,.09,0,.17-.02.23h-1.64c.03.51.34.85.81.85.23,0,.43-.08.61-.19l.15.27c-.21.14-.47.25-.8.25-.65,0-1.16-.47-1.16-1.27ZM179.72,142.92c0-.49-.22-.75-.6-.75-.34,0-.65.27-.7.75h1.3Z"/>
      <path class="cls-1" d="M180.41,144.06l.2-.27c.21.17.43.29.72.29.32,0,.48-.17.48-.38,0-.25-.29-.36-.56-.46-.34-.12-.73-.29-.73-.7,0-.39.31-.69.84-.69.3,0,.57.12.76.27l-.2.26c-.17-.12-.34-.22-.55-.22-.31,0-.45.16-.45.35,0,.23.26.32.54.42.35.13.74.28.74.74,0,.39-.31.72-.89.72-.35,0-.68-.15-.91-.34Z"/>
      <path class="cls-1" d="M183.78,143.85v-3.08h.41v3.11c0,.13.05.18.11.18.02,0,.04,0,.09-.01l.06.31c-.06.02-.13.04-.24.04-.31,0-.44-.2-.44-.55Z"/>
      <path class="cls-1" d="M184.87,143.12c0-.79.53-1.28,1.09-1.28.62,0,.97.45.97,1.14,0,.09,0,.17-.02.23h-1.64c.03.51.34.85.81.85.23,0,.43-.08.61-.19l.15.27c-.21.14-.47.25-.8.25-.65,0-1.16-.47-1.16-1.27ZM186.57,142.92c0-.49-.22-.75-.6-.75-.34,0-.65.27-.7.75h1.3Z"/>
      <path class="cls-1" d="M187.31,143.7c0-.53.46-.79,1.49-.91,0-.31-.1-.62-.5-.62-.28,0-.54.13-.73.26l-.16-.28c.22-.15.56-.32.96-.32.59,0,.84.39.84,1v1.49h-.34l-.03-.29h-.01c-.23.19-.5.35-.8.35-.41,0-.71-.25-.71-.69ZM188.81,143.74v-.68c-.82.1-1.09.3-1.09.61,0,.28.19.39.43.39s.43-.11.66-.32Z"/>
      <path class="cls-1" d="M189.81,143.12c0-.79.5-1.28,1.05-1.28.28,0,.47.11.68.28l-.02-.42v-.94h.41v3.57h-.34l-.03-.29h-.01c-.19.19-.45.35-.74.35-.61,0-1-.46-1-1.27ZM191.53,143.72v-1.28c-.21-.18-.39-.25-.59-.25-.39,0-.7.38-.7.93,0,.58.24.93.67.93.23,0,.42-.11.62-.33Z"/>
      <path class="cls-1" d="M193.83,143.58v-1.35h-.36v-.31l.38-.02.05-.68h.34v.68h.66v.33h-.66v1.35c0,.3.1.47.38.47.09,0,.2-.03.28-.07l.08.31c-.14.05-.3.09-.45.09-.52,0-.69-.33-.69-.81Z"/>
      <path class="cls-1" d="M195.2,143.12c0-.81.53-1.28,1.13-1.28s1.13.47,1.13,1.28-.53,1.27-1.13,1.27-1.13-.47-1.13-1.27ZM197.03,143.12c0-.56-.28-.94-.7-.94s-.7.38-.7.94.28.93.7.93.7-.37.7-.93Z"/>
      <path class="cls-1" d="M199.14,143.58v-1.35h-.36v-.31l.38-.02.05-.68h.34v.68h.66v.33h-.66v1.35c0,.3.1.47.38.47.09,0,.2-.03.28-.07l.08.31c-.14.05-.3.09-.45.09-.52,0-.69-.33-.69-.81Z"/>
      <path class="cls-1" d="M200.76,140.77h.41v1.47c.21-.22.46-.4.79-.4.51,0,.74.33.74.95v1.54h-.41v-1.49c0-.45-.14-.65-.46-.65-.25,0-.42.13-.67.37v1.76h-.41v-3.57Z"/>
      <path class="cls-1" d="M203.3,143.12c0-.79.53-1.28,1.09-1.28.62,0,.97.45.97,1.14,0,.09,0,.17-.02.23h-1.64c.03.51.34.85.81.85.23,0,.43-.08.61-.19l.15.27c-.21.14-.47.25-.8.25-.65,0-1.16-.47-1.16-1.27ZM205,142.92c0-.49-.22-.75-.6-.75-.34,0-.65.27-.7.75h1.3Z"/>
      <path class="cls-1" d="M155.42,149.12c0-.79.5-1.28,1.05-1.28.28,0,.47.11.68.28l-.02-.42v-.94h.41v3.57h-.34l-.03-.29h-.01c-.19.19-.45.35-.74.35-.61,0-1-.46-1-1.27ZM157.13,149.72v-1.28c-.21-.18-.39-.25-.59-.25-.39,0-.7.38-.7.93,0,.58.24.93.67.93.23,0,.42-.11.62-.33Z"/>
      <path class="cls-1" d="M158.18,149.12c0-.79.53-1.28,1.09-1.28.62,0,.97.45.97,1.14,0,.09,0,.17-.02.23h-1.64c.03.51.34.85.81.85.23,0,.43-.08.61-.19l.15.27c-.21.14-.47.25-.8.25-.65,0-1.16-.47-1.16-1.27ZM159.89,148.92c0-.49-.22-.75-.6-.75-.34,0-.65.27-.7.75h1.3Z"/>
      <path class="cls-1" d="M160.52,147.9h.42l.46,1.38c.07.24.15.49.22.72h.02c.07-.23.15-.48.22-.72l.46-1.38h.4l-.86,2.43h-.48l-.88-2.43Z"/>
      <path class="cls-1" d="M163,149.12c0-.79.53-1.28,1.09-1.28.62,0,.97.45.97,1.14,0,.09,0,.17-.02.23h-1.64c.03.51.34.85.81.85.23,0,.43-.08.61-.19l.15.27c-.21.14-.47.25-.8.25-.65,0-1.16-.47-1.16-1.27ZM164.71,148.92c0-.49-.22-.75-.6-.75-.34,0-.65.27-.7.75h1.3Z"/>
      <path class="cls-1" d="M165.67,149.85v-3.08h.41v3.11c0,.13.05.18.11.18.02,0,.04,0,.09-.01l.06.31c-.06.02-.13.04-.24.04-.31,0-.44-.2-.44-.55Z"/>
      <path class="cls-1" d="M166.76,149.12c0-.81.53-1.28,1.13-1.28s1.13.47,1.13,1.28-.53,1.27-1.13,1.27-1.13-.47-1.13-1.27ZM168.59,149.12c0-.56-.28-.94-.7-.94s-.7.38-.7.94.28.93.7.93.7-.37.7-.93Z"/>
      <path class="cls-1" d="M169.65,147.9h.34l.03.28h.01c.22-.18.49-.34.78-.34.63,0,.96.49.96,1.24,0,.83-.5,1.31-1.05,1.31-.22,0-.45-.1-.67-.28v.42s.01.82.01.82h-.41v-3.46ZM171.35,149.09c0-.54-.18-.9-.64-.9-.21,0-.41.11-.65.33v1.28c.22.18.43.25.59.25.4,0,.7-.36.7-.96Z"/>
      <path class="cls-1" d="M172.42,147.9h.34l.03.35h.01c.21-.23.47-.41.76-.41.37,0,.57.18.67.46.25-.27.51-.46.8-.46.5,0,.74.33.74.95v1.54h-.41v-1.49c0-.45-.14-.65-.45-.65-.19,0-.38.12-.61.37v1.76h-.41v-1.49c0-.45-.14-.65-.45-.65-.18,0-.38.12-.61.37v1.76h-.41v-2.43Z"/>
      <path class="cls-1" d="M176.39,149.12c0-.79.53-1.28,1.09-1.28.62,0,.97.45.97,1.14,0,.09,0,.17-.02.23h-1.64c.03.51.34.85.81.85.23,0,.43-.08.61-.19l.15.27c-.21.14-.47.25-.8.25-.65,0-1.16-.47-1.16-1.27ZM178.09,148.92c0-.49-.22-.75-.6-.75-.34,0-.65.27-.7.75h1.3Z"/>
      <path class="cls-1" d="M179.05,147.9h.34l.03.35h.01c.23-.23.48-.41.82-.41.51,0,.74.33.74.95v1.54h-.41v-1.49c0-.45-.14-.65-.46-.65-.25,0-.42.13-.67.37v1.76h-.41v-2.43Z"/>
      <path class="cls-1" d="M181.86,149.58v-1.35h-.36v-.31l.38-.02.05-.68h.34v.68h.66v.33h-.66v1.35c0,.3.1.47.38.47.09,0,.2-.03.28-.07l.08.31c-.14.05-.3.09-.45.09-.52,0-.69-.33-.69-.81Z"/>
      <path class="cls-1" d="M184.29,149.12c0-.81.53-1.28,1.13-1.28s1.13.47,1.13,1.28-.53,1.27-1.13,1.27-1.13-.47-1.13-1.27ZM186.12,149.12c0-.56-.28-.94-.7-.94s-.7.38-.7.94.28.93.7.93.7-.37.7-.93Z"/>
      <path class="cls-1" d="M186.91,147.93l.35-.02h.91v.33h-1.26v-.31ZM187.24,147.52c0-.49.22-.81.71-.81.15,0,.29.04.4.08l-.09.31c-.09-.04-.19-.06-.28-.06-.23,0-.34.16-.34.47v2.82h-.41v-2.82Z"/>
      <path class="cls-1" d="M189.63,147.9h.34l.03.35h.01c.23-.23.48-.41.82-.41.51,0,.74.33.74.95v1.54h-.41v-1.49c0-.45-.14-.65-.46-.65-.25,0-.42.13-.67.37v1.76h-.41v-2.43Z"/>
      <path class="cls-1" d="M192.19,149.12c0-.79.53-1.28,1.09-1.28.62,0,.97.45.97,1.14,0,.09,0,.17-.02.23h-1.64c.03.51.34.85.81.85.23,0,.43-.08.61-.19l.15.27c-.21.14-.47.25-.8.25-.65,0-1.16-.47-1.16-1.27ZM193.89,148.92c0-.49-.22-.75-.6-.75-.34,0-.65.27-.7.75h1.3Z"/>
      <path class="cls-1" d="M194.58,147.9h.42l.36,1.41c.05.23.1.45.14.68h.02c.05-.23.1-.45.17-.68l.38-1.41h.4l.38,1.41c.06.23.11.45.17.68h.02c.05-.23.1-.45.15-.68l.35-1.41h.39l-.65,2.43h-.5l-.35-1.31c-.06-.23-.11-.45-.16-.7h-.02c-.05.25-.1.48-.17.71l-.34,1.3h-.48l-.68-2.43Z"/>
      <path class="cls-1" d="M199.28,149.12c0-.81.55-1.28,1.17-1.28.32,0,.54.13.71.29l-.21.27c-.14-.13-.29-.21-.48-.21-.44,0-.76.38-.76.94s.31.93.75.93c.22,0,.42-.11.57-.24l.18.28c-.22.19-.49.31-.79.31-.65,0-1.14-.47-1.14-1.27Z"/>
      <path class="cls-1" d="M201.46,149.12c0-.81.53-1.28,1.13-1.28s1.13.47,1.13,1.28-.53,1.27-1.13,1.27-1.13-.47-1.13-1.27ZM203.29,149.12c0-.56-.28-.94-.7-.94s-.7.38-.7.94.28.93.7.93.7-.37.7-.93Z"/>
      <path class="cls-1" d="M204.35,147.9h.34l.03.35h.01c.23-.23.48-.41.82-.41.51,0,.74.33.74.95v1.54h-.41v-1.49c0-.45-.14-.65-.46-.65-.25,0-.42.13-.67.37v1.76h-.41v-2.43Z"/>
      <path class="cls-1" d="M206.9,149.12c0-.81.55-1.28,1.17-1.28.32,0,.54.13.71.29l-.21.27c-.14-.13-.29-.21-.48-.21-.44,0-.76.38-.76.94s.31.93.75.93c.22,0,.42-.11.57-.24l.18.28c-.22.19-.49.31-.79.31-.65,0-1.14-.47-1.14-1.27Z"/>
      <path class="cls-1" d="M209.08,149.12c0-.79.53-1.28,1.09-1.28.62,0,.97.45.97,1.14,0,.09,0,.17-.02.23h-1.64c.03.51.34.85.81.85.23,0,.43-.08.61-.19l.15.27c-.21.14-.47.25-.8.25-.65,0-1.16-.47-1.16-1.27ZM210.78,148.92c0-.49-.22-.75-.6-.75-.34,0-.65.27-.7.75h1.3Z"/>
      <path class="cls-1" d="M211.74,147.9h.34l.03.28h.01c.22-.18.49-.34.78-.34.63,0,.96.49.96,1.24,0,.83-.5,1.31-1.05,1.31-.22,0-.45-.1-.67-.28v.42s.01.82.01.82h-.41v-3.46ZM213.44,149.09c0-.54-.18-.9-.64-.9-.21,0-.41.11-.65.33v1.28c.22.18.43.25.59.25.4,0,.7-.36.7-.96Z"/>
      <path class="cls-1" d="M214.5,149.58v-1.35h-.36v-.31l.38-.02.05-.68h.34v.68h.66v.33h-.66v1.35c0,.3.1.47.38.47.09,0,.2-.03.28-.07l.08.31c-.14.05-.3.09-.45.09-.52,0-.69-.33-.69-.81Z"/>
      <path class="cls-1" d="M215.8,150.06l.2-.27c.21.17.43.29.72.29.32,0,.48-.17.48-.38,0-.25-.29-.36-.56-.46-.34-.12-.73-.29-.73-.7,0-.39.31-.69.84-.69.3,0,.57.12.76.27l-.2.26c-.17-.12-.34-.22-.55-.22-.31,0-.45.16-.45.35,0,.23.26.32.54.42.35.13.74.28.74.74,0,.39-.31.72-.89.72-.35,0-.68-.15-.91-.34Z"/>
    </g>
  </g>
  <g>
    <line class="cls-3" x1="130.92" y1="42.96" x2="147.67" y2="42.96"/>
    <polygon class="cls-5" points="147.09 44.96 150.54 42.96 147.09 40.97 147.09 44.96"/>
  </g>
  <g>
    <path class="cls-2" d="M99.94,18.83c0-1.28.81-2.05,1.86-2.05.56,0,.94.25,1.18.5l-.37.45c-.2-.19-.43-.34-.79-.34-.7,0-1.16.54-1.16,1.42s.42,1.44,1.2,1.44c.22,0,.43-.06.56-.17v-.85h-.74v-.57h1.36v1.73c-.26.26-.71.47-1.25.47-1.06,0-1.85-.72-1.85-2.02Z"/>
    <path class="cls-2" d="M103.66,19.3c0-.96.66-1.55,1.36-1.55.8,0,1.22.58,1.22,1.4,0,.13-.01.26-.03.34h-1.87c.06.52.39.82.87.82.25,0,.47-.08.68-.21l.23.43c-.28.19-.64.32-1.01.32-.81,0-1.45-.57-1.45-1.54ZM105.64,19.02c0-.45-.2-.73-.6-.73-.34,0-.65.26-.71.73h1.31Z"/>
    <path class="cls-2" d="M106.7,19.3c0-.98.67-1.55,1.4-1.55s1.4.57,1.4,1.55-.67,1.54-1.4,1.54-1.4-.57-1.4-1.54ZM108.79,19.3c0-.59-.26-.98-.69-.98s-.69.39-.69.98.26.98.69.98.69-.39.69-.98Z"/>
    <path class="cls-2" d="M109.99,21.31c0-.25.15-.47.42-.63v-.02c-.15-.1-.27-.25-.27-.49s.16-.43.33-.55v-.02c-.2-.15-.39-.43-.39-.78,0-.68.55-1.06,1.16-1.06.16,0,.32.03.44.07h1.05v.51h-.54c.1.11.17.29.17.49,0,.66-.5,1.01-1.12,1.01-.12,0-.27-.03-.4-.08-.09.08-.14.15-.14.28,0,.17.12.27.48.27h.52c.7,0,1.08.22,1.08.73,0,.58-.61,1.04-1.57,1.04-.7,0-1.23-.25-1.23-.77ZM112.12,21.15c0-.23-.18-.29-.52-.29h-.4c-.16,0-.29-.01-.4-.04-.16.12-.23.25-.23.39,0,.27.29.42.75.42s.8-.22.8-.48ZM111.76,18.81c0-.37-.22-.58-.51-.58s-.51.21-.51.58.23.59.51.59.51-.22.51-.59Z"/>
    <path class="cls-2" d="M113.31,17.83h.57l.05.53h.02c.21-.38.52-.6.84-.6.15,0,.24.02.33.06l-.12.6c-.1-.03-.18-.05-.3-.05-.23,0-.52.16-.7.61v1.8h-.69v-2.95Z"/>
    <path class="cls-2" d="M115.23,19.98c0-.63.52-.96,1.73-1.09,0-.32-.14-.58-.54-.58-.29,0-.57.13-.83.29l-.25-.46c.32-.2.74-.39,1.21-.39.74,0,1.1.45,1.1,1.27v1.74h-.57l-.05-.33h-.02c-.26.23-.57.4-.91.4-.52,0-.87-.35-.87-.86ZM116.97,19.98v-.66c-.8.1-1.07.31-1.07.61,0,.26.18.38.42.38s.42-.12.64-.32Z"/>
    <path class="cls-2" d="M118.49,17.83h.57l.05.31h.02c.25-.21.56-.39.89-.39.74,0,1.16.59,1.16,1.5,0,1.01-.6,1.59-1.26,1.59-.26,0-.52-.12-.76-.32l.02.49v.93h-.69v-4.11ZM120.46,19.26c0-.59-.19-.94-.64-.94-.21,0-.42.11-.64.33v1.37c.21.18.42.24.59.24.39,0,.69-.35.69-1.01Z"/>
    <path class="cls-2" d="M121.84,16.54h.69v1.1l-.03.57c.25-.23.54-.45.94-.45.63,0,.91.43.91,1.17v1.85h-.69v-1.76c0-.49-.14-.67-.46-.67-.26,0-.43.13-.67.37v2.06h-.69v-4.24Z"/>
    <path class="cls-2" d="M125.11,16.92c0-.23.18-.39.43-.39s.43.16.43.39-.18.39-.43.39-.43-.16-.43-.39ZM125.18,17.83h.69v2.95h-.69v-2.95Z"/>
    <path class="cls-2" d="M126.56,19.3c0-.98.69-1.55,1.48-1.55.37,0,.65.14.86.33l-.34.45c-.16-.14-.3-.22-.49-.22-.48,0-.8.39-.8.98s.32.98.78.98c.23,0,.44-.11.61-.25l.28.46c-.28.24-.63.36-.96.36-.8,0-1.42-.57-1.42-1.54Z"/>
    <path class="cls-2" d="M130.79,16.85h.7v3.92h-.7v-3.92Z"/>
    <path class="cls-2" d="M132.42,17.83h.57l.05.4h.02c.26-.26.56-.47.97-.47.63,0,.91.43.91,1.17v1.85h-.69v-1.76c0-.49-.14-.67-.46-.67-.26,0-.43.13-.67.37v2.06h-.69v-2.95Z"/>
    <path class="cls-2" d="M135.5,17.86l.43-.03h1.23v.55h-1.66v-.52ZM135.9,17.52c0-.61.28-1.06.98-1.06.21,0,.41.05.54.1l-.13.52c-.11-.04-.22-.07-.32-.07-.24,0-.37.15-.37.5v3.26h-.69v-3.25Z"/>
    <path class="cls-2" d="M137.43,19.3c0-.98.67-1.55,1.4-1.55s1.4.57,1.4,1.55-.67,1.54-1.4,1.54-1.4-.57-1.4-1.54ZM139.52,19.3c0-.59-.26-.98-.69-.98s-.69.39-.69.98.26.98.69.98.69-.39.69-.98Z"/>
    <path class="cls-2" d="M140.92,17.83h.57l.05.53h.02c.21-.38.52-.6.84-.6.15,0,.24.02.33.06l-.12.6c-.1-.03-.18-.05-.3-.05-.23,0-.52.16-.7.61v1.8h-.69v-2.95Z"/>
    <path class="cls-2" d="M143.15,17.83h.57l.05.4h.02c.25-.26.53-.47.9-.47.43,0,.68.2.81.53.28-.3.57-.53.95-.53.62,0,.91.43.91,1.17v1.85h-.69v-1.76c0-.49-.14-.67-.45-.67-.19,0-.39.12-.62.37v2.06h-.69v-1.76c0-.49-.14-.67-.45-.67-.18,0-.39.12-.62.37v2.06h-.69v-2.95Z"/>
    <path class="cls-2" d="M148.05,19.98c0-.63.52-.96,1.73-1.09,0-.32-.14-.58-.54-.58-.29,0-.57.13-.83.29l-.25-.46c.32-.2.74-.39,1.21-.39.74,0,1.1.45,1.1,1.27v1.74h-.57l-.05-.33h-.02c-.26.23-.57.4-.91.4-.52,0-.87-.35-.87-.86ZM149.79,19.98v-.66c-.8.1-1.07.31-1.07.61,0,.26.18.38.42.38s.42-.12.64-.32Z"/>
    <path class="cls-2" d="M151.32,19.78v-1.4h-.42v-.52l.46-.03.08-.8h.57v.8h.75v.55h-.75v1.4c0,.35.13.52.42.52.1,0,.22-.03.31-.07l.12.51c-.16.05-.37.11-.6.11-.68,0-.93-.43-.93-1.07Z"/>
    <path class="cls-2" d="M153.3,16.92c0-.23.18-.39.43-.39s.43.16.43.39-.18.39-.43.39-.43-.16-.43-.39ZM153.38,17.83h.69v2.95h-.69v-2.95Z"/>
    <path class="cls-2" d="M154.76,19.3c0-.98.67-1.55,1.4-1.55s1.4.57,1.4,1.55-.67,1.54-1.4,1.54-1.4-.57-1.4-1.54ZM156.85,19.3c0-.59-.26-.98-.69-.98s-.69.39-.69.98.26.98.69.98.69-.39.69-.98Z"/>
    <path class="cls-2" d="M158.24,17.83h.57l.05.4h.02c.26-.26.56-.47.97-.47.63,0,.91.43.91,1.17v1.85h-.69v-1.76c0-.49-.14-.67-.46-.67-.26,0-.43.13-.67.37v2.06h-.69v-2.95Z"/>
    <path class="cls-2" d="M162.6,20.27l.41-.48c.28.27.66.45,1.02.45.44,0,.68-.2.68-.51,0-.32-.25-.43-.61-.58l-.54-.23c-.39-.16-.79-.47-.79-1.04,0-.62.55-1.11,1.32-1.11.46,0,.9.19,1.21.5l-.36.44c-.25-.21-.52-.34-.85-.34-.37,0-.61.17-.61.46,0,.31.3.42.62.56l.53.22c.47.19.79.49.79,1.06,0,.64-.53,1.17-1.41,1.17-.53,0-1.04-.21-1.41-.58Z"/>
    <path class="cls-2" d="M165.88,21.92l.13-.54c.06.02.14.04.21.04.31,0,.49-.21.59-.51l.06-.18-1.16-2.91h.7l.51,1.44c.09.26.17.55.26.83h.02c.07-.27.15-.56.23-.83l.44-1.44h.67l-1.06,3.08c-.24.66-.55,1.07-1.2,1.07-.16,0-.28-.02-.38-.06Z"/>
    <path class="cls-2" d="M168.75,20.43l.32-.44c.26.2.51.33.81.33.32,0,.47-.15.47-.35,0-.25-.32-.36-.63-.48-.39-.15-.83-.37-.83-.86s.41-.88,1.07-.88c.41,0,.74.17.98.35l-.32.42c-.21-.15-.41-.26-.65-.26-.3,0-.44.14-.44.33,0,.23.3.32.62.44.4.15.84.34.84.89,0,.51-.4.91-1.14.91-.4,0-.83-.17-1.12-.41Z"/>
    <path class="cls-2" d="M171.61,19.78v-1.4h-.42v-.52l.46-.03.08-.8h.57v.8h.75v.55h-.75v1.4c0,.35.13.52.42.52.1,0,.22-.03.31-.07l.12.51c-.16.05-.37.11-.6.11-.68,0-.93-.43-.93-1.07Z"/>
    <path class="cls-2" d="M173.39,19.3c0-.96.66-1.55,1.36-1.55.8,0,1.22.58,1.22,1.4,0,.13-.01.26-.03.34h-1.87c.06.52.39.82.87.82.25,0,.47-.08.68-.21l.23.43c-.28.19-.64.32-1.01.32-.81,0-1.45-.57-1.45-1.54ZM175.36,19.02c0-.45-.2-.73-.6-.73-.34,0-.65.26-.71.73h1.31Z"/>
    <path class="cls-2" d="M176.62,17.83h.57l.05.4h.02c.25-.26.53-.47.9-.47.43,0,.68.2.81.53.28-.3.57-.53.95-.53.62,0,.91.43.91,1.17v1.85h-.69v-1.76c0-.49-.14-.67-.45-.67-.19,0-.39.12-.62.37v2.06h-.69v-1.76c0-.49-.14-.67-.45-.67-.18,0-.39.12-.62.37v2.06h-.69v-2.95Z"/>
  </g>
  <g>
    <path class="cls-3" d="M223.68,43.15h10.8c1.63,0,2.97,1.53,2.97,3.39v93.14c0,1.87-1.34,3.39-2.97,3.39h-9.79"/>
    <polygon class="cls-5" points="225.27 141.08 221.81 143.08 225.27 145.07 225.27 141.08"/>
  </g>
  <g>
    <path class="cls-3" d="M90.59,126.17v-18.01c0-1.6,1.31-2.91,2.91-2.91h13.42"/>
    <polygon class="cls-5" points="106.34 107.24 109.8 105.25 106.34 103.25 106.34 107.24"/>
  </g>
  <g>
    <line class="cls-3" x1="150.82" y1="143.05" x2="132.23" y2="143.05"/>
    <polygon class="cls-5" points="132.81 141.06 129.36 143.05 132.81 145.05 132.81 141.06"/>
  </g>
  <g>
    <path class="cls-3" d="M172.15,105.25h14.18c1.6,0,2.91,1.31,2.91,2.91v14.97"/>
    <polygon class="cls-5" points="187.24 122.54 189.24 126 191.23 122.54 187.24 122.54"/>
  </g>
  <g>
    <path class="cls-2" d="M99.54,87.89c0-1.28.81-2.05,1.86-2.05.56,0,.94.25,1.18.5l-.37.45c-.2-.19-.43-.34-.79-.34-.7,0-1.16.54-1.16,1.42s.42,1.44,1.2,1.44c.22,0,.43-.06.56-.17v-.85h-.74v-.57h1.36v1.73c-.26.26-.71.47-1.25.47-1.06,0-1.85-.72-1.85-2.02Z"/>
    <path class="cls-2" d="M103.26,88.37c0-.96.66-1.55,1.36-1.55.8,0,1.22.58,1.22,1.4,0,.13-.01.26-.03.34h-1.87c.06.52.39.82.87.82.25,0,.47-.08.68-.21l.23.43c-.28.19-.64.32-1.01.32-.81,0-1.45-.57-1.45-1.54ZM105.23,88.08c0-.45-.2-.73-.6-.73-.34,0-.65.26-.71.73h1.31Z"/>
    <path class="cls-2" d="M106.3,88.37c0-.98.67-1.55,1.4-1.55s1.4.57,1.4,1.55-.67,1.54-1.4,1.54-1.4-.57-1.4-1.54ZM108.39,88.37c0-.59-.26-.98-.69-.98s-.69.39-.69.98.26.98.69.98.69-.39.69-.98Z"/>
    <path class="cls-2" d="M109.58,90.37c0-.25.15-.47.42-.63v-.02c-.15-.1-.27-.25-.27-.49s.16-.43.33-.55v-.02c-.2-.15-.39-.43-.39-.78,0-.68.55-1.06,1.16-1.06.16,0,.32.03.44.07h1.05v.51h-.54c.1.11.17.29.17.49,0,.66-.5,1.01-1.12,1.01-.12,0-.27-.03-.4-.08-.09.08-.14.15-.14.28,0,.17.12.27.48.27h.52c.7,0,1.08.22,1.08.73,0,.58-.61,1.04-1.57,1.04-.7,0-1.23-.25-1.23-.77ZM111.71,90.21c0-.23-.18-.29-.52-.29h-.4c-.16,0-.29-.01-.4-.04-.16.12-.23.25-.23.39,0,.27.29.42.75.42s.8-.22.8-.48ZM111.35,87.88c0-.37-.22-.58-.51-.58s-.51.21-.51.58.23.59.51.59.51-.22.51-.59Z"/>
    <path class="cls-2" d="M112.91,86.89h.57l.05.53h.02c.21-.38.52-.6.84-.6.15,0,.24.02.33.06l-.12.6c-.1-.03-.18-.05-.3-.05-.23,0-.52.16-.7.61v1.8h-.69v-2.95Z"/>
    <path class="cls-2" d="M114.83,89.05c0-.63.52-.96,1.73-1.09,0-.32-.14-.58-.54-.58-.29,0-.57.13-.83.29l-.25-.46c.32-.2.74-.39,1.21-.39.74,0,1.1.45,1.1,1.27v1.74h-.57l-.05-.33h-.02c-.26.23-.57.4-.91.4-.52,0-.87-.35-.87-.86ZM116.56,89.05v-.66c-.8.1-1.07.31-1.07.61,0,.26.18.38.42.38s.42-.12.64-.32Z"/>
    <path class="cls-2" d="M118.08,86.89h.57l.05.31h.02c.25-.21.56-.39.89-.39.74,0,1.16.59,1.16,1.5,0,1.01-.6,1.59-1.26,1.59-.26,0-.52-.12-.76-.32l.02.49v.93h-.69v-4.11ZM120.06,88.33c0-.59-.19-.94-.64-.94-.21,0-.42.11-.64.33v1.37c.21.18.42.24.59.24.39,0,.69-.35.69-1.01Z"/>
    <path class="cls-2" d="M121.43,85.6h.69v1.1l-.03.57c.25-.23.54-.45.94-.45.63,0,.91.43.91,1.17v1.85h-.69v-1.76c0-.49-.14-.67-.46-.67-.26,0-.43.13-.67.37v2.06h-.69v-4.24Z"/>
    <path class="cls-2" d="M124.7,85.99c0-.23.18-.39.43-.39s.43.16.43.39-.18.39-.43.39-.43-.16-.43-.39ZM124.78,86.89h.69v2.95h-.69v-2.95Z"/>
    <path class="cls-2" d="M126.16,88.37c0-.98.69-1.55,1.48-1.55.37,0,.65.14.86.33l-.34.45c-.16-.14-.3-.22-.49-.22-.48,0-.8.39-.8.98s.32.98.78.98c.23,0,.44-.11.61-.25l.28.46c-.28.24-.63.36-.96.36-.8,0-1.42-.57-1.42-1.54Z"/>
    <path class="cls-2" d="M130.38,85.92h.7v3.92h-.7v-3.92Z"/>
    <path class="cls-2" d="M132.02,86.89h.57l.05.4h.02c.26-.26.56-.47.97-.47.63,0,.91.43.91,1.17v1.85h-.69v-1.76c0-.49-.14-.67-.46-.67-.26,0-.43.13-.67.37v2.06h-.69v-2.95Z"/>
    <path class="cls-2" d="M135.1,86.92l.43-.03h1.23v.55h-1.66v-.52ZM135.49,86.59c0-.61.28-1.06.98-1.06.21,0,.41.05.54.1l-.13.52c-.11-.04-.22-.07-.32-.07-.24,0-.37.15-.37.5v3.26h-.69v-3.25Z"/>
    <path class="cls-2" d="M137.02,88.37c0-.98.67-1.55,1.4-1.55s1.4.57,1.4,1.55-.67,1.54-1.4,1.54-1.4-.57-1.4-1.54ZM139.12,88.37c0-.59-.26-.98-.69-.98s-.69.39-.69.98.26.98.69.98.69-.39.69-.98Z"/>
    <path class="cls-2" d="M140.51,86.89h.57l.05.53h.02c.21-.38.52-.6.84-.6.15,0,.24.02.33.06l-.12.6c-.1-.03-.18-.05-.3-.05-.23,0-.52.16-.7.61v1.8h-.69v-2.95Z"/>
    <path class="cls-2" d="M142.75,86.89h.57l.05.4h.02c.25-.26.53-.47.9-.47.43,0,.68.2.81.53.28-.3.57-.53.95-.53.62,0,.91.43.91,1.17v1.85h-.69v-1.76c0-.49-.14-.67-.45-.67-.19,0-.39.12-.62.37v2.06h-.69v-1.76c0-.49-.14-.67-.45-.67-.18,0-.39.12-.62.37v2.06h-.69v-2.95Z"/>
    <path class="cls-2" d="M147.65,89.05c0-.63.52-.96,1.73-1.09,0-.32-.14-.58-.54-.58-.29,0-.57.13-.83.29l-.25-.46c.32-.2.74-.39,1.21-.39.74,0,1.1.45,1.1,1.27v1.74h-.57l-.05-.33h-.02c-.26.23-.57.4-.91.4-.52,0-.87-.35-.87-.86ZM149.38,89.05v-.66c-.8.1-1.07.31-1.07.61,0,.26.18.38.42.38s.42-.12.64-.32Z"/>
    <path class="cls-2" d="M150.91,88.84v-1.4h-.42v-.52l.46-.03.08-.8h.57v.8h.75v.55h-.75v1.4c0,.35.13.52.42.52.1,0,.22-.03.31-.07l.12.51c-.16.05-.37.11-.6.11-.68,0-.93-.43-.93-1.07Z"/>
    <path class="cls-2" d="M152.89,85.99c0-.23.18-.39.43-.39s.43.16.43.39-.18.39-.43.39-.43-.16-.43-.39ZM152.97,86.89h.69v2.95h-.69v-2.95Z"/>
    <path class="cls-2" d="M154.35,88.37c0-.98.67-1.55,1.4-1.55s1.4.57,1.4,1.55-.67,1.54-1.4,1.54-1.4-.57-1.4-1.54ZM156.44,88.37c0-.59-.26-.98-.69-.98s-.69.39-.69.98.26.98.69.98.69-.39.69-.98Z"/>
    <path class="cls-2" d="M157.84,86.89h.57l.05.4h.02c.26-.26.56-.47.97-.47.63,0,.91.43.91,1.17v1.85h-.69v-1.76c0-.49-.14-.67-.46-.67-.26,0-.43.13-.67.37v2.06h-.69v-2.95Z"/>
    <path class="cls-2" d="M162.19,89.33l.41-.48c.28.27.66.45,1.02.45.44,0,.68-.2.68-.51,0-.32-.25-.43-.61-.58l-.54-.23c-.39-.16-.79-.47-.79-1.04,0-.62.55-1.11,1.32-1.11.46,0,.9.19,1.21.5l-.36.44c-.25-.21-.52-.34-.85-.34-.37,0-.61.17-.61.46,0,.31.3.42.62.56l.53.22c.47.19.79.49.79,1.06,0,.64-.53,1.17-1.41,1.17-.53,0-1.04-.21-1.41-.58Z"/>
    <path class="cls-2" d="M165.48,88.37c0-.98.69-1.55,1.48-1.55.37,0,.65.14.86.33l-.34.45c-.16-.14-.3-.22-.49-.22-.48,0-.8.39-.8.98s.32.98.78.98c.23,0,.44-.11.61-.25l.28.46c-.28.24-.63.36-.96.36-.8,0-1.42-.57-1.42-1.54Z"/>
    <path class="cls-2" d="M168.36,85.99c0-.23.18-.39.43-.39s.43.16.43.39-.18.39-.43.39-.43-.16-.43-.39ZM168.44,86.89h.69v2.95h-.69v-2.95Z"/>
    <path class="cls-2" d="M169.82,88.37c0-.96.66-1.55,1.36-1.55.8,0,1.22.58,1.22,1.4,0,.13-.01.26-.03.34h-1.87c.06.52.39.82.87.82.25,0,.47-.08.68-.21l.23.43c-.28.19-.64.32-1.01.32-.81,0-1.45-.57-1.45-1.54ZM171.8,88.08c0-.45-.2-.73-.6-.73-.34,0-.65.26-.71.73h1.31Z"/>
    <path class="cls-2" d="M173.06,86.89h.57l.05.4h.02c.26-.26.56-.47.97-.47.63,0,.91.43.91,1.17v1.85h-.69v-1.76c0-.49-.14-.67-.46-.67-.26,0-.43.13-.67.37v2.06h-.69v-2.95Z"/>
    <path class="cls-2" d="M176.22,88.37c0-.98.69-1.55,1.48-1.55.37,0,.65.14.86.33l-.34.45c-.16-.14-.3-.22-.49-.22-.48,0-.8.39-.8.98s.32.98.78.98c.23,0,.44-.11.61-.25l.28.46c-.28.24-.63.36-.96.36-.8,0-1.42-.57-1.42-1.54Z"/>
    <path class="cls-2" d="M178.85,88.37c0-.96.66-1.55,1.36-1.55.8,0,1.22.58,1.22,1.4,0,.13-.01.26-.03.34h-1.87c.06.52.39.82.87.82.25,0,.47-.08.68-.21l.23.43c-.28.19-.64.32-1.01.32-.81,0-1.45-.57-1.45-1.54ZM180.83,88.08c0-.45-.2-.73-.6-.73-.34,0-.65.26-.71.73h1.31Z"/>
  </g>
  <g>
    <path class="cls-3" d="M60.13,142.58h-9.7c-1.47,0-2.67-1.52-2.67-3.37V46.79c0-1.85,1.2-3.37,2.67-3.37h8.51"/>
    <polygon class="cls-5" points="58.35 45.42 61.81 43.42 58.35 41.43 58.35 45.42"/>
  </g>
  <g>
    <path class="cls-4" d="M3.36,175.06h2.08v.39h-1.62v1.22h1.37v.39h-1.37v1.61h-.46v-3.61Z"/>
    <path class="cls-4" d="M5.95,175.15c0-.18.14-.29.31-.29s.31.11.31.29-.14.29-.31.29-.31-.12-.31-.29ZM6.03,175.99h.45v2.67h-.45v-2.67Z"/>
    <path class="cls-4" d="M7.18,179.18c0-.23.15-.44.39-.6v-.02c-.14-.08-.24-.23-.24-.44,0-.22.16-.4.29-.5v-.02c-.18-.14-.35-.4-.35-.72,0-.58.46-.95,1-.95.15,0,.28.03.38.07h.93v.35h-.55c.13.12.22.32.22.55,0,.57-.43.93-.98.93-.13,0-.28-.03-.4-.09-.1.08-.17.17-.17.32,0,.17.11.29.47.29h.52c.62,0,.93.19.93.64,0,.5-.52.92-1.35.92-.65,0-1.1-.26-1.1-.72ZM9.2,179.04c0-.25-.19-.33-.54-.33h-.46c-.1,0-.23-.01-.35-.04-.19.13-.27.29-.27.45,0,.29.29.47.77.47.51,0,.84-.27.84-.54ZM8.85,176.88c0-.39-.25-.62-.57-.62s-.57.23-.57.62.26.63.57.63.57-.25.57-.63Z"/>
    <path class="cls-4" d="M10.12,177.69v-1.69h.45v1.63c0,.5.15.71.5.71.27,0,.46-.14.71-.45v-1.89h.45v2.67h-.37l-.04-.42h-.01c-.25.29-.51.48-.88.48-.56,0-.82-.36-.82-1.04Z"/>
    <path class="cls-4" d="M13.15,175.99h.37l.04.49h.02c.19-.34.46-.55.76-.55.12,0,.2.02.29.05l-.08.4c-.09-.03-.15-.04-.26-.04-.23,0-.49.16-.68.61v1.71h-.45v-2.67Z"/>
    <path class="cls-4" d="M14.8,177.33c0-.87.59-1.4,1.2-1.4.68,0,1.07.49,1.07,1.25,0,.1,0,.19-.02.26h-1.8c.03.57.38.93.89.93.26,0,.47-.08.66-.21l.16.3c-.23.15-.52.28-.88.28-.71,0-1.28-.52-1.28-1.4ZM16.67,177.11c0-.54-.24-.83-.66-.83-.38,0-.71.3-.77.83h1.42Z"/>
    <path class="cls-4" d="M18.6,178.4c1.05-1.05,1.65-1.68,1.65-2.25,0-.4-.22-.68-.66-.68-.29,0-.55.19-.74.42l-.26-.26c.29-.32.61-.53,1.06-.53.65,0,1.05.41,1.05,1.03,0,.66-.6,1.31-1.43,2.18.19-.01.41-.03.59-.03h1.01v.39h-2.26v-.27Z"/>
    <path class="cls-4" d="M21.47,176.41c0-.21.15-.35.33-.35s.33.14.33.35-.15.34-.33.34-.33-.14-.33-.34ZM21.47,178.39c0-.21.15-.35.33-.35s.33.14.33.35-.15.34-.33.34-.33-.14-.33-.34Z"/>
    <path class="cls-4" d="M24.83,175.45h-1.09v-.39h2.64v.39h-1.09v3.22h-.46v-3.22Z"/>
    <path class="cls-4" d="M26.98,174.75h.45v1.07l-.02.55c.25-.24.52-.44.89-.44.56,0,.82.36.82,1.04v1.69h-.45v-1.63c0-.5-.15-.71-.5-.71-.27,0-.46.14-.73.41v1.93h-.45v-3.91Z"/>
    <path class="cls-4" d="M29.77,177.33c0-.87.59-1.4,1.2-1.4.68,0,1.07.49,1.07,1.25,0,.1,0,.19-.02.26h-1.8c.03.57.38.93.89.93.26,0,.47-.08.66-.21l.16.3c-.23.15-.52.28-.88.28-.71,0-1.28-.52-1.28-1.4ZM31.64,177.11c0-.54-.24-.83-.66-.83-.38,0-.71.3-.77.83h1.42Z"/>
    <path class="cls-4" d="M33.63,176.86c0-1.16.7-1.87,1.65-1.87.5,0,.83.23,1.04.44l-.25.3c-.18-.19-.41-.34-.78-.34-.73,0-1.19.56-1.19,1.46s.43,1.47,1.2,1.47c.26,0,.51-.08.65-.21v-.94h-.76v-.38h1.18v1.52c-.23.24-.63.42-1.11.42-.95,0-1.63-.7-1.63-1.87Z"/>
    <path class="cls-4" d="M37.24,175.06h.46v3.61h-.46v-3.61Z"/>
    <path class="cls-4" d="M39.52,178.19l.27-.31c.26.27.62.45.99.45.47,0,.75-.24.75-.59,0-.37-.26-.49-.6-.63l-.52-.23c-.34-.14-.73-.4-.73-.93s.48-.96,1.13-.96c.43,0,.81.18,1.06.45l-.24.29c-.22-.21-.48-.34-.82-.34-.4,0-.67.2-.67.53,0,.35.31.48.6.6l.51.22c.42.18.74.43.74.96,0,.57-.47,1.03-1.23,1.03-.51,0-.95-.21-1.26-.54Z"/>
    <path class="cls-4" d="M42.48,177.33c0-.89.6-1.4,1.28-1.4.35,0,.59.14.78.31l-.23.3c-.16-.14-.32-.24-.53-.24-.48,0-.84.42-.84,1.03s.33,1.02.83,1.02c.24,0,.46-.12.63-.27l.2.3c-.24.21-.54.34-.86.34-.71,0-1.25-.51-1.25-1.4Z"/>
    <path class="cls-4" d="M45.1,175.15c0-.18.14-.29.31-.29s.31.11.31.29-.14.29-.31.29-.31-.12-.31-.29ZM45.19,175.99h.45v2.67h-.45v-2.67Z"/>
    <path class="cls-4" d="M46.34,177.33c0-.87.59-1.4,1.2-1.4.68,0,1.07.49,1.07,1.25,0,.1,0,.19-.02.26h-1.8c.03.57.38.93.89.93.26,0,.47-.08.66-.21l.16.3c-.23.15-.52.28-.88.28-.71,0-1.28-.52-1.28-1.4ZM48.21,177.11c0-.54-.24-.83-.66-.83-.38,0-.71.3-.77.83h1.42Z"/>
    <path class="cls-4" d="M49.27,175.99h.37l.04.38h.02c.25-.25.53-.45.9-.45.56,0,.82.36.82,1.04v1.69h-.45v-1.63c0-.5-.15-.71-.5-.71-.27,0-.46.14-.73.41v1.93h-.45v-2.67Z"/>
    <path class="cls-4" d="M52.08,177.33c0-.89.6-1.4,1.28-1.4.35,0,.59.14.78.31l-.23.3c-.16-.14-.32-.24-.53-.24-.48,0-.84.42-.84,1.03s.33,1.02.83,1.02c.24,0,.46-.12.63-.27l.2.3c-.24.21-.54.34-.86.34-.71,0-1.25-.51-1.25-1.4Z"/>
    <path class="cls-4" d="M54.47,177.33c0-.87.59-1.4,1.2-1.4.68,0,1.07.49,1.07,1.25,0,.1,0,.19-.02.26h-1.8c.03.57.38.93.89.93.26,0,.47-.08.66-.21l.16.3c-.23.15-.52.28-.88.28-.71,0-1.28-.52-1.28-1.4ZM56.34,177.11c0-.54-.24-.83-.66-.83-.38,0-.71.3-.77.83h1.42Z"/>
    <path class="cls-4" d="M57.23,177.11h1.26v.35h-1.26v-.35Z"/>
    <path class="cls-4" d="M58.85,178.19l.27-.31c.26.27.62.45.99.45.47,0,.75-.24.75-.59,0-.37-.26-.49-.6-.63l-.52-.23c-.34-.14-.73-.4-.73-.93s.48-.96,1.13-.96c.43,0,.81.18,1.06.45l-.24.29c-.22-.21-.48-.34-.82-.34-.4,0-.67.2-.67.53,0,.35.31.48.6.6l.51.22c.42.18.74.43.74.96,0,.57-.47,1.03-1.23,1.03-.51,0-.95-.21-1.26-.54Z"/>
    <path class="cls-4" d="M61.74,179.76l.09-.36c.05.02.13.04.2.04.3,0,.49-.24.6-.57l.06-.2-1.07-2.67h.47l.54,1.48c.08.23.17.51.26.75h.02c.08-.24.15-.52.22-.75l.48-1.48h.44l-1.01,2.89c-.19.53-.46.93-1,.93-.12,0-.23-.02-.31-.05Z"/>
    <path class="cls-4" d="M64.28,178.36l.22-.3c.23.19.47.32.79.32.35,0,.52-.19.52-.42,0-.27-.32-.4-.61-.51-.37-.14-.8-.32-.8-.77,0-.43.34-.76.92-.76.33,0,.62.14.83.3l-.22.29c-.18-.14-.37-.24-.61-.24-.34,0-.49.18-.49.38,0,.25.29.35.59.46.39.15.81.3.81.81,0,.43-.34.79-.97.79-.38,0-.75-.16-1-.37Z"/>
    <path class="cls-4" d="M66.85,177.84v-1.48h-.4v-.34l.42-.03.05-.75h.38v.75h.72v.37h-.72v1.48c0,.33.11.52.41.52.09,0,.22-.04.3-.07l.09.34c-.15.05-.33.1-.5.1-.57,0-.76-.36-.76-.89Z"/>
    <path class="cls-4" d="M68.35,177.33c0-.87.59-1.4,1.2-1.4.68,0,1.07.49,1.07,1.25,0,.1,0,.19-.02.26h-1.8c.03.57.38.93.89.93.26,0,.47-.08.66-.21l.16.3c-.23.15-.52.28-.88.28-.71,0-1.28-.52-1.28-1.4ZM70.22,177.11c0-.54-.24-.83-.66-.83-.38,0-.71.3-.77.83h1.42Z"/>
    <path class="cls-4" d="M71.28,175.99h.37l.04.39h.02c.23-.25.51-.45.83-.45.41,0,.63.2.74.51.28-.3.56-.51.88-.51.55,0,.81.36.81,1.04v1.69h-.45v-1.63c0-.5-.16-.71-.5-.71-.21,0-.42.14-.67.41v1.93h-.45v-1.63c0-.5-.16-.71-.5-.71-.2,0-.42.14-.67.41v1.93h-.45v-2.67Z"/>
    <path class="cls-4" d="M76.77,176.86c0-1.16.69-1.87,1.6-1.87.44,0,.78.21.99.44l-.25.3c-.19-.2-.43-.34-.73-.34-.68,0-1.13.56-1.13,1.46s.43,1.47,1.12,1.47c.34,0,.61-.15.84-.4l.25.29c-.28.33-.64.52-1.11.52-.9,0-1.57-.7-1.57-1.87Z"/>
    <path class="cls-4" d="M79.73,179.76l.09-.36c.05.02.13.04.2.04.3,0,.49-.24.6-.57l.06-.2-1.07-2.67h.47l.54,1.48c.08.23.17.51.26.75h.02c.08-.24.15-.52.22-.75l.48-1.48h.44l-1.01,2.89c-.19.53-.46.93-1,.93-.12,0-.23-.02-.31-.05Z"/>
    <path class="cls-4" d="M82.35,177.33c0-.89.6-1.4,1.28-1.4.35,0,.59.14.78.31l-.23.3c-.16-.14-.32-.24-.53-.24-.48,0-.84.42-.84,1.03s.33,1.02.83,1.02c.24,0,.46-.12.63-.27l.2.3c-.24.21-.54.34-.86.34-.71,0-1.25-.51-1.25-1.4Z"/>
    <path class="cls-4" d="M85.06,178.13v-3.38h.45v3.41c0,.14.06.19.13.19.03,0,.05,0,.1-.01l.06.34c-.06.02-.14.04-.26.04-.34,0-.48-.22-.48-.6Z"/>
    <path class="cls-4" d="M86.26,177.33c0-.87.59-1.4,1.2-1.4.68,0,1.07.49,1.07,1.25,0,.1,0,.19-.02.26h-1.8c.03.57.38.93.89.93.26,0,.47-.08.66-.21l.16.3c-.23.15-.52.28-.88.28-.71,0-1.28-.52-1.28-1.4ZM88.13,177.11c0-.54-.24-.83-.66-.83-.38,0-.71.3-.77.83h1.42Z"/>
  </g>
</svg>