<?xml version="1.0" encoding="UTF-8"?>
<svg id="Layer_8" data-name="Layer 8" xmlns="http://www.w3.org/2000/svg" viewBox="0 0 288 68.46">
  <defs>
    <style>
      .cls-1 {
        fill: #fffafc;
      }

      .cls-2 {
        fill: none;
        stroke: #d17c41;
        stroke-miterlimit: 10;
      }

      .cls-3 {
        fill: #848484;
      }

      .cls-4 {
        fill: #d17c41;
      }

      .cls-5 {
        fill: #a6b1a1;
      }

      .cls-6 {
        fill: #6c8480;
      }
    </style>
  </defs>
  <g>
    <rect class="cls-6" x="21.23" y="20.32" width="31.66" height="28.27" rx="2.91" ry="2.91"/>
    <g>
      <path class="cls-1" d="M25.15,32.43h1.03c.67,0,1.15.24,1.15.92s-.48.97-1.15.97h-.61v1.39h-.42v-3.29ZM26.12,33.99c.51,0,.79-.21.79-.63s-.28-.58-.79-.58h-.55v1.22h.55ZM26.1,34.21l.33-.22,1,1.72h-.47l-.86-1.5Z"/>
      <path class="cls-1" d="M27.78,35.09c0-.53.46-.79,1.49-.91,0-.31-.1-.62-.5-.62-.28,0-.54.13-.73.26l-.16-.28c.22-.15.57-.32.96-.32.59,0,.84.39.84,1v1.49h-.34l-.04-.29h-.01c-.23.19-.5.35-.8.35-.41,0-.71-.25-.71-.69ZM29.28,35.12v-.68c-.82.1-1.09.3-1.09.61,0,.28.19.39.43.39s.43-.11.66-.32Z"/>
      <path class="cls-1" d="M30.19,35.44l.2-.27c.21.17.43.29.72.29.32,0,.48-.17.48-.38,0-.25-.29-.36-.56-.46-.34-.12-.73-.29-.73-.7,0-.39.31-.69.84-.69.3,0,.57.12.76.27l-.2.26c-.17-.12-.34-.22-.55-.22-.31,0-.45.16-.45.35,0,.23.26.32.54.42.35.13.74.28.74.74,0,.39-.31.72-.89.72-.35,0-.68-.15-.91-.34Z"/>
      <path class="cls-1" d="M32.52,34.97v-1.35h-.36v-.31l.38-.02.05-.68h.34v.68h.66v.33h-.66v1.35c0,.3.1.47.38.47.09,0,.2-.03.28-.07l.08.31c-.14.05-.3.09-.45.09-.52,0-.69-.33-.69-.81Z"/>
      <path class="cls-1" d="M33.89,34.5c0-.79.53-1.28,1.09-1.28.62,0,.97.45.97,1.14,0,.09,0,.17-.02.23h-1.64c.03.51.34.85.81.85.23,0,.43-.08.61-.19l.15.27c-.21.14-.47.25-.8.25-.65,0-1.17-.47-1.17-1.27ZM35.59,34.31c0-.49-.22-.75-.6-.75-.34,0-.65.27-.7.75h1.3Z"/>
      <path class="cls-1" d="M36.55,33.28h.34l.03.44h.01c.17-.31.42-.5.69-.5.11,0,.18.01.26.05l-.08.36c-.08-.03-.14-.04-.24-.04-.21,0-.45.15-.62.56v1.56h-.41v-2.43Z"/>
      <path class="cls-1" d="M39.32,32.43h.42v2.93h1.43v.35h-1.85v-3.29Z"/>
      <path class="cls-1" d="M41.56,35.09c0-.53.46-.79,1.49-.91,0-.31-.1-.62-.5-.62-.28,0-.54.13-.73.26l-.16-.28c.22-.15.57-.32.96-.32.59,0,.84.39.84,1v1.49h-.34l-.04-.29h-.01c-.23.19-.5.35-.8.35-.41,0-.71-.25-.71-.69ZM43.06,35.12v-.68c-.82.1-1.09.3-1.09.61,0,.28.19.39.43.39s.43-.11.66-.32Z"/>
      <path class="cls-1" d="M43.99,36.72l.08-.33s.12.04.19.04c.27,0,.45-.22.55-.52l.06-.18-.98-2.44h.42l.5,1.35c.08.21.16.46.24.69h.02c.07-.22.14-.47.21-.69l.43-1.35h.4l-.92,2.63c-.17.48-.42.85-.91.85-.11,0-.21-.02-.29-.05Z"/>
      <path class="cls-1" d="M46.37,34.5c0-.79.53-1.28,1.09-1.28.62,0,.97.45.97,1.14,0,.09,0,.17-.02.23h-1.64c.03.51.34.85.81.85.23,0,.42-.08.61-.19l.15.27c-.21.14-.47.25-.8.25-.65,0-1.16-.47-1.16-1.27ZM48.07,34.31c0-.49-.22-.75-.6-.75-.34,0-.65.27-.7.75h1.3Z"/>
      <path class="cls-1" d="M49.03,33.28h.34l.04.44h.01c.17-.31.42-.5.69-.5.11,0,.18.01.26.05l-.08.36c-.08-.03-.14-.04-.24-.04-.21,0-.45.15-.62.56v1.56h-.41v-2.43Z"/>
    </g>
  </g>
  <g>
    <rect class="cls-5" x="64.51" y="20.19" width="91.23" height="28.27" rx="2.91" ry="2.91"/>
    <g>
      <path class="cls-1" d="M73.9,29.72l.25-.29c.24.25.56.41.91.41.43,0,.69-.21.69-.53,0-.34-.24-.44-.55-.58l-.47-.21c-.31-.13-.67-.36-.67-.85s.44-.87,1.03-.87c.39,0,.74.17.97.41l-.22.27c-.2-.19-.44-.31-.75-.31-.37,0-.61.19-.61.48,0,.32.29.43.54.54l.47.2c.38.16.68.39.68.88,0,.52-.43.93-1.12.93-.46,0-.86-.19-1.15-.49Z"/>
      <path class="cls-1" d="M76.59,28.93c0-.79.53-1.28,1.09-1.28.62,0,.97.45.97,1.14,0,.09,0,.17-.02.23h-1.64c.03.51.34.85.81.85.23,0,.42-.08.61-.19l.15.27c-.21.14-.47.25-.8.25-.65,0-1.16-.47-1.16-1.27ZM78.29,28.73c0-.49-.22-.75-.6-.75-.34,0-.65.27-.7.75h1.3Z"/>
      <path class="cls-1" d="M79.25,29.66v-3.08h.41v3.11c0,.13.05.18.11.18.02,0,.04,0,.09-.01l.06.31c-.06.02-.13.04-.24.04-.31,0-.44-.2-.44-.55Z"/>
      <path class="cls-1" d="M80.35,28.93c0-.79.53-1.28,1.09-1.28.62,0,.97.45.97,1.14,0,.09,0,.17-.02.23h-1.64c.03.51.34.85.81.85.23,0,.42-.08.61-.19l.15.27c-.21.14-.47.25-.8.25-.65,0-1.16-.47-1.16-1.27ZM82.05,28.73c0-.49-.22-.75-.6-.75-.34,0-.65.27-.7.75h1.3Z"/>
      <path class="cls-1" d="M82.83,28.93c0-.81.55-1.28,1.17-1.28.32,0,.54.13.71.29l-.21.27c-.14-.13-.29-.21-.48-.21-.44,0-.76.38-.76.94s.3.93.75.93c.22,0,.42-.11.57-.24l.18.28c-.22.19-.5.31-.79.31-.65,0-1.14-.47-1.14-1.27Z"/>
      <path class="cls-1" d="M85.31,29.39v-1.35h-.36v-.31l.38-.02.05-.68h.34v.68h.66v.33h-.66v1.35c0,.3.1.47.38.47.09,0,.2-.03.28-.07l.08.31c-.14.05-.3.09-.45.09-.52,0-.69-.33-.69-.81Z"/>
      <path class="cls-1" d="M87.78,29.51c0-.53.46-.79,1.49-.91,0-.31-.11-.62-.5-.62-.28,0-.54.13-.73.26l-.16-.28c.22-.15.56-.32.96-.32.59,0,.84.39.84,1v1.49h-.34l-.03-.29h-.01c-.23.19-.5.35-.8.35-.41,0-.71-.25-.71-.69ZM89.27,29.55v-.68c-.82.1-1.09.3-1.09.61,0,.28.19.39.43.39s.43-.11.67-.32Z"/>
      <path class="cls-1" d="M90.45,27.71h.34l.03.35h.01c.23-.23.48-.41.82-.41.51,0,.74.33.74.95v1.54h-.41v-1.49c0-.45-.14-.65-.46-.65-.25,0-.42.13-.67.37v1.76h-.41v-2.43Z"/>
      <path class="cls-1" d="M93.01,28.93c0-.79.5-1.28,1.05-1.28.28,0,.47.11.68.28l-.02-.42v-.94h.41v3.57h-.34l-.03-.29h-.01c-.19.19-.45.35-.74.35-.61,0-1-.46-1-1.27ZM94.73,29.53v-1.28c-.21-.18-.39-.25-.59-.25-.39,0-.7.38-.7.93,0,.58.24.93.67.93.22,0,.42-.11.62-.33Z"/>
      <path class="cls-1" d="M96.96,27.71h.34l.03.44h.01c.17-.31.42-.5.69-.5.11,0,.18.01.26.05l-.08.36c-.08-.03-.14-.04-.24-.04-.21,0-.45.15-.62.56v1.56h-.41v-2.43Z"/>
      <path class="cls-1" d="M98.46,28.93c0-.79.53-1.28,1.09-1.28.62,0,.97.45.97,1.14,0,.09,0,.17-.02.23h-1.64c.03.51.34.85.81.85.23,0,.43-.08.61-.19l.15.27c-.21.14-.47.25-.8.25-.65,0-1.17-.47-1.17-1.27ZM100.16,28.73c0-.49-.22-.75-.6-.75-.34,0-.65.27-.7.75h1.3Z"/>
      <path class="cls-1" d="M101.12,27.71h.34l.03.35h.01c.23-.23.48-.41.82-.41.51,0,.74.33.74.95v1.54h-.41v-1.49c0-.45-.14-.65-.46-.65-.25,0-.42.13-.67.37v1.76h-.41v-2.43Z"/>
      <path class="cls-1" d="M103.71,29.51c0-.53.46-.79,1.49-.91,0-.31-.11-.62-.5-.62-.28,0-.54.13-.73.26l-.16-.28c.22-.15.56-.32.96-.32.59,0,.84.39.84,1v1.49h-.34l-.03-.29h-.01c-.23.19-.5.35-.8.35-.41,0-.71-.25-.71-.69ZM105.2,29.55v-.68c-.82.1-1.09.3-1.09.61,0,.28.19.39.43.39s.43-.11.67-.32Z"/>
      <path class="cls-1" d="M106.38,27.71h.34l.03.35h.01c.21-.23.47-.41.76-.41.37,0,.57.18.67.46.25-.27.51-.46.8-.46.5,0,.74.33.74.95v1.54h-.41v-1.49c0-.45-.14-.65-.45-.65-.19,0-.38.12-.61.37v1.76h-.41v-1.49c0-.45-.14-.65-.45-.65-.18,0-.38.12-.61.37v1.76h-.41v-2.43Z"/>
      <path class="cls-1" d="M110.34,28.93c0-.79.53-1.28,1.09-1.28.62,0,.97.45.97,1.14,0,.09,0,.17-.02.23h-1.64c.03.51.34.85.81.85.23,0,.43-.08.61-.19l.15.27c-.21.14-.47.25-.8.25-.65,0-1.17-.47-1.17-1.27ZM112.04,28.73c0-.49-.22-.75-.6-.75-.34,0-.65.27-.7.75h1.3Z"/>
      <path class="cls-1" d="M113.85,29.51c0-.53.46-.79,1.49-.91,0-.31-.1-.62-.5-.62-.28,0-.54.13-.73.26l-.16-.28c.22-.15.57-.32.96-.32.59,0,.84.39.84,1v1.49h-.34l-.04-.29h-.01c-.23.19-.5.35-.8.35-.41,0-.71-.25-.71-.69ZM115.35,29.55v-.68c-.82.1-1.09.3-1.09.61,0,.28.19.39.43.39s.43-.11.66-.32Z"/>
      <path class="cls-1" d="M117.26,27.74l.35-.02h.91v.33h-1.26v-.31ZM117.59,27.33c0-.49.22-.81.71-.81.15,0,.29.04.4.08l-.09.31c-.09-.04-.19-.06-.28-.06-.23,0-.34.16-.34.47v2.82h-.41v-2.82Z"/>
      <path class="cls-1" d="M118.91,26.95c0-.16.12-.27.28-.27s.28.1.28.27-.12.27-.28.27-.28-.11-.28-.27ZM118.98,27.71h.41v2.43h-.41v-2.43Z"/>
      <path class="cls-1" d="M120.03,28.93c0-.79.53-1.28,1.09-1.28.62,0,.97.45.97,1.14,0,.09,0,.17-.02.23h-1.64c.03.51.34.85.81.85.23,0,.42-.08.61-.19l.15.27c-.21.14-.47.25-.8.25-.65,0-1.16-.47-1.16-1.27ZM121.73,28.73c0-.49-.22-.75-.6-.75-.34,0-.65.27-.7.75h1.3Z"/>
      <path class="cls-1" d="M122.69,29.66v-3.08h.41v3.11c0,.13.05.18.11.18.02,0,.04,0,.09-.01l.06.31c-.06.02-.13.04-.24.04-.31,0-.44-.2-.44-.55Z"/>
      <path class="cls-1" d="M123.79,28.93c0-.79.5-1.28,1.05-1.28.28,0,.47.11.68.28l-.02-.42v-.94h.41v3.57h-.34l-.04-.29h-.01c-.19.19-.45.35-.74.35-.61,0-1-.46-1-1.27ZM125.51,29.53v-1.28c-.21-.18-.39-.25-.59-.25-.39,0-.7.38-.7.93,0,.58.24.93.67.93.23,0,.42-.11.62-.33Z"/>
      <path class="cls-1" d="M127.48,27.74l.35-.02h.91v.33h-1.26v-.31ZM127.81,27.33c0-.49.22-.81.71-.81.15,0,.29.04.4.08l-.09.31c-.09-.04-.19-.06-.28-.06-.23,0-.34.16-.34.47v2.82h-.41v-2.82Z"/>
      <path class="cls-1" d="M129.2,27.71h.34l.04.44h.01c.17-.31.42-.5.69-.5.11,0,.18.01.26.05l-.08.36c-.08-.03-.14-.04-.24-.04-.21,0-.45.15-.62.56v1.56h-.41v-2.43Z"/>
      <path class="cls-1" d="M130.71,28.93c0-.81.53-1.28,1.13-1.28s1.13.47,1.13,1.28-.53,1.27-1.13,1.27-1.13-.47-1.13-1.27ZM132.54,28.93c0-.56-.28-.94-.7-.94s-.7.38-.7.94.28.93.7.93.7-.37.7-.93Z"/>
      <path class="cls-1" d="M133.6,27.71h.34l.03.35h.01c.21-.23.47-.41.76-.41.37,0,.57.18.67.46.25-.27.51-.46.8-.46.5,0,.74.33.74.95v1.54h-.41v-1.49c0-.45-.14-.65-.45-.65-.19,0-.38.12-.61.37v1.76h-.41v-1.49c0-.45-.14-.65-.45-.65-.18,0-.38.12-.61.37v1.76h-.41v-2.43Z"/>
      <path class="cls-1" d="M138.81,29.39v-1.35h-.36v-.31l.38-.02.05-.68h.34v.68h.66v.33h-.66v1.35c0,.3.1.47.38.47.09,0,.2-.03.28-.07l.08.31c-.14.05-.3.09-.45.09-.52,0-.69-.33-.69-.81Z"/>
      <path class="cls-1" d="M140.43,26.58h.41v1.47c.21-.22.46-.4.79-.4.51,0,.74.33.74.95v1.54h-.41v-1.49c0-.45-.14-.65-.46-.65-.25,0-.42.13-.67.37v1.76h-.41v-3.57Z"/>
      <path class="cls-1" d="M142.97,28.93c0-.79.53-1.28,1.09-1.28.62,0,.97.45.97,1.14,0,.09,0,.17-.02.23h-1.64c.03.51.34.85.81.85.23,0,.42-.08.61-.19l.15.27c-.21.14-.47.25-.8.25-.65,0-1.16-.47-1.16-1.27ZM144.67,28.73c0-.49-.22-.75-.6-.75-.34,0-.65.27-.7.75h1.3Z"/>
      <path class="cls-1" d="M72.84,32.95c0-.16.12-.27.29-.27s.28.1.28.27-.12.27-.28.27-.29-.11-.29-.27ZM72.92,33.71h.41v2.43h-.41v-2.43Z"/>
      <path class="cls-1" d="M74.15,33.71h.34l.04.35h.01c.23-.23.48-.41.82-.41.51,0,.74.33.74.95v1.54h-.41v-1.49c0-.45-.14-.65-.46-.65-.25,0-.42.13-.67.37v1.76h-.41v-2.43Z"/>
      <path class="cls-1" d="M76.88,33.71h.34l.03.28h.01c.22-.18.49-.34.78-.34.63,0,.96.49.96,1.24,0,.83-.5,1.31-1.05,1.31-.22,0-.45-.1-.67-.28v.42s.01.82.01.82h-.41v-3.46ZM78.58,34.9c0-.54-.18-.9-.64-.9-.21,0-.41.11-.65.33v1.28c.22.18.43.25.59.25.4,0,.7-.36.7-.96Z"/>
      <path class="cls-1" d="M79.62,35.25v-1.54h.41v1.49c0,.45.14.65.46.65.25,0,.42-.12.65-.41v-1.73h.41v2.43h-.34l-.04-.38h-.01c-.23.27-.47.44-.8.44-.51,0-.74-.33-.74-.95Z"/>
      <path class="cls-1" d="M82.45,35.39v-1.35h-.36v-.31l.38-.02.05-.68h.34v.68h.66v.33h-.66v1.35c0,.3.1.47.38.47.09,0,.2-.03.28-.07l.08.31c-.14.05-.3.09-.45.09-.52,0-.69-.33-.69-.81Z"/>
      <path class="cls-1" d="M85.06,33.71h.34l.04.44h.01c.17-.31.42-.5.69-.5.11,0,.18.01.26.05l-.08.36c-.08-.03-.14-.04-.24-.04-.21,0-.45.15-.62.56v1.56h-.41v-2.43Z"/>
      <path class="cls-1" d="M86.53,35.51c0-.53.46-.79,1.49-.91,0-.31-.1-.62-.5-.62-.28,0-.54.13-.73.26l-.16-.28c.22-.15.57-.32.96-.32.59,0,.84.39.84,1v1.49h-.34l-.04-.29h-.01c-.23.19-.5.35-.8.35-.41,0-.71-.25-.71-.69ZM88.02,35.55v-.68c-.82.1-1.09.3-1.09.61,0,.28.19.39.43.39s.43-.11.66-.32Z"/>
      <path class="cls-1" d="M88.93,35.87l.2-.27c.21.17.43.29.72.29.32,0,.48-.17.48-.38,0-.25-.29-.36-.56-.46-.34-.12-.73-.29-.73-.7,0-.39.31-.69.84-.69.3,0,.57.12.76.27l-.2.26c-.17-.12-.34-.22-.55-.22-.31,0-.45.16-.45.35,0,.23.26.32.54.42.35.13.74.28.74.74,0,.39-.31.72-.89.72-.35,0-.68-.15-.91-.34Z"/>
      <path class="cls-1" d="M91.27,35.39v-1.35h-.36v-.31l.38-.02.05-.68h.34v.68h.66v.33h-.66v1.35c0,.3.1.47.38.47.09,0,.2-.03.28-.07l.08.31c-.14.05-.3.09-.45.09-.52,0-.69-.33-.69-.81Z"/>
      <path class="cls-1" d="M92.63,34.93c0-.79.53-1.28,1.09-1.28.62,0,.97.45.97,1.14,0,.09,0,.17-.02.23h-1.64c.03.51.34.85.81.85.23,0,.43-.08.61-.19l.15.27c-.21.14-.47.25-.8.25-.65,0-1.17-.47-1.17-1.27ZM94.34,34.73c0-.49-.22-.75-.6-.75-.34,0-.65.27-.7.75h1.3Z"/>
      <path class="cls-1" d="M95.3,33.71h.34l.03.44h.01c.17-.31.42-.5.69-.5.11,0,.18.01.26.05l-.08.36c-.08-.03-.14-.04-.24-.04-.21,0-.45.15-.62.56v1.56h-.41v-2.43Z"/>
      <path class="cls-1" d="M98.03,35.66v-3.08h.41v3.11c0,.13.05.18.11.18.02,0,.04,0,.09-.01l.06.31c-.06.02-.13.04-.24.04-.31,0-.44-.2-.44-.55Z"/>
      <path class="cls-1" d="M99.15,35.51c0-.53.46-.79,1.49-.91,0-.31-.1-.62-.5-.62-.28,0-.54.13-.73.26l-.16-.28c.22-.15.57-.32.96-.32.59,0,.84.39.84,1v1.49h-.34l-.04-.29h-.01c-.23.19-.5.35-.8.35-.41,0-.71-.25-.71-.69ZM100.65,35.55v-.68c-.82.1-1.09.3-1.09.61,0,.28.19.39.43.39s.43-.11.66-.32Z"/>
      <path class="cls-1" d="M101.58,37.14l.08-.33s.12.04.19.04c.27,0,.45-.22.55-.52l.06-.18-.98-2.44h.42l.5,1.35c.08.21.16.46.24.69h.02c.07-.22.14-.47.21-.69l.43-1.35h.4l-.92,2.63c-.17.48-.42.85-.91.85-.11,0-.21-.02-.29-.05Z"/>
      <path class="cls-1" d="M103.96,34.93c0-.79.53-1.28,1.09-1.28.62,0,.97.45.97,1.14,0,.09,0,.17-.02.23h-1.64c.03.51.34.85.81.85.23,0,.42-.08.61-.19l.15.27c-.21.14-.47.25-.8.25-.65,0-1.16-.47-1.16-1.27ZM105.66,34.73c0-.49-.22-.75-.6-.75-.34,0-.65.27-.7.75h1.3Z"/>
      <path class="cls-1" d="M106.62,33.71h.34l.04.44h.01c.17-.31.42-.5.69-.5.11,0,.18.01.26.05l-.08.36c-.08-.03-.14-.04-.24-.04-.21,0-.45.15-.62.56v1.56h-.41v-2.43Z"/>
      <path class="cls-1" d="M109.43,35.39v-1.35h-.36v-.31l.38-.02.05-.68h.34v.68h.66v.33h-.66v1.35c0,.3.1.47.38.47.09,0,.2-.03.28-.07l.08.31c-.14.05-.3.09-.45.09-.52,0-.69-.33-.69-.81Z"/>
      <path class="cls-1" d="M110.79,34.93c0-.81.53-1.28,1.13-1.28s1.13.47,1.13,1.28-.53,1.27-1.13,1.27-1.13-.47-1.13-1.27ZM112.62,34.93c0-.56-.28-.94-.7-.94s-.7.38-.7.94.28.93.7.93.7-.37.7-.93Z"/>
      <path class="cls-1" d="M115.05,35.89h-.01l-.04.25h-.33v-3.57h.41v1.41c.21-.19.48-.34.75-.34.63,0,.97.49.97,1.24,0,.83-.5,1.31-1.05,1.31-.23,0-.48-.12-.69-.31ZM116.37,34.9c0-.54-.18-.9-.64-.9-.21,0-.42.11-.65.33v1.28c.21.18.43.25.59.25.4,0,.7-.36.7-.96Z"/>
      <path class="cls-1" d="M117.25,34.93c0-.79.53-1.28,1.09-1.28.62,0,.97.45.97,1.14,0,.09,0,.17-.02.23h-1.64c.03.51.34.85.81.85.23,0,.43-.08.61-.19l.15.27c-.21.14-.47.25-.8.25-.65,0-1.17-.47-1.17-1.27ZM118.95,34.73c0-.49-.22-.75-.6-.75-.34,0-.65.27-.7.75h1.3Z"/>
      <path class="cls-1" d="M120.98,35.39v-1.35h-.36v-.31l.38-.02.05-.68h.34v.68h.66v.33h-.66v1.35c0,.3.1.47.38.47.09,0,.2-.03.28-.07l.08.31c-.14.05-.3.09-.45.09-.52,0-.69-.33-.69-.81Z"/>
      <path class="cls-1" d="M122.6,33.71h.34l.04.44h.01c.17-.31.42-.5.69-.5.11,0,.18.01.26.05l-.08.36c-.08-.03-.14-.04-.24-.04-.21,0-.45.15-.62.56v1.56h-.41v-2.43Z"/>
      <path class="cls-1" d="M124.06,35.51c0-.53.46-.79,1.49-.91,0-.31-.11-.62-.5-.62-.28,0-.54.13-.73.26l-.16-.28c.22-.15.56-.32.96-.32.59,0,.84.39.84,1v1.49h-.34l-.03-.29h-.01c-.23.19-.5.35-.8.35-.41,0-.71-.25-.71-.69ZM125.56,35.55v-.68c-.82.1-1.09.3-1.09.61,0,.28.19.39.43.39s.43-.11.67-.32Z"/>
      <path class="cls-1" d="M126.73,33.71h.34l.03.35h.01c.23-.23.48-.41.82-.41.51,0,.74.33.74.95v1.54h-.41v-1.49c0-.45-.14-.65-.46-.65-.25,0-.42.13-.67.37v1.76h-.41v-2.43Z"/>
      <path class="cls-1" d="M129.2,35.87l.2-.27c.21.17.43.29.72.29.32,0,.48-.17.48-.38,0-.25-.29-.36-.56-.46-.34-.12-.73-.29-.73-.7,0-.39.31-.69.84-.69.3,0,.57.12.76.27l-.2.26c-.17-.12-.34-.22-.55-.22-.31,0-.45.16-.45.35,0,.23.26.32.54.42.35.13.74.28.74.74,0,.39-.31.72-.89.72-.35,0-.68-.15-.91-.34Z"/>
      <path class="cls-1" d="M131.3,33.74l.35-.02h.91v.33h-1.26v-.31ZM131.63,33.33c0-.49.22-.81.71-.81.15,0,.29.04.4.08l-.09.31c-.09-.04-.19-.06-.28-.06-.23,0-.34.16-.34.47v2.82h-.41v-2.82Z"/>
      <path class="cls-1" d="M132.79,34.93c0-.81.53-1.28,1.13-1.28s1.13.47,1.13,1.28-.53,1.27-1.13,1.27-1.13-.47-1.13-1.27ZM134.62,34.93c0-.56-.28-.94-.7-.94s-.7.38-.7.94.28.93.7.93.7-.37.7-.93Z"/>
      <path class="cls-1" d="M135.68,33.71h.34l.04.44h.01c.17-.31.42-.5.69-.5.11,0,.18.01.26.05l-.08.36c-.08-.03-.14-.04-.24-.04-.21,0-.45.15-.62.56v1.56h-.41v-2.43Z"/>
      <path class="cls-1" d="M137.42,33.71h.34l.03.35h.01c.21-.23.47-.41.76-.41.37,0,.57.18.67.46.25-.27.51-.46.8-.46.5,0,.74.33.74.95v1.54h-.41v-1.49c0-.45-.14-.65-.45-.65-.19,0-.38.12-.61.37v1.76h-.41v-1.49c0-.45-.14-.65-.45-.65-.18,0-.38.12-.61.37v1.76h-.41v-2.43Z"/>
      <path class="cls-1" d="M141.38,34.93c0-.79.53-1.28,1.09-1.28.62,0,.97.45.97,1.14,0,.09,0,.17-.02.23h-1.64c.03.51.34.85.81.85.23,0,.43-.08.61-.19l.15.27c-.21.14-.47.25-.8.25-.65,0-1.17-.47-1.17-1.27ZM143.08,34.73c0-.49-.22-.75-.6-.75-.34,0-.65.27-.7.75h1.3Z"/>
      <path class="cls-1" d="M143.87,34.93c0-.79.5-1.28,1.05-1.28.28,0,.47.11.68.28l-.02-.42v-.94h.41v3.57h-.34l-.04-.29h-.01c-.19.19-.45.35-.74.35-.61,0-1-.46-1-1.27ZM145.59,35.53v-1.28c-.21-.18-.39-.25-.59-.25-.39,0-.7.38-.7.93,0,.58.24.93.67.93.23,0,.42-.11.62-.33Z"/>
      <path class="cls-1" d="M69.19,38.95c0-.16.12-.27.28-.27s.28.1.28.27-.12.27-.28.27-.28-.11-.28-.27ZM69.27,39.71h.41v2.43h-.41v-2.43Z"/>
      <path class="cls-1" d="M70.5,39.71h.34l.03.35h.01c.23-.23.48-.41.82-.41.51,0,.74.33.74.95v1.54h-.41v-1.49c0-.45-.14-.65-.46-.65-.25,0-.42.13-.67.37v1.76h-.41v-2.43Z"/>
      <path class="cls-1" d="M73.3,41.39v-1.35h-.36v-.31l.38-.02.05-.68h.34v.68h.66v.33h-.66v1.35c0,.3.1.47.38.47.09,0,.2-.03.28-.07l.08.31c-.14.05-.3.09-.45.09-.52,0-.69-.33-.69-.81Z"/>
      <path class="cls-1" d="M74.67,40.93c0-.81.53-1.28,1.13-1.28s1.13.47,1.13,1.28-.53,1.27-1.13,1.27-1.13-.47-1.13-1.27ZM76.5,40.93c0-.56-.28-.94-.7-.94s-.7.38-.7.94.28.93.7.93.7-.37.7-.93Z"/>
      <path class="cls-1" d="M78.39,41.51c0-.53.46-.79,1.49-.91,0-.31-.1-.62-.5-.62-.28,0-.54.13-.73.26l-.16-.28c.22-.15.57-.32.96-.32.59,0,.84.39.84,1v1.49h-.34l-.04-.29h-.01c-.23.19-.5.35-.8.35-.41,0-.71-.25-.71-.69ZM79.88,41.55v-.68c-.82.1-1.09.3-1.09.61,0,.28.19.39.43.39s.43-.11.66-.32Z"/>
      <path class="cls-1" d="M81.06,39.71h.34l.04.35h.01c.23-.23.48-.41.82-.41.51,0,.74.33.74.95v1.54h-.41v-1.49c0-.45-.14-.65-.46-.65-.25,0-.42.13-.67.37v1.76h-.41v-2.43Z"/>
      <path class="cls-1" d="M84.64,41.51c0-.53.46-.79,1.49-.91,0-.31-.1-.62-.5-.62-.28,0-.54.13-.73.26l-.16-.28c.22-.15.57-.32.96-.32.59,0,.84.39.84,1v1.49h-.34l-.04-.29h-.01c-.23.19-.5.35-.8.35-.41,0-.71-.25-.71-.69ZM86.14,41.55v-.68c-.82.1-1.09.3-1.09.61,0,.28.19.39.43.39s.43-.11.66-.32Z"/>
      <path class="cls-1" d="M87.32,41.39v-1.35h-.36v-.31l.38-.02.05-.68h.34v.68h.66v.33h-.66v1.35c0,.3.1.47.38.47.09,0,.2-.03.28-.07l.08.31c-.14.05-.3.09-.45.09-.52,0-.69-.33-.69-.81Z"/>
      <path class="cls-1" d="M88.91,41.39v-1.35h-.36v-.31l.38-.02.05-.68h.34v.68h.66v.33h-.66v1.35c0,.3.1.47.38.47.09,0,.2-.03.28-.07l.08.31c-.14.05-.3.09-.45.09-.52,0-.69-.33-.69-.81Z"/>
      <path class="cls-1" d="M90.52,39.71h.34l.04.44h.01c.17-.31.42-.5.69-.5.11,0,.18.01.26.05l-.08.36c-.08-.03-.14-.04-.24-.04-.21,0-.45.15-.62.56v1.56h-.41v-2.43Z"/>
      <path class="cls-1" d="M92.18,38.95c0-.16.12-.27.29-.27s.28.1.28.27-.12.27-.28.27-.29-.11-.29-.27ZM92.26,39.71h.41v2.43h-.41v-2.43Z"/>
      <path class="cls-1" d="M93.87,41.89h-.01l-.04.25h-.33v-3.57h.41v1.41c.21-.19.48-.34.75-.34.63,0,.97.49.97,1.24,0,.83-.5,1.31-1.05,1.31-.23,0-.48-.12-.69-.31ZM95.19,40.9c0-.54-.18-.9-.64-.9-.21,0-.42.11-.65.33v1.28c.21.18.43.25.59.25.4,0,.7-.36.7-.96Z"/>
      <path class="cls-1" d="M96.22,41.25v-1.54h.41v1.49c0,.45.14.65.46.65.25,0,.42-.12.65-.41v-1.73h.41v2.43h-.34l-.04-.38h-.01c-.23.27-.47.44-.8.44-.51,0-.74-.33-.74-.95Z"/>
      <path class="cls-1" d="M99.05,41.39v-1.35h-.36v-.31l.38-.02.05-.68h.34v.68h.66v.33h-.66v1.35c0,.3.1.47.38.47.09,0,.2-.03.28-.07l.08.31c-.14.05-.3.09-.45.09-.52,0-.69-.33-.69-.81Z"/>
      <path class="cls-1" d="M100.41,40.93c0-.79.53-1.28,1.09-1.28.62,0,.97.45.97,1.14,0,.09,0,.17-.02.23h-1.64c.03.51.34.85.81.85.23,0,.42-.08.61-.19l.15.27c-.21.14-.47.25-.8.25-.65,0-1.16-.47-1.16-1.27ZM102.11,40.73c0-.49-.22-.75-.6-.75-.34,0-.65.27-.7.75h1.3Z"/>
      <path class="cls-1" d="M105.15,41.39v-1.35h-.36v-.31l.38-.02.05-.68h.34v.68h.66v.33h-.66v1.35c0,.3.1.47.38.47.09,0,.2-.03.28-.07l.08.31c-.14.05-.3.09-.45.09-.52,0-.69-.33-.69-.81Z"/>
      <path class="cls-1" d="M106.51,41.51c0-.53.46-.79,1.49-.91,0-.31-.11-.62-.5-.62-.28,0-.54.13-.73.26l-.16-.28c.22-.15.56-.32.96-.32.59,0,.84.39.84,1v1.49h-.34l-.03-.29h-.01c-.23.19-.5.35-.8.35-.41,0-.71-.25-.71-.69ZM108,41.55v-.68c-.82.1-1.09.3-1.09.61,0,.28.19.39.43.39s.43-.11.67-.32Z"/>
      <path class="cls-1" d="M109.56,41.89h-.01l-.04.25h-.33v-3.57h.41v1.41c.21-.19.48-.34.75-.34.63,0,.97.49.97,1.24,0,.83-.5,1.31-1.05,1.31-.23,0-.48-.12-.69-.31ZM110.88,40.9c0-.54-.18-.9-.64-.9-.21,0-.42.11-.65.33v1.28c.21.18.43.25.59.25.4,0,.7-.36.7-.96Z"/>
      <path class="cls-1" d="M111.93,41.66v-3.08h.41v3.11c0,.13.05.18.12.18.02,0,.04,0,.09-.01l.06.31c-.06.02-.13.04-.24.04-.31,0-.43-.2-.43-.55Z"/>
      <path class="cls-1" d="M113.02,40.93c0-.79.53-1.28,1.09-1.28.62,0,.97.45.97,1.14,0,.09,0,.17-.02.23h-1.64c.03.51.34.85.81.85.23,0,.43-.08.61-.19l.15.27c-.21.14-.47.25-.8.25-.65,0-1.17-.47-1.17-1.27ZM114.72,40.73c0-.49-.22-.75-.6-.75-.34,0-.65.27-.7.75h1.3Z"/>
      <path class="cls-1" d="M116.42,39.74l.35-.02h.91v.33h-1.26v-.31ZM116.75,39.33c0-.49.22-.81.71-.81.15,0,.29.04.4.08l-.09.31c-.09-.04-.19-.06-.28-.06-.23,0-.34.16-.34.47v2.82h-.41v-2.82Z"/>
      <path class="cls-1" d="M117.91,40.93c0-.81.53-1.28,1.13-1.28s1.13.47,1.13,1.28-.53,1.27-1.13,1.27-1.13-.47-1.13-1.27ZM119.74,40.93c0-.56-.28-.94-.7-.94s-.7.38-.7.94.28.93.7.93.7-.37.7-.93Z"/>
      <path class="cls-1" d="M120.8,39.71h.34l.03.44h.01c.17-.31.42-.5.69-.5.11,0,.18.01.26.05l-.08.36c-.08-.03-.14-.04-.24-.04-.21,0-.45.15-.62.56v1.56h-.41v-2.43Z"/>
      <path class="cls-1" d="M123.38,41.51c0-.53.46-.79,1.49-.91,0-.31-.11-.62-.5-.62-.28,0-.54.13-.73.26l-.16-.28c.22-.15.56-.32.96-.32.59,0,.84.39.84,1v1.49h-.34l-.03-.29h-.01c-.23.19-.5.35-.8.35-.41,0-.71-.25-.71-.69ZM124.88,41.55v-.68c-.82.1-1.09.3-1.09.61,0,.28.19.39.43.39s.43-.11.67-.32Z"/>
      <path class="cls-1" d="M126.7,39.71h.42l.46,1.38c.07.24.15.49.22.72h.02c.07-.23.15-.48.22-.72l.46-1.38h.4l-.86,2.43h-.48l-.88-2.43Z"/>
      <path class="cls-1" d="M129.19,40.93c0-.79.53-1.28,1.09-1.28.62,0,.97.45.97,1.14,0,.09,0,.17-.02.23h-1.64c.03.51.34.85.81.85.23,0,.43-.08.61-.19l.15.27c-.21.14-.47.25-.8.25-.65,0-1.17-.47-1.17-1.27ZM130.89,40.73c0-.49-.22-.75-.6-.75-.34,0-.65.27-.7.75h1.3Z"/>
      <path class="cls-1" d="M131.67,40.93c0-.81.55-1.28,1.17-1.28.32,0,.54.13.71.29l-.21.27c-.14-.13-.29-.21-.48-.21-.44,0-.76.38-.76.94s.31.93.75.93c.22,0,.42-.11.57-.24l.18.28c-.22.19-.49.31-.79.31-.65,0-1.14-.47-1.14-1.27Z"/>
      <path class="cls-1" d="M134.15,41.39v-1.35h-.36v-.31l.38-.02.05-.68h.34v.68h.66v.33h-.66v1.35c0,.3.1.47.38.47.09,0,.2-.03.28-.07l.08.31c-.14.05-.3.09-.45.09-.52,0-.69-.33-.69-.81Z"/>
      <path class="cls-1" d="M135.52,40.93c0-.81.53-1.28,1.13-1.28s1.13.47,1.13,1.28-.53,1.27-1.13,1.27-1.13-.47-1.13-1.27ZM137.35,40.93c0-.56-.28-.94-.7-.94s-.7.38-.7.94.28.93.7.93.7-.37.7-.93Z"/>
      <path class="cls-1" d="M138.41,39.71h.34l.03.44h.01c.17-.31.42-.5.69-.5.11,0,.18.01.26.05l-.08.36c-.08-.03-.14-.04-.24-.04-.21,0-.45.15-.62.56v1.56h-.41v-2.43Z"/>
      <path class="cls-1" d="M141.14,41.66v-3.08h.41v3.11c0,.13.05.18.11.18.02,0,.04,0,.09-.01l.06.31c-.06.02-.13.04-.24.04-.31,0-.44-.2-.44-.55Z"/>
      <path class="cls-1" d="M142.27,41.51c0-.53.46-.79,1.49-.91,0-.31-.11-.62-.5-.62-.28,0-.54.13-.73.26l-.16-.28c.22-.15.56-.32.96-.32.59,0,.84.39.84,1v1.49h-.34l-.03-.29h-.01c-.23.19-.5.35-.8.35-.41,0-.71-.25-.71-.69ZM143.76,41.55v-.68c-.82.1-1.09.3-1.09.61,0,.28.19.39.43.39s.43-.11.67-.32Z"/>
      <path class="cls-1" d="M144.69,43.14l.08-.33s.12.04.19.04c.27,0,.45-.22.55-.52l.06-.18-.98-2.44h.42l.5,1.35c.08.21.16.46.24.69h.02c.07-.22.14-.47.21-.69l.43-1.35h.4l-.92,2.63c-.17.48-.42.85-.91.85-.11,0-.21-.02-.29-.05Z"/>
      <path class="cls-1" d="M147.07,40.93c0-.79.53-1.28,1.09-1.28.62,0,.97.45.97,1.14,0,.09,0,.17-.02.23h-1.64c.03.51.34.85.81.85.23,0,.43-.08.61-.19l.15.27c-.21.14-.47.25-.8.25-.65,0-1.17-.47-1.17-1.27ZM148.77,40.73c0-.49-.22-.75-.6-.75-.34,0-.65.27-.7.75h1.3Z"/>
      <path class="cls-1" d="M149.73,39.71h.34l.04.44h.01c.17-.31.42-.5.69-.5.11,0,.18.01.26.05l-.08.36c-.08-.03-.14-.04-.24-.04-.21,0-.45.15-.62.56v1.56h-.41v-2.43Z"/>
    </g>
  </g>
  <g>
    <rect class="cls-5" x="167.9" y="19.98" width="48.38" height="28.27" rx="2.91" ry="2.91"/>
    <g>
      <path class="cls-1" d="M173.71,29.22h.82c1.01,0,1.55.59,1.55,1.63s-.54,1.65-1.53,1.65h-.84v-3.29ZM174.5,32.16c.77,0,1.15-.48,1.15-1.31s-.38-1.29-1.15-1.29h-.37v2.6h.37Z"/>
      <path class="cls-1" d="M176.57,31.29c0-.79.53-1.28,1.09-1.28.62,0,.97.45.97,1.14,0,.09,0,.17-.02.23h-1.64c.03.51.34.85.81.85.23,0,.42-.08.61-.19l.15.27c-.21.14-.47.25-.8.25-.65,0-1.16-.47-1.16-1.27ZM178.27,31.1c0-.49-.22-.75-.6-.75-.34,0-.65.27-.7.75h1.3Z"/>
      <path class="cls-1" d="M178.95,30.1l.35-.02h.91v.33h-1.26v-.31ZM179.29,29.69c0-.49.22-.81.71-.81.15,0,.29.04.4.08l-.09.31c-.09-.04-.19-.06-.28-.06-.23,0-.34.16-.34.47v2.82h-.41v-2.82Z"/>
      <path class="cls-1" d="M180.6,29.31c0-.16.12-.27.28-.27s.29.1.29.27-.12.27-.29.27-.28-.11-.28-.27ZM180.68,30.07h.41v2.43h-.41v-2.43Z"/>
      <path class="cls-1" d="M181.91,30.07h.34l.04.35h.01c.23-.23.48-.41.82-.41.51,0,.74.33.74.95v1.54h-.41v-1.49c0-.45-.14-.65-.46-.65-.25,0-.42.13-.66.37v1.76h-.41v-2.43Z"/>
      <path class="cls-1" d="M184.46,31.29c0-.79.53-1.28,1.09-1.28.62,0,.97.45.97,1.14,0,.09,0,.17-.02.23h-1.64c.03.51.34.85.81.85.23,0,.42-.08.61-.19l.15.27c-.21.14-.47.25-.8.25-.65,0-1.16-.47-1.16-1.27ZM186.16,31.1c0-.49-.22-.75-.6-.75-.34,0-.65.27-.7.75h1.3Z"/>
      <path class="cls-1" d="M188.19,31.76v-1.35h-.36v-.31l.38-.02.05-.68h.34v.68h.66v.33h-.66v1.35c0,.3.1.47.38.47.09,0,.2-.03.28-.07l.08.31c-.14.05-.3.09-.45.09-.52,0-.69-.33-.69-.81Z"/>
      <path class="cls-1" d="M189.81,28.94h.41v1.47c.21-.22.46-.4.79-.4.51,0,.74.33.74.95v1.54h-.41v-1.49c0-.45-.14-.65-.46-.65-.25,0-.42.13-.67.37v1.76h-.41v-3.57Z"/>
      <path class="cls-1" d="M192.35,31.29c0-.79.53-1.28,1.09-1.28.62,0,.97.45.97,1.14,0,.09,0,.17-.02.23h-1.64c.03.51.34.85.81.85.23,0,.42-.08.61-.19l.15.27c-.21.14-.47.25-.8.25-.65,0-1.17-.47-1.17-1.27ZM194.05,31.1c0-.49-.22-.75-.6-.75-.34,0-.65.27-.7.75h1.3Z"/>
      <path class="cls-1" d="M195.83,31.29c0-.81.53-1.28,1.13-1.28s1.13.47,1.13,1.28-.53,1.27-1.13,1.27-1.13-.47-1.13-1.27ZM197.66,31.29c0-.56-.28-.94-.7-.94s-.7.38-.7.94.28.93.7.93.7-.37.7-.93Z"/>
      <path class="cls-1" d="M198.69,31.62v-1.54h.41v1.49c0,.45.14.65.46.65.25,0,.42-.12.65-.41v-1.73h.41v2.43h-.34l-.04-.38h-.01c-.22.27-.47.44-.8.44-.51,0-.74-.33-.74-.95Z"/>
      <path class="cls-1" d="M201.51,31.76v-1.35h-.36v-.31l.38-.02.05-.68h.34v.68h.66v.33h-.66v1.35c0,.3.1.47.38.47.09,0,.2-.03.28-.07l.08.31c-.14.05-.3.09-.45.09-.52,0-.69-.33-.69-.81Z"/>
      <path class="cls-1" d="M203.13,30.07h.34l.04.28h.01c.22-.18.49-.34.78-.34.63,0,.96.49.96,1.24,0,.83-.5,1.31-1.05,1.31-.22,0-.45-.1-.67-.28v.42s.01.82.01.82h-.41v-3.46ZM204.84,31.26c0-.54-.18-.9-.64-.9-.21,0-.41.11-.65.33v1.28c.22.18.43.25.59.25.4,0,.7-.36.7-.96Z"/>
      <path class="cls-1" d="M205.87,31.62v-1.54h.41v1.49c0,.45.14.65.46.65.25,0,.42-.12.65-.41v-1.73h.41v2.43h-.34l-.04-.38h-.01c-.23.27-.47.44-.8.44-.51,0-.74-.33-.74-.95Z"/>
      <path class="cls-1" d="M208.7,31.76v-1.35h-.36v-.31l.38-.02.05-.68h.34v.68h.66v.33h-.66v1.35c0,.3.1.47.38.47.09,0,.2-.03.28-.07l.08.31c-.14.05-.3.09-.45.09-.52,0-.69-.33-.69-.81Z"/>
      <path class="cls-1" d="M174.28,37.29c0-.79.5-1.28,1.05-1.28.28,0,.47.11.68.28l-.02-.42v-.94h.41v3.57h-.34l-.04-.29h-.01c-.19.19-.45.35-.74.35-.61,0-1-.46-1-1.27ZM176,37.89v-1.28c-.21-.18-.39-.25-.59-.25-.39,0-.7.38-.7.93,0,.58.24.93.67.93.22,0,.42-.11.62-.33Z"/>
      <path class="cls-1" d="M177.08,37.88c0-.53.46-.79,1.49-.91,0-.31-.1-.62-.5-.62-.28,0-.54.13-.73.26l-.16-.28c.22-.15.57-.32.96-.32.59,0,.84.39.84,1v1.49h-.34l-.03-.29h-.01c-.23.19-.5.35-.8.35-.41,0-.71-.25-.71-.69ZM178.57,37.91v-.68c-.82.1-1.09.3-1.09.61,0,.28.19.39.43.39s.43-.11.67-.32Z"/>
      <path class="cls-1" d="M179.75,37.76v-1.35h-.36v-.31l.38-.02.05-.68h.34v.68h.66v.33h-.66v1.35c0,.3.1.47.38.47.09,0,.2-.03.28-.07l.08.31c-.14.05-.3.09-.45.09-.52,0-.69-.33-.69-.81Z"/>
      <path class="cls-1" d="M181.11,37.88c0-.53.46-.79,1.49-.91,0-.31-.1-.62-.5-.62-.28,0-.54.13-.73.26l-.16-.28c.22-.15.57-.32.96-.32.59,0,.84.39.84,1v1.49h-.34l-.03-.29h-.01c-.23.19-.5.35-.8.35-.41,0-.71-.25-.71-.69ZM182.61,37.91v-.68c-.82.1-1.09.3-1.09.61,0,.28.19.39.43.39s.43-.11.67-.32Z"/>
      <path class="cls-1" d="M184.63,37.88c0-.53.46-.79,1.49-.91,0-.31-.11-.62-.5-.62-.28,0-.54.13-.73.26l-.16-.28c.22-.15.56-.32.96-.32.59,0,.84.39.84,1v1.49h-.34l-.03-.29h-.01c-.23.19-.5.35-.8.35-.41,0-.71-.25-.71-.69ZM186.13,37.91v-.68c-.82.1-1.09.3-1.09.61,0,.28.19.39.43.39s.43-.11.67-.32Z"/>
      <path class="cls-1" d="M187.3,36.07h.34l.04.35h.01c.23-.23.48-.41.82-.41.51,0,.74.33.74.95v1.54h-.41v-1.49c0-.45-.14-.65-.46-.65-.25,0-.42.13-.67.37v1.76h-.41v-2.43Z"/>
      <path class="cls-1" d="M189.86,37.29c0-.79.5-1.28,1.05-1.28.28,0,.47.11.68.28l-.02-.42v-.94h.41v3.57h-.34l-.03-.29h-.01c-.19.19-.45.35-.74.35-.61,0-1-.46-1-1.27ZM191.58,37.89v-1.28c-.21-.18-.39-.25-.59-.25-.39,0-.7.38-.7.93,0,.58.24.93.67.93.23,0,.42-.11.62-.33Z"/>
      <path class="cls-1" d="M193.55,36.1l.35-.02h.91v.33h-1.26v-.31ZM193.88,35.69c0-.49.22-.81.71-.81.15,0,.29.04.4.08l-.09.31c-.09-.04-.19-.06-.28-.06-.23,0-.34.16-.34.47v2.82h-.41v-2.82Z"/>
      <path class="cls-1" d="M195.2,35.31c0-.16.12-.27.29-.27s.28.1.28.27-.12.27-.28.27-.29-.11-.29-.27ZM195.27,36.07h.41v2.43h-.41v-2.43Z"/>
      <path class="cls-1" d="M196.5,38.02v-3.08h.41v3.11c0,.13.05.18.12.18.02,0,.04,0,.09-.01l.06.31c-.06.02-.13.04-.24.04-.31,0-.44-.2-.44-.55Z"/>
      <path class="cls-1" d="M197.6,37.29c0-.79.53-1.28,1.09-1.28.62,0,.97.45.97,1.14,0,.09,0,.17-.02.23h-1.64c.03.51.34.85.81.85.23,0,.42-.08.61-.19l.15.27c-.21.14-.47.25-.8.25-.65,0-1.16-.47-1.16-1.27ZM199.3,37.1c0-.49-.22-.75-.6-.75-.34,0-.65.27-.7.75h1.3Z"/>
      <path class="cls-1" d="M201.33,37.76v-1.35h-.36v-.31l.38-.02.05-.68h.34v.68h.66v.33h-.66v1.35c0,.3.1.47.38.47.09,0,.2-.03.28-.07l.08.31c-.14.05-.3.09-.45.09-.52,0-.69-.33-.69-.81Z"/>
      <path class="cls-1" d="M202.7,39.51l.08-.33s.12.04.19.04c.27,0,.45-.22.55-.52l.06-.18-.98-2.44h.42l.5,1.35c.08.21.16.46.24.69h.02c.07-.22.14-.47.2-.69l.43-1.35h.4l-.92,2.63c-.17.48-.42.85-.91.85-.11,0-.21-.02-.29-.05Z"/>
      <path class="cls-1" d="M205.28,36.07h.34l.03.28h.01c.22-.18.49-.34.78-.34.63,0,.96.49.96,1.24,0,.83-.5,1.31-1.05,1.31-.22,0-.45-.1-.67-.28v.42s.01.82.01.82h-.41v-3.46ZM206.99,37.26c0-.54-.18-.9-.64-.9-.21,0-.41.11-.65.33v1.28c.22.18.43.25.59.25.4,0,.7-.36.7-.96Z"/>
      <path class="cls-1" d="M207.88,37.29c0-.79.53-1.28,1.09-1.28.62,0,.97.45.97,1.14,0,.09,0,.17-.02.23h-1.64c.03.51.35.85.81.85.23,0,.43-.08.61-.19l.15.27c-.21.14-.47.25-.8.25-.65,0-1.16-.47-1.16-1.27ZM209.58,37.1c0-.49-.22-.75-.6-.75-.34,0-.65.27-.7.75h1.3Z"/>
    </g>
  </g>
  <g>
    <line class="cls-2" x1="52.85" y1="35.41" x2="61.82" y2="35.41"/>
    <polygon class="cls-4" points="61.23 37.4 64.69 35.41 61.23 33.41 61.23 37.4"/>
  </g>
  <g>
    <line class="cls-2" x1="155.78" y1="35.2" x2="164.87" y2="35.2"/>
    <polygon class="cls-4" points="164.29 37.2 167.74 35.2 164.29 33.21 164.29 37.2"/>
  </g>
  <g>
    <line class="cls-2" x1="216.25" y1="35.31" x2="225.22" y2="35.31"/>
    <polygon class="cls-4" points="224.64 37.31 228.09 35.31 224.64 33.32 224.64 37.31"/>
  </g>
  <g>
    <rect class="cls-6" x="228.09" y="20.32" width="31.66" height="28.27" rx="2.91" ry="2.91"/>
    <g>
      <path class="cls-1" d="M231.5,32.43h.44l.53,1.78c.12.39.19.7.32,1.08h.02c.12-.38.2-.7.32-1.08l.53-1.78h.43l-1.04,3.29h-.48l-1.05-3.29Z"/>
      <path class="cls-1" d="M234.23,34.5c0-.79.53-1.28,1.09-1.28.62,0,.97.45.97,1.14,0,.09,0,.17-.02.23h-1.64c.03.51.34.85.81.85.23,0,.42-.08.61-.19l.15.27c-.21.14-.47.25-.8.25-.65,0-1.16-.47-1.16-1.27ZM235.93,34.3c0-.49-.22-.75-.6-.75-.34,0-.65.27-.7.75h1.3Z"/>
      <path class="cls-1" d="M236.71,34.5c0-.81.55-1.28,1.17-1.28.32,0,.54.13.71.29l-.21.27c-.14-.13-.29-.21-.48-.21-.44,0-.76.38-.76.94s.3.93.75.93c.22,0,.42-.11.57-.24l.18.28c-.22.19-.5.31-.79.31-.65,0-1.14-.47-1.14-1.27Z"/>
      <path class="cls-1" d="M239.2,34.96v-1.35h-.36v-.31l.38-.02.05-.68h.34v.68h.66v.33h-.66v1.35c0,.3.1.47.38.47.09,0,.2-.03.28-.07l.08.31c-.14.05-.3.09-.45.09-.52,0-.69-.33-.69-.81Z"/>
      <path class="cls-1" d="M240.56,34.5c0-.81.53-1.28,1.13-1.28s1.13.47,1.13,1.28-.53,1.27-1.13,1.27-1.13-.47-1.13-1.27ZM242.39,34.5c0-.56-.28-.94-.7-.94s-.7.38-.7.94.28.93.7.93.7-.37.7-.93Z"/>
      <path class="cls-1" d="M243.45,33.28h.34l.03.44h.01c.17-.31.42-.5.69-.5.11,0,.18.01.26.05l-.08.36c-.08-.03-.14-.04-.24-.04-.21,0-.45.15-.62.56v1.56h-.41v-2.43Z"/>
      <path class="cls-1" d="M246.23,32.43h.42v2.93h1.43v.35h-1.85v-3.29Z"/>
      <path class="cls-1" d="M248.47,35.08c0-.53.46-.79,1.49-.91,0-.31-.11-.62-.5-.62-.28,0-.54.13-.73.26l-.16-.28c.22-.15.56-.32.96-.32.59,0,.84.39.84,1v1.49h-.34l-.03-.29h-.01c-.23.19-.5.35-.8.35-.41,0-.71-.25-.71-.69ZM249.96,35.12v-.68c-.82.1-1.09.3-1.09.61,0,.28.19.39.43.39s.43-.11.67-.32Z"/>
      <path class="cls-1" d="M250.9,36.71l.08-.33s.12.04.19.04c.27,0,.45-.22.55-.52l.05-.18-.98-2.44h.42l.5,1.35c.08.21.16.46.24.69h.02c.07-.22.14-.47.2-.69l.43-1.35h.4l-.92,2.63c-.17.48-.42.85-.91.85-.11,0-.21-.02-.29-.05Z"/>
      <path class="cls-1" d="M253.27,34.5c0-.79.53-1.28,1.09-1.28.62,0,.97.45.97,1.14,0,.09,0,.17-.02.23h-1.64c.03.51.34.85.81.85.23,0,.43-.08.61-.19l.15.27c-.21.14-.47.25-.8.25-.65,0-1.17-.47-1.17-1.27ZM254.97,34.3c0-.49-.22-.75-.6-.75-.34,0-.65.27-.7.75h1.3Z"/>
      <path class="cls-1" d="M255.93,33.28h.34l.03.44h.01c.17-.31.42-.5.69-.5.11,0,.18.01.26.05l-.08.36c-.08-.03-.14-.04-.24-.04-.21,0-.45.15-.62.56v1.56h-.41v-2.43Z"/>
    </g>
  </g>
  <g>
    <path class="cls-3" d="M3.14,61.86h2.08v.39h-1.62v1.22h1.37v.39h-1.37v1.61h-.46v-3.61Z"/>
    <path class="cls-3" d="M5.73,61.96c0-.18.14-.29.31-.29s.31.11.31.29-.14.29-.31.29-.31-.12-.31-.29ZM5.82,62.8h.45v2.67h-.45v-2.67Z"/>
    <path class="cls-3" d="M6.97,65.98c0-.23.15-.44.39-.6v-.02c-.14-.08-.24-.23-.24-.44,0-.22.16-.4.29-.5v-.02c-.18-.14-.35-.4-.35-.72,0-.58.46-.95,1-.95.15,0,.28.03.38.07h.93v.35h-.55c.13.12.22.32.22.55,0,.57-.43.93-.98.93-.13,0-.28-.03-.4-.09-.1.08-.17.17-.17.32,0,.17.11.29.47.29h.52c.62,0,.93.19.93.64,0,.5-.52.92-1.35.92-.65,0-1.11-.26-1.11-.72ZM8.98,65.84c0-.25-.19-.33-.54-.33h-.46c-.1,0-.23-.01-.35-.04-.19.13-.27.29-.27.45,0,.29.29.47.77.47s.84-.27.84-.54ZM8.64,63.68c0-.39-.25-.62-.57-.62s-.57.23-.57.62.26.63.57.63.57-.25.57-.63Z"/>
    <path class="cls-3" d="M9.9,64.49v-1.69h.45v1.63c0,.5.15.71.5.71.27,0,.46-.14.71-.45v-1.89h.45v2.67h-.37l-.04-.42h-.01c-.25.29-.51.48-.88.48-.56,0-.82-.36-.82-1.04Z"/>
    <path class="cls-3" d="M12.93,62.8h.37l.04.49h.02c.19-.34.46-.55.76-.55.12,0,.2.02.29.05l-.08.4c-.09-.03-.15-.04-.26-.04-.23,0-.49.16-.67.61v1.71h-.45v-2.67Z"/>
    <path class="cls-3" d="M14.59,64.14c0-.87.59-1.4,1.2-1.4.68,0,1.07.49,1.07,1.25,0,.1,0,.19-.02.26h-1.8c.03.57.38.93.89.93.26,0,.47-.08.67-.21l.16.3c-.23.15-.52.28-.88.28-.71,0-1.28-.52-1.28-1.4ZM16.45,63.92c0-.54-.24-.83-.66-.83-.38,0-.71.3-.77.83h1.42Z"/>
    <path class="cls-3" d="M19.83,63.12c0-.18.01-.49.03-.67h-.02c-.09.17-.19.32-.29.5l-.82,1.2h2.01v.36h-2.48v-.3l1.5-2.24h.5v3.5h-.43v-2.35Z"/>
    <path class="cls-3" d="M21.25,63.21c0-.21.15-.35.33-.35s.33.14.33.35-.15.34-.33.34-.33-.14-.33-.34ZM21.25,65.19c0-.21.15-.35.33-.35s.33.14.33.35-.15.34-.33.34-.33-.14-.33-.34Z"/>
    <path class="cls-3" d="M23.86,61.86h1.13c.73,0,1.26.26,1.26,1.01s-.53,1.07-1.26,1.07h-.67v1.52h-.46v-3.61ZM24.92,63.57c.56,0,.87-.23.87-.7s-.31-.64-.87-.64h-.6v1.34h.6ZM24.9,63.82l.36-.24,1.1,1.89h-.52l-.94-1.65Z"/>
    <path class="cls-3" d="M26.76,64.78c0-.58.5-.87,1.64-1,0-.34-.12-.67-.55-.67-.31,0-.59.15-.8.29l-.18-.31c.25-.16.62-.35,1.05-.35.65,0,.93.43.93,1.1v1.64h-.37l-.04-.32h-.01c-.25.21-.55.39-.88.39-.45,0-.78-.28-.78-.76ZM28.4,64.82v-.74c-.9.11-1.2.33-1.2.67,0,.3.21.43.47.43s.47-.13.73-.35Z"/>
    <path class="cls-3" d="M29.4,65.16l.22-.3c.23.19.47.32.79.32.35,0,.53-.19.53-.42,0-.27-.32-.4-.61-.51-.37-.14-.8-.32-.8-.77,0-.43.34-.76.92-.76.33,0,.62.14.83.3l-.22.29c-.18-.14-.37-.24-.61-.24-.34,0-.49.18-.49.38,0,.25.29.35.59.46.38.15.81.3.81.81,0,.43-.34.79-.97.79-.38,0-.75-.16-1-.37Z"/>
    <path class="cls-3" d="M31.97,64.64v-1.48h-.4v-.34l.42-.03.05-.75h.38v.75h.72v.37h-.72v1.48c0,.33.11.52.41.52.09,0,.22-.04.3-.07l.09.34c-.15.05-.33.1-.5.1-.57,0-.76-.36-.76-.89Z"/>
    <path class="cls-3" d="M33.48,64.14c0-.87.59-1.4,1.2-1.4.68,0,1.07.49,1.07,1.25,0,.1,0,.19-.02.26h-1.8c.03.57.38.93.89.93.26,0,.47-.08.66-.21l.16.3c-.23.15-.52.28-.88.28-.71,0-1.28-.52-1.28-1.4ZM35.34,63.92c0-.54-.24-.83-.66-.83-.38,0-.71.3-.77.83h1.42Z"/>
    <path class="cls-3" d="M36.4,62.8h.37l.04.49h.02c.19-.34.46-.55.76-.55.12,0,.2.02.29.05l-.08.4c-.09-.03-.15-.04-.26-.04-.23,0-.49.16-.67.61v1.71h-.45v-2.67Z"/>
    <path class="cls-3" d="M39.49,64.64v-1.48h-.4v-.34l.42-.03.05-.75h.38v.75h.72v.37h-.72v1.48c0,.33.11.52.41.52.09,0,.22-.04.3-.07l.09.34c-.15.05-.33.1-.5.1-.57,0-.76-.36-.76-.89Z"/>
    <path class="cls-3" d="M40.99,64.14c0-.89.58-1.4,1.24-1.4s1.24.51,1.24,1.4-.58,1.4-1.24,1.4-1.24-.51-1.24-1.4ZM43,64.14c0-.61-.31-1.03-.77-1.03s-.77.42-.77,1.03.31,1.02.77,1.02.77-.41.77-1.02Z"/>
    <path class="cls-3" d="M44.8,61.86h.49l.58,1.95c.13.42.21.77.35,1.19h.02c.13-.42.22-.77.35-1.19l.58-1.95h.47l-1.15,3.61h-.53l-1.15-3.61Z"/>
    <path class="cls-3" d="M47.8,64.14c0-.87.59-1.4,1.2-1.4.68,0,1.07.49,1.07,1.25,0,.1,0,.19-.02.26h-1.8c.03.57.38.93.89.93.26,0,.47-.08.66-.21l.16.3c-.23.15-.52.28-.88.28-.71,0-1.28-.52-1.28-1.4ZM49.67,63.92c0-.54-.24-.83-.66-.83-.38,0-.71.3-.77.83h1.42Z"/>
    <path class="cls-3" d="M50.53,64.14c0-.89.6-1.4,1.29-1.4.35,0,.59.14.78.31l-.23.3c-.16-.14-.32-.24-.53-.24-.48,0-.84.42-.84,1.03s.33,1.02.83,1.02c.24,0,.46-.12.63-.27l.2.3c-.24.21-.54.34-.86.34-.71,0-1.25-.51-1.25-1.4Z"/>
    <path class="cls-3" d="M53.26,64.64v-1.48h-.4v-.34l.42-.03.05-.75h.38v.75h.72v.37h-.72v1.48c0,.33.11.52.41.52.09,0,.22-.04.3-.07l.09.34c-.15.05-.33.1-.5.1-.57,0-.76-.36-.76-.89Z"/>
    <path class="cls-3" d="M54.77,64.14c0-.89.58-1.4,1.24-1.4s1.24.51,1.24,1.4-.58,1.4-1.24,1.4-1.24-.51-1.24-1.4ZM56.77,64.14c0-.61-.31-1.03-.77-1.03s-.77.42-.77,1.03.31,1.02.77,1.02.77-.41.77-1.02Z"/>
    <path class="cls-3" d="M57.94,62.8h.37l.04.49h.01c.19-.34.46-.55.76-.55.12,0,.2.02.29.05l-.08.4c-.09-.03-.15-.04-.26-.04-.23,0-.5.16-.68.61v1.71h-.45v-2.67Z"/>
    <path class="cls-3" d="M61.75,62.25h-1.09v-.39h2.64v.39h-1.09v3.22h-.46v-3.22Z"/>
    <path class="cls-3" d="M63.65,62.8h.37l.04.49h.02c.19-.34.46-.55.76-.55.12,0,.2.02.29.05l-.08.4c-.09-.03-.15-.04-.26-.04-.23,0-.49.16-.67.61v1.71h-.45v-2.67Z"/>
    <path class="cls-3" d="M65.26,64.78c0-.58.5-.87,1.64-1,0-.34-.12-.67-.55-.67-.31,0-.59.15-.8.29l-.18-.31c.25-.16.62-.35,1.05-.35.65,0,.93.43.93,1.1v1.64h-.37l-.04-.32h-.01c-.25.21-.55.39-.88.39-.45,0-.78-.28-.78-.76ZM66.9,64.82v-.74c-.89.11-1.2.33-1.2.67,0,.3.21.43.47.43s.47-.13.73-.35Z"/>
    <path class="cls-3" d="M68.2,62.8h.37l.04.38h.01c.25-.25.53-.45.9-.45.56,0,.82.36.82,1.04v1.69h-.45v-1.63c0-.5-.15-.71-.5-.71-.27,0-.46.14-.73.41v1.93h-.45v-2.67Z"/>
    <path class="cls-3" d="M70.91,65.16l.22-.3c.23.19.47.32.79.32.35,0,.53-.19.53-.42,0-.27-.32-.4-.61-.51-.37-.14-.8-.32-.8-.77,0-.43.34-.76.92-.76.33,0,.62.14.83.3l-.22.29c-.18-.14-.37-.24-.61-.24-.34,0-.49.18-.49.38,0,.25.29.35.59.46.38.15.81.3.81.81,0,.43-.34.79-.97.79-.38,0-.75-.16-1-.37Z"/>
    <path class="cls-3" d="M73.22,62.82l.38-.03h1v.37h-1.38v-.34ZM73.58,62.38c0-.54.25-.89.78-.89.16,0,.32.04.44.09l-.09.34c-.1-.05-.21-.07-.3-.07-.25,0-.38.18-.38.52v3.09h-.45v-3.09Z"/>
    <path class="cls-3" d="M74.86,64.14c0-.89.58-1.4,1.24-1.4s1.24.51,1.24,1.4-.58,1.4-1.24,1.4-1.24-.51-1.24-1.4ZM76.87,64.14c0-.61-.31-1.03-.77-1.03s-.77.42-.77,1.03.31,1.02.77,1.02.77-.41.77-1.02Z"/>
    <path class="cls-3" d="M78.04,62.8h.37l.04.49h.01c.19-.34.46-.55.76-.55.12,0,.2.02.29.05l-.08.4c-.09-.03-.15-.04-.26-.04-.23,0-.5.16-.68.61v1.71h-.45v-2.67Z"/>
    <path class="cls-3" d="M79.95,62.8h.37l.04.39h.02c.23-.25.51-.45.83-.45.41,0,.63.2.74.51.28-.3.56-.51.88-.51.55,0,.81.36.81,1.04v1.69h-.45v-1.63c0-.5-.16-.71-.5-.71-.21,0-.42.14-.67.41v1.93h-.45v-1.63c0-.5-.16-.71-.5-.71-.2,0-.42.14-.67.41v1.93h-.45v-2.67Z"/>
    <path class="cls-3" d="M84.34,64.78c0-.58.5-.87,1.64-1,0-.34-.12-.67-.55-.67-.31,0-.59.15-.8.29l-.18-.31c.25-.16.62-.35,1.05-.35.65,0,.93.43.93,1.1v1.64h-.37l-.04-.32h-.01c-.25.21-.55.39-.88.39-.45,0-.78-.28-.78-.76ZM85.98,64.82v-.74c-.9.11-1.2.33-1.2.67,0,.3.21.43.47.43s.47-.13.73-.35Z"/>
    <path class="cls-3" d="M87.28,64.64v-1.48h-.4v-.34l.42-.03.05-.75h.38v.75h.72v.37h-.72v1.48c0,.33.11.52.41.52.09,0,.22-.04.3-.07l.09.34c-.15.05-.33.1-.5.1-.57,0-.76-.36-.76-.89Z"/>
    <path class="cls-3" d="M88.98,61.96c0-.18.14-.29.31-.29s.31.11.31.29-.14.29-.31.29-.31-.12-.31-.29ZM89.06,62.8h.45v2.67h-.45v-2.67Z"/>
    <path class="cls-3" d="M90.22,64.14c0-.89.58-1.4,1.24-1.4s1.24.51,1.24,1.4-.58,1.4-1.24,1.4-1.24-.51-1.24-1.4ZM92.23,64.14c0-.61-.31-1.03-.77-1.03s-.77.42-.77,1.03.31,1.02.77,1.02.77-.41.77-1.02Z"/>
    <path class="cls-3" d="M93.4,62.8h.37l.04.38h.02c.25-.25.53-.45.9-.45.56,0,.82.36.82,1.04v1.69h-.45v-1.63c0-.5-.15-.71-.5-.71-.27,0-.46.14-.73.41v1.93h-.45v-2.67Z"/>
  </g>
</svg>