<?xml version="1.0" encoding="UTF-8"?>
<svg xmlns="http://www.w3.org/2000/svg" viewBox="0 0 300 68.46">
  <defs>
    <style>
      .cls-1 {
        fill: #fffafc;
      }

      .cls-2 {
        fill: none;
        stroke: #d17c41;
        stroke-miterlimit: 10;
      }

      .cls-3 {
        fill: #848484;
      }

      .cls-4 {
        fill: #d17c41;
      }

      .cls-5 {
        fill: #a6b1a1;
      }

      .cls-6 {
        fill: #6c8480;
      }
    </style>
  </defs>
  <g id="Layer_7" data-name="Layer 7">
    <g>
      <rect class="cls-6" x="2.58" y="20.59" width="31.66" height="28.27" rx="2.91" ry="2.91"/>
      <g>
        <path class="cls-1" d="M5.99,32.7h.44l.53,1.78c.12.39.19.7.32,1.08h.02c.12-.38.2-.7.32-1.08l.53-1.78h.43l-1.04,3.29h-.48l-1.05-3.29Z"/>
        <path class="cls-1" d="M8.72,34.78c0-.79.53-1.28,1.09-1.28.62,0,.97.45.97,1.14,0,.09,0,.17-.02.23h-1.64c.03.51.34.85.81.85.23,0,.43-.08.61-.19l.15.27c-.21.14-.47.25-.8.25-.65,0-1.16-.47-1.16-1.27ZM10.42,34.58c0-.49-.22-.75-.6-.75-.34,0-.65.27-.7.75h1.3Z"/>
        <path class="cls-1" d="M11.2,34.78c0-.81.55-1.28,1.17-1.28.32,0,.54.13.71.29l-.21.27c-.14-.13-.29-.21-.48-.21-.44,0-.76.38-.76.94s.31.93.75.93c.22,0,.42-.11.57-.24l.18.28c-.22.19-.49.31-.79.31-.65,0-1.14-.47-1.14-1.27Z"/>
        <path class="cls-1" d="M13.69,35.24v-1.35h-.36v-.31l.38-.02.05-.68h.34v.68h.66v.33h-.66v1.35c0,.3.1.47.38.47.09,0,.2-.03.28-.07l.08.31c-.14.05-.3.09-.45.09-.52,0-.69-.33-.69-.81Z"/>
        <path class="cls-1" d="M15.05,34.78c0-.81.53-1.28,1.13-1.28s1.13.47,1.13,1.28-.53,1.27-1.13,1.27-1.13-.47-1.13-1.27ZM16.88,34.78c0-.56-.28-.94-.7-.94s-.7.38-.7.94.28.93.7.93.7-.37.7-.93Z"/>
        <path class="cls-1" d="M17.94,33.56h.34l.03.44h.01c.17-.31.42-.5.69-.5.11,0,.18.01.26.05l-.08.36c-.08-.03-.14-.04-.24-.04-.21,0-.45.15-.62.56v1.56h-.41v-2.43Z"/>
        <path class="cls-1" d="M20.72,32.7h.42v2.93h1.43v.35h-1.85v-3.29Z"/>
        <path class="cls-1" d="M22.96,35.36c0-.53.46-.79,1.49-.91,0-.31-.1-.62-.5-.62-.28,0-.54.13-.73.26l-.16-.28c.22-.15.57-.32.96-.32.59,0,.84.39.84,1v1.49h-.34l-.04-.29h-.01c-.23.19-.5.35-.8.35-.41,0-.71-.25-.71-.69ZM24.45,35.4v-.68c-.82.1-1.09.3-1.09.61,0,.28.19.39.43.39s.43-.11.66-.32Z"/>
        <path class="cls-1" d="M25.38,36.99l.08-.33s.12.04.19.04c.27,0,.45-.22.55-.52l.06-.18-.98-2.44h.42l.5,1.35c.08.21.16.46.24.69h.02c.07-.22.14-.47.21-.69l.43-1.35h.4l-.92,2.63c-.17.48-.42.85-.91.85-.11,0-.21-.02-.29-.05Z"/>
        <path class="cls-1" d="M27.76,34.78c0-.79.53-1.28,1.09-1.28.62,0,.97.45.97,1.14,0,.09,0,.17-.02.23h-1.64c.03.51.34.85.81.85.23,0,.42-.08.61-.19l.15.27c-.21.14-.47.25-.8.25-.65,0-1.16-.47-1.16-1.27ZM29.46,34.58c0-.49-.22-.75-.6-.75-.34,0-.65.27-.7.75h1.3Z"/>
        <path class="cls-1" d="M30.42,33.56h.34l.04.44h.01c.17-.31.42-.5.69-.5.11,0,.18.01.26.05l-.08.36c-.08-.03-.14-.04-.24-.04-.21,0-.45.15-.62.56v1.56h-.41v-2.43Z"/>
      </g>
    </g>
    <g>
      <rect class="cls-5" x="45.85" y="20.46" width="69.09" height="28.27" rx="2.91" ry="2.91"/>
      <g>
        <path class="cls-1" d="M51.31,29.57l.25-.29c.24.25.56.41.91.41.43,0,.69-.21.69-.53,0-.34-.24-.44-.55-.58l-.47-.21c-.31-.13-.67-.36-.67-.85s.44-.87,1.03-.87c.39,0,.74.17.97.41l-.22.27c-.2-.19-.44-.31-.75-.31-.37,0-.61.19-.61.48,0,.32.29.43.54.54l.47.2c.38.16.68.39.68.88,0,.52-.43.93-1.12.93-.46,0-.86-.19-1.15-.49Z"/>
        <path class="cls-1" d="M54,28.78c0-.79.53-1.28,1.09-1.28.62,0,.97.45.97,1.14,0,.09,0,.17-.02.23h-1.64c.03.51.34.85.81.85.23,0,.43-.08.61-.19l.15.27c-.21.14-.47.25-.8.25-.65,0-1.17-.47-1.17-1.27ZM55.7,28.58c0-.49-.22-.75-.6-.75-.34,0-.65.27-.7.75h1.3Z"/>
        <path class="cls-1" d="M56.66,29.51v-3.08h.41v3.11c0,.13.05.18.12.18.02,0,.04,0,.09-.01l.06.31c-.06.02-.13.04-.24.04-.31,0-.44-.2-.44-.55Z"/>
        <path class="cls-1" d="M57.75,28.78c0-.79.53-1.28,1.09-1.28.62,0,.97.45.97,1.14,0,.09,0,.17-.02.23h-1.64c.03.51.34.85.81.85.23,0,.43-.08.61-.19l.15.27c-.21.14-.47.25-.8.25-.65,0-1.17-.47-1.17-1.27ZM59.45,28.58c0-.49-.22-.75-.6-.75-.34,0-.65.27-.7.75h1.3Z"/>
        <path class="cls-1" d="M60.23,28.78c0-.81.55-1.28,1.17-1.28.32,0,.54.13.71.29l-.21.27c-.14-.13-.29-.21-.48-.21-.44,0-.76.38-.76.94s.31.93.75.93c.22,0,.42-.11.57-.24l.18.28c-.22.19-.49.31-.79.31-.65,0-1.14-.47-1.14-1.27Z"/>
        <path class="cls-1" d="M62.72,29.24v-1.35h-.36v-.31l.38-.02.05-.68h.34v.68h.66v.33h-.66v1.35c0,.3.1.47.38.47.09,0,.2-.03.28-.07l.08.31c-.14.05-.3.09-.45.09-.52,0-.69-.33-.69-.81Z"/>
        <path class="cls-1" d="M65.18,29.36c0-.53.46-.79,1.49-.91,0-.31-.1-.62-.5-.62-.28,0-.54.13-.73.26l-.16-.28c.22-.15.57-.32.96-.32.59,0,.84.39.84,1v1.49h-.34l-.04-.29h-.01c-.23.19-.5.35-.8.35-.41,0-.71-.25-.71-.69ZM66.68,29.4v-.68c-.82.1-1.09.3-1.09.61,0,.28.19.39.43.39s.43-.11.66-.32Z"/>
        <path class="cls-1" d="M68.59,27.59l.35-.02h.91v.33h-1.26v-.31ZM68.92,27.18c0-.49.22-.81.71-.81.15,0,.29.04.4.08l-.09.31c-.09-.04-.19-.06-.28-.06-.23,0-.34.16-.34.47v2.82h-.41v-2.82Z"/>
        <path class="cls-1" d="M70.24,26.8c0-.16.12-.27.28-.27s.28.1.28.27-.12.27-.28.27-.28-.11-.28-.27ZM70.31,27.56h.41v2.43h-.41v-2.43Z"/>
        <path class="cls-1" d="M71.36,28.78c0-.79.53-1.28,1.09-1.28.62,0,.97.45.97,1.14,0,.09,0,.17-.02.23h-1.64c.03.51.34.85.81.85.23,0,.42-.08.61-.19l.15.27c-.21.14-.47.25-.8.25-.65,0-1.16-.47-1.16-1.27ZM73.06,28.58c0-.49-.22-.75-.6-.75-.34,0-.65.27-.7.75h1.3Z"/>
        <path class="cls-1" d="M74.02,29.51v-3.08h.41v3.11c0,.13.05.18.11.18.02,0,.04,0,.09-.01l.06.31c-.06.02-.13.04-.24.04-.31,0-.44-.2-.44-.55Z"/>
        <path class="cls-1" d="M75.13,28.78c0-.79.5-1.28,1.05-1.28.28,0,.47.11.68.28l-.02-.42v-.94h.41v3.57h-.34l-.04-.29h-.01c-.19.19-.45.35-.74.35-.61,0-1-.46-1-1.27ZM76.84,29.38v-1.28c-.21-.18-.39-.25-.59-.25-.39,0-.7.38-.7.93,0,.58.24.93.67.93.23,0,.42-.11.62-.33Z"/>
        <path class="cls-1" d="M78.81,27.59l.35-.02h.91v.33h-1.26v-.31ZM79.14,27.18c0-.49.22-.81.71-.81.15,0,.29.04.4.08l-.09.31c-.09-.04-.19-.06-.28-.06-.23,0-.34.16-.34.47v2.82h-.41v-2.82Z"/>
        <path class="cls-1" d="M80.53,27.56h.34l.04.44h.01c.17-.31.42-.5.69-.5.11,0,.18.01.26.05l-.08.36c-.08-.03-.14-.04-.24-.04-.21,0-.45.15-.62.56v1.56h-.41v-2.43Z"/>
        <path class="cls-1" d="M82.04,28.78c0-.81.53-1.28,1.13-1.28s1.13.47,1.13,1.28-.53,1.27-1.13,1.27-1.13-.47-1.13-1.27ZM83.87,28.78c0-.56-.28-.94-.7-.94s-.7.38-.7.94.28.93.7.93.7-.37.7-.93Z"/>
        <path class="cls-1" d="M84.93,27.56h.34l.03.35h.01c.21-.23.47-.41.76-.41.37,0,.57.18.67.46.25-.27.51-.46.8-.46.5,0,.74.33.74.95v1.54h-.41v-1.49c0-.45-.14-.65-.45-.65-.19,0-.38.12-.61.37v1.76h-.41v-1.49c0-.45-.14-.65-.45-.65-.18,0-.38.12-.61.37v1.76h-.41v-2.43Z"/>
        <path class="cls-1" d="M90.15,29.24v-1.35h-.36v-.31l.38-.02.05-.68h.34v.68h.66v.33h-.66v1.35c0,.3.1.47.38.47.09,0,.2-.03.28-.07l.08.31c-.14.05-.3.09-.45.09-.52,0-.69-.33-.69-.81Z"/>
        <path class="cls-1" d="M91.76,26.43h.41v1.47c.21-.22.46-.4.79-.4.51,0,.74.33.74.95v1.54h-.41v-1.49c0-.45-.14-.65-.46-.65-.25,0-.42.13-.67.37v1.76h-.41v-3.57Z"/>
        <path class="cls-1" d="M94.3,28.78c0-.79.53-1.28,1.09-1.28.62,0,.97.45.97,1.14,0,.09,0,.17-.02.23h-1.64c.03.51.34.85.81.85.23,0,.42-.08.61-.19l.15.27c-.21.14-.47.25-.8.25-.65,0-1.16-.47-1.16-1.27ZM96,28.58c0-.49-.22-.75-.6-.75-.34,0-.65.27-.7.75h1.3Z"/>
        <path class="cls-1" d="M97.89,26.8c0-.16.12-.27.28-.27s.28.1.28.27-.12.27-.28.27-.28-.11-.28-.27ZM97.96,27.56h.41v2.43h-.41v-2.43Z"/>
        <path class="cls-1" d="M99.19,27.56h.34l.03.35h.01c.23-.23.48-.41.82-.41.51,0,.74.33.74.95v1.54h-.41v-1.49c0-.45-.14-.65-.46-.65-.25,0-.42.13-.67.37v1.76h-.41v-2.43Z"/>
        <path class="cls-1" d="M101.93,27.56h.34l.04.28h.01c.22-.18.49-.34.78-.34.63,0,.96.49.96,1.24,0,.83-.5,1.31-1.05,1.31-.22,0-.45-.1-.67-.28v.42s.01.82.01.82h-.41v-3.46ZM103.63,28.74c0-.54-.18-.9-.64-.9-.21,0-.41.11-.65.33v1.28c.22.18.43.25.59.25.4,0,.7-.36.7-.96Z"/>
        <path class="cls-1" d="M104.67,29.1v-1.54h.41v1.49c0,.45.14.65.46.65.25,0,.42-.12.65-.41v-1.73h.41v2.43h-.34l-.04-.38h-.01c-.23.27-.47.44-.8.44-.51,0-.74-.33-.74-.95Z"/>
        <path class="cls-1" d="M107.5,29.24v-1.35h-.36v-.31l.38-.02.05-.68h.34v.68h.66v.33h-.66v1.35c0,.3.1.47.38.47.09,0,.2-.03.28-.07l.08.31c-.14.05-.3.09-.45.09-.52,0-.69-.33-.69-.81Z"/>
        <path class="cls-1" d="M54.15,33.56h.42l.46,1.38c.07.24.15.49.22.72h.02c.07-.23.15-.48.22-.72l.46-1.38h.4l-.86,2.43h-.48l-.88-2.43Z"/>
        <path class="cls-1" d="M56.63,34.78c0-.79.53-1.28,1.09-1.28.62,0,.97.45.97,1.14,0,.09,0,.17-.02.23h-1.64c.03.51.34.85.81.85.23,0,.43-.08.61-.19l.15.27c-.21.14-.47.25-.8.25-.65,0-1.17-.47-1.17-1.27ZM58.33,34.58c0-.49-.22-.75-.6-.75-.34,0-.65.27-.7.75h1.3Z"/>
        <path class="cls-1" d="M59.11,34.78c0-.81.55-1.28,1.17-1.28.32,0,.54.13.71.29l-.21.27c-.14-.13-.29-.21-.48-.21-.44,0-.76.38-.76.94s.31.93.75.93c.22,0,.42-.11.57-.24l.18.28c-.22.19-.49.31-.79.31-.65,0-1.14-.47-1.14-1.27Z"/>
        <path class="cls-1" d="M61.6,35.24v-1.35h-.36v-.31l.38-.02.05-.68h.34v.68h.66v.33h-.66v1.35c0,.3.1.47.38.47.09,0,.2-.03.28-.07l.08.31c-.14.05-.3.09-.45.09-.52,0-.69-.33-.69-.81Z"/>
        <path class="cls-1" d="M62.96,34.78c0-.81.53-1.28,1.13-1.28s1.13.47,1.13,1.28-.53,1.27-1.13,1.27-1.13-.47-1.13-1.27ZM64.79,34.78c0-.56-.28-.94-.7-.94s-.7.38-.7.94.28.93.7.93.7-.37.7-.93Z"/>
        <path class="cls-1" d="M65.85,33.56h.34l.04.44h.01c.17-.31.42-.5.69-.5.11,0,.18.01.26.05l-.08.36c-.08-.03-.14-.04-.24-.04-.21,0-.45.15-.62.56v1.56h-.41v-2.43Z"/>
        <path class="cls-1" d="M68.59,35.51v-3.08h.41v3.11c0,.13.05.18.12.18.02,0,.04,0,.09-.01l.06.31c-.06.02-.13.04-.24.04-.31,0-.44-.2-.44-.55Z"/>
        <path class="cls-1" d="M69.71,35.36c0-.53.46-.79,1.49-.91,0-.31-.11-.62-.5-.62-.28,0-.54.13-.73.26l-.16-.28c.22-.15.56-.32.96-.32.59,0,.84.39.84,1v1.49h-.34l-.03-.29h-.01c-.23.19-.5.35-.8.35-.41,0-.71-.25-.71-.69ZM71.21,35.4v-.68c-.82.1-1.09.3-1.09.61,0,.28.19.39.43.39s.43-.11.67-.32Z"/>
        <path class="cls-1" d="M72.14,36.99l.08-.33s.12.04.19.04c.27,0,.45-.22.55-.52l.05-.18-.98-2.44h.42l.5,1.35c.08.21.16.46.24.69h.02c.07-.22.14-.47.2-.69l.43-1.35h.4l-.92,2.63c-.17.48-.42.85-.91.85-.11,0-.21-.02-.29-.05Z"/>
        <path class="cls-1" d="M74.52,34.78c0-.79.53-1.28,1.09-1.28.62,0,.97.45.97,1.14,0,.09,0,.17-.02.23h-1.64c.03.51.34.85.81.85.23,0,.43-.08.61-.19l.15.27c-.21.14-.47.25-.8.25-.65,0-1.17-.47-1.17-1.27ZM76.22,34.58c0-.49-.22-.75-.6-.75-.34,0-.65.27-.7.75h1.3Z"/>
        <path class="cls-1" d="M77.18,33.56h.34l.03.44h.01c.17-.31.42-.5.69-.5.11,0,.18.01.26.05l-.08.36c-.08-.03-.14-.04-.24-.04-.21,0-.45.15-.62.56v1.56h-.41v-2.43Z"/>
        <path class="cls-1" d="M79.99,35.24v-1.35h-.36v-.31l.38-.02.05-.68h.34v.68h.66v.33h-.66v1.35c0,.3.1.47.38.47.09,0,.2-.03.28-.07l.08.31c-.14.05-.3.09-.45.09-.52,0-.69-.33-.69-.81Z"/>
        <path class="cls-1" d="M81.35,34.78c0-.81.53-1.28,1.13-1.28s1.13.47,1.13,1.28-.53,1.27-1.13,1.27-1.13-.47-1.13-1.27ZM83.18,34.78c0-.56-.28-.94-.7-.94s-.7.38-.7.94.28.93.7.93.7-.37.7-.93Z"/>
        <path class="cls-1" d="M85.04,34.78c0-.81.55-1.28,1.17-1.28.32,0,.54.13.71.29l-.21.27c-.14-.13-.29-.21-.48-.21-.44,0-.76.38-.76.94s.31.93.75.93c.22,0,.42-.11.57-.24l.18.28c-.22.19-.49.31-.79.31-.65,0-1.14-.47-1.14-1.27Z"/>
        <path class="cls-1" d="M87.3,35.36c0-.53.46-.79,1.49-.91,0-.31-.11-.62-.5-.62-.28,0-.54.13-.73.26l-.16-.28c.22-.15.56-.32.96-.32.59,0,.84.39.84,1v1.49h-.34l-.03-.29h-.01c-.23.19-.5.35-.8.35-.41,0-.71-.25-.71-.69ZM88.8,35.4v-.68c-.82.1-1.09.3-1.09.61,0,.28.19.39.43.39s.43-.11.67-.32Z"/>
        <path class="cls-1" d="M89.97,33.56h.34l.03.44h.01c.17-.31.42-.5.69-.5.11,0,.18.01.26.05l-.08.36c-.08-.03-.14-.04-.24-.04-.21,0-.45.15-.62.56v1.56h-.41v-2.43Z"/>
        <path class="cls-1" d="M91.71,33.56h.34l.04.44h.01c.17-.31.42-.5.69-.5.11,0,.18.01.26.05l-.08.36c-.08-.03-.14-.04-.24-.04-.21,0-.45.15-.62.56v1.56h-.41v-2.43Z"/>
        <path class="cls-1" d="M93.32,36.99l.08-.33s.12.04.19.04c.27,0,.45-.22.55-.52l.05-.18-.98-2.44h.42l.5,1.35c.08.21.16.46.24.69h.02c.07-.22.14-.47.2-.69l.43-1.35h.4l-.92,2.63c-.17.48-.42.85-.91.85-.11,0-.21-.02-.29-.05Z"/>
        <path class="cls-1" d="M96.72,34.78c0-.81.53-1.28,1.13-1.28s1.13.47,1.13,1.28-.53,1.27-1.13,1.27-1.13-.47-1.13-1.27ZM98.55,34.78c0-.56-.28-.94-.7-.94s-.7.38-.7.94.28.93.7.93.7-.37.7-.93Z"/>
        <path class="cls-1" d="M99.24,33.56h.42l.46,1.38c.07.24.15.49.22.72h.02c.07-.23.15-.48.22-.72l.46-1.38h.4l-.86,2.43h-.48l-.88-2.43Z"/>
        <path class="cls-1" d="M101.73,34.78c0-.79.53-1.28,1.09-1.28.62,0,.97.45.97,1.14,0,.09,0,.17-.02.23h-1.64c.03.51.34.85.81.85.23,0,.42-.08.61-.19l.15.27c-.21.14-.47.25-.8.25-.65,0-1.16-.47-1.16-1.27ZM103.43,34.58c0-.49-.22-.75-.6-.75-.34,0-.65.27-.7.75h1.3Z"/>
        <path class="cls-1" d="M104.39,33.56h.34l.04.44h.01c.17-.31.42-.5.69-.5.11,0,.18.01.26.05l-.08.36c-.08-.03-.14-.04-.24-.04-.21,0-.45.15-.62.56v1.56h-.41v-2.43Z"/>
        <path class="cls-1" d="M57.2,41.24v-1.35h-.36v-.31l.38-.02.05-.68h.34v.68h.66v.33h-.66v1.35c0,.3.1.47.38.47.09,0,.2-.03.28-.07l.08.31c-.14.05-.3.09-.45.09-.52,0-.69-.33-.69-.81Z"/>
        <path class="cls-1" d="M58.57,40.78c0-.81.53-1.28,1.13-1.28s1.13.47,1.13,1.28-.53,1.27-1.13,1.27-1.13-.47-1.13-1.27ZM60.4,40.78c0-.56-.28-.94-.7-.94s-.7.38-.7.94.28.93.7.93.7-.37.7-.93Z"/>
        <path class="cls-1" d="M62.51,41.24v-1.35h-.36v-.31l.38-.02.05-.68h.34v.68h.66v.33h-.66v1.35c0,.3.1.47.38.47.09,0,.2-.03.28-.07l.08.31c-.14.05-.3.09-.45.09-.52,0-.69-.33-.69-.81Z"/>
        <path class="cls-1" d="M64.13,38.43h.41v1.47c.21-.22.46-.4.79-.4.51,0,.74.33.74.95v1.54h-.41v-1.49c0-.45-.14-.65-.46-.65-.25,0-.42.13-.67.37v1.76h-.41v-3.57Z"/>
        <path class="cls-1" d="M66.67,40.78c0-.79.53-1.28,1.09-1.28.62,0,.97.45.97,1.14,0,.09,0,.17-.02.23h-1.64c.03.51.34.85.81.85.23,0,.43-.08.61-.19l.15.27c-.21.14-.47.25-.8.25-.65,0-1.17-.47-1.17-1.27ZM68.37,40.58c0-.49-.22-.75-.6-.75-.34,0-.65.27-.7.75h1.3Z"/>
        <path class="cls-1" d="M70.33,39.56h.34l.03.35h.01c.23-.23.48-.41.82-.41.51,0,.74.33.74.95v1.54h-.41v-1.49c0-.45-.14-.65-.46-.65-.25,0-.42.13-.67.37v1.76h-.41v-2.43Z"/>
        <path class="cls-1" d="M72.88,40.78c0-.79.53-1.28,1.09-1.28.62,0,.97.45.97,1.14,0,.09,0,.17-.02.23h-1.64c.03.51.34.85.81.85.23,0,.42-.08.61-.19l.15.27c-.21.14-.47.25-.8.25-.65,0-1.16-.47-1.16-1.27ZM74.58,40.58c0-.49-.22-.75-.6-.75-.34,0-.65.27-.7.75h1.3Z"/>
        <path class="cls-1" d="M75.28,39.56h.42l.36,1.41c.05.23.1.45.14.68h.02c.05-.23.11-.45.17-.68l.38-1.41h.4l.38,1.41c.06.23.11.45.17.68h.02c.05-.23.1-.45.15-.68l.35-1.41h.39l-.65,2.43h-.5l-.35-1.31c-.06-.23-.11-.45-.17-.7h-.02c-.05.25-.1.48-.17.71l-.34,1.3h-.48l-.68-2.43Z"/>
        <path class="cls-1" d="M80.16,39.56h.34l.03.44h.01c.17-.31.42-.5.69-.5.11,0,.18.01.26.05l-.08.36c-.08-.03-.14-.04-.24-.04-.21,0-.45.15-.62.56v1.56h-.41v-2.43Z"/>
        <path class="cls-1" d="M81.62,41.36c0-.53.46-.79,1.49-.91,0-.31-.11-.62-.5-.62-.28,0-.54.13-.73.26l-.16-.28c.22-.15.56-.32.96-.32.59,0,.84.39.84,1v1.49h-.34l-.03-.29h-.01c-.23.19-.5.35-.8.35-.41,0-.71-.25-.71-.69ZM83.11,41.4v-.68c-.82.1-1.09.3-1.09.61,0,.28.19.39.43.39s.43-.11.67-.32Z"/>
        <path class="cls-1" d="M84.29,41.24v-1.35h-.36v-.31l.38-.02.05-.68h.34v.68h.66v.33h-.66v1.35c0,.3.1.47.38.47.09,0,.2-.03.28-.07l.08.31c-.14.05-.3.09-.45.09-.52,0-.69-.33-.69-.81Z"/>
        <path class="cls-1" d="M85.59,41.72l.2-.27c.21.17.43.29.72.29.32,0,.48-.17.48-.38,0-.25-.29-.36-.56-.46-.34-.12-.73-.29-.73-.7,0-.39.31-.69.84-.69.3,0,.57.12.76.27l-.2.26c-.17-.12-.34-.22-.55-.22-.31,0-.45.16-.45.35,0,.23.26.32.54.42.35.13.74.28.74.74,0,.39-.31.72-.89.72-.35,0-.68-.15-.91-.34Z"/>
        <path class="cls-1" d="M87.78,40.78c0-.79.53-1.28,1.09-1.28.62,0,.97.45.97,1.14,0,.09,0,.17-.02.23h-1.64c.03.51.34.85.81.85.23,0,.42-.08.61-.19l.15.27c-.21.14-.47.25-.8.25-.65,0-1.16-.47-1.16-1.27ZM89.48,40.58c0-.49-.22-.75-.6-.75-.34,0-.65.27-.7.75h1.3Z"/>
        <path class="cls-1" d="M90.44,39.56h.34l.04.44h.01c.17-.31.42-.5.69-.5.11,0,.18.01.26.05l-.08.36c-.08-.03-.14-.04-.24-.04-.21,0-.45.15-.62.56v1.56h-.41v-2.43Z"/>
        <path class="cls-1" d="M93.17,41.51v-3.08h.41v3.11c0,.13.05.18.12.18.02,0,.04,0,.09-.01l.06.31c-.06.02-.13.04-.24.04-.31,0-.44-.2-.44-.55Z"/>
        <path class="cls-1" d="M94.3,41.36c0-.53.46-.79,1.49-.91,0-.31-.11-.62-.5-.62-.28,0-.54.13-.73.26l-.16-.28c.22-.15.56-.32.96-.32.59,0,.84.39.84,1v1.49h-.34l-.03-.29h-.01c-.23.19-.5.35-.8.35-.41,0-.71-.25-.71-.69ZM95.79,41.4v-.68c-.82.1-1.09.3-1.09.61,0,.28.19.39.43.39s.43-.11.67-.32Z"/>
        <path class="cls-1" d="M96.72,42.99l.08-.33s.12.04.19.04c.27,0,.45-.22.55-.52l.05-.18-.98-2.44h.42l.5,1.35c.08.21.16.46.24.69h.02c.07-.22.14-.47.2-.69l.43-1.35h.4l-.92,2.63c-.17.48-.42.85-.91.85-.11,0-.21-.02-.29-.05Z"/>
        <path class="cls-1" d="M99.1,40.78c0-.79.53-1.28,1.09-1.28.62,0,.97.45.97,1.14,0,.09,0,.17-.02.23h-1.64c.03.51.34.85.81.85.23,0,.43-.08.61-.19l.15.27c-.21.14-.47.25-.8.25-.65,0-1.17-.47-1.17-1.27ZM100.8,40.58c0-.49-.22-.75-.6-.75-.34,0-.65.27-.7.75h1.3Z"/>
        <path class="cls-1" d="M101.76,39.56h.34l.03.44h.01c.17-.31.42-.5.69-.5.11,0,.18.01.26.05l-.08.36c-.08-.03-.14-.04-.24-.04-.21,0-.45.15-.62.56v1.56h-.41v-2.43Z"/>
      </g>
    </g>
    <g>
      <rect class="cls-5" x="126.66" y="20.39" width="65.12" height="28.27" rx="2.91" ry="2.91"/>
      <g>
        <path class="cls-1" d="M134.31,26.64h.82c1.01,0,1.55.59,1.55,1.63s-.54,1.65-1.53,1.65h-.84v-3.29ZM135.1,29.58c.77,0,1.15-.48,1.15-1.31s-.38-1.29-1.15-1.29h-.37v2.6h.37Z"/>
        <path class="cls-1" d="M137.17,28.71c0-.79.53-1.28,1.09-1.28.62,0,.97.45.97,1.14,0,.09,0,.17-.02.23h-1.64c.03.51.34.85.81.85.23,0,.42-.08.61-.19l.15.27c-.21.14-.47.25-.8.25-.65,0-1.16-.47-1.16-1.27ZM138.87,28.51c0-.49-.22-.75-.6-.75-.34,0-.65.27-.7.75h1.3Z"/>
        <path class="cls-1" d="M139.55,27.51l.35-.02h.91v.33h-1.26v-.31ZM139.88,27.11c0-.49.22-.81.71-.81.15,0,.29.04.4.08l-.09.31c-.09-.04-.19-.06-.28-.06-.23,0-.34.16-.34.47v2.82h-.41v-2.82Z"/>
        <path class="cls-1" d="M141.2,26.72c0-.16.12-.27.28-.27s.28.1.28.27-.12.27-.28.27-.28-.11-.28-.27ZM141.28,27.49h.41v2.43h-.41v-2.43Z"/>
        <path class="cls-1" d="M142.51,27.49h.34l.03.35h.01c.23-.23.48-.41.82-.41.51,0,.74.33.74.95v1.54h-.41v-1.49c0-.45-.14-.65-.46-.65-.25,0-.42.13-.67.37v1.76h-.41v-2.43Z"/>
        <path class="cls-1" d="M145.06,28.71c0-.79.53-1.28,1.09-1.28.62,0,.97.45.97,1.14,0,.09,0,.17-.02.23h-1.64c.03.51.34.85.81.85.23,0,.43-.08.61-.19l.15.27c-.21.14-.47.25-.8.25-.65,0-1.17-.47-1.17-1.27ZM146.76,28.51c0-.49-.22-.75-.6-.75-.34,0-.65.27-.7.75h1.3Z"/>
        <path class="cls-1" d="M148.45,29.65l.2-.27c.21.17.43.29.72.29.32,0,.48-.17.48-.38,0-.25-.29-.36-.56-.46-.34-.12-.73-.29-.73-.7,0-.39.31-.69.84-.69.3,0,.57.12.76.27l-.2.26c-.17-.12-.34-.22-.55-.22-.31,0-.45.16-.45.35,0,.23.26.32.54.42.35.13.74.28.74.74,0,.39-.31.72-.89.72-.35,0-.68-.15-.91-.34Z"/>
        <path class="cls-1" d="M150.82,27.49h.34l.03.28h.01c.22-.18.49-.34.78-.34.63,0,.96.49.96,1.24,0,.83-.5,1.31-1.05,1.31-.22,0-.45-.1-.67-.28v.42s.01.82.01.82h-.41v-3.46ZM152.52,28.67c0-.54-.18-.9-.64-.9-.21,0-.41.11-.65.33v1.28c.22.18.43.25.59.25.4,0,.7-.36.7-.96Z"/>
        <path class="cls-1" d="M153.37,29.29c0-.53.46-.79,1.49-.91,0-.31-.1-.62-.5-.62-.28,0-.54.13-.73.26l-.16-.28c.22-.15.57-.32.96-.32.59,0,.84.39.84,1v1.49h-.34l-.04-.29h-.01c-.23.19-.5.35-.8.35-.41,0-.71-.25-.71-.69ZM154.86,29.33v-.68c-.82.1-1.09.3-1.09.61,0,.28.19.39.43.39s.43-.11.66-.32Z"/>
        <path class="cls-1" d="M156.04,29.17v-1.35h-.36v-.31l.38-.02.05-.68h.34v.68h.66v.33h-.66v1.35c0,.3.1.47.38.47.09,0,.2-.03.28-.07l.08.31c-.14.05-.3.09-.45.09-.52,0-.69-.33-.69-.81Z"/>
        <path class="cls-1" d="M157.59,26.72c0-.16.12-.27.28-.27s.28.1.28.27-.12.27-.28.27-.28-.11-.28-.27ZM157.66,27.49h.41v2.43h-.41v-2.43Z"/>
        <path class="cls-1" d="M158.74,29.29c0-.53.46-.79,1.49-.91,0-.31-.1-.62-.5-.62-.28,0-.54.13-.73.26l-.16-.28c.22-.15.57-.32.96-.32.59,0,.84.39.84,1v1.49h-.34l-.04-.29h-.01c-.23.19-.5.35-.8.35-.41,0-.71-.25-.71-.69ZM160.23,29.33v-.68c-.82.1-1.09.3-1.09.61,0,.28.19.39.43.39s.43-.11.66-.32Z"/>
        <path class="cls-1" d="M161.41,29.44v-3.08h.41v3.11c0,.13.05.18.11.18.02,0,.04,0,.09-.01l.06.31c-.06.02-.13.04-.24.04-.31,0-.44-.2-.44-.55Z"/>
        <path class="cls-1" d="M163.69,27.49h.34l.03.44h.01c.17-.31.42-.5.69-.5.11,0,.18.01.26.05l-.08.36c-.08-.03-.14-.04-.24-.04-.21,0-.45.15-.62.56v1.56h-.41v-2.43Z"/>
        <path class="cls-1" d="M165.19,28.71c0-.79.53-1.28,1.09-1.28.62,0,.97.45.97,1.14,0,.09,0,.17-.02.23h-1.64c.03.51.34.85.81.85.23,0,.43-.08.61-.19l.15.27c-.21.14-.47.25-.8.25-.65,0-1.17-.47-1.17-1.27ZM166.89,28.51c0-.49-.22-.75-.6-.75-.34,0-.65.27-.7.75h1.3Z"/>
        <path class="cls-1" d="M167.58,29.65l.2-.27c.21.17.43.29.72.29.32,0,.48-.17.48-.38,0-.25-.29-.36-.56-.46-.34-.12-.73-.29-.73-.7,0-.39.31-.69.84-.69.3,0,.57.12.76.27l-.2.26c-.17-.12-.34-.22-.55-.22-.31,0-.45.16-.45.35,0,.23.26.32.54.42.35.13.74.28.74.74,0,.39-.31.72-.89.72-.35,0-.68-.15-.91-.34Z"/>
        <path class="cls-1" d="M169.77,28.71c0-.81.53-1.28,1.13-1.28s1.13.47,1.13,1.28-.53,1.27-1.13,1.27-1.13-.47-1.13-1.27ZM171.59,28.71c0-.56-.28-.94-.7-.94s-.7.38-.7.94.28.93.7.93.7-.37.7-.93Z"/>
        <path class="cls-1" d="M172.64,29.44v-3.08h.41v3.11c0,.13.05.18.11.18.02,0,.04,0,.09-.01l.06.31c-.06.02-.13.04-.24.04-.31,0-.44-.2-.44-.55Z"/>
        <path class="cls-1" d="M173.88,29.03v-1.54h.41v1.49c0,.45.14.65.46.65.25,0,.42-.12.65-.41v-1.73h.41v2.43h-.34l-.04-.38h-.01c-.23.27-.47.44-.8.44-.51,0-.74-.33-.74-.95Z"/>
        <path class="cls-1" d="M176.7,29.17v-1.35h-.36v-.31l.38-.02.05-.68h.34v.68h.66v.33h-.66v1.35c0,.3.1.47.38.47.09,0,.2-.03.28-.07l.08.31c-.14.05-.3.09-.45.09-.52,0-.69-.33-.69-.81Z"/>
        <path class="cls-1" d="M178.24,26.72c0-.16.12-.27.29-.27s.28.1.28.27-.12.27-.28.27-.29-.11-.29-.27ZM178.32,27.49h.41v2.43h-.41v-2.43Z"/>
        <path class="cls-1" d="M179.37,28.71c0-.81.53-1.28,1.13-1.28s1.13.47,1.13,1.28-.53,1.27-1.13,1.27-1.13-.47-1.13-1.27ZM181.2,28.71c0-.56-.28-.94-.7-.94s-.7.38-.7.94.28.93.7.93.7-.37.7-.93Z"/>
        <path class="cls-1" d="M182.26,27.49h.34l.04.35h.01c.23-.23.48-.41.82-.41.51,0,.74.33.74.95v1.54h-.41v-1.49c0-.45-.14-.65-.46-.65-.25,0-.42.13-.67.37v1.76h-.41v-2.43Z"/>
        <path class="cls-1" d="M133.92,35.29c0-.53.46-.79,1.49-.91,0-.31-.11-.62-.5-.62-.28,0-.54.13-.73.26l-.16-.28c.22-.15.56-.32.96-.32.59,0,.84.39.84,1v1.49h-.34l-.03-.29h-.01c-.23.19-.5.35-.8.35-.41,0-.71-.25-.71-.69ZM135.41,35.33v-.68c-.82.1-1.09.3-1.09.61,0,.28.19.39.43.39s.43-.11.67-.32Z"/>
        <path class="cls-1" d="M136.59,33.49h.34l.03.35h.01c.23-.23.48-.41.82-.41.51,0,.74.33.74.95v1.54h-.41v-1.49c0-.45-.14-.65-.46-.65-.25,0-.42.13-.67.37v1.76h-.41v-2.43Z"/>
        <path class="cls-1" d="M139.15,34.71c0-.79.5-1.28,1.05-1.28.28,0,.47.11.68.28l-.02-.42v-.94h.41v3.57h-.34l-.03-.29h-.01c-.19.19-.45.35-.74.35-.61,0-1-.46-1-1.27ZM140.87,35.31v-1.28c-.21-.18-.39-.25-.59-.25-.39,0-.7.38-.7.93,0,.58.24.93.67.93.22,0,.42-.11.62-.33Z"/>
        <path class="cls-1" d="M142.83,35.65l.2-.27c.21.17.43.29.72.29.32,0,.48-.17.48-.38,0-.25-.29-.36-.56-.46-.34-.12-.73-.29-.73-.7,0-.39.31-.69.84-.69.3,0,.57.12.76.27l-.2.26c-.17-.12-.34-.22-.55-.22-.31,0-.45.16-.45.35,0,.23.26.32.54.42.35.13.74.28.74.74,0,.39-.31.72-.89.72-.35,0-.68-.15-.91-.34Z"/>
        <path class="cls-1" d="M145.2,33.49h.34l.04.28h.01c.22-.18.49-.34.78-.34.63,0,.96.49.96,1.24,0,.83-.5,1.31-1.05,1.31-.22,0-.45-.1-.67-.28v.42s.01.82.01.82h-.41v-3.46ZM146.9,34.67c0-.54-.18-.9-.64-.9-.21,0-.41.11-.65.33v1.28c.22.18.43.25.59.25.4,0,.7-.36.7-.96Z"/>
        <path class="cls-1" d="M147.75,35.29c0-.53.46-.79,1.49-.91,0-.31-.11-.62-.5-.62-.28,0-.54.13-.73.26l-.16-.28c.22-.15.56-.32.96-.32.59,0,.84.39.84,1v1.49h-.34l-.03-.29h-.01c-.23.19-.5.35-.8.35-.41,0-.71-.25-.71-.69ZM149.24,35.33v-.68c-.82.1-1.09.3-1.09.61,0,.28.19.39.43.39s.43-.11.67-.32Z"/>
        <path class="cls-1" d="M150.42,35.17v-1.35h-.36v-.31l.38-.02.05-.68h.34v.68h.66v.33h-.66v1.35c0,.3.1.47.38.47.09,0,.2-.03.28-.07l.08.31c-.14.05-.3.09-.45.09-.52,0-.69-.33-.69-.81Z"/>
        <path class="cls-1" d="M151.97,32.72c0-.16.12-.27.28-.27s.28.1.28.27-.12.27-.28.27-.28-.11-.28-.27ZM152.04,33.49h.41v2.43h-.41v-2.43Z"/>
        <path class="cls-1" d="M153.12,35.29c0-.53.46-.79,1.49-.91,0-.31-.1-.62-.5-.62-.28,0-.54.13-.73.26l-.16-.28c.22-.15.57-.32.96-.32.59,0,.84.39.84,1v1.49h-.34l-.04-.29h-.01c-.23.19-.5.35-.8.35-.41,0-.71-.25-.71-.69ZM154.61,35.33v-.68c-.82.1-1.09.3-1.09.61,0,.28.19.39.43.39s.43-.11.66-.32Z"/>
        <path class="cls-1" d="M155.79,35.44v-3.08h.41v3.11c0,.13.05.18.11.18.02,0,.04,0,.09-.01l.06.31c-.06.02-.13.04-.24.04-.31,0-.44-.2-.44-.55Z"/>
        <path class="cls-1" d="M157.89,34.71c0-.79.53-1.28,1.09-1.28.62,0,.97.45.97,1.14,0,.09,0,.17-.02.23h-1.64c.03.51.34.85.81.85.23,0,.42-.08.61-.19l.15.27c-.21.14-.47.25-.8.25-.65,0-1.16-.47-1.16-1.27ZM159.59,34.51c0-.49-.22-.75-.6-.75-.34,0-.65.27-.7.75h1.3Z"/>
        <path class="cls-1" d="M160.97,34.65l-.74-1.16h.45l.33.53c.07.13.16.27.24.41h.02c.07-.13.15-.27.22-.41l.3-.53h.43l-.74,1.21.79,1.23h-.45l-.36-.57c-.08-.15-.17-.3-.26-.44h-.02c-.08.14-.16.29-.25.44l-.33.57h-.43l.79-1.27Z"/>
        <path class="cls-1" d="M162.69,35.17v-1.35h-.36v-.31l.38-.02.05-.68h.34v.68h.66v.33h-.66v1.35c0,.3.1.47.38.47.09,0,.2-.03.28-.07l.08.31c-.14.05-.3.09-.45.09-.52,0-.69-.33-.69-.81Z"/>
        <path class="cls-1" d="M164.06,34.71c0-.79.53-1.28,1.09-1.28.62,0,.97.45.97,1.14,0,.09,0,.17-.02.23h-1.64c.03.51.34.85.81.85.23,0,.43-.08.61-.19l.15.27c-.21.14-.47.25-.8.25-.65,0-1.17-.47-1.17-1.27ZM165.76,34.51c0-.49-.22-.75-.6-.75-.34,0-.65.27-.7.75h1.3Z"/>
        <path class="cls-1" d="M166.72,33.49h.34l.03.35h.01c.23-.23.48-.41.82-.41.51,0,.74.33.74.95v1.54h-.41v-1.49c0-.45-.14-.65-.46-.65-.25,0-.42.13-.67.37v1.76h-.41v-2.43Z"/>
        <path class="cls-1" d="M169.53,35.17v-1.35h-.36v-.31l.38-.02.05-.68h.34v.68h.66v.33h-.66v1.35c0,.3.1.47.38.47.09,0,.2-.03.28-.07l.08.31c-.14.05-.3.09-.45.09-.52,0-.69-.33-.69-.81Z"/>
        <path class="cls-1" d="M171.97,34.71c0-.81.53-1.28,1.13-1.28s1.13.47,1.13,1.28-.53,1.27-1.13,1.27-1.13-.47-1.13-1.27ZM173.79,34.71c0-.56-.28-.94-.7-.94s-.7.38-.7.94.28.93.7.93.7-.37.7-.93Z"/>
        <path class="cls-1" d="M174.58,33.51l.35-.02h.91v.33h-1.26v-.31ZM174.91,33.11c0-.49.22-.81.71-.81.15,0,.29.04.4.08l-.09.31c-.09-.04-.19-.06-.28-.06-.23,0-.34.16-.34.47v2.82h-.41v-2.82Z"/>
        <path class="cls-1" d="M177.38,35.17v-1.35h-.36v-.31l.38-.02.05-.68h.34v.68h.66v.33h-.66v1.35c0,.3.1.47.38.47.09,0,.2-.03.28-.07l.08.31c-.14.05-.3.09-.45.09-.52,0-.69-.33-.69-.81Z"/>
        <path class="cls-1" d="M179,32.36h.41v1.47c.21-.22.46-.4.79-.4.51,0,.74.33.74.95v1.54h-.41v-1.49c0-.45-.14-.65-.46-.65-.25,0-.42.13-.67.37v1.76h-.41v-3.57Z"/>
        <path class="cls-1" d="M181.53,34.71c0-.79.53-1.28,1.09-1.28.62,0,.97.45.97,1.14,0,.09,0,.17-.02.23h-1.64c.03.51.34.85.81.85.23,0,.43-.08.61-.19l.15.27c-.21.14-.47.25-.8.25-.65,0-1.17-.47-1.17-1.27ZM183.24,34.51c0-.49-.22-.75-.6-.75-.34,0-.65.27-.7.75h1.3Z"/>
        <path class="cls-1" d="M145.82,40.71c0-.81.53-1.28,1.13-1.28s1.13.47,1.13,1.28-.53,1.27-1.13,1.27-1.13-.47-1.13-1.27ZM147.65,40.71c0-.56-.28-.94-.7-.94s-.7.38-.7.94.28.93.7.93.7-.37.7-.93Z"/>
        <path class="cls-1" d="M148.68,41.03v-1.54h.41v1.49c0,.45.14.65.46.65.25,0,.42-.12.65-.41v-1.73h.41v2.43h-.34l-.04-.38h-.01c-.23.27-.47.44-.8.44-.51,0-.74-.33-.74-.95Z"/>
        <path class="cls-1" d="M151.5,41.17v-1.35h-.36v-.31l.38-.02.05-.68h.34v.68h.66v.33h-.66v1.35c0,.3.1.47.38.47.09,0,.2-.03.28-.07l.08.31c-.14.05-.3.09-.45.09-.52,0-.69-.33-.69-.81Z"/>
        <path class="cls-1" d="M153.12,39.49h.34l.03.28h.01c.22-.18.49-.34.78-.34.63,0,.96.49.96,1.24,0,.83-.5,1.31-1.05,1.31-.22,0-.45-.1-.67-.28v.42s.01.82.01.82h-.41v-3.46ZM154.82,40.67c0-.54-.18-.9-.64-.9-.21,0-.41.11-.65.33v1.28c.22.18.43.25.59.25.4,0,.7-.36.7-.96Z"/>
        <path class="cls-1" d="M155.86,41.03v-1.54h.41v1.49c0,.45.14.65.46.65.25,0,.42-.12.65-.41v-1.73h.41v2.43h-.34l-.04-.38h-.01c-.23.27-.47.44-.8.44-.51,0-.74-.33-.74-.95Z"/>
        <path class="cls-1" d="M158.69,41.17v-1.35h-.36v-.31l.38-.02.05-.68h.34v.68h.66v.33h-.66v1.35c0,.3.1.47.38.47.09,0,.2-.03.28-.07l.08.31c-.14.05-.3.09-.45.09-.52,0-.69-.33-.69-.81Z"/>
        <path class="cls-1" d="M161.3,39.49h.34l.03.44h.01c.17-.31.42-.5.69-.5.11,0,.18.01.26.05l-.08.36c-.08-.03-.14-.04-.24-.04-.21,0-.45.15-.62.56v1.56h-.41v-2.43Z"/>
        <path class="cls-1" d="M162.77,41.29c0-.53.46-.79,1.49-.91,0-.31-.1-.62-.5-.62-.28,0-.54.13-.73.26l-.16-.28c.22-.15.57-.32.96-.32.59,0,.84.39.84,1v1.49h-.34l-.04-.29h-.01c-.23.19-.5.35-.8.35-.41,0-.71-.25-.71-.69ZM164.26,41.33v-.68c-.82.1-1.09.3-1.09.61,0,.28.19.39.43.39s.43-.11.66-.32Z"/>
        <path class="cls-1" d="M165.17,41.65l.2-.27c.21.17.43.29.72.29.32,0,.48-.17.48-.38,0-.25-.29-.36-.56-.46-.34-.12-.73-.29-.73-.7,0-.39.31-.69.84-.69.3,0,.57.12.76.27l-.2.26c-.17-.12-.34-.22-.55-.22-.31,0-.45.16-.45.35,0,.23.26.32.54.42.35.13.74.28.74.74,0,.39-.31.72-.89.72-.35,0-.68-.15-.91-.34Z"/>
        <path class="cls-1" d="M167.5,41.17v-1.35h-.36v-.31l.38-.02.05-.68h.34v.68h.66v.33h-.66v1.35c0,.3.1.47.38.47.09,0,.2-.03.28-.07l.08.31c-.14.05-.3.09-.45.09-.52,0-.69-.33-.69-.81Z"/>
        <path class="cls-1" d="M168.87,40.71c0-.79.53-1.28,1.09-1.28.62,0,.97.45.97,1.14,0,.09,0,.17-.02.23h-1.64c.03.51.34.85.81.85.23,0,.42-.08.61-.19l.15.27c-.21.14-.47.25-.8.25-.65,0-1.16-.47-1.16-1.27ZM170.57,40.51c0-.49-.22-.75-.6-.75-.34,0-.65.27-.7.75h1.3Z"/>
        <path class="cls-1" d="M171.53,39.49h.34l.04.44h.01c.17-.31.42-.5.69-.5.11,0,.18.01.26.05l-.08.36c-.08-.03-.14-.04-.24-.04-.21,0-.45.15-.62.56v1.56h-.41v-2.43Z"/>
      </g>
    </g>
    <g>
      <rect class="cls-5" x="203.97" y="20.05" width="48.38" height="28.27" rx="2.91" ry="2.91"/>
      <g>
        <path class="cls-1" d="M209.79,29.3h.82c1.01,0,1.55.59,1.55,1.63s-.54,1.65-1.53,1.65h-.84v-3.29ZM210.58,32.24c.77,0,1.15-.48,1.15-1.31s-.38-1.29-1.15-1.29h-.37v2.6h.37Z"/>
        <path class="cls-1" d="M212.64,31.37c0-.79.53-1.28,1.09-1.28.62,0,.97.45.97,1.14,0,.09,0,.17-.02.23h-1.64c.03.51.34.85.81.85.23,0,.43-.08.61-.19l.15.27c-.21.14-.47.25-.8.25-.65,0-1.17-.47-1.17-1.27ZM214.34,31.17c0-.49-.22-.75-.6-.75-.34,0-.65.27-.7.75h1.3Z"/>
        <path class="cls-1" d="M215.03,30.17l.35-.02h.91v.33h-1.26v-.31ZM215.36,29.77c0-.49.22-.81.71-.81.15,0,.29.04.4.08l-.09.31c-.09-.04-.19-.06-.28-.06-.23,0-.34.16-.34.47v2.82h-.41v-2.82Z"/>
        <path class="cls-1" d="M216.68,29.38c0-.16.12-.27.28-.27s.28.1.28.27-.12.27-.28.27-.28-.11-.28-.27ZM216.75,30.15h.41v2.43h-.41v-2.43Z"/>
        <path class="cls-1" d="M217.98,30.15h.34l.03.35h.01c.23-.23.48-.41.82-.41.51,0,.74.33.74.95v1.54h-.41v-1.49c0-.45-.14-.65-.46-.65-.25,0-.42.13-.67.37v1.76h-.41v-2.43Z"/>
        <path class="cls-1" d="M220.54,31.37c0-.79.53-1.28,1.09-1.28.62,0,.97.45.97,1.14,0,.09,0,.17-.02.23h-1.64c.03.51.34.85.81.85.23,0,.43-.08.61-.19l.15.27c-.21.14-.47.25-.8.25-.65,0-1.17-.47-1.17-1.27ZM222.24,31.17c0-.49-.22-.75-.6-.75-.34,0-.65.27-.7.75h1.3Z"/>
        <path class="cls-1" d="M224.27,31.83v-1.35h-.36v-.31l.38-.02.05-.68h.34v.68h.66v.33h-.66v1.35c0,.3.1.47.38.47.09,0,.2-.03.28-.07l.08.31c-.14.05-.3.09-.45.09-.52,0-.69-.33-.69-.81Z"/>
        <path class="cls-1" d="M225.89,29.02h.41v1.47c.21-.22.46-.4.79-.4.51,0,.74.33.74.95v1.54h-.41v-1.49c0-.45-.14-.65-.46-.65-.25,0-.42.13-.67.37v1.76h-.41v-3.57Z"/>
        <path class="cls-1" d="M228.43,31.37c0-.79.53-1.28,1.09-1.28.62,0,.97.45.97,1.14,0,.09,0,.17-.02.23h-1.64c.03.51.34.85.81.85.23,0,.42-.08.61-.19l.15.27c-.21.14-.47.25-.8.25-.65,0-1.16-.47-1.16-1.27ZM230.13,31.17c0-.49-.22-.75-.6-.75-.34,0-.65.27-.7.75h1.3Z"/>
        <path class="cls-1" d="M231.91,31.37c0-.81.53-1.28,1.13-1.28s1.13.47,1.13,1.28-.53,1.27-1.13,1.27-1.13-.47-1.13-1.27ZM233.74,31.37c0-.56-.28-.94-.7-.94s-.7.38-.7.94.28.93.7.93.7-.37.7-.93Z"/>
        <path class="cls-1" d="M234.76,31.69v-1.54h.41v1.49c0,.45.14.65.46.65.25,0,.42-.12.65-.41v-1.73h.41v2.43h-.34l-.04-.38h-.01c-.23.27-.47.44-.8.44-.51,0-.74-.33-.74-.95Z"/>
        <path class="cls-1" d="M237.59,31.83v-1.35h-.36v-.31l.38-.02.05-.68h.34v.68h.66v.33h-.66v1.35c0,.3.1.47.38.47.09,0,.2-.03.28-.07l.08.31c-.14.05-.3.09-.45.09-.52,0-.69-.33-.69-.81Z"/>
        <path class="cls-1" d="M239.21,30.15h.34l.03.28h.01c.22-.18.49-.34.78-.34.63,0,.96.49.96,1.24,0,.83-.5,1.31-1.05,1.31-.22,0-.45-.1-.67-.28v.42s.01.82.01.82h-.41v-3.46ZM240.91,31.33c0-.54-.18-.9-.64-.9-.21,0-.41.11-.65.33v1.28c.22.18.43.25.59.25.4,0,.7-.36.7-.96Z"/>
        <path class="cls-1" d="M241.95,31.69v-1.54h.41v1.49c0,.45.14.65.46.65.25,0,.42-.12.65-.41v-1.73h.41v2.43h-.34l-.04-.38h-.01c-.23.27-.47.44-.8.44-.51,0-.74-.33-.74-.95Z"/>
        <path class="cls-1" d="M244.77,31.83v-1.35h-.36v-.31l.38-.02.05-.68h.34v.68h.66v.33h-.66v1.35c0,.3.1.47.38.47.09,0,.2-.03.28-.07l.08.31c-.14.05-.3.09-.45.09-.52,0-.69-.33-.69-.81Z"/>
        <path class="cls-1" d="M210.35,37.37c0-.79.5-1.28,1.05-1.28.28,0,.47.11.68.28l-.02-.42v-.94h.41v3.57h-.34l-.04-.29h-.01c-.19.19-.45.35-.74.35-.61,0-1-.46-1-1.27ZM212.07,37.96v-1.28c-.21-.18-.39-.25-.59-.25-.39,0-.7.38-.7.93,0,.58.24.93.67.93.23,0,.42-.11.62-.33Z"/>
        <path class="cls-1" d="M213.15,37.95c0-.53.46-.79,1.49-.91,0-.31-.11-.62-.5-.62-.28,0-.54.13-.73.26l-.16-.28c.22-.15.56-.32.96-.32.59,0,.84.39.84,1v1.49h-.34l-.03-.29h-.01c-.23.19-.5.35-.8.35-.41,0-.71-.25-.71-.69ZM214.65,37.99v-.68c-.82.1-1.09.3-1.09.61,0,.28.19.39.43.39s.43-.11.67-.32Z"/>
        <path class="cls-1" d="M215.82,37.83v-1.35h-.36v-.31l.38-.02.05-.68h.34v.68h.66v.33h-.66v1.35c0,.3.1.47.38.47.09,0,.2-.03.28-.07l.08.31c-.14.05-.3.09-.45.09-.52,0-.69-.33-.69-.81Z"/>
        <path class="cls-1" d="M217.19,37.95c0-.53.46-.79,1.49-.91,0-.31-.11-.62-.5-.62-.28,0-.54.13-.73.26l-.16-.28c.22-.15.56-.32.96-.32.59,0,.84.39.84,1v1.49h-.34l-.03-.29h-.01c-.23.19-.5.35-.8.35-.41,0-.71-.25-.71-.69ZM218.68,37.99v-.68c-.82.1-1.09.3-1.09.61,0,.28.19.39.43.39s.43-.11.67-.32Z"/>
        <path class="cls-1" d="M220.71,37.95c0-.53.46-.79,1.49-.91,0-.31-.1-.62-.5-.62-.28,0-.54.13-.73.26l-.16-.28c.22-.15.57-.32.96-.32.59,0,.84.39.84,1v1.49h-.34l-.04-.29h-.01c-.23.19-.5.35-.8.35-.41,0-.71-.25-.71-.69ZM222.2,37.99v-.68c-.82.1-1.09.3-1.09.61,0,.28.19.39.43.39s.43-.11.66-.32Z"/>
        <path class="cls-1" d="M223.38,36.15h.34l.04.35h.01c.23-.23.48-.41.82-.41.51,0,.74.33.74.95v1.54h-.41v-1.49c0-.45-.14-.65-.46-.65-.25,0-.42.13-.67.37v1.76h-.41v-2.43Z"/>
        <path class="cls-1" d="M225.94,37.37c0-.79.5-1.28,1.05-1.28.28,0,.47.11.68.28l-.02-.42v-.94h.41v3.57h-.34l-.04-.29h-.01c-.19.19-.45.35-.74.35-.61,0-1-.46-1-1.27ZM227.66,37.96v-1.28c-.21-.18-.39-.25-.59-.25-.39,0-.7.38-.7.93,0,.58.24.93.67.93.23,0,.42-.11.62-.33Z"/>
        <path class="cls-1" d="M229.62,36.17l.35-.02h.91v.33h-1.26v-.31ZM229.96,35.77c0-.49.22-.81.71-.81.15,0,.29.04.4.08l-.09.31c-.09-.04-.19-.06-.28-.06-.23,0-.34.16-.34.47v2.82h-.41v-2.82Z"/>
        <path class="cls-1" d="M231.27,35.38c0-.16.12-.27.28-.27s.28.1.28.27-.12.27-.28.27-.28-.11-.28-.27ZM231.35,36.15h.41v2.43h-.41v-2.43Z"/>
        <path class="cls-1" d="M232.58,38.09v-3.08h.41v3.11c0,.13.05.18.12.18.02,0,.04,0,.09-.01l.06.31c-.06.02-.13.04-.24.04-.31,0-.44-.2-.44-.55Z"/>
        <path class="cls-1" d="M233.67,37.37c0-.79.53-1.28,1.09-1.28.62,0,.97.45.97,1.14,0,.09,0,.17-.02.23h-1.64c.03.51.34.85.81.85.23,0,.43-.08.61-.19l.15.27c-.21.14-.47.25-.8.25-.65,0-1.17-.47-1.17-1.27ZM235.37,37.17c0-.49-.22-.75-.6-.75-.34,0-.65.27-.7.75h1.3Z"/>
        <path class="cls-1" d="M237.4,37.83v-1.35h-.36v-.31l.38-.02.05-.68h.34v.68h.66v.33h-.66v1.35c0,.3.1.47.38.47.09,0,.2-.03.28-.07l.08.31c-.14.05-.3.09-.45.09-.52,0-.69-.33-.69-.81Z"/>
        <path class="cls-1" d="M238.78,39.58l.08-.33s.12.04.19.04c.27,0,.45-.22.55-.52l.06-.18-.98-2.44h.42l.5,1.35c.08.21.16.46.24.69h.02c.07-.22.14-.47.21-.69l.43-1.35h.4l-.92,2.63c-.17.48-.42.85-.91.85-.11,0-.21-.02-.29-.05Z"/>
        <path class="cls-1" d="M241.36,36.15h.34l.04.28h.01c.22-.18.49-.34.78-.34.63,0,.96.49.96,1.24,0,.83-.5,1.31-1.05,1.31-.22,0-.45-.1-.67-.28v.42s.01.82.01.82h-.41v-3.46ZM243.06,37.33c0-.54-.18-.9-.64-.9-.21,0-.41.11-.65.33v1.28c.22.18.43.25.59.25.4,0,.7-.36.7-.96Z"/>
        <path class="cls-1" d="M243.95,37.37c0-.79.53-1.28,1.09-1.28.62,0,.97.45.97,1.14,0,.09,0,.17-.02.23h-1.64c.03.51.34.85.81.85.23,0,.42-.08.61-.19l.15.27c-.21.14-.47.25-.8.25-.65,0-1.16-.47-1.16-1.27ZM245.65,37.17c0-.49-.22-.75-.6-.75-.34,0-.65.27-.7.75h1.3Z"/>
      </g>
    </g>
    <g>
      <line class="cls-2" x1="34.19" y1="35.68" x2="43.16" y2="35.68"/>
      <polygon class="cls-4" points="42.58 37.67 46.03 35.68 42.58 33.68 42.58 37.67"/>
    </g>
    <g>
      <line class="cls-2" x1="114.98" y1="35.69" x2="124.08" y2="35.69"/>
      <polygon class="cls-4" points="123.49 37.69 126.95 35.69 123.49 33.7 123.49 37.69"/>
    </g>
    <g>
      <line class="cls-2" x1="191.67" y1="35.68" x2="200.76" y2="35.68"/>
      <polygon class="cls-4" points="200.18 37.68 203.63 35.68 200.18 33.69 200.18 37.68"/>
    </g>
    <g>
      <line class="cls-2" x1="252.33" y1="35.39" x2="261.3" y2="35.39"/>
      <polygon class="cls-4" points="260.71 37.38 264.17 35.39 260.71 33.39 260.71 37.38"/>
    </g>
    <g>
      <rect class="cls-6" x="264.16" y="20.39" width="31.66" height="28.27" rx="2.91" ry="2.91"/>
      <g>
        <path class="cls-1" d="M268.08,32.5h1.03c.67,0,1.15.24,1.15.92s-.48.97-1.15.97h-.61v1.39h-.42v-3.29ZM269.05,34.06c.51,0,.79-.21.79-.63s-.28-.58-.79-.58h-.55v1.22h.55ZM269.02,34.29l.33-.22,1,1.72h-.47l-.86-1.5Z"/>
        <path class="cls-1" d="M270.71,35.16c0-.53.46-.79,1.49-.91,0-.31-.11-.62-.5-.62-.28,0-.54.13-.73.26l-.16-.28c.22-.15.56-.32.96-.32.59,0,.84.39.84,1v1.49h-.34l-.03-.29h-.01c-.23.19-.5.35-.8.35-.41,0-.71-.25-.71-.69ZM272.21,35.2v-.68c-.82.1-1.09.3-1.09.61,0,.28.19.39.43.39s.43-.11.67-.32Z"/>
        <path class="cls-1" d="M273.11,35.51l.2-.27c.21.17.43.29.72.29.32,0,.48-.17.48-.38,0-.25-.29-.36-.56-.46-.34-.12-.73-.29-.73-.7,0-.39.31-.69.84-.69.3,0,.57.12.76.27l-.2.26c-.17-.12-.34-.22-.55-.22-.31,0-.45.16-.45.35,0,.23.26.32.54.42.35.13.74.28.74.74,0,.39-.31.72-.89.72-.35,0-.68-.15-.91-.34Z"/>
        <path class="cls-1" d="M275.45,35.04v-1.35h-.36v-.31l.38-.02.05-.68h.34v.68h.66v.33h-.66v1.35c0,.3.1.47.38.47.09,0,.2-.03.28-.07l.08.31c-.14.05-.3.09-.45.09-.52,0-.69-.33-.69-.81Z"/>
        <path class="cls-1" d="M276.82,34.58c0-.79.53-1.28,1.09-1.28.62,0,.97.45.97,1.14,0,.09,0,.17-.02.23h-1.64c.03.51.34.85.81.85.23,0,.42-.08.61-.19l.15.27c-.21.14-.47.25-.8.25-.65,0-1.16-.47-1.16-1.27ZM278.52,34.38c0-.49-.22-.75-.6-.75-.34,0-.65.27-.7.75h1.3Z"/>
        <path class="cls-1" d="M279.48,33.36h.34l.04.44h.01c.17-.31.42-.5.69-.5.11,0,.18.01.26.05l-.08.36c-.08-.03-.14-.04-.24-.04-.21,0-.45.15-.62.56v1.56h-.41v-2.43Z"/>
        <path class="cls-1" d="M282.25,32.5h.42v2.93h1.43v.35h-1.85v-3.29Z"/>
        <path class="cls-1" d="M284.49,35.16c0-.53.46-.79,1.49-.91,0-.31-.11-.62-.5-.62-.28,0-.54.13-.73.26l-.16-.28c.22-.15.56-.32.96-.32.59,0,.84.39.84,1v1.49h-.34l-.03-.29h-.01c-.23.19-.5.35-.8.35-.41,0-.71-.25-.71-.69ZM285.99,35.2v-.68c-.82.1-1.09.3-1.09.61,0,.28.19.39.43.39s.43-.11.67-.32Z"/>
        <path class="cls-1" d="M286.92,36.79l.08-.33s.12.04.19.04c.27,0,.45-.22.55-.52l.05-.18-.98-2.44h.42l.5,1.35c.08.21.16.46.24.69h.02c.07-.22.14-.47.2-.69l.43-1.35h.4l-.92,2.63c-.17.48-.42.85-.91.85-.11,0-.21-.02-.29-.05Z"/>
        <path class="cls-1" d="M289.3,34.58c0-.79.53-1.28,1.09-1.28.62,0,.97.45.97,1.14,0,.09,0,.17-.02.23h-1.64c.03.51.34.85.81.85.23,0,.43-.08.61-.19l.15.27c-.21.14-.47.25-.8.25-.65,0-1.17-.47-1.17-1.27ZM291,34.38c0-.49-.22-.75-.6-.75-.34,0-.65.27-.7.75h1.3Z"/>
        <path class="cls-1" d="M291.96,33.36h.34l.03.44h.01c.17-.31.42-.5.69-.5.11,0,.18.01.26.05l-.08.36c-.08-.03-.14-.04-.24-.04-.21,0-.45.15-.62.56v1.56h-.41v-2.43Z"/>
      </g>
    </g>
  </g>
  <g id="Layer_8" data-name="Layer 8">
    <g>
      <path class="cls-3" d="M4.19,61.58h2.08v.39h-1.62v1.22h1.37v.39h-1.37v1.61h-.46v-3.61Z"/>
      <path class="cls-3" d="M6.78,61.68c0-.18.14-.29.31-.29s.31.11.31.29-.14.29-.31.29-.31-.12-.31-.29ZM6.86,62.52h.45v2.67h-.45v-2.67Z"/>
      <path class="cls-3" d="M8.01,65.7c0-.23.15-.44.39-.6v-.02c-.14-.08-.24-.23-.24-.44,0-.22.16-.4.29-.5v-.02c-.18-.14-.35-.4-.35-.72,0-.58.46-.95,1-.95.15,0,.28.03.38.07h.93v.35h-.55c.13.12.22.32.22.55,0,.57-.43.93-.98.93-.13,0-.28-.03-.4-.09-.1.08-.17.17-.17.32,0,.17.11.29.47.29h.52c.62,0,.93.19.93.64,0,.5-.52.92-1.35.92-.65,0-1.1-.26-1.1-.72ZM10.03,65.56c0-.25-.19-.33-.54-.33h-.46c-.1,0-.23-.01-.35-.04-.19.13-.27.29-.27.45,0,.29.29.47.77.47.51,0,.84-.27.84-.54ZM9.68,63.4c0-.39-.25-.62-.57-.62s-.57.23-.57.62.26.63.57.63.57-.25.57-.63Z"/>
      <path class="cls-3" d="M10.95,64.21v-1.69h.45v1.63c0,.5.15.71.5.71.27,0,.46-.14.71-.45v-1.89h.45v2.67h-.37l-.04-.42h-.01c-.25.29-.51.48-.88.48-.56,0-.82-.36-.82-1.04Z"/>
      <path class="cls-3" d="M13.98,62.52h.37l.04.49h.02c.19-.34.46-.55.76-.55.12,0,.2.02.29.05l-.08.4c-.09-.03-.15-.04-.26-.04-.23,0-.49.16-.68.61v1.71h-.45v-2.67Z"/>
      <path class="cls-3" d="M15.63,63.86c0-.87.59-1.4,1.2-1.4.68,0,1.07.49,1.07,1.25,0,.1,0,.19-.02.26h-1.8c.03.57.38.93.89.93.26,0,.47-.08.66-.21l.16.3c-.23.15-.52.28-.88.28-.71,0-1.28-.52-1.28-1.4ZM17.5,63.64c0-.54-.24-.83-.66-.83-.38,0-.71.3-.77.83h1.42Z"/>
      <path class="cls-3" d="M19.43,64.92c1.05-1.05,1.65-1.68,1.65-2.25,0-.4-.22-.68-.67-.68-.29,0-.54.19-.74.42l-.26-.26c.29-.32.61-.53,1.06-.53.65,0,1.05.41,1.05,1.03,0,.66-.6,1.31-1.43,2.18.19-.01.41-.03.59-.03h1.01v.39h-2.26v-.27Z"/>
      <path class="cls-3" d="M22.3,62.93c0-.21.15-.35.33-.35s.33.14.33.35-.15.34-.33.34-.33-.14-.33-.34ZM22.3,64.91c0-.21.15-.35.33-.35s.33.14.33.35-.15.34-.33.34-.33-.14-.33-.34Z"/>
      <path class="cls-3" d="M24.41,61.58h.49l.58,1.95c.13.42.21.77.35,1.19h.02c.13-.42.22-.77.35-1.19l.58-1.95h.47l-1.15,3.61h-.53l-1.15-3.61Z"/>
      <path class="cls-3" d="M27.42,63.86c0-.87.59-1.4,1.2-1.4.68,0,1.07.49,1.07,1.25,0,.1,0,.19-.02.26h-1.8c.03.57.38.93.89.93.26,0,.47-.08.66-.21l.16.3c-.23.15-.52.28-.88.28-.71,0-1.28-.52-1.28-1.4ZM29.28,63.64c0-.54-.24-.83-.66-.83-.38,0-.71.3-.77.83h1.42Z"/>
      <path class="cls-3" d="M30.14,63.86c0-.89.6-1.4,1.28-1.4.35,0,.59.14.78.31l-.23.3c-.16-.14-.32-.24-.53-.24-.48,0-.84.42-.84,1.03s.33,1.02.83,1.02c.24,0,.46-.12.63-.27l.2.3c-.24.21-.54.34-.86.34-.71,0-1.25-.51-1.25-1.4Z"/>
      <path class="cls-3" d="M32.87,64.36v-1.48h-.4v-.34l.42-.03.05-.75h.38v.75h.72v.37h-.72v1.48c0,.33.11.52.41.52.09,0,.22-.04.3-.07l.09.34c-.15.05-.33.1-.5.1-.57,0-.76-.36-.76-.89Z"/>
      <path class="cls-3" d="M34.38,63.86c0-.89.58-1.4,1.24-1.4s1.24.51,1.24,1.4-.58,1.4-1.24,1.4-1.24-.51-1.24-1.4ZM36.39,63.86c0-.61-.31-1.03-.77-1.03s-.77.42-.77,1.03.31,1.02.77,1.02.77-.41.77-1.02Z"/>
      <path class="cls-3" d="M37.56,62.52h.37l.04.49h.01c.19-.34.46-.55.76-.55.12,0,.2.02.29.05l-.08.4c-.09-.03-.15-.04-.26-.04-.23,0-.5.16-.68.61v1.71h-.45v-2.67Z"/>
      <path class="cls-3" d="M40.65,64.36v-1.48h-.4v-.34l.42-.03.05-.75h.38v.75h.72v.37h-.72v1.48c0,.33.11.52.41.52.09,0,.22-.04.3-.07l.09.34c-.15.05-.33.1-.5.1-.57,0-.76-.36-.76-.89Z"/>
      <path class="cls-3" d="M42.15,63.86c0-.89.58-1.4,1.24-1.4s1.24.51,1.24,1.4-.58,1.4-1.24,1.4-1.24-.51-1.24-1.4ZM44.16,63.86c0-.61-.31-1.03-.77-1.03s-.77.42-.77,1.03.31,1.02.77,1.02.77-.41.77-1.02Z"/>
      <path class="cls-3" d="M46.45,61.58h1.13c.73,0,1.26.26,1.26,1.01s-.53,1.07-1.26,1.07h-.67v1.52h-.46v-3.61ZM47.51,63.29c.56,0,.87-.23.87-.7s-.31-.64-.87-.64h-.6v1.34h.6ZM47.49,63.54l.36-.24,1.1,1.89h-.52l-.94-1.65Z"/>
      <path class="cls-3" d="M49.35,64.49c0-.58.5-.87,1.64-1,0-.34-.12-.67-.55-.67-.31,0-.59.15-.8.29l-.18-.31c.25-.16.62-.35,1.05-.35.65,0,.93.43.93,1.1v1.64h-.37l-.04-.32h-.01c-.25.21-.55.39-.88.39-.45,0-.78-.28-.78-.76ZM50.99,64.54v-.74c-.89.11-1.2.33-1.2.67,0,.3.21.43.47.43s.47-.13.73-.35Z"/>
      <path class="cls-3" d="M51.99,64.88l.22-.3c.23.19.47.32.79.32.35,0,.52-.19.52-.42,0-.27-.32-.4-.61-.51-.37-.14-.8-.32-.8-.77,0-.43.34-.76.92-.76.33,0,.62.14.83.3l-.22.29c-.18-.14-.37-.24-.61-.24-.34,0-.49.18-.49.38,0,.25.29.35.59.46.39.15.81.3.81.81,0,.43-.34.79-.97.79-.38,0-.75-.16-1-.37Z"/>
      <path class="cls-3" d="M54.56,64.36v-1.48h-.4v-.34l.42-.03.05-.75h.38v.75h.72v.37h-.72v1.48c0,.33.11.52.41.52.09,0,.22-.04.3-.07l.09.34c-.15.05-.33.1-.5.1-.57,0-.76-.36-.76-.89Z"/>
      <path class="cls-3" d="M56.06,63.86c0-.87.59-1.4,1.2-1.4.68,0,1.07.49,1.07,1.25,0,.1,0,.19-.02.26h-1.8c.03.57.38.93.89.93.26,0,.47-.08.67-.21l.16.3c-.23.15-.52.28-.88.28-.71,0-1.28-.52-1.28-1.4ZM57.93,63.64c0-.54-.24-.83-.66-.83-.38,0-.71.3-.77.83h1.42Z"/>
      <path class="cls-3" d="M58.99,62.52h.37l.04.49h.02c.19-.34.46-.55.76-.55.12,0,.2.02.29.05l-.08.4c-.09-.03-.15-.04-.26-.04-.23,0-.49.16-.67.61v1.71h-.45v-2.67Z"/>
      <path class="cls-3" d="M62.79,61.97h-1.09v-.39h2.64v.39h-1.09v3.22h-.46v-3.22Z"/>
      <path class="cls-3" d="M64.7,62.52h.37l.04.49h.01c.19-.34.46-.55.76-.55.12,0,.2.02.29.05l-.08.4c-.09-.03-.15-.04-.26-.04-.23,0-.5.16-.68.61v1.71h-.45v-2.67Z"/>
      <path class="cls-3" d="M66.31,64.49c0-.58.5-.87,1.64-1,0-.34-.12-.67-.55-.67-.31,0-.59.15-.8.29l-.18-.31c.25-.16.62-.35,1.05-.35.65,0,.93.43.93,1.1v1.64h-.37l-.04-.32h-.01c-.25.21-.55.39-.88.39-.45,0-.78-.28-.78-.76ZM67.95,64.54v-.74c-.9.11-1.2.33-1.2.67,0,.3.21.43.47.43s.47-.13.73-.35Z"/>
      <path class="cls-3" d="M69.24,62.52h.37l.04.38h.02c.25-.25.53-.45.9-.45.56,0,.82.36.82,1.04v1.69h-.45v-1.63c0-.5-.15-.71-.5-.71-.27,0-.46.14-.73.41v1.93h-.45v-2.67Z"/>
      <path class="cls-3" d="M71.96,64.88l.22-.3c.23.19.47.32.79.32.35,0,.52-.19.52-.42,0-.27-.32-.4-.61-.51-.37-.14-.8-.32-.8-.77,0-.43.34-.76.92-.76.33,0,.62.14.83.3l-.22.29c-.18-.14-.37-.24-.61-.24-.34,0-.49.18-.49.38,0,.25.29.35.59.46.39.15.81.3.81.81,0,.43-.34.79-.97.79-.38,0-.75-.16-1-.37Z"/>
      <path class="cls-3" d="M74.27,62.54l.38-.03h1v.37h-1.38v-.34ZM74.63,62.1c0-.54.25-.89.78-.89.16,0,.32.04.44.09l-.1.34c-.1-.05-.21-.07-.3-.07-.25,0-.38.18-.38.52v3.09h-.45v-3.09Z"/>
      <path class="cls-3" d="M75.91,63.86c0-.89.58-1.4,1.24-1.4s1.24.51,1.24,1.4-.58,1.4-1.24,1.4-1.24-.51-1.24-1.4ZM77.92,63.86c0-.61-.31-1.03-.77-1.03s-.77.42-.77,1.03.31,1.02.77,1.02.77-.41.77-1.02Z"/>
      <path class="cls-3" d="M79.09,62.52h.37l.04.49h.02c.19-.34.46-.55.76-.55.12,0,.2.02.29.05l-.08.4c-.09-.03-.15-.04-.26-.04-.23,0-.49.16-.67.61v1.71h-.45v-2.67Z"/>
      <path class="cls-3" d="M81,62.52h.37l.04.39h.01c.23-.25.51-.45.83-.45.41,0,.63.2.74.51.28-.3.56-.51.88-.51.55,0,.81.36.81,1.04v1.69h-.45v-1.63c0-.5-.16-.71-.5-.71-.21,0-.42.14-.67.41v1.93h-.45v-1.63c0-.5-.16-.71-.5-.71-.2,0-.42.14-.67.41v1.93h-.45v-2.67Z"/>
      <path class="cls-3" d="M85.39,64.49c0-.58.5-.87,1.64-1,0-.34-.12-.67-.55-.67-.31,0-.59.15-.8.29l-.18-.31c.25-.16.62-.35,1.05-.35.65,0,.93.43.93,1.1v1.64h-.37l-.04-.32h-.01c-.25.21-.55.39-.88.39-.45,0-.78-.28-.78-.76ZM87.03,64.54v-.74c-.89.11-1.2.33-1.2.67,0,.3.21.43.47.43s.47-.13.73-.35Z"/>
      <path class="cls-3" d="M88.33,64.36v-1.48h-.4v-.34l.42-.03.05-.75h.38v.75h.72v.37h-.72v1.48c0,.33.11.52.41.52.09,0,.22-.04.3-.07l.09.34c-.15.05-.33.1-.5.1-.57,0-.76-.36-.76-.89Z"/>
      <path class="cls-3" d="M90.03,61.68c0-.18.14-.29.31-.29s.31.11.31.29-.14.29-.31.29-.31-.12-.31-.29ZM90.11,62.52h.45v2.67h-.45v-2.67Z"/>
      <path class="cls-3" d="M91.27,63.86c0-.89.58-1.4,1.24-1.4s1.24.51,1.24,1.4-.58,1.4-1.24,1.4-1.24-.51-1.24-1.4ZM93.27,63.86c0-.61-.31-1.03-.77-1.03s-.77.42-.77,1.03.31,1.02.77,1.02.77-.41.77-1.02Z"/>
      <path class="cls-3" d="M94.44,62.52h.37l.04.38h.01c.25-.25.53-.45.9-.45.56,0,.82.36.82,1.04v1.69h-.45v-1.63c0-.5-.15-.71-.5-.71-.27,0-.46.14-.73.41v1.93h-.45v-2.67Z"/>
    </g>
  </g>
</svg>