<?xml version="1.0" encoding="UTF-8"?>
<svg id="Layer_2" data-name="Layer 2" xmlns="http://www.w3.org/2000/svg" viewBox="0 0 288 68.46">
  <defs>
    <style>
      .cls-1 {
        stroke-dasharray: 2 1;
        stroke-linejoin: round;
      }

      .cls-1, .cls-2 {
        fill: none;
        stroke: #d17c41;
      }

      .cls-3 {
        fill: #fff;
      }

      .cls-2 {
        stroke-miterlimit: 10;
      }

      .cls-4 {
        fill: #848484;
      }

      .cls-5 {
        fill: #d17c41;
      }

      .cls-6 {
        fill: #a6b1a1;
      }

      .cls-7 {
        fill: #6c8480;
      }
    </style>
  </defs>
  <g>
    <line class="cls-2" x1="172.85" y1="17.43" x2="181.94" y2="17.43"/>
    <polygon class="cls-5" points="181.36 19.42 184.81 17.43 181.36 15.43 181.36 19.42"/>
  </g>
  <g>
    <rect class="cls-7" x="16.6" y="23.09" width="69.07" height="14.51" rx="3.55" ry="3.55"/>
    <g>
      <path class="cls-3" d="M36.41,28.43h1.32c.82,0,1.44.29,1.44,1.16s-.63,1.23-1.44,1.23h-.63v1.53h-.7v-3.92ZM37.66,30.26c.54,0,.83-.22.83-.67s-.29-.61-.83-.61h-.55v1.28h.55ZM37.6,30.63l.5-.42,1.22,2.13h-.78l-.95-1.72Z"/>
      <path class="cls-3" d="M39.64,30.88c0-.96.66-1.55,1.36-1.55.8,0,1.22.58,1.22,1.4,0,.13-.01.26-.03.34h-1.87c.06.52.39.82.87.82.25,0,.47-.08.68-.21l.23.43c-.28.19-.64.32-1.01.32-.81,0-1.45-.57-1.45-1.54ZM41.62,30.59c0-.45-.2-.73-.6-.73-.34,0-.65.26-.71.73h1.31Z"/>
      <path class="cls-3" d="M42.65,31.56c0-.63.52-.96,1.73-1.09,0-.32-.14-.58-.54-.58-.29,0-.57.13-.83.29l-.25-.46c.32-.2.74-.39,1.21-.39.74,0,1.1.45,1.1,1.27v1.74h-.57l-.05-.33h-.02c-.26.23-.57.4-.91.4-.52,0-.87-.35-.87-.86ZM44.38,31.56v-.66c-.8.1-1.07.31-1.07.61,0,.26.18.38.42.38s.42-.12.64-.32Z"/>
      <path class="cls-3" d="M45.9,31.59v-3.48h.69v3.51c0,.17.08.23.15.23.03,0,.06,0,.11-.01l.09.52c-.08.03-.2.06-.36.06-.49,0-.67-.32-.67-.83Z"/>
      <path class="cls-3" d="M48.4,28.43h.71l.34,1.98c.06.42.13.83.19,1.25h.02c.08-.42.17-.84.25-1.25l.48-1.98h.6l.48,1.98c.09.41.17.83.26,1.25h.02c.06-.42.13-.84.19-1.25l.34-1.98h.67l-.75,3.92h-.86l-.49-2.07c-.06-.3-.12-.6-.17-.9h-.02c-.05.3-.11.6-.18.9l-.47,2.07h-.85l-.78-3.92Z"/>
      <path class="cls-3" d="M53.33,30.88c0-.98.67-1.55,1.4-1.55s1.4.57,1.4,1.55-.67,1.54-1.4,1.54-1.4-.57-1.4-1.54ZM55.43,30.88c0-.59-.26-.98-.69-.98s-.69.39-.69.98.26.98.69.98.69-.39.69-.98Z"/>
      <path class="cls-3" d="M56.82,29.4h.57l.05.53h.02c.21-.38.52-.6.84-.6.15,0,.24.02.33.06l-.12.6c-.1-.03-.18-.05-.3-.05-.23,0-.52.16-.7.61v1.8h-.69v-2.95Z"/>
      <path class="cls-3" d="M59.06,31.59v-3.48h.69v3.51c0,.17.08.23.15.23.03,0,.06,0,.11-.01l.09.52c-.08.03-.2.06-.36.06-.49,0-.67-.32-.67-.83Z"/>
      <path class="cls-3" d="M60.51,30.88c0-.96.6-1.55,1.25-1.55.33,0,.54.12.77.32l-.03-.48v-1.07h.69v4.24h-.57l-.05-.32h-.02c-.22.22-.52.39-.84.39-.73,0-1.21-.57-1.21-1.54ZM62.5,31.52v-1.37c-.2-.18-.4-.24-.6-.24-.37,0-.68.35-.68.97s.24.98.67.98c.23,0,.42-.1.61-.33Z"/>
    </g>
  </g>
  <g>
    <rect class="cls-6" x="103.77" y="9.82" width="69.07" height="14.51" rx="3.55" ry="3.55"/>
    <g>
      <path class="cls-3" d="M116.22,17.13c0-1.28.8-2.05,1.8-2.05.49,0,.88.24,1.13.5l-.37.45c-.2-.2-.44-.34-.74-.34-.64,0-1.1.54-1.1,1.42s.42,1.44,1.08,1.44c.35,0,.62-.16.84-.4l.37.44c-.32.37-.73.57-1.24.57-.99,0-1.77-.72-1.77-2.02Z"/>
      <path class="cls-3" d="M119.63,17.6c0-.98.67-1.55,1.4-1.55s1.4.57,1.4,1.55-.67,1.54-1.4,1.54-1.4-.57-1.4-1.54ZM121.72,17.6c0-.59-.26-.98-.69-.98s-.69.39-.69.98.26.98.69.98.69-.39.69-.98Z"/>
      <path class="cls-3" d="M123.12,16.13h.57l.05.4h.02c.26-.26.56-.47.97-.47.63,0,.91.43.91,1.17v1.85h-.69v-1.76c0-.49-.14-.67-.46-.67-.26,0-.43.13-.67.37v2.06h-.69v-2.95Z"/>
      <path class="cls-3" d="M126.28,17.6c0-.98.69-1.55,1.48-1.55.37,0,.65.14.86.33l-.34.45c-.16-.14-.3-.22-.49-.22-.48,0-.8.39-.8.98s.32.98.78.98c.23,0,.44-.11.61-.25l.28.46c-.28.24-.63.36-.96.36-.8,0-1.42-.57-1.42-1.54Z"/>
      <path class="cls-3" d="M128.91,17.6c0-.96.66-1.55,1.36-1.55.8,0,1.22.58,1.22,1.4,0,.13-.01.26-.03.34h-1.87c.06.52.39.82.87.82.25,0,.47-.08.68-.21l.23.43c-.28.19-.64.32-1.01.32-.81,0-1.45-.57-1.45-1.54ZM130.89,17.32c0-.45-.2-.73-.6-.73-.34,0-.65.26-.71.73h1.31Z"/>
      <path class="cls-3" d="M132.15,16.13h.57l.05.31h.02c.25-.21.56-.39.89-.39.74,0,1.16.59,1.16,1.5,0,1.01-.6,1.59-1.26,1.59-.26,0-.52-.12-.76-.32l.02.49v.93h-.69v-4.11ZM134.12,17.56c0-.59-.19-.94-.64-.94-.21,0-.42.11-.64.33v1.37c.21.18.42.24.59.24.39,0,.69-.35.69-1.01Z"/>
      <path class="cls-3" d="M135.5,18.08v-1.4h-.42v-.52l.46-.03.08-.8h.57v.8h.75v.55h-.75v1.4c0,.35.13.52.42.52.1,0,.22-.03.31-.07l.12.51c-.16.05-.37.11-.6.11-.68,0-.93-.43-.93-1.07Z"/>
      <path class="cls-3" d="M137.53,17.97v-1.85h.69v1.76c0,.48.14.67.46.67.26,0,.43-.12.65-.41v-2.02h.69v2.95h-.57l-.05-.43h-.02c-.26.31-.54.51-.95.51-.63,0-.91-.43-.91-1.17Z"/>
      <path class="cls-3" d="M140.74,18.28c0-.63.52-.96,1.73-1.09,0-.32-.14-.58-.54-.58-.29,0-.57.13-.83.29l-.25-.46c.32-.2.74-.39,1.21-.39.74,0,1.1.45,1.1,1.27v1.74h-.57l-.05-.33h-.02c-.26.23-.57.4-.91.4-.52,0-.87-.35-.87-.86ZM142.47,18.28v-.66c-.8.1-1.07.31-1.07.61,0,.26.18.38.42.38s.42-.12.64-.32Z"/>
      <path class="cls-3" d="M144,18.32v-3.48h.69v3.51c0,.17.08.23.15.23.03,0,.06,0,.11-.01l.09.52c-.08.03-.2.06-.36.06-.49,0-.67-.32-.67-.83Z"/>
      <path class="cls-3" d="M145.54,15.22c0-.23.18-.39.43-.39s.43.16.43.39-.18.39-.43.39-.43-.16-.43-.39ZM145.62,16.13h.69v2.95h-.69v-2.95Z"/>
      <path class="cls-3" d="M146.96,18.7l1.39-2.03h-1.23v-.55h2.1v.37l-1.39,2.03h1.43v.55h-2.3v-.37Z"/>
      <path class="cls-3" d="M149.58,18.28c0-.63.52-.96,1.73-1.09,0-.32-.14-.58-.54-.58-.29,0-.57.13-.83.29l-.25-.46c.32-.2.74-.39,1.21-.39.74,0,1.1.45,1.1,1.27v1.74h-.57l-.05-.33h-.02c-.26.23-.57.4-.91.4-.52,0-.87-.35-.87-.86ZM151.32,18.28v-.66c-.8.1-1.07.31-1.07.61,0,.26.18.38.42.38s.42-.12.64-.32Z"/>
      <path class="cls-3" d="M152.85,18.08v-1.4h-.42v-.52l.46-.03.08-.8h.57v.8h.75v.55h-.75v1.4c0,.35.13.52.42.52.1,0,.22-.03.31-.07l.12.51c-.16.05-.37.11-.6.11-.68,0-.93-.43-.93-1.07Z"/>
      <path class="cls-3" d="M154.83,15.22c0-.23.18-.39.43-.39s.43.16.43.39-.18.39-.43.39-.43-.16-.43-.39ZM154.91,16.13h.69v2.95h-.69v-2.95Z"/>
      <path class="cls-3" d="M156.29,17.6c0-.98.67-1.55,1.4-1.55s1.4.57,1.4,1.55-.67,1.54-1.4,1.54-1.4-.57-1.4-1.54ZM158.38,17.6c0-.59-.26-.98-.69-.98s-.69.39-.69.98.26.98.69.98.69-.39.69-.98Z"/>
      <path class="cls-3" d="M159.77,16.13h.57l.05.4h.02c.26-.26.56-.47.97-.47.63,0,.91.43.91,1.17v1.85h-.69v-1.76c0-.49-.14-.67-.46-.67-.26,0-.43.13-.67.37v2.06h-.69v-2.95Z"/>
    </g>
  </g>
  <g>
    <rect class="cls-6" x="184.84" y="9.73" width="69.07" height="14.51" rx="3.55" ry="3.55"/>
    <g>
      <path class="cls-3" d="M200.09,15.23h1.32c.82,0,1.44.29,1.44,1.16s-.63,1.23-1.44,1.23h-.63v1.53h-.7v-3.92ZM201.34,17.06c.54,0,.83-.22.83-.67s-.29-.61-.83-.61h-.55v1.28h.55ZM201.28,17.43l.5-.42,1.22,2.13h-.78l-.95-1.72Z"/>
      <path class="cls-3" d="M203.33,17.68c0-.96.66-1.55,1.36-1.55.8,0,1.22.58,1.22,1.4,0,.13-.01.26-.03.34h-1.87c.06.52.39.82.87.82.25,0,.47-.08.68-.21l.23.43c-.28.19-.64.32-1.01.32-.81,0-1.45-.57-1.45-1.54ZM205.31,17.39c0-.45-.2-.73-.6-.73-.34,0-.65.26-.71.73h1.31Z"/>
      <path class="cls-3" d="M206.57,16.2h.57l.05.31h.02c.25-.21.56-.39.89-.39.74,0,1.16.59,1.16,1.5,0,1.01-.6,1.59-1.26,1.59-.26,0-.52-.12-.76-.32l.02.49v.93h-.69v-4.11ZM208.54,17.64c0-.59-.19-.94-.64-.94-.21,0-.42.11-.64.33v1.37c.21.18.42.24.59.24.39,0,.69-.35.69-1.01Z"/>
      <path class="cls-3" d="M209.95,16.2h.57l.05.53h.02c.21-.38.52-.6.84-.6.15,0,.24.02.33.06l-.12.6c-.1-.03-.18-.05-.3-.05-.23,0-.52.16-.7.61v1.8h-.69v-2.95Z"/>
      <path class="cls-3" d="M211.93,17.68c0-.96.66-1.55,1.36-1.55.8,0,1.22.58,1.22,1.4,0,.13-.01.26-.03.34h-1.87c.06.52.39.82.87.82.25,0,.47-.08.68-.21l.23.43c-.28.19-.64.32-1.01.32-.81,0-1.45-.57-1.45-1.54ZM213.91,17.39c0-.45-.2-.73-.6-.73-.34,0-.65.26-.71.73h1.31Z"/>
      <path class="cls-3" d="M214.88,18.81l.32-.44c.26.2.51.33.81.33.32,0,.47-.15.47-.35,0-.25-.32-.36-.63-.48-.39-.15-.83-.37-.83-.86s.41-.88,1.07-.88c.41,0,.74.17.98.35l-.32.42c-.21-.15-.41-.26-.65-.26-.3,0-.44.14-.44.33,0,.23.3.32.62.44.4.15.84.34.84.89,0,.51-.4.91-1.14.91-.4,0-.83-.17-1.12-.41Z"/>
      <path class="cls-3" d="M217.56,17.68c0-.96.66-1.55,1.36-1.55.8,0,1.22.58,1.22,1.4,0,.13-.01.26-.03.34h-1.87c.06.52.39.82.87.82.25,0,.47-.08.68-.21l.23.43c-.28.19-.64.32-1.01.32-.81,0-1.45-.57-1.45-1.54ZM219.54,17.39c0-.45-.2-.73-.6-.73-.34,0-.65.26-.71.73h1.31Z"/>
      <path class="cls-3" d="M220.8,16.2h.57l.05.4h.02c.26-.26.56-.47.97-.47.63,0,.91.43.91,1.17v1.85h-.69v-1.76c0-.49-.14-.67-.46-.67-.26,0-.43.13-.67.37v2.06h-.69v-2.95Z"/>
      <path class="cls-3" d="M224.26,18.15v-1.4h-.42v-.52l.46-.03.08-.8h.57v.8h.75v.55h-.75v1.4c0,.35.13.52.42.52.1,0,.22-.03.31-.07l.12.51c-.16.05-.37.11-.6.11-.68,0-.93-.43-.93-1.07Z"/>
      <path class="cls-3" d="M226.04,18.36c0-.63.52-.96,1.73-1.09,0-.32-.14-.58-.54-.58-.29,0-.57.13-.83.29l-.25-.46c.32-.2.74-.39,1.21-.39.74,0,1.1.45,1.1,1.27v1.74h-.57l-.05-.33h-.02c-.26.23-.57.4-.91.4-.52,0-.87-.35-.87-.86ZM227.77,18.36v-.66c-.8.1-1.07.31-1.07.61,0,.26.18.38.42.38s.42-.12.64-.32Z"/>
      <path class="cls-3" d="M229.3,18.15v-1.4h-.42v-.52l.46-.03.08-.8h.57v.8h.75v.55h-.75v1.4c0,.35.13.52.42.52.1,0,.22-.03.31-.07l.12.51c-.16.05-.37.11-.6.11-.68,0-.93-.43-.93-1.07Z"/>
      <path class="cls-3" d="M231.28,15.3c0-.23.18-.39.43-.39s.43.16.43.39-.18.39-.43.39-.43-.16-.43-.39ZM231.36,16.2h.69v2.95h-.69v-2.95Z"/>
      <path class="cls-3" d="M232.74,17.68c0-.98.67-1.55,1.4-1.55s1.4.57,1.4,1.55-.67,1.54-1.4,1.54-1.4-.57-1.4-1.54ZM234.83,17.68c0-.59-.26-.98-.69-.98s-.69.39-.69.98.26.98.69.98.69-.39.69-.98Z"/>
      <path class="cls-3" d="M236.23,16.2h.57l.05.4h.02c.26-.26.56-.47.97-.47.63,0,.91.43.91,1.17v1.85h-.69v-1.76c0-.49-.14-.67-.46-.67-.26,0-.43.13-.67.37v2.06h-.69v-2.95Z"/>
    </g>
  </g>
  <g>
    <rect class="cls-6" x="104.07" y="36.47" width="69.07" height="14.51" rx="3.55" ry="3.55"/>
    <g>
      <path class="cls-3" d="M125.53,42.32h.74l.55,1.97c.13.45.21.83.35,1.28h.02c.13-.45.22-.83.35-1.28l.54-1.97h.71l-1.21,3.92h-.83l-1.22-3.92Z"/>
      <path class="cls-3" d="M128.88,45.45c0-.63.52-.96,1.73-1.09,0-.32-.14-.58-.54-.58-.29,0-.57.13-.83.29l-.25-.46c.32-.2.74-.39,1.21-.39.74,0,1.1.45,1.1,1.27v1.74h-.57l-.05-.33h-.02c-.26.23-.57.4-.91.4-.52,0-.87-.35-.87-.86ZM130.61,45.46v-.66c-.8.1-1.07.31-1.07.61,0,.26.18.38.42.38s.42-.12.64-.32Z"/>
      <path class="cls-3" d="M132.13,45.49v-3.48h.69v3.51c0,.17.08.23.15.23.03,0,.06,0,.11-.01l.09.52c-.08.03-.2.06-.36.06-.49,0-.67-.32-.67-.83Z"/>
      <path class="cls-3" d="M133.68,42.39c0-.23.18-.39.43-.39s.43.16.43.39-.18.39-.43.39-.43-.16-.43-.39ZM133.76,43.3h.69v2.95h-.69v-2.95Z"/>
      <path class="cls-3" d="M135.15,44.77c0-.96.6-1.55,1.25-1.55.33,0,.54.12.77.32l-.03-.48v-1.07h.69v4.24h-.57l-.05-.32h-.02c-.22.22-.52.39-.84.39-.73,0-1.21-.57-1.21-1.54ZM137.14,45.41v-1.37c-.2-.18-.4-.24-.6-.24-.37,0-.68.35-.68.97s.24.98.67.98c.23,0,.42-.1.61-.33Z"/>
      <path class="cls-3" d="M138.55,45.45c0-.63.52-.96,1.73-1.09,0-.32-.14-.58-.54-.58-.29,0-.57.13-.83.29l-.25-.46c.32-.2.74-.39,1.21-.39.74,0,1.1.45,1.1,1.27v1.74h-.57l-.05-.33h-.02c-.26.23-.57.4-.91.4-.52,0-.87-.35-.87-.86ZM140.29,45.46v-.66c-.8.1-1.07.31-1.07.61,0,.26.18.38.42.38s.42-.12.64-.32Z"/>
      <path class="cls-3" d="M141.82,45.25v-1.4h-.42v-.52l.46-.03.08-.8h.57v.8h.75v.55h-.75v1.4c0,.35.13.52.42.52.1,0,.22-.03.31-.07l.12.51c-.16.05-.37.11-.6.11-.68,0-.93-.43-.93-1.07Z"/>
      <path class="cls-3" d="M143.8,42.39c0-.23.18-.39.43-.39s.43.16.43.39-.18.39-.43.39-.43-.16-.43-.39ZM143.88,43.3h.69v2.95h-.69v-2.95Z"/>
      <path class="cls-3" d="M145.26,44.77c0-.98.67-1.55,1.4-1.55s1.4.57,1.4,1.55-.67,1.54-1.4,1.54-1.4-.57-1.4-1.54ZM147.35,44.77c0-.59-.26-.98-.69-.98s-.69.39-.69.98.26.98.69.98.69-.39.69-.98Z"/>
      <path class="cls-3" d="M148.75,43.3h.57l.05.4h.02c.26-.26.56-.47.97-.47.63,0,.91.43.91,1.17v1.85h-.69v-1.76c0-.49-.14-.67-.46-.67-.26,0-.43.13-.67.37v2.06h-.69v-2.95Z"/>
    </g>
  </g>
  <g>
    <rect class="cls-6" x="184.8" y="36.44" width="69.07" height="14.51" rx="3.55" ry="3.55"/>
    <g>
      <path class="cls-3" d="M210.03,41.94h.82l1.28,3.92h-.74l-.6-2.09c-.12-.42-.24-.86-.35-1.29h-.02c-.11.43-.22.88-.35,1.29l-.6,2.09h-.71l1.28-3.92ZM209.51,44.25h1.85v.55h-1.85v-.55Z"/>
      <path class="cls-3" d="M212.55,42.92h.57l.05.4h.02c.26-.26.56-.47.97-.47.63,0,.91.43.91,1.17v1.85h-.69v-1.76c0-.49-.14-.67-.46-.67-.26,0-.43.13-.67.37v2.06h-.69v-2.95Z"/>
      <path class="cls-3" d="M215.76,45.07c0-.63.52-.96,1.73-1.09,0-.32-.14-.58-.54-.58-.29,0-.57.13-.83.29l-.25-.46c.32-.2.74-.39,1.21-.39.74,0,1.1.45,1.1,1.27v1.74h-.57l-.05-.33h-.02c-.26.23-.57.4-.91.4-.52,0-.87-.35-.87-.86ZM217.49,45.07v-.66c-.8.1-1.07.31-1.07.61,0,.26.18.38.42.38s.42-.12.64-.32Z"/>
      <path class="cls-3" d="M219.01,45.1v-3.48h.69v3.51c0,.17.08.23.15.23.03,0,.06,0,.11-.01l.09.52c-.08.03-.2.06-.36.06-.49,0-.67-.32-.67-.83Z"/>
      <path class="cls-3" d="M220.45,47.01l.13-.54c.06.02.14.04.21.04.31,0,.49-.21.59-.51l.06-.18-1.16-2.91h.7l.51,1.44c.09.26.17.55.26.83h.02c.07-.27.15-.56.23-.83l.44-1.44h.67l-1.06,3.08c-.24.66-.55,1.07-1.2,1.07-.16,0-.28-.02-.38-.06Z"/>
      <path class="cls-3" d="M223.31,45.52l.32-.44c.26.2.51.33.81.33.32,0,.47-.15.47-.35,0-.25-.32-.36-.63-.48-.39-.15-.83-.37-.83-.86s.41-.88,1.07-.88c.41,0,.74.17.98.35l-.32.42c-.21-.15-.41-.26-.65-.26-.3,0-.44.14-.44.33,0,.23.3.32.62.44.4.15.84.34.84.89,0,.51-.4.91-1.14.91-.4,0-.83-.17-1.12-.41Z"/>
      <path class="cls-3" d="M226.11,42.01c0-.23.18-.39.43-.39s.43.16.43.39-.18.39-.43.39-.43-.16-.43-.39ZM226.19,42.92h.69v2.95h-.69v-2.95Z"/>
      <path class="cls-3" d="M227.47,45.52l.32-.44c.26.2.51.33.81.33.32,0,.47-.15.47-.35,0-.25-.32-.36-.63-.48-.39-.15-.83-.37-.83-.86s.41-.88,1.07-.88c.41,0,.74.17.98.35l-.32.42c-.21-.15-.41-.26-.65-.26-.3,0-.44.14-.44.33,0,.23.3.32.62.44.4.15.84.34.84.89,0,.51-.4.91-1.14.91-.4,0-.83-.17-1.12-.41Z"/>
    </g>
  </g>
  <g>
    <line class="cls-2" x1="184.81" y1="44.47" x2="175.75" y2="44.47"/>
    <polygon class="cls-5" points="176.34 42.48 172.88 44.47 176.34 46.47 176.34 42.48"/>
  </g>
  <g>
    <path class="cls-2" d="M48.84,23.1v-2.15c0-1.95,1.6-3.55,3.55-3.55h48.37"/>
    <polygon class="cls-5" points="100.18 19.39 103.64 17.39 100.18 15.4 100.18 19.39"/>
  </g>
  <g>
    <path class="cls-1" d="M103.8,44.49h-51.41c-1.95,0-3.55-1.6-3.55-3.55v-.46"/>
    <polygon class="cls-5" points="50.84 41.07 48.84 37.61 46.85 41.07 50.84 41.07"/>
  </g>
  <g>
    <path class="cls-2" d="M253.88,17.43h6.27c1.96,0,3.55,1.59,3.55,3.55v19.95c0,1.96-1.59,3.55-3.55,3.55h-3.4"/>
    <polygon class="cls-5" points="257.34 42.48 253.88 44.48 257.34 46.47 257.34 42.48"/>
  </g>
  <g>
    <path class="cls-4" d="M3.04,61.9h2.08v.39h-1.62v1.22h1.37v.39h-1.37v1.61h-.46v-3.61Z"/>
    <path class="cls-4" d="M5.64,62c0-.18.14-.29.31-.29s.31.11.31.29-.14.29-.31.29-.31-.12-.31-.29ZM5.72,62.84h.45v2.67h-.45v-2.67Z"/>
    <path class="cls-4" d="M6.87,66.02c0-.23.15-.44.39-.6v-.02c-.14-.08-.24-.23-.24-.44,0-.22.16-.4.29-.5v-.02c-.18-.14-.35-.4-.35-.72,0-.58.46-.95,1-.95.15,0,.28.03.38.07h.93v.35h-.55c.13.12.22.32.22.55,0,.57-.43.93-.98.93-.13,0-.28-.03-.4-.09-.1.08-.17.17-.17.32,0,.17.11.29.47.29h.52c.62,0,.93.19.93.64,0,.5-.52.92-1.35.92-.65,0-1.1-.26-1.1-.72ZM8.88,65.88c0-.25-.19-.33-.54-.33h-.46c-.1,0-.23-.01-.35-.04-.19.13-.27.29-.27.45,0,.29.29.47.77.47.51,0,.84-.27.84-.54ZM8.54,63.72c0-.39-.25-.62-.57-.62s-.57.23-.57.62.26.63.57.63.57-.25.57-.63Z"/>
    <path class="cls-4" d="M9.81,64.53v-1.69h.45v1.63c0,.5.15.71.5.71.27,0,.46-.14.71-.45v-1.89h.45v2.67h-.37l-.04-.42h-.01c-.25.29-.51.48-.88.48-.56,0-.82-.36-.82-1.04Z"/>
    <path class="cls-4" d="M12.84,62.84h.37l.04.49h.02c.19-.34.46-.55.76-.55.12,0,.2.02.29.05l-.08.4c-.09-.03-.15-.04-.26-.04-.23,0-.49.16-.68.61v1.71h-.45v-2.67Z"/>
    <path class="cls-4" d="M14.49,64.18c0-.87.59-1.4,1.2-1.4.68,0,1.07.49,1.07,1.25,0,.1,0,.19-.02.26h-1.8c.03.57.38.93.89.93.26,0,.47-.08.66-.21l.16.3c-.23.15-.52.28-.88.28-.71,0-1.28-.52-1.28-1.4ZM16.36,63.96c0-.54-.24-.83-.66-.83-.38,0-.71.3-.77.83h1.42Z"/>
    <path class="cls-4" d="M18.5,65.13h.8v-2.58h-.64v-.29c.32-.06.55-.14.75-.26h.35v3.13h.72v.38h-1.98v-.38Z"/>
    <path class="cls-4" d="M21.16,63.25c0-.21.15-.35.33-.35s.33.14.33.35-.15.34-.33.34-.33-.14-.33-.34ZM21.16,65.23c0-.21.15-.35.33-.35s.33.14.33.35-.15.34-.33.34-.33-.14-.33-.34Z"/>
    <path class="cls-4" d="M23.5,65.04l.27-.31c.26.27.62.45.99.45.47,0,.75-.24.75-.59,0-.37-.26-.49-.6-.63l-.52-.23c-.34-.14-.73-.4-.73-.93s.48-.96,1.13-.96c.43,0,.81.18,1.06.45l-.24.29c-.22-.21-.48-.34-.82-.34-.4,0-.67.2-.67.53,0,.35.31.48.6.6l.51.22c.42.18.74.43.74.96,0,.57-.47,1.03-1.23,1.03-.51,0-.95-.21-1.26-.54Z"/>
    <path class="cls-4" d="M26.6,64.68v-1.48h-.4v-.34l.42-.03.05-.75h.38v.75h.72v.37h-.72v1.48c0,.33.11.52.41.52.09,0,.22-.04.3-.07l.09.34c-.15.05-.33.1-.5.1-.57,0-.76-.36-.76-.89Z"/>
    <path class="cls-4" d="M28.1,64.81c0-.58.5-.87,1.64-1,0-.34-.12-.67-.55-.67-.31,0-.59.15-.8.29l-.18-.31c.25-.16.62-.35,1.05-.35.65,0,.93.43.93,1.1v1.64h-.37l-.04-.32h-.01c-.25.21-.55.39-.88.39-.45,0-.78-.28-.78-.76ZM29.74,64.86v-.74c-.9.11-1.2.33-1.2.67,0,.3.21.43.47.43s.47-.13.73-.35Z"/>
    <path class="cls-4" d="M30.84,66.02c0-.23.15-.44.39-.6v-.02c-.14-.08-.24-.23-.24-.44,0-.22.16-.4.29-.5v-.02c-.18-.14-.35-.4-.35-.72,0-.58.46-.95,1-.95.15,0,.28.03.38.07h.93v.35h-.55c.13.12.22.32.22.55,0,.57-.43.93-.98.93-.13,0-.28-.03-.4-.09-.1.08-.17.17-.17.32,0,.17.11.29.47.29h.52c.62,0,.93.19.93.64,0,.5-.52.92-1.35.92-.65,0-1.1-.26-1.1-.72ZM32.85,65.88c0-.25-.19-.33-.54-.33h-.46c-.1,0-.23-.01-.35-.04-.19.13-.27.29-.27.45,0,.29.29.47.77.47.51,0,.84-.27.84-.54ZM32.51,63.72c0-.39-.25-.62-.57-.62s-.57.23-.57.62.26.63.57.63.57-.25.57-.63Z"/>
    <path class="cls-4" d="M33.54,64.18c0-.87.59-1.4,1.2-1.4.68,0,1.07.49,1.07,1.25,0,.1,0,.19-.02.26h-1.8c.03.57.38.93.89.93.26,0,.47-.08.66-.21l.16.3c-.23.15-.52.28-.88.28-.71,0-1.28-.52-1.28-1.4ZM35.4,63.96c0-.54-.24-.83-.66-.83-.38,0-.71.3-.77.83h1.42Z"/>
    <path class="cls-4" d="M36.17,65.2l.22-.3c.23.19.47.32.79.32.35,0,.52-.19.52-.42,0-.27-.32-.4-.61-.51-.37-.14-.8-.32-.8-.77,0-.43.34-.76.92-.76.33,0,.62.14.83.3l-.22.29c-.18-.14-.37-.24-.61-.24-.34,0-.49.18-.49.38,0,.25.29.35.59.46.39.15.81.3.81.81,0,.43-.34.79-.97.79-.38,0-.75-.16-1-.37Z"/>
    <path class="cls-4" d="M39.78,62c0-.18.14-.29.31-.29s.31.11.31.29-.14.29-.31.29-.31-.12-.31-.29ZM39.87,62.84h.45v2.67h-.45v-2.67Z"/>
    <path class="cls-4" d="M41.22,62.84h.37l.04.38h.02c.25-.25.53-.45.9-.45.56,0,.82.36.82,1.04v1.69h-.45v-1.63c0-.5-.15-.71-.5-.71-.27,0-.46.14-.73.41v1.93h-.45v-2.67Z"/>
    <path class="cls-4" d="M45.16,63.71c0-1.16.7-1.87,1.65-1.87.5,0,.83.23,1.04.44l-.25.3c-.18-.19-.41-.34-.78-.34-.73,0-1.19.56-1.19,1.46s.43,1.47,1.2,1.47c.26,0,.51-.08.65-.21v-.94h-.76v-.38h1.18v1.52c-.23.24-.63.42-1.11.42-.95,0-1.63-.7-1.63-1.87Z"/>
    <path class="cls-4" d="M48.52,64.18c0-.87.59-1.4,1.2-1.4.68,0,1.07.49,1.07,1.25,0,.1,0,.19-.02.26h-1.8c.03.57.38.93.89.93.26,0,.47-.08.66-.21l.16.3c-.23.15-.52.28-.88.28-.71,0-1.28-.52-1.28-1.4ZM50.39,63.96c0-.54-.24-.83-.66-.83-.38,0-.71.3-.77.83h1.42Z"/>
    <path class="cls-4" d="M51.25,64.18c0-.89.58-1.4,1.24-1.4s1.24.51,1.24,1.4-.58,1.4-1.24,1.4-1.24-.51-1.24-1.4ZM53.26,64.18c0-.61-.31-1.03-.77-1.03s-.77.42-.77,1.03.31,1.02.77,1.02.77-.41.77-1.02Z"/>
    <path class="cls-4" d="M54.23,66.02c0-.23.15-.44.39-.6v-.02c-.14-.08-.24-.23-.24-.44,0-.22.16-.4.29-.5v-.02c-.18-.14-.35-.4-.35-.72,0-.58.46-.95,1-.95.15,0,.28.03.38.07h.93v.35h-.55c.13.12.22.32.22.55,0,.57-.43.93-.98.93-.13,0-.28-.03-.4-.09-.1.08-.17.17-.17.32,0,.17.11.29.47.29h.52c.62,0,.93.19.93.64,0,.5-.52.92-1.35.92-.65,0-1.1-.26-1.1-.72ZM56.24,65.88c0-.25-.19-.33-.54-.33h-.46c-.1,0-.23-.01-.35-.04-.19.13-.27.29-.27.45,0,.29.29.47.77.47.51,0,.84-.27.84-.54ZM55.9,63.72c0-.39-.25-.62-.57-.62s-.57.23-.57.62.26.63.57.63.57-.25.57-.63Z"/>
    <path class="cls-4" d="M57.2,62.84h.37l.04.49h.02c.19-.34.46-.55.76-.55.12,0,.2.02.29.05l-.08.4c-.09-.03-.15-.04-.26-.04-.23,0-.49.16-.68.61v1.71h-.45v-2.67Z"/>
    <path class="cls-4" d="M58.81,64.81c0-.58.5-.87,1.64-1,0-.34-.12-.67-.55-.67-.31,0-.59.15-.8.29l-.18-.31c.25-.16.62-.35,1.05-.35.65,0,.93.43.93,1.1v1.64h-.37l-.04-.32h-.01c-.25.21-.55.39-.88.39-.45,0-.78-.28-.78-.76ZM60.45,64.86v-.74c-.9.11-1.2.33-1.2.67,0,.3.21.43.47.43s.47-.13.73-.35Z"/>
    <path class="cls-4" d="M61.75,62.84h.37l.04.31h.02c.24-.2.54-.37.85-.37.69,0,1.06.54,1.06,1.36,0,.91-.55,1.44-1.16,1.44-.24,0-.5-.11-.74-.31v.47s.01.9.01.9h-.45v-3.8ZM63.62,64.14c0-.59-.2-.98-.7-.98-.23,0-.45.12-.71.36v1.4c.24.2.47.28.65.28.44,0,.77-.4.77-1.06Z"/>
    <path class="cls-4" d="M64.78,61.59h.45v1.07l-.02.55c.25-.24.52-.44.89-.44.56,0,.82.36.82,1.04v1.69h-.45v-1.63c0-.5-.15-.71-.5-.71-.27,0-.46.14-.73.41v1.93h-.45v-3.91Z"/>
    <path class="cls-4" d="M67.69,62c0-.18.14-.29.31-.29s.31.11.31.29-.14.29-.31.29-.31-.12-.31-.29ZM67.77,62.84h.45v2.67h-.45v-2.67Z"/>
    <path class="cls-4" d="M68.93,64.18c0-.89.6-1.4,1.28-1.4.35,0,.59.14.78.31l-.23.3c-.16-.14-.32-.24-.53-.24-.48,0-.84.42-.84,1.03s.33,1.02.83,1.02c.24,0,.46-.12.63-.27l.2.3c-.24.21-.54.34-.86.34-.71,0-1.25-.51-1.25-1.4Z"/>
    <path class="cls-4" d="M71.42,64.81c0-.58.5-.87,1.64-1,0-.34-.12-.67-.55-.67-.31,0-.59.15-.8.29l-.18-.31c.25-.16.62-.35,1.05-.35.65,0,.93.43.93,1.1v1.64h-.37l-.04-.32h-.01c-.25.21-.55.39-.88.39-.45,0-.78-.28-.78-.76ZM73.06,64.86v-.74c-.9.11-1.2.33-1.2.67,0,.3.21.43.47.43s.47-.13.73-.35Z"/>
    <path class="cls-4" d="M74.35,64.97v-3.38h.45v3.41c0,.14.06.19.13.19.03,0,.05,0,.1-.01l.06.34c-.06.02-.14.04-.26.04-.34,0-.48-.22-.48-.6Z"/>
    <path class="cls-4" d="M77.64,61.9h.52l1.22,3.61h-.49l-.63-2.01c-.13-.4-.25-.8-.36-1.21h-.02c-.11.42-.23.81-.36,1.21l-.64,2.01h-.47l1.22-3.61ZM77.06,64.04h1.66v.37h-1.66v-.37Z"/>
    <path class="cls-4" d="M79.85,62.84h.37l.04.38h.02c.25-.25.53-.45.9-.45.56,0,.82.36.82,1.04v1.69h-.45v-1.63c0-.5-.15-.71-.5-.71-.27,0-.46.14-.73.41v1.93h-.45v-2.67Z"/>
    <path class="cls-4" d="M82.69,64.81c0-.58.5-.87,1.64-1,0-.34-.12-.67-.55-.67-.31,0-.59.15-.8.29l-.18-.31c.25-.16.62-.35,1.05-.35.65,0,.93.43.93,1.1v1.64h-.37l-.04-.32h-.01c-.25.21-.55.39-.88.39-.45,0-.78-.28-.78-.76ZM84.33,64.86v-.74c-.9.11-1.2.33-1.2.67,0,.3.21.43.47.43s.47-.13.73-.35Z"/>
    <path class="cls-4" d="M85.63,64.97v-3.38h.45v3.41c0,.14.06.19.13.19.03,0,.05,0,.1-.01l.06.34c-.06.02-.14.04-.26.04-.34,0-.48-.22-.48-.6Z"/>
    <path class="cls-4" d="M86.76,66.6l.09-.36c.05.02.13.04.2.04.3,0,.49-.24.6-.57l.06-.2-1.07-2.67h.47l.54,1.48c.08.23.17.51.26.75h.02c.08-.24.15-.52.22-.75l.48-1.48h.44l-1.01,2.89c-.19.53-.46.93-1,.93-.12,0-.23-.02-.31-.05Z"/>
    <path class="cls-4" d="M89.3,65.2l.22-.3c.23.19.47.32.79.32.35,0,.52-.19.52-.42,0-.27-.32-.4-.61-.51-.37-.14-.8-.32-.8-.77,0-.43.34-.76.92-.76.33,0,.62.14.83.3l-.22.29c-.18-.14-.37-.24-.61-.24-.34,0-.49.18-.49.38,0,.25.29.35.59.46.39.15.81.3.81.81,0,.43-.34.79-.97.79-.38,0-.75-.16-1-.37Z"/>
    <path class="cls-4" d="M91.82,62c0-.18.14-.29.31-.29s.31.11.31.29-.14.29-.31.29-.31-.12-.31-.29ZM91.9,62.84h.45v2.67h-.45v-2.67Z"/>
    <path class="cls-4" d="M92.96,65.2l.22-.3c.23.19.47.32.79.32.35,0,.52-.19.52-.42,0-.27-.32-.4-.61-.51-.37-.14-.8-.32-.8-.77,0-.43.34-.76.92-.76.33,0,.62.14.83.3l-.22.29c-.18-.14-.37-.24-.61-.24-.34,0-.49.18-.49.38,0,.25.29.35.59.46.39.15.81.3.81.81,0,.43-.34.79-.97.79-.38,0-.75-.16-1-.37Z"/>
  </g>
</svg>