<?xml version="1.0" encoding="UTF-8"?>
<svg id="Layer_1" xmlns="http://www.w3.org/2000/svg" version="1.1" viewBox="0 0 100 94.46">
  <!-- Generator: Adobe Illustrator 30.0.0, SVG Export Plug-In . SVG Version: 2.1.1 Build 123)  -->
  <defs>
    <style>
      .st0 {
        fill: #fffdfd;
      }
    </style>
  </defs>
  <path class="st0" d="M74.9,43.5c-.49,4.38-1.42,7.16-2.63,10.29,0,0,10.47,6.17,12.09,14.12,1.29,6.32-6.16,11.2-19.03,5.78-13.49-5.68-22.44-15.44-24.76-26.54-7.45.45-9.95,2.91-9.95,2.91,0,0,6.12,21.89,31.48,33.39,24.72,11.22,50.75-13.17,12.8-39.94ZM54.54,16.52c9.57-1.88,15.13,31.99-1.81,46.47,0,0,3.35,4.13,8.19,6.18,0,0,14.45-13.37,12.24-38.41-2.21-25.05-18.1-25.32-24.67-22.4-6.58,2.92-16.18,11.91-18.49,27.35,3.9-1.39,5.77-1.7,11.08-2.04,0,0,3.07-15.12,13.47-17.16ZM15.93,70.1c-6.81-12.07,15.01-32.58,44.08-22.38,0,0,1.54-4.01,1.86-9.87,0,0-27.8-8.06-46.26,7.22-12.45,10.3-14.09,26.19-3.77,35.51,8.38,7.57,23.19,7.12,37.23-2.02-3.19-2.36-5.04-3.83-7.77-6.9,0,0-18.55,10.51-25.36-1.56Z"/>
</svg>