<?xml version="1.0" encoding="UTF-8"?>
<svg id="Layer_4" data-name="Layer 4" xmlns="http://www.w3.org/2000/svg" viewBox="0 0 288 68.46">
  <defs>
    <style>
      .cls-1 {
        fill: #fffafc;
      }

      .cls-2 {
        fill: #fff;
      }

      .cls-3 {
        fill: #848484;
      }

      .cls-4 {
        fill: none;
        stroke: #d17c41;
        stroke-miterlimit: 10;
        stroke-width: 2px;
      }

      .cls-5 {
        fill: #a6b1a1;
      }

      .cls-6 {
        fill: #6c8480;
      }
    </style>
  </defs>
  <line class="cls-4" x1="83.95" y1="33.68" x2="192.47" y2="33.68"/>
  <rect class="cls-6" x="14.85" y="16.59" width="69.07" height="33.14" rx="2.91" ry="2.91"/>
  <g>
    <path class="cls-2" d="M35.76,25.82c0-1.28.81-2.05,1.86-2.05.56,0,.94.25,1.18.5l-.37.45c-.2-.19-.43-.34-.79-.34-.7,0-1.16.54-1.16,1.42s.42,1.44,1.2,1.44c.22,0,.43-.06.56-.17v-.85h-.74v-.57h1.36v1.73c-.26.26-.71.47-1.25.47-1.06,0-1.85-.72-1.85-2.02Z"/>
    <path class="cls-2" d="M39.73,23.85h.7v3.92h-.7v-3.92Z"/>
    <path class="cls-2" d="M41.15,27.27l.41-.48c.28.27.66.45,1.02.45.44,0,.68-.2.68-.51,0-.32-.25-.43-.61-.58l-.54-.23c-.39-.16-.79-.47-.79-1.04,0-.62.55-1.11,1.32-1.11.46,0,.9.19,1.21.5l-.36.44c-.25-.21-.52-.34-.85-.34-.37,0-.61.17-.61.46,0,.31.3.42.62.56l.53.22c.47.19.79.49.79,1.06,0,.64-.53,1.17-1.41,1.17-.53,0-1.04-.21-1.41-.58Z"/>
    <path class="cls-2" d="M45.67,26.98c0-.63.52-.96,1.73-1.09,0-.32-.14-.58-.54-.58-.29,0-.57.13-.83.29l-.25-.46c.32-.2.74-.39,1.21-.39.74,0,1.1.45,1.1,1.27v1.74h-.57l-.05-.33h-.02c-.26.23-.57.4-.91.4-.52,0-.87-.35-.87-.86ZM47.41,26.98v-.66c-.8.1-1.07.31-1.07.61,0,.26.18.38.42.38s.42-.12.64-.32Z"/>
    <path class="cls-2" d="M48.64,27.43l.32-.44c.26.2.51.33.81.33.32,0,.47-.15.47-.35,0-.25-.32-.36-.63-.48-.39-.15-.83-.37-.83-.86s.41-.88,1.07-.88c.41,0,.74.17.98.35l-.32.42c-.21-.15-.41-.26-.65-.26-.3,0-.44.14-.44.33,0,.23.3.32.62.44.4.15.84.34.84.89,0,.51-.4.91-1.14.91-.4,0-.83-.17-1.12-.41Z"/>
    <path class="cls-2" d="M53.57,24.43h-1.13v-.58h2.96v.58h-1.13v3.34h-.7v-3.34Z"/>
    <path class="cls-2" d="M55.37,26.3c0-.98.67-1.55,1.4-1.55s1.4.57,1.4,1.55-.67,1.54-1.4,1.54-1.4-.57-1.4-1.54ZM57.46,26.3c0-.59-.26-.98-.69-.98s-.69.39-.69.98.26.98.69.98.69-.39.69-.98Z"/>
    <path class="cls-2" d="M58.66,26.3c0-.98.67-1.55,1.4-1.55s1.4.57,1.4,1.55-.67,1.54-1.4,1.54-1.4-.57-1.4-1.54ZM60.75,26.3c0-.59-.26-.98-.69-.98s-.69.39-.69.98.26.98.69.98.69-.39.69-.98Z"/>
    <path class="cls-2" d="M62.12,27.01v-3.48h.69v3.51c0,.17.08.23.15.23.03,0,.06,0,.11-.01l.09.52c-.08.03-.2.06-.36.06-.49,0-.67-.32-.67-.83Z"/>
  </g>
  <rect class="cls-6" x="192.29" y="16.55" width="69.07" height="33.09" rx="3.55" ry="3.55"/>
  <g>
    <path class="cls-2" d="M210.2,25.98c0-1.28.81-2.05,1.86-2.05.56,0,.94.25,1.18.5l-.37.45c-.2-.19-.43-.34-.79-.34-.7,0-1.16.54-1.16,1.42s.42,1.44,1.2,1.44c.22,0,.43-.06.56-.17v-.85h-.74v-.57h1.36v1.73c-.26.26-.71.47-1.25.47-1.06,0-1.85-.72-1.85-2.02Z"/>
    <path class="cls-2" d="M214.17,24.01h.7v3.92h-.7v-3.92Z"/>
    <path class="cls-2" d="M215.59,27.43l.41-.48c.28.27.66.45,1.02.45.44,0,.68-.2.68-.51,0-.32-.25-.43-.61-.58l-.54-.23c-.39-.16-.79-.47-.79-1.04,0-.62.55-1.11,1.32-1.11.46,0,.9.19,1.21.5l-.36.44c-.25-.21-.52-.34-.85-.34-.37,0-.61.17-.61.46,0,.31.3.42.62.56l.53.22c.47.19.79.49.79,1.06,0,.64-.53,1.17-1.41,1.17-.53,0-1.04-.21-1.41-.58Z"/>
    <path class="cls-2" d="M220.11,27.14c0-.63.52-.96,1.73-1.09,0-.32-.14-.58-.54-.58-.29,0-.57.13-.83.29l-.25-.46c.32-.2.74-.39,1.21-.39.74,0,1.1.45,1.1,1.27v1.74h-.57l-.05-.33h-.02c-.26.23-.57.4-.91.4-.52,0-.87-.35-.87-.86ZM221.85,27.14v-.66c-.8.1-1.07.31-1.07.61,0,.26.18.38.42.38s.42-.12.64-.32Z"/>
    <path class="cls-2" d="M223.08,27.59l.32-.44c.26.2.51.33.81.33.32,0,.47-.15.47-.35,0-.25-.32-.36-.63-.48-.39-.15-.83-.37-.83-.86s.41-.88,1.07-.88c.41,0,.74.17.98.35l-.32.42c-.21-.15-.41-.26-.65-.26-.3,0-.44.14-.44.33,0,.23.3.32.62.44.4.15.84.34.84.89,0,.51-.4.91-1.14.91-.4,0-.83-.17-1.12-.41Z"/>
    <path class="cls-2" d="M226.95,27.43l.41-.48c.28.27.66.45,1.02.45.44,0,.68-.2.68-.51,0-.32-.25-.43-.61-.58l-.54-.23c-.39-.16-.79-.47-.79-1.04,0-.62.55-1.11,1.32-1.11.46,0,.9.19,1.21.5l-.36.44c-.25-.21-.52-.34-.85-.34-.37,0-.61.17-.61.46,0,.31.3.42.62.56l.53.22c.47.19.79.49.79,1.06,0,.64-.53,1.17-1.41,1.17-.53,0-1.04-.21-1.41-.58Z"/>
    <path class="cls-2" d="M230.23,26.46c0-.98.69-1.55,1.48-1.55.37,0,.65.14.86.33l-.34.45c-.16-.14-.3-.22-.49-.22-.48,0-.8.39-.8.98s.32.98.78.98c.23,0,.44-.11.61-.25l.28.46c-.28.24-.63.36-.96.36-.8,0-1.42-.57-1.42-1.54Z"/>
    <path class="cls-2" d="M233.12,24.08c0-.23.18-.39.43-.39s.43.16.43.39-.18.39-.43.39-.43-.16-.43-.39ZM233.2,24.98h.69v2.95h-.69v-2.95Z"/>
    <path class="cls-2" d="M234.57,26.46c0-.96.66-1.55,1.36-1.55.8,0,1.22.58,1.22,1.4,0,.13-.01.26-.03.34h-1.87c.06.52.39.82.87.82.25,0,.47-.08.68-.21l.23.43c-.28.19-.64.32-1.01.32-.81,0-1.45-.57-1.45-1.54ZM236.55,26.18c0-.45-.2-.73-.6-.73-.34,0-.65.26-.71.73h1.31Z"/>
    <path class="cls-2" d="M237.81,24.98h.57l.05.4h.02c.26-.26.56-.47.97-.47.63,0,.91.43.91,1.17v1.85h-.69v-1.76c0-.49-.14-.67-.46-.67-.26,0-.43.13-.67.37v2.06h-.69v-2.95Z"/>
    <path class="cls-2" d="M240.98,26.46c0-.98.69-1.55,1.48-1.55.37,0,.65.14.86.33l-.34.45c-.16-.14-.3-.22-.49-.22-.48,0-.8.39-.8.98s.32.98.78.98c.23,0,.44-.11.61-.25l.28.46c-.28.24-.63.36-.96.36-.8,0-1.42-.57-1.42-1.54Z"/>
    <path class="cls-2" d="M243.6,26.46c0-.96.66-1.55,1.36-1.55.8,0,1.22.58,1.22,1.4,0,.13-.01.26-.03.34h-1.87c.06.52.39.82.87.82.25,0,.47-.08.68-.21l.23.43c-.28.19-.64.32-1.01.32-.81,0-1.45-.57-1.45-1.54ZM245.58,26.18c0-.45-.2-.73-.6-.73-.34,0-.65.26-.71.73h1.31Z"/>
  </g>
  <rect class="cls-5" x="103.38" y="16.59" width="69.07" height="33.15" rx="2.91" ry="2.91"/>
  <g>
    <path class="cls-2" d="M124.1,24.65h-1.13v-.58h2.96v.58h-1.13v3.34h-.7v-3.34Z"/>
    <path class="cls-2" d="M125.9,26.51c0-.98.67-1.55,1.4-1.55s1.4.57,1.4,1.55-.67,1.54-1.4,1.54-1.4-.57-1.4-1.54ZM127.99,26.51c0-.59-.26-.98-.69-.98s-.69.39-.69.98.26.98.69.98.69-.39.69-.98Z"/>
    <path class="cls-2" d="M129.2,26.51c0-.98.67-1.55,1.4-1.55s1.4.57,1.4,1.55-.67,1.54-1.4,1.54-1.4-.57-1.4-1.54ZM131.29,26.51c0-.59-.26-.98-.69-.98s-.69.39-.69.98.26.98.69.98.69-.39.69-.98Z"/>
    <path class="cls-2" d="M132.65,27.23v-3.48h.69v3.51c0,.17.08.23.15.23.03,0,.06,0,.11-.01l.09.52c-.08.03-.2.06-.36.06-.49,0-.67-.32-.67-.83Z"/>
    <path class="cls-2" d="M135.53,24.06h.79l.69,1.92c.09.25.17.51.25.77h.02c.09-.26.16-.52.25-.77l.68-1.92h.79v3.92h-.64v-1.79c0-.36.06-.88.09-1.25h-.02l-.32.91-.65,1.76h-.41l-.65-1.76-.31-.91h-.02c.03.36.09.89.09,1.25v1.79h-.63v-3.92Z"/>
    <path class="cls-2" d="M139.79,27.19c0-.63.52-.96,1.73-1.09,0-.32-.14-.58-.54-.58-.29,0-.57.13-.83.29l-.25-.46c.32-.2.74-.39,1.21-.39.74,0,1.1.45,1.1,1.27v1.74h-.57l-.05-.33h-.02c-.26.23-.57.4-.91.4-.52,0-.87-.35-.87-.86ZM141.52,27.19v-.66c-.8.1-1.07.31-1.07.61,0,.26.18.38.42.38s.42-.12.64-.32Z"/>
    <path class="cls-2" d="M143.04,23.75h.68v2.65h.02l1.09-1.35h.76l-1.01,1.2,1.11,1.75h-.75l-.76-1.28-.46.53v.75h-.68v-4.24Z"/>
    <path class="cls-2" d="M146.09,24.13c0-.23.18-.39.43-.39s.43.16.43.39-.18.39-.43.39-.43-.16-.43-.39ZM146.17,25.04h.69v2.95h-.69v-2.95Z"/>
    <path class="cls-2" d="M147.74,25.04h.57l.05.4h.02c.26-.26.56-.47.97-.47.63,0,.91.43.91,1.17v1.85h-.69v-1.76c0-.49-.14-.67-.46-.67-.26,0-.43.13-.67.37v2.06h-.69v-2.95Z"/>
    <path class="cls-2" d="M150.9,28.52c0-.25.15-.47.42-.63v-.02c-.15-.1-.27-.25-.27-.49s.16-.43.33-.55v-.02c-.2-.15-.39-.43-.39-.78,0-.68.55-1.06,1.16-1.06.16,0,.32.03.44.07h1.05v.51h-.54c.1.11.17.29.17.49,0,.66-.5,1.01-1.12,1.01-.12,0-.27-.03-.4-.08-.09.08-.14.15-.14.28,0,.17.12.27.48.27h.52c.7,0,1.08.22,1.08.73,0,.58-.61,1.04-1.57,1.04-.7,0-1.23-.25-1.23-.77ZM153.03,28.36c0-.23-.18-.29-.52-.29h-.4c-.16,0-.29-.01-.4-.04-.16.12-.23.25-.23.39,0,.27.29.42.75.42s.8-.22.8-.48ZM152.67,26.02c0-.37-.22-.58-.51-.58s-.51.21-.51.58.23.59.51.59.51-.22.51-.59Z"/>
  </g>
  <g>
    <path class="cls-1" d="M27.17,33.11h.47l1.11,3.29h-.44l-.57-1.83c-.12-.37-.22-.73-.33-1.11h-.02c-.1.38-.21.74-.33,1.11l-.58,1.83h-.43l1.11-3.29ZM26.64,35.06h1.51v.33h-1.51v-.33Z"/>
    <path class="cls-1" d="M29.18,33.96h.34l.03.28h.01c.22-.18.49-.34.78-.34.63,0,.96.49.96,1.24,0,.83-.5,1.31-1.05,1.31-.22,0-.45-.1-.67-.28v.42s.01.82.01.82h-.41v-3.46ZM30.88,35.14c0-.54-.18-.9-.64-.9-.21,0-.41.11-.65.33v1.28c.22.18.43.25.59.25.4,0,.7-.36.7-.96Z"/>
    <path class="cls-1" d="M31.95,33.96h.34l.03.28h.01c.22-.18.49-.34.78-.34.63,0,.96.49.96,1.24,0,.83-.5,1.31-1.05,1.31-.22,0-.45-.1-.67-.28v.42s.01.82.01.82h-.41v-3.46ZM33.66,35.14c0-.54-.18-.9-.64-.9-.21,0-.41.11-.65.33v1.28c.22.18.43.25.59.25.4,0,.7-.36.7-.96Z"/>
    <path class="cls-1" d="M34.71,35.9v-3.08h.41v3.11c0,.13.05.18.11.18.02,0,.04,0,.09-.01l.06.31c-.06.02-.13.04-.24.04-.31,0-.44-.2-.44-.55Z"/>
    <path class="cls-1" d="M35.91,33.19c0-.16.12-.27.28-.27s.28.1.28.27-.12.27-.28.27-.28-.11-.28-.27ZM35.98,33.96h.41v2.43h-.41v-2.43Z"/>
    <path class="cls-1" d="M37.03,35.18c0-.81.55-1.28,1.17-1.28.32,0,.54.13.71.29l-.21.27c-.14-.13-.29-.21-.48-.21-.44,0-.76.38-.76.94s.31.93.75.93c.22,0,.42-.11.57-.24l.18.28c-.22.19-.49.31-.79.31-.65,0-1.14-.47-1.14-1.27Z"/>
    <path class="cls-1" d="M39.29,35.76c0-.53.46-.79,1.49-.91,0-.31-.1-.62-.5-.62-.28,0-.54.13-.73.26l-.16-.28c.22-.15.56-.32.96-.32.59,0,.84.39.84,1v1.49h-.34l-.03-.29h-.01c-.23.19-.5.35-.8.35-.41,0-.71-.25-.71-.69ZM40.79,35.8v-.68c-.82.1-1.09.3-1.09.61,0,.28.19.39.43.39s.43-.11.66-.32Z"/>
    <path class="cls-1" d="M41.96,35.64v-1.35h-.36v-.31l.38-.02.05-.68h.34v.68h.66v.33h-.66v1.35c0,.3.1.47.38.47.09,0,.2-.03.28-.07l.08.31c-.14.05-.3.09-.45.09-.52,0-.69-.33-.69-.81Z"/>
    <path class="cls-1" d="M43.51,33.19c0-.16.12-.27.28-.27s.28.1.28.27-.12.27-.28.27-.28-.11-.28-.27ZM43.58,33.96h.41v2.43h-.41v-2.43Z"/>
    <path class="cls-1" d="M44.63,35.18c0-.81.53-1.28,1.13-1.28s1.13.47,1.13,1.28-.53,1.27-1.13,1.27-1.13-.47-1.13-1.27ZM46.46,35.18c0-.56-.28-.94-.7-.94s-.7.38-.7.94.28.93.7.93.7-.37.7-.93Z"/>
    <path class="cls-1" d="M47.52,33.96h.34l.03.35h.01c.23-.23.48-.41.82-.41.51,0,.74.33.74.95v1.54h-.41v-1.49c0-.45-.14-.65-.46-.65-.25,0-.42.13-.67.37v1.76h-.41v-2.43Z"/>
    <path class="cls-1" d="M50.05,34.98h1.15v.32h-1.15v-.32Z"/>
    <path class="cls-1" d="M51.64,35.18c0-.79.5-1.28,1.05-1.28.28,0,.47.11.68.28l-.02-.42v-.94h.41v3.57h-.34l-.03-.29h-.01c-.19.19-.45.35-.74.35-.61,0-1-.46-1-1.27ZM53.36,35.77v-1.28c-.21-.18-.39-.25-.59-.25-.39,0-.7.38-.7.93,0,.58.24.93.67.93.23,0,.42-.11.62-.33Z"/>
    <path class="cls-1" d="M54.59,33.96h.34l.03.44h.01c.17-.31.42-.5.69-.5.11,0,.18.01.26.05l-.08.36c-.08-.03-.14-.04-.24-.04-.21,0-.45.15-.62.56v1.56h-.41v-2.43Z"/>
    <path class="cls-1" d="M56.25,33.19c0-.16.12-.27.28-.27s.28.1.28.27-.12.27-.28.27-.28-.11-.28-.27ZM56.32,33.96h.41v2.43h-.41v-2.43Z"/>
    <path class="cls-1" d="M57.2,33.96h.42l.46,1.38c.07.24.15.49.22.72h.02c.07-.23.15-.48.22-.72l.46-1.38h.4l-.86,2.43h-.48l-.88-2.43Z"/>
    <path class="cls-1" d="M59.69,35.18c0-.79.53-1.28,1.09-1.28.62,0,.97.45.97,1.14,0,.09,0,.17-.02.23h-1.64c.03.51.34.85.81.85.23,0,.43-.08.61-.19l.15.27c-.21.14-.47.25-.8.25-.65,0-1.16-.47-1.16-1.27ZM61.39,34.98c0-.49-.22-.75-.6-.75-.34,0-.65.27-.7.75h1.3Z"/>
    <path class="cls-1" d="M62.35,33.96h.34l.03.35h.01c.23-.23.48-.41.82-.41.51,0,.74.33.74.95v1.54h-.41v-1.49c0-.45-.14-.65-.46-.65-.25,0-.42.13-.67.37v1.76h-.41v-2.43Z"/>
    <path class="cls-1" d="M66.11,35.04v-1.93h.42v1.94c0,.79.33,1.04.76,1.04s.78-.25.78-1.04v-1.94h.4v1.93c0,1.05-.51,1.42-1.18,1.42s-1.18-.36-1.18-1.42Z"/>
    <path class="cls-1" d="M69.02,36.11l.2-.27c.21.17.43.29.72.29.32,0,.48-.17.48-.38,0-.25-.29-.36-.56-.46-.34-.12-.73-.29-.73-.7,0-.39.31-.69.84-.69.3,0,.57.12.76.27l-.2.26c-.17-.12-.34-.22-.55-.22-.31,0-.45.16-.45.35,0,.23.26.32.54.42.35.13.74.28.74.74,0,.39-.31.72-.89.72-.35,0-.68-.15-.91-.34Z"/>
    <path class="cls-1" d="M71.2,35.18c0-.79.53-1.28,1.09-1.28.62,0,.97.45.97,1.14,0,.09,0,.17-.02.23h-1.64c.03.51.34.85.81.85.23,0,.43-.08.61-.19l.15.27c-.21.14-.47.25-.8.25-.65,0-1.16-.47-1.16-1.27ZM72.9,34.98c0-.49-.22-.75-.6-.75-.34,0-.65.27-.7.75h1.3Z"/>
    <path class="cls-1" d="M22.48,39.11h.82c1.01,0,1.55.59,1.55,1.63s-.54,1.65-1.53,1.65h-.84v-3.29ZM23.27,42.05c.77,0,1.15-.48,1.15-1.31s-.38-1.29-1.15-1.29h-.37v2.6h.37Z"/>
    <path class="cls-1" d="M25.33,41.18c0-.81.53-1.28,1.13-1.28s1.13.47,1.13,1.28-.53,1.27-1.13,1.27-1.13-.47-1.13-1.27ZM27.16,41.18c0-.56-.28-.94-.7-.94s-.7.38-.7.94.28.93.7.93.7-.37.7-.93Z"/>
    <path class="cls-1" d="M28.23,39.96h.34l.03.35h.01c.21-.23.47-.41.76-.41.37,0,.57.18.67.46.25-.27.51-.46.8-.46.5,0,.74.33.74.95v1.54h-.41v-1.49c0-.45-.14-.65-.45-.65-.19,0-.38.12-.61.37v1.76h-.41v-1.49c0-.45-.14-.65-.45-.65-.18,0-.38.12-.61.37v1.76h-.41v-2.43Z"/>
    <path class="cls-1" d="M32.22,41.76c0-.53.46-.79,1.49-.91,0-.31-.1-.62-.5-.62-.28,0-.54.13-.73.26l-.16-.28c.22-.15.56-.32.96-.32.59,0,.84.39.84,1v1.49h-.34l-.03-.29h-.01c-.23.19-.5.35-.8.35-.41,0-.71-.25-.71-.69ZM33.71,41.8v-.68c-.82.1-1.09.3-1.09.61,0,.28.19.39.43.39s.43-.11.66-.32Z"/>
    <path class="cls-1" d="M34.81,39.19c0-.16.12-.27.28-.27s.28.1.28.27-.12.27-.28.27-.28-.11-.28-.27ZM34.89,39.96h.41v2.43h-.41v-2.43Z"/>
    <path class="cls-1" d="M36.12,39.96h.34l.03.35h.01c.23-.23.48-.41.82-.41.51,0,.74.33.74.95v1.54h-.41v-1.49c0-.45-.14-.65-.46-.65-.25,0-.42.13-.67.37v1.76h-.41v-2.43Z"/>
    <path class="cls-1" d="M39.65,41.96l.25-.29c.24.25.56.41.91.41.43,0,.69-.21.69-.53,0-.34-.24-.44-.55-.58l-.47-.21c-.31-.13-.67-.36-.67-.85s.44-.87,1.03-.87c.39,0,.74.17.97.41l-.22.27c-.2-.19-.44-.31-.75-.31-.37,0-.61.19-.61.48,0,.32.29.43.54.54l.47.2c.38.16.68.39.68.88,0,.52-.43.93-1.12.93-.46,0-.86-.19-1.15-.49Z"/>
    <path class="cls-1" d="M42.34,41.18c0-.81.55-1.28,1.17-1.28.32,0,.54.13.71.29l-.21.27c-.14-.13-.29-.21-.48-.21-.44,0-.76.38-.76.94s.31.93.75.93c.22,0,.42-.11.57-.24l.18.28c-.22.19-.49.31-.79.31-.65,0-1.14-.47-1.14-1.27Z"/>
    <path class="cls-1" d="M44.73,39.19c0-.16.12-.27.28-.27s.28.1.28.27-.12.27-.28.27-.28-.11-.28-.27ZM44.8,39.96h.41v2.43h-.41v-2.43Z"/>
    <path class="cls-1" d="M45.85,41.18c0-.79.53-1.28,1.09-1.28.62,0,.97.45.97,1.14,0,.09,0,.17-.02.23h-1.64c.03.51.34.85.81.85.23,0,.43-.08.61-.19l.15.27c-.21.14-.47.25-.8.25-.65,0-1.16-.47-1.16-1.27ZM47.55,40.98c0-.49-.22-.75-.6-.75-.34,0-.65.27-.7.75h1.3Z"/>
    <path class="cls-1" d="M48.51,39.96h.34l.03.35h.01c.23-.23.48-.41.82-.41.51,0,.74.33.74.95v1.54h-.41v-1.49c0-.45-.14-.65-.46-.65-.25,0-.42.13-.67.37v1.76h-.41v-2.43Z"/>
    <path class="cls-1" d="M51.07,41.18c0-.81.55-1.28,1.17-1.28.32,0,.54.13.71.29l-.21.27c-.14-.13-.29-.21-.48-.21-.44,0-.76.38-.76.94s.31.93.75.93c.22,0,.42-.11.57-.24l.18.28c-.22.19-.49.31-.79.31-.65,0-1.14-.47-1.14-1.27Z"/>
    <path class="cls-1" d="M53.24,41.18c0-.79.53-1.28,1.09-1.28.62,0,.97.45.97,1.14,0,.09,0,.17-.02.23h-1.64c.03.51.34.85.81.85.23,0,.43-.08.61-.19l.15.27c-.21.14-.47.25-.8.25-.65,0-1.16-.47-1.16-1.27ZM54.94,40.98c0-.49-.22-.75-.6-.75-.34,0-.65.27-.7.75h1.3Z"/>
    <path class="cls-1" d="M56.75,40.74c0-1.05.58-1.69,1.4-1.69s1.4.64,1.4,1.69-.58,1.71-1.4,1.71-1.4-.66-1.4-1.71ZM59.13,40.74c0-.82-.39-1.32-.97-1.32s-.97.5-.97,1.32.39,1.37.97,1.37.97-.53.97-1.37ZM57.93,42.38l.43-.03c.13.35.45.52.84.52.15,0,.26-.02.35-.05l.08.32c-.1.04-.27.08-.47.08-.63,0-1.06-.36-1.23-.84Z"/>
    <path class="cls-1" d="M60.19,41.5v-1.54h.41v1.49c0,.45.14.65.46.65.25,0,.42-.12.65-.41v-1.73h.41v2.43h-.34l-.04-.38h-.01c-.23.27-.47.44-.8.44-.51,0-.74-.33-.74-.95Z"/>
    <path class="cls-1" d="M62.76,41.18c0-.79.53-1.28,1.09-1.28.62,0,.97.45.97,1.14,0,.09,0,.17-.02.23h-1.64c.03.51.34.85.81.85.23,0,.43-.08.61-.19l.15.27c-.21.14-.47.25-.8.25-.65,0-1.16-.47-1.16-1.27ZM64.46,40.98c0-.49-.22-.75-.6-.75-.34,0-.65.27-.7.75h1.3Z"/>
    <path class="cls-1" d="M65.15,42.11l.2-.27c.21.17.43.29.72.29.32,0,.48-.17.48-.38,0-.25-.29-.36-.56-.46-.34-.12-.73-.29-.73-.7,0-.39.31-.69.84-.69.3,0,.57.12.76.27l-.2.26c-.17-.12-.34-.22-.55-.22-.31,0-.45.16-.45.35,0,.23.26.32.54.42.35.13.74.28.74.74,0,.39-.31.72-.89.72-.35,0-.68-.15-.91-.34Z"/>
    <path class="cls-1" d="M67.49,41.64v-1.35h-.36v-.31l.38-.02.05-.68h.34v.68h.66v.33h-.66v1.35c0,.3.1.47.38.47.09,0,.2-.03.28-.07l.08.31c-.14.05-.3.09-.45.09-.52,0-.69-.33-.69-.81Z"/>
    <path class="cls-1" d="M69.03,39.19c0-.16.12-.27.28-.27s.28.1.28.27-.12.27-.28.27-.28-.11-.28-.27ZM69.11,39.96h.41v2.43h-.41v-2.43Z"/>
    <path class="cls-1" d="M70.16,41.18c0-.81.53-1.28,1.13-1.28s1.13.47,1.13,1.28-.53,1.27-1.13,1.27-1.13-.47-1.13-1.27ZM71.99,41.18c0-.56-.28-.94-.7-.94s-.7.38-.7.94.28.93.7.93.7-.37.7-.93Z"/>
    <path class="cls-1" d="M73.05,39.96h.34l.03.35h.01c.23-.23.48-.41.82-.41.51,0,.74.33.74.95v1.54h-.41v-1.49c0-.45-.14-.65-.46-.65-.25,0-.42.13-.67.37v1.76h-.41v-2.43Z"/>
    <path class="cls-1" d="M75.51,42.11l.2-.27c.21.17.43.29.72.29.32,0,.48-.17.48-.38,0-.25-.29-.36-.56-.46-.34-.12-.73-.29-.73-.7,0-.39.31-.69.84-.69.3,0,.57.12.76.27l-.2.26c-.17-.12-.34-.22-.55-.22-.31,0-.45.16-.45.35,0,.23.26.32.54.42.35.13.74.28.74.74,0,.39-.31.72-.89.72-.35,0-.68-.15-.91-.34Z"/>
  </g>
  <g>
    <path class="cls-1" d="M120.24,33.22h.5l.63,1.76c.08.22.15.46.23.68h.02c.08-.23.15-.46.23-.68l.62-1.76h.5v3.29h-.39v-1.81c0-.29.03-.68.05-.97h-.02l-.26.75-.62,1.7h-.28l-.62-1.7-.26-.75h-.02c.02.29.05.69.05.97v1.81h-.38v-3.29Z"/>
    <path class="cls-1" d="M123.65,35.3c0-.79.53-1.28,1.09-1.28.62,0,.97.45.97,1.14,0,.09,0,.17-.02.23h-1.64c.03.51.34.85.81.85.23,0,.43-.08.61-.19l.15.27c-.21.14-.47.25-.8.25-.65,0-1.16-.47-1.16-1.27ZM125.35,35.1c0-.49-.22-.75-.6-.75-.34,0-.65.27-.7.75h1.3Z"/>
    <path class="cls-1" d="M126.34,35.76v-1.35h-.36v-.31l.38-.02.05-.68h.34v.68h.66v.33h-.66v1.35c0,.3.1.47.38.47.09,0,.2-.03.28-.07l.08.31c-.14.05-.3.09-.45.09-.52,0-.69-.33-.69-.81Z"/>
    <path class="cls-1" d="M127.95,32.94h.41v1.47c.21-.22.46-.4.79-.4.51,0,.74.33.74.95v1.54h-.41v-1.49c0-.45-.14-.65-.46-.65-.25,0-.42.13-.67.37v1.76h-.41v-3.57Z"/>
    <path class="cls-1" d="M130.49,35.3c0-.81.53-1.28,1.13-1.28s1.13.47,1.13,1.28-.53,1.27-1.13,1.27-1.13-.47-1.13-1.27ZM132.32,35.3c0-.56-.28-.94-.7-.94s-.7.38-.7.94.28.93.7.93.7-.37.7-.93Z"/>
    <path class="cls-1" d="M133.21,35.3c0-.79.5-1.28,1.05-1.28.28,0,.47.11.68.28l-.02-.42v-.94h.41v3.57h-.34l-.03-.29h-.01c-.19.19-.45.35-.74.35-.61,0-1-.46-1-1.27ZM134.93,35.89v-1.28c-.21-.18-.39-.25-.59-.25-.39,0-.7.38-.7.93,0,.58.24.93.67.93.23,0,.42-.11.62-.33Z"/>
    <path class="cls-1" d="M135.89,36.23l.2-.27c.21.17.43.29.72.29.32,0,.48-.17.48-.38,0-.25-.29-.36-.56-.46-.34-.12-.73-.29-.73-.7,0-.39.31-.69.84-.69.3,0,.57.12.76.27l-.2.26c-.17-.12-.34-.22-.55-.22-.31,0-.45.16-.45.35,0,.23.26.32.54.42.35.13.74.28.74.74,0,.39-.31.72-.89.72-.35,0-.68-.15-.91-.34Z"/>
    <path class="cls-1" d="M139,35.66c0-.97,1.5-1.13,1.5-1.84,0-.19-.09-.36-.31-.36-.25,0-.4.21-.4.48,0,.61.67,1.43,1.3,1.9.26.19.51.33.72.39l-.11.34c-.26-.07-.56-.22-.86-.46-.72-.56-1.41-1.47-1.41-2.17,0-.44.3-.78.76-.78.41,0,.65.27.65.65,0,.84-1.44,1.1-1.44,1.82,0,.36.29.61.65.61.27,0,.54-.16.75-.39.27-.29.47-.67.59-1.12h.38c-.14.49-.37.94-.69,1.31-.28.31-.62.52-1.09.52-.59,0-1-.38-1-.91Z"/>
    <path class="cls-1" d="M143.1,36.08l.25-.29c.24.25.56.41.91.41.43,0,.69-.21.69-.53,0-.34-.24-.44-.55-.58l-.47-.21c-.31-.13-.67-.36-.67-.85s.44-.87,1.03-.87c.39,0,.74.17.97.41l-.22.27c-.2-.19-.44-.31-.75-.31-.37,0-.61.19-.61.48,0,.32.29.43.54.54l.47.2c.38.16.68.39.68.88,0,.52-.43.93-1.12.93-.46,0-.86-.19-1.15-.49Z"/>
    <path class="cls-1" d="M145.72,37.51l.08-.33s.12.04.19.04c.27,0,.45-.22.55-.52l.06-.18-.98-2.44h.42l.5,1.35c.08.21.16.46.24.69h.02c.07-.22.14-.47.2-.69l.43-1.35h.4l-.92,2.63c-.17.48-.42.85-.91.85-.11,0-.21-.02-.29-.05Z"/>
    <path class="cls-1" d="M148.03,36.23l.2-.27c.21.17.43.29.72.29.32,0,.48-.17.48-.38,0-.25-.29-.36-.56-.46-.34-.12-.73-.29-.73-.7,0-.39.31-.69.84-.69.3,0,.57.12.76.27l-.2.26c-.17-.12-.34-.22-.55-.22-.31,0-.45.16-.45.35,0,.23.26.32.54.42.35.13.74.28.74.74,0,.39-.31.72-.89.72-.35,0-.68-.15-.91-.34Z"/>
    <path class="cls-1" d="M150.37,35.76v-1.35h-.36v-.31l.38-.02.05-.68h.34v.68h.66v.33h-.66v1.35c0,.3.1.47.38.47.09,0,.2-.03.28-.07l.08.31c-.14.05-.3.09-.45.09-.52,0-.69-.33-.69-.81Z"/>
    <path class="cls-1" d="M151.74,35.3c0-.79.53-1.28,1.09-1.28.62,0,.97.45.97,1.14,0,.09,0,.17-.02.23h-1.64c.03.51.34.85.81.85.23,0,.43-.08.61-.19l.15.27c-.21.14-.47.25-.8.25-.65,0-1.16-.47-1.16-1.27ZM153.44,35.1c0-.49-.22-.75-.6-.75-.34,0-.65.27-.7.75h1.3Z"/>
    <path class="cls-1" d="M154.4,34.08h.34l.03.35h.01c.21-.23.47-.41.76-.41.37,0,.57.18.67.46.25-.27.51-.46.8-.46.5,0,.74.33.74.95v1.54h-.41v-1.49c0-.45-.14-.65-.45-.65-.19,0-.38.12-.61.37v1.76h-.41v-1.49c0-.45-.14-.65-.45-.65-.18,0-.38.12-.61.37v1.76h-.41v-2.43Z"/>
    <path class="cls-1" d="M125.82,39.22h.82c1.01,0,1.55.59,1.55,1.63s-.54,1.65-1.53,1.65h-.84v-3.29ZM126.61,42.17c.77,0,1.15-.48,1.15-1.31s-.38-1.29-1.15-1.29h-.37v2.6h.37Z"/>
    <path class="cls-1" d="M128.67,41.3c0-.79.53-1.28,1.09-1.28.62,0,.97.45.97,1.14,0,.09,0,.17-.02.23h-1.64c.03.51.34.85.81.85.23,0,.43-.08.61-.19l.15.27c-.21.14-.47.25-.8.25-.65,0-1.16-.47-1.16-1.27ZM130.37,41.1c0-.49-.22-.75-.6-.75-.34,0-.65.27-.7.75h1.3Z"/>
    <path class="cls-1" d="M131.01,40.08h.42l.46,1.38c.07.24.15.49.22.72h.02c.07-.23.15-.48.22-.72l.46-1.38h.4l-.86,2.43h-.48l-.88-2.43Z"/>
    <path class="cls-1" d="M133.49,41.3c0-.79.53-1.28,1.09-1.28.62,0,.97.45.97,1.14,0,.09,0,.17-.02.23h-1.64c.03.51.34.85.81.85.23,0,.43-.08.61-.19l.15.27c-.21.14-.47.25-.8.25-.65,0-1.16-.47-1.16-1.27ZM135.19,41.1c0-.49-.22-.75-.6-.75-.34,0-.65.27-.7.75h1.3Z"/>
    <path class="cls-1" d="M136.15,42.02v-3.08h.41v3.11c0,.13.05.18.11.18.02,0,.04,0,.09-.01l.06.31c-.06.02-.13.04-.24.04-.31,0-.44-.2-.44-.55Z"/>
    <path class="cls-1" d="M137.25,41.3c0-.81.53-1.28,1.13-1.28s1.13.47,1.13,1.28-.53,1.27-1.13,1.27-1.13-.47-1.13-1.27ZM139.08,41.3c0-.56-.28-.94-.7-.94s-.7.38-.7.94.28.93.7.93.7-.37.7-.93Z"/>
    <path class="cls-1" d="M140.14,40.08h.34l.03.28h.01c.22-.18.49-.34.78-.34.63,0,.96.49.96,1.24,0,.83-.5,1.31-1.05,1.31-.22,0-.45-.1-.67-.28v.42s.01.82.01.82h-.41v-3.46ZM141.84,41.26c0-.54-.18-.9-.64-.9-.21,0-.41.11-.65.33v1.28c.22.18.43.25.59.25.4,0,.7-.36.7-.96Z"/>
    <path class="cls-1" d="M142.91,40.08h.34l.03.35h.01c.21-.23.47-.41.76-.41.37,0,.57.18.67.46.25-.27.51-.46.8-.46.5,0,.74.33.74.95v1.54h-.41v-1.49c0-.45-.14-.65-.45-.65-.19,0-.38.12-.61.37v1.76h-.41v-1.49c0-.45-.14-.65-.45-.65-.18,0-.38.12-.61.37v1.76h-.41v-2.43Z"/>
    <path class="cls-1" d="M146.88,41.3c0-.79.53-1.28,1.09-1.28.62,0,.97.45.97,1.14,0,.09,0,.17-.02.23h-1.64c.03.51.34.85.81.85.23,0,.43-.08.61-.19l.15.27c-.21.14-.47.25-.8.25-.65,0-1.16-.47-1.16-1.27ZM148.58,41.1c0-.49-.22-.75-.6-.75-.34,0-.65.27-.7.75h1.3Z"/>
    <path class="cls-1" d="M149.54,40.08h.34l.03.35h.01c.23-.23.48-.41.82-.41.51,0,.74.33.74.95v1.54h-.41v-1.49c0-.45-.14-.65-.46-.65-.25,0-.42.13-.67.37v1.76h-.41v-2.43Z"/>
    <path class="cls-1" d="M152.35,41.76v-1.35h-.36v-.31l.38-.02.05-.68h.34v.68h.66v.33h-.66v1.35c0,.3.1.47.38.47.09,0,.2-.03.28-.07l.08.31c-.14.05-.3.09-.45.09-.52,0-.69-.33-.69-.81Z"/>
  </g>
  <g>
    <path class="cls-1" d="M203.77,33.04h1.89v.35h-1.48v1.11h1.25v.35h-1.25v1.47h-.42v-3.29Z"/>
    <path class="cls-1" d="M205.95,35.11c0-.81.53-1.28,1.13-1.28s1.13.47,1.13,1.28-.53,1.27-1.13,1.27-1.13-.47-1.13-1.27ZM207.78,35.11c0-.56-.28-.94-.7-.94s-.7.38-.7.94.28.93.7.93.7-.37.7-.93Z"/>
    <path class="cls-1" d="M208.81,35.44v-1.54h.41v1.49c0,.45.14.65.46.65.25,0,.42-.12.65-.41v-1.73h.41v2.43h-.34l-.04-.38h-.01c-.23.27-.47.44-.8.44-.51,0-.74-.33-.74-.95Z"/>
    <path class="cls-1" d="M211.56,33.9h.34l.03.35h.01c.23-.23.48-.41.82-.41.51,0,.74.33.74.95v1.54h-.41v-1.49c0-.45-.14-.65-.46-.65-.25,0-.42.13-.67.37v1.76h-.41v-2.43Z"/>
    <path class="cls-1" d="M214.12,35.11c0-.79.5-1.28,1.05-1.28.28,0,.47.11.68.28l-.02-.42v-.94h.41v3.57h-.34l-.03-.29h-.01c-.19.19-.45.35-.74.35-.61,0-1-.46-1-1.27ZM215.84,35.71v-1.28c-.21-.18-.39-.25-.59-.25-.39,0-.7.38-.7.93,0,.58.24.93.67.93.23,0,.42-.11.62-.33Z"/>
    <path class="cls-1" d="M216.92,35.7c0-.53.46-.79,1.49-.91,0-.31-.1-.62-.5-.62-.28,0-.54.13-.73.26l-.16-.28c.22-.15.56-.32.96-.32.59,0,.84.39.84,1v1.49h-.34l-.03-.29h-.01c-.23.19-.5.35-.8.35-.41,0-.71-.25-.71-.69ZM218.42,35.73v-.68c-.82.1-1.09.3-1.09.61,0,.28.19.39.43.39s.43-.11.66-.32Z"/>
    <path class="cls-1" d="M219.59,35.58v-1.35h-.36v-.31l.38-.02.05-.68h.34v.68h.66v.33h-.66v1.35c0,.3.1.47.38.47.09,0,.2-.03.28-.07l.08.31c-.14.05-.3.09-.45.09-.52,0-.69-.33-.69-.81Z"/>
    <path class="cls-1" d="M221.14,33.13c0-.16.12-.27.28-.27s.28.1.28.27-.12.27-.28.27-.28-.11-.28-.27ZM221.21,33.9h.41v2.43h-.41v-2.43Z"/>
    <path class="cls-1" d="M222.26,35.11c0-.81.53-1.28,1.13-1.28s1.13.47,1.13,1.28-.53,1.27-1.13,1.27-1.13-.47-1.13-1.27ZM224.09,35.11c0-.56-.28-.94-.7-.94s-.7.38-.7.94.28.93.7.93.7-.37.7-.93Z"/>
    <path class="cls-1" d="M225.15,33.9h.34l.03.35h.01c.23-.23.48-.41.82-.41.51,0,.74.33.74.95v1.54h-.41v-1.49c0-.45-.14-.65-.46-.65-.25,0-.42.13-.67.37v1.76h-.41v-2.43Z"/>
    <path class="cls-1" d="M227.74,35.7c0-.53.46-.79,1.49-.91,0-.31-.1-.62-.5-.62-.28,0-.54.13-.73.26l-.16-.28c.22-.15.56-.32.96-.32.59,0,.84.39.84,1v1.49h-.34l-.03-.29h-.01c-.23.19-.5.35-.8.35-.41,0-.71-.25-.71-.69ZM229.23,35.73v-.68c-.82.1-1.09.3-1.09.61,0,.28.19.39.43.39s.43-.11.66-.32Z"/>
    <path class="cls-1" d="M230.41,35.84v-3.08h.41v3.11c0,.13.05.18.11.18.02,0,.04,0,.09-.01l.06.31c-.06.02-.13.04-.24.04-.31,0-.44-.2-.44-.55Z"/>
    <path class="cls-1" d="M232.53,34.67c0-1.05.58-1.69,1.4-1.69s1.4.64,1.4,1.69-.58,1.71-1.4,1.71-1.4-.66-1.4-1.71ZM234.91,34.67c0-.82-.39-1.32-.97-1.32s-.97.5-.97,1.32.39,1.37.97,1.37.97-.53.97-1.37ZM233.71,36.32l.43-.03c.13.35.45.52.84.52.15,0,.26-.02.35-.05l.08.32c-.1.04-.27.08-.47.08-.63,0-1.06-.36-1.23-.84Z"/>
    <path class="cls-1" d="M235.97,35.44v-1.54h.41v1.49c0,.45.14.65.46.65.25,0,.42-.12.65-.41v-1.73h.41v2.43h-.34l-.04-.38h-.01c-.23.27-.47.44-.8.44-.51,0-.74-.33-.74-.95Z"/>
    <path class="cls-1" d="M238.54,35.11c0-.79.53-1.28,1.09-1.28.62,0,.97.45.97,1.14,0,.09,0,.17-.02.23h-1.64c.03.51.34.85.81.85.23,0,.43-.08.61-.19l.15.27c-.21.14-.47.25-.8.25-.65,0-1.16-.47-1.16-1.27ZM240.24,34.92c0-.49-.22-.75-.6-.75-.34,0-.65.27-.7.75h1.3Z"/>
    <path class="cls-1" d="M240.93,36.05l.2-.27c.21.17.43.29.72.29.32,0,.48-.17.48-.38,0-.25-.29-.36-.56-.46-.34-.12-.73-.29-.73-.7,0-.39.31-.69.84-.69.3,0,.57.12.76.27l-.2.26c-.17-.12-.34-.22-.55-.22-.31,0-.45.16-.45.35,0,.23.26.32.54.42.35.13.74.28.74.74,0,.39-.31.72-.89.72-.35,0-.68-.15-.91-.34Z"/>
    <path class="cls-1" d="M243.27,35.58v-1.35h-.36v-.31l.38-.02.05-.68h.34v.68h.66v.33h-.66v1.35c0,.3.1.47.38.47.09,0,.2-.03.28-.07l.08.31c-.14.05-.3.09-.45.09-.52,0-.69-.33-.69-.81Z"/>
    <path class="cls-1" d="M244.81,33.13c0-.16.12-.27.28-.27s.28.1.28.27-.12.27-.28.27-.28-.11-.28-.27ZM244.89,33.9h.41v2.43h-.41v-2.43Z"/>
    <path class="cls-1" d="M245.94,35.11c0-.81.53-1.28,1.13-1.28s1.13.47,1.13,1.28-.53,1.27-1.13,1.27-1.13-.47-1.13-1.27ZM247.77,35.11c0-.56-.28-.94-.7-.94s-.7.38-.7.94.28.93.7.93.7-.37.7-.93Z"/>
    <path class="cls-1" d="M248.83,33.9h.34l.03.35h.01c.23-.23.48-.41.82-.41.51,0,.74.33.74.95v1.54h-.41v-1.49c0-.45-.14-.65-.46-.65-.25,0-.42.13-.67.37v1.76h-.41v-2.43Z"/>
    <path class="cls-1" d="M251.29,36.05l.2-.27c.21.17.43.29.72.29.32,0,.48-.17.48-.38,0-.25-.29-.36-.56-.46-.34-.12-.73-.29-.73-.7,0-.39.31-.69.84-.69.3,0,.57.12.76.27l-.2.26c-.17-.12-.34-.22-.55-.22-.31,0-.45.16-.45.35,0,.23.26.32.54.42.35.13.74.28.74.74,0,.39-.31.72-.89.72-.35,0-.68-.15-.91-.34Z"/>
    <path class="cls-1" d="M202.13,40.69c0-1.06.64-1.71,1.51-1.71.46,0,.75.21.95.41l-.23.27c-.17-.17-.38-.31-.71-.31-.66,0-1.09.51-1.09,1.33s.39,1.34,1.09,1.34c.24,0,.46-.07.59-.19v-.86h-.7v-.35h1.08v1.38c-.21.22-.57.38-1.01.38-.87,0-1.48-.63-1.48-1.7Z"/>
    <path class="cls-1" d="M205.19,41.11c0-.79.53-1.28,1.09-1.28.62,0,.97.45.97,1.14,0,.09,0,.17-.02.23h-1.64c.03.51.34.85.81.85.23,0,.43-.08.61-.19l.15.27c-.21.14-.47.25-.8.25-.65,0-1.16-.47-1.16-1.27ZM206.89,40.92c0-.49-.22-.75-.6-.75-.34,0-.65.27-.7.75h1.3Z"/>
    <path class="cls-1" d="M207.85,39.9h.34l.03.35h.01c.23-.23.48-.41.82-.41.51,0,.74.33.74.95v1.54h-.41v-1.49c0-.45-.14-.65-.46-.65-.25,0-.42.13-.67.37v1.76h-.41v-2.43Z"/>
    <path class="cls-1" d="M210.4,41.11c0-.79.53-1.28,1.09-1.28.62,0,.97.45.97,1.14,0,.09,0,.17-.02.23h-1.64c.03.51.34.85.81.85.23,0,.43-.08.61-.19l.15.27c-.21.14-.47.25-.8.25-.65,0-1.16-.47-1.16-1.27ZM212.1,40.92c0-.49-.22-.75-.6-.75-.34,0-.65.27-.7.75h1.3Z"/>
    <path class="cls-1" d="M213.06,39.9h.34l.03.44h.01c.17-.31.42-.5.69-.5.11,0,.18.01.26.05l-.08.36c-.08-.03-.14-.04-.24-.04-.21,0-.45.15-.62.56v1.56h-.41v-2.43Z"/>
    <path class="cls-1" d="M214.53,41.7c0-.53.46-.79,1.49-.91,0-.31-.1-.62-.5-.62-.28,0-.54.13-.73.26l-.16-.28c.22-.15.56-.32.96-.32.59,0,.84.39.84,1v1.49h-.34l-.03-.29h-.01c-.23.19-.5.35-.8.35-.41,0-.71-.25-.71-.69ZM216.02,41.73v-.68c-.82.1-1.09.3-1.09.61,0,.28.19.39.43.39s.43-.11.66-.32Z"/>
    <path class="cls-1" d="M217.2,41.84v-3.08h.41v3.11c0,.13.05.18.11.18.02,0,.04,0,.09-.01l.06.31c-.06.02-.13.04-.24.04-.31,0-.44-.2-.44-.55Z"/>
    <path class="cls-1" d="M218.4,39.13c0-.16.12-.27.28-.27s.28.1.28.27-.12.27-.28.27-.28-.11-.28-.27ZM218.48,39.9h.41v2.43h-.41v-2.43Z"/>
    <path class="cls-1" d="M219.45,42.11l1.28-1.88h-1.14v-.33h1.66v.22l-1.28,1.88h1.32v.33h-1.84v-.22Z"/>
    <path class="cls-1" d="M221.56,41.7c0-.53.46-.79,1.49-.91,0-.31-.1-.62-.5-.62-.28,0-.54.13-.73.26l-.16-.28c.22-.15.56-.32.96-.32.59,0,.84.39.84,1v1.49h-.34l-.03-.29h-.01c-.23.19-.5.35-.8.35-.41,0-.71-.25-.71-.69ZM223.06,41.73v-.68c-.82.1-1.09.3-1.09.61,0,.28.19.39.43.39s.43-.11.66-.32Z"/>
    <path class="cls-1" d="M224.62,42.08h-.01l-.04.25h-.33v-3.57h.41v1.41c.21-.19.48-.34.75-.34.63,0,.97.49.97,1.24,0,.83-.5,1.31-1.05,1.31-.23,0-.48-.12-.69-.31ZM225.94,41.08c0-.54-.18-.9-.64-.9-.21,0-.42.11-.65.33v1.28c.21.18.43.25.59.25.4,0,.7-.36.7-.96Z"/>
    <path class="cls-1" d="M226.98,41.84v-3.08h.41v3.11c0,.13.05.18.11.18.02,0,.04,0,.09-.01l.06.31c-.06.02-.13.04-.24.04-.31,0-.44-.2-.44-.55Z"/>
    <path class="cls-1" d="M228.07,41.11c0-.79.53-1.28,1.09-1.28.62,0,.97.45.97,1.14,0,.09,0,.17-.02.23h-1.64c.03.51.34.85.81.85.23,0,.43-.08.61-.19l.15.27c-.21.14-.47.25-.8.25-.65,0-1.16-.47-1.16-1.27ZM229.77,40.92c0-.49-.22-.75-.6-.75-.34,0-.65.27-.7.75h1.3Z"/>
    <path class="cls-1" d="M231.77,39.04h.42v1.65h.01l1.36-1.65h.47l-1.03,1.25,1.19,2.03h-.47l-.98-1.71-.56.67v1.04h-.42v-3.29Z"/>
    <path class="cls-1" d="M234.63,39.9h.34l.03.35h.01c.23-.23.48-.41.82-.41.51,0,.74.33.74.95v1.54h-.41v-1.49c0-.45-.14-.65-.46-.65-.25,0-.42.13-.67.37v1.76h-.41v-2.43Z"/>
    <path class="cls-1" d="M237.18,41.11c0-.81.53-1.28,1.13-1.28s1.13.47,1.13,1.28-.53,1.27-1.13,1.27-1.13-.47-1.13-1.27ZM239.01,41.11c0-.56-.28-.94-.7-.94s-.7.38-.7.94.28.93.7.93.7-.37.7-.93Z"/>
    <path class="cls-1" d="M239.76,39.9h.42l.36,1.41c.05.23.1.45.14.68h.02c.05-.23.11-.45.17-.68l.38-1.41h.4l.38,1.41c.06.23.11.45.17.68h.02c.05-.23.1-.45.15-.68l.35-1.41h.39l-.65,2.43h-.5l-.35-1.31c-.06-.23-.11-.45-.16-.7h-.02c-.05.25-.1.48-.17.71l-.34,1.3h-.48l-.68-2.43Z"/>
    <path class="cls-1" d="M243.64,41.84v-3.08h.41v3.11c0,.13.05.18.11.18.02,0,.04,0,.09-.01l.06.31c-.06.02-.13.04-.24.04-.31,0-.44-.2-.44-.55Z"/>
    <path class="cls-1" d="M244.74,41.11c0-.79.53-1.28,1.09-1.28.62,0,.97.45.97,1.14,0,.09,0,.17-.02.23h-1.64c.03.51.34.85.81.85.23,0,.43-.08.61-.19l.15.27c-.21.14-.47.25-.8.25-.65,0-1.16-.47-1.16-1.27ZM246.44,40.92c0-.49-.22-.75-.6-.75-.34,0-.65.27-.7.75h1.3Z"/>
    <path class="cls-1" d="M247.23,41.11c0-.79.5-1.28,1.05-1.28.28,0,.47.11.68.28l-.02-.42v-.94h.41v3.57h-.34l-.03-.29h-.01c-.19.19-.45.35-.74.35-.61,0-1-.46-1-1.27ZM248.94,41.71v-1.28c-.21-.18-.39-.25-.59-.25-.39,0-.7.38-.7.93,0,.58.24.93.67.93.23,0,.42-.11.62-.33Z"/>
    <path class="cls-1" d="M249.99,42.8c0-.21.13-.41.36-.55v-.02c-.12-.08-.22-.21-.22-.4,0-.2.14-.36.27-.45v-.02c-.16-.13-.31-.36-.31-.65,0-.53.42-.87.91-.87.13,0,.26.03.34.06h.85v.32h-.5c.11.11.2.29.2.5,0,.52-.39.84-.89.84-.12,0-.25-.03-.36-.08-.09.07-.15.15-.15.29,0,.15.1.26.43.26h.47c.57,0,.85.18.85.58,0,.45-.48.84-1.23.84-.6,0-1.01-.23-1.01-.65ZM251.82,42.67c0-.22-.17-.3-.49-.3h-.42c-.09,0-.21,0-.32-.04-.17.12-.25.27-.25.41,0,.26.26.43.71.43.46,0,.77-.24.77-.5ZM251.51,40.7c0-.35-.23-.57-.52-.57s-.52.21-.52.57.24.58.52.58.52-.22.52-.58Z"/>
    <path class="cls-1" d="M252.44,41.11c0-.79.53-1.28,1.09-1.28.62,0,.97.45.97,1.14,0,.09,0,.17-.02.23h-1.64c.03.51.34.85.81.85.23,0,.43-.08.61-.19l.15.27c-.21.14-.47.25-.8.25-.65,0-1.16-.47-1.16-1.27ZM254.14,40.92c0-.49-.22-.75-.6-.75-.34,0-.65.27-.7.75h1.3Z"/>
  </g>
  <g>
    <path class="cls-3" d="M2.56,62.15h2.08v.39h-1.62v1.22h1.37v.39h-1.37v1.61h-.46v-3.61Z"/>
    <path class="cls-3" d="M5.16,62.24c0-.18.14-.29.31-.29s.31.11.31.29-.14.29-.31.29-.31-.12-.31-.29ZM5.24,63.08h.45v2.67h-.45v-2.67Z"/>
    <path class="cls-3" d="M6.39,66.26c0-.23.15-.44.39-.6v-.02c-.14-.08-.24-.23-.24-.44,0-.22.16-.4.29-.5v-.02c-.18-.14-.35-.4-.35-.72,0-.58.46-.95,1-.95.15,0,.28.03.38.07h.93v.35h-.55c.13.12.22.32.22.55,0,.57-.43.93-.98.93-.13,0-.28-.03-.4-.09-.1.08-.17.17-.17.32,0,.17.11.29.47.29h.52c.62,0,.93.19.93.64,0,.5-.52.92-1.35.92-.65,0-1.1-.26-1.1-.72ZM8.4,66.12c0-.25-.19-.33-.54-.33h-.46c-.1,0-.23-.01-.35-.04-.19.13-.27.29-.27.45,0,.29.29.47.77.47.51,0,.84-.27.84-.54ZM8.06,63.97c0-.39-.25-.62-.57-.62s-.57.23-.57.62.26.63.57.63.57-.25.57-.63Z"/>
    <path class="cls-3" d="M9.33,64.77v-1.69h.45v1.63c0,.5.15.71.5.71.27,0,.46-.14.71-.45v-1.89h.45v2.67h-.37l-.04-.42h-.01c-.25.29-.51.48-.88.48-.56,0-.82-.36-.82-1.04Z"/>
    <path class="cls-3" d="M12.36,63.08h.37l.04.49h.02c.19-.34.46-.55.76-.55.12,0,.2.02.29.05l-.08.4c-.09-.03-.15-.04-.26-.04-.23,0-.49.16-.68.61v1.71h-.45v-2.67Z"/>
    <path class="cls-3" d="M14.01,64.42c0-.87.59-1.4,1.2-1.4.68,0,1.07.49,1.07,1.25,0,.1,0,.19-.02.26h-1.8c.03.57.38.93.89.93.26,0,.47-.08.66-.21l.16.3c-.23.15-.52.28-.88.28-.71,0-1.28-.52-1.28-1.4ZM15.88,64.2c0-.54-.24-.83-.66-.83-.38,0-.71.3-.77.83h1.42Z"/>
    <path class="cls-3" d="M18.02,65.37h.8v-2.58h-.64v-.29c.32-.06.55-.14.75-.26h.35v3.13h.72v.38h-1.98v-.38Z"/>
    <path class="cls-3" d="M20.68,63.49c0-.21.15-.35.33-.35s.33.14.33.35-.15.34-.33.34-.33-.14-.33-.34ZM20.68,65.47c0-.21.15-.35.33-.35s.33.14.33.35-.15.34-.33.34-.33-.14-.33-.34Z"/>
    <path class="cls-3" d="M24.03,62.53h-1.09v-.39h2.64v.39h-1.09v3.22h-.46v-3.22Z"/>
    <path class="cls-3" d="M26.19,61.84h.45v1.07l-.02.55c.25-.24.52-.44.89-.44.56,0,.82.36.82,1.04v1.69h-.45v-1.63c0-.5-.15-.71-.5-.71-.27,0-.46.14-.73.41v1.93h-.45v-3.91Z"/>
    <path class="cls-3" d="M28.98,64.42c0-.87.59-1.4,1.2-1.4.68,0,1.07.49,1.07,1.25,0,.1,0,.19-.02.26h-1.8c.03.57.38.93.89.93.26,0,.47-.08.66-.21l.16.3c-.23.15-.52.28-.88.28-.71,0-1.28-.52-1.28-1.4ZM30.85,64.2c0-.54-.24-.83-.66-.83-.38,0-.71.3-.77.83h1.42Z"/>
    <path class="cls-3" d="M33.8,62.53h-1.09v-.39h2.64v.39h-1.09v3.22h-.46v-3.22Z"/>
    <path class="cls-3" d="M35.39,64.42c0-.89.58-1.4,1.24-1.4s1.24.51,1.24,1.4-.58,1.4-1.24,1.4-1.24-.51-1.24-1.4ZM37.4,64.42c0-.61-.31-1.03-.77-1.03s-.77.42-.77,1.03.31,1.02.77,1.02.77-.41.77-1.02Z"/>
    <path class="cls-3" d="M38.38,64.42c0-.89.58-1.4,1.24-1.4s1.24.51,1.24,1.4-.58,1.4-1.24,1.4-1.24-.51-1.24-1.4ZM40.38,64.42c0-.61-.31-1.03-.77-1.03s-.77.42-.77,1.03.31,1.02.77,1.02.77-.41.77-1.02Z"/>
    <path class="cls-3" d="M41.53,65.21v-3.38h.45v3.41c0,.14.06.19.13.19.03,0,.05,0,.1-.01l.06.34c-.06.02-.14.04-.26.04-.34,0-.48-.22-.48-.6Z"/>
    <path class="cls-3" d="M42.71,64.2h1.26v.35h-1.26v-.35Z"/>
    <path class="cls-3" d="M44.33,65.28l.27-.31c.26.27.62.45.99.45.47,0,.75-.24.75-.59,0-.37-.26-.49-.6-.63l-.52-.23c-.34-.14-.73-.4-.73-.93s.48-.96,1.13-.96c.43,0,.81.18,1.06.45l-.24.29c-.22-.21-.48-.34-.82-.34-.4,0-.67.2-.67.53,0,.35.31.48.6.6l.51.22c.42.18.74.43.74.96,0,.57-.47,1.03-1.23,1.03-.51,0-.95-.21-1.26-.54Z"/>
    <path class="cls-3" d="M47.29,64.42c0-.89.6-1.4,1.28-1.4.35,0,.59.14.78.31l-.23.3c-.16-.14-.32-.24-.53-.24-.48,0-.84.42-.84,1.03s.33,1.02.83,1.02c.24,0,.46-.12.63-.27l.2.3c-.24.21-.54.34-.86.34-.71,0-1.25-.51-1.25-1.4Z"/>
    <path class="cls-3" d="M49.91,62.24c0-.18.14-.29.31-.29s.31.11.31.29-.14.29-.31.29-.31-.12-.31-.29ZM50,63.08h.45v2.67h-.45v-2.67Z"/>
    <path class="cls-3" d="M51.15,64.42c0-.87.59-1.4,1.2-1.4.68,0,1.07.49,1.07,1.25,0,.1,0,.19-.02.26h-1.8c.03.57.38.93.89.93.26,0,.47-.08.66-.21l.16.3c-.23.15-.52.28-.88.28-.71,0-1.28-.52-1.28-1.4ZM53.02,64.2c0-.54-.24-.83-.66-.83-.38,0-.71.3-.77.83h1.42Z"/>
    <path class="cls-3" d="M54.08,63.08h.37l.04.38h.02c.25-.25.53-.45.9-.45.56,0,.82.36.82,1.04v1.69h-.45v-1.63c0-.5-.15-.71-.5-.71-.27,0-.46.14-.73.41v1.93h-.45v-2.67Z"/>
    <path class="cls-3" d="M56.89,64.42c0-.89.6-1.4,1.28-1.4.35,0,.59.14.78.31l-.23.3c-.16-.14-.32-.24-.53-.24-.48,0-.84.42-.84,1.03s.33,1.02.83,1.02c.24,0,.46-.12.63-.27l.2.3c-.24.21-.54.34-.86.34-.71,0-1.25-.51-1.25-1.4Z"/>
    <path class="cls-3" d="M59.28,64.42c0-.87.59-1.4,1.2-1.4.68,0,1.07.49,1.07,1.25,0,.1,0,.19-.02.26h-1.8c.03.57.38.93.89.93.26,0,.47-.08.66-.21l.16.3c-.23.15-.52.28-.88.28-.71,0-1.28-.52-1.28-1.4ZM61.15,64.2c0-.54-.24-.83-.66-.83-.38,0-.71.3-.77.83h1.42Z"/>
    <path class="cls-3" d="M63.14,63.95c0-1.16.69-1.87,1.6-1.87.44,0,.78.21.99.44l-.25.3c-.19-.2-.43-.34-.73-.34-.68,0-1.13.56-1.13,1.46s.43,1.47,1.12,1.47c.34,0,.61-.15.84-.4l.25.29c-.28.33-.64.52-1.11.52-.9,0-1.57-.7-1.57-1.87Z"/>
    <path class="cls-3" d="M66.25,64.42c0-.89.58-1.4,1.24-1.4s1.24.51,1.24,1.4-.58,1.4-1.24,1.4-1.24-.51-1.24-1.4ZM68.26,64.42c0-.61-.31-1.03-.77-1.03s-.77.42-.77,1.03.31,1.02.77,1.02.77-.41.77-1.02Z"/>
    <path class="cls-3" d="M69.43,63.08h.37l.04.38h.02c.25-.25.53-.45.9-.45.56,0,.82.36.82,1.04v1.69h-.45v-1.63c0-.5-.15-.71-.5-.71-.27,0-.46.14-.73.41v1.93h-.45v-2.67Z"/>
    <path class="cls-3" d="M72.52,64.93v-1.48h-.4v-.34l.42-.03.05-.75h.38v.75h.72v.37h-.72v1.48c0,.33.11.52.41.52.09,0,.22-.04.3-.07l.09.34c-.15.05-.33.1-.5.1-.57,0-.76-.36-.76-.89Z"/>
    <path class="cls-3" d="M74.21,62.24c0-.18.14-.29.31-.29s.31.11.31.29-.14.29-.31.29-.31-.12-.31-.29ZM74.3,63.08h.45v2.67h-.45v-2.67Z"/>
    <path class="cls-3" d="M75.65,63.08h.37l.04.38h.02c.25-.25.53-.45.9-.45.56,0,.82.36.82,1.04v1.69h-.45v-1.63c0-.5-.15-.71-.5-.71-.27,0-.46.14-.73.41v1.93h-.45v-2.67Z"/>
    <path class="cls-3" d="M78.62,64.77v-1.69h.45v1.63c0,.5.15.71.5.71.27,0,.46-.14.72-.45v-1.89h.45v2.67h-.37l-.04-.42h-.01c-.25.29-.51.48-.88.48-.56,0-.82-.36-.82-1.04Z"/>
    <path class="cls-3" d="M81.61,64.77v-1.69h.45v1.63c0,.5.15.71.5.71.27,0,.46-.14.71-.45v-1.89h.45v2.67h-.37l-.04-.42h-.01c-.25.29-.51.48-.88.48-.56,0-.82-.36-.82-1.04Z"/>
    <path class="cls-3" d="M84.64,63.08h.37l.04.39h.02c.23-.25.51-.45.83-.45.41,0,.63.2.74.51.28-.3.56-.51.88-.51.55,0,.81.36.81,1.04v1.69h-.45v-1.63c0-.5-.16-.71-.5-.71-.21,0-.42.14-.67.41v1.93h-.45v-1.63c0-.5-.16-.71-.5-.71-.2,0-.42.14-.67.41v1.93h-.45v-2.67Z"/>
  </g>
</svg>